<svg width="150" height="49" viewBox="0 0 150 49" fill="none" xmlns="http://www.w3.org/2000/svg">
<path fill-rule="evenodd" clip-rule="evenodd" d="M0 0H57.2488V48.0221H0V0Z" fill="#1E447F"/>
<path fill-rule="evenodd" clip-rule="evenodd" d="M5.495 14.7684H15.8658C16.2652 14.7684 16.5912 15.0767 16.5912 15.4533V18.5836C16.5912 18.9602 16.2652 19.2677 15.8658 19.2677H13.7192V27.777H15.8666C16.2652 27.777 16.5921 28.0853 16.5929 28.4628V31.593C16.592 31.7743 16.5152 31.948 16.3792 32.0761C16.2431 32.2043 16.0589 32.2765 15.8666 32.2772H5.495C5.30273 32.2767 5.11847 32.2045 4.98251 32.0763C4.84656 31.9481 4.76998 31.7743 4.76953 31.593V28.4628C4.76953 28.0853 5.09557 27.777 5.495 27.777H7.77723V19.2669H5.49585C5.30351 19.2665 5.11915 19.1943 4.98306 19.0661C4.84697 18.9379 4.77021 18.7641 4.76953 18.5828V15.4525C4.76953 15.0759 5.09557 14.7684 5.495 14.7684ZM44.1274 32.5693C38.8435 32.5693 34.5333 29.5711 34.5333 23.7188C34.5333 17.8664 38.8435 14.8674 44.1274 14.8674C49.4105 14.8674 53.7206 17.8664 53.7206 23.7188C53.7206 29.5711 49.4114 32.5693 44.1274 32.5693ZM46.8757 23.7188C46.8757 20.5169 46.2628 18.8773 44.1274 18.8773C41.9911 18.8773 41.3783 20.5177 41.3783 23.7188C41.3783 26.9198 41.9911 28.561 44.1274 28.561C46.2628 28.5602 46.8757 26.919 46.8757 23.7188ZM26.5199 21.42C24.7626 20.954 22.9762 20.8461 23.053 19.5414C23.0812 19.0665 23.4729 18.5345 24.8163 18.5312C25.6553 18.5296 27.0619 18.7904 28.1518 19.44C29.2758 20.1096 30.0858 21.1117 30.9043 21.1117H32.9108C33.504 21.1117 33.9478 20.3028 33.9478 19.7426V16.1214C33.9478 15.4775 33.4878 15.2698 32.9885 15.2755L31.0246 15.298C29.7299 15.3133 30.3154 16.2784 29.7478 16.478C28.273 16.9987 28.2798 14.9857 24.3478 14.9366C19.9113 14.8819 17.292 17.3199 17.3577 20.1096C17.4396 23.6222 20.2536 24.9076 23.7435 25.9813C25.4786 26.5157 28.3302 26.7878 28.2525 28.0925C28.2243 28.5674 27.8326 29.1003 26.4892 29.1035C25.6502 29.1035 24.2436 28.8443 23.1537 28.1947C22.0297 27.5251 21.2189 26.5222 20.4012 26.5222H18.3947C17.8006 26.5222 17.3577 27.3319 17.3577 27.8913V31.5133C17.3577 32.158 17.8177 32.3657 18.317 32.3592L20.2809 32.3375C21.5756 32.3214 20.991 31.3564 21.5586 31.1567C23.0334 30.6368 23.0257 32.649 26.9577 32.6973C31.395 32.752 34.0135 30.314 33.9487 27.5235C33.8659 24.0109 31.0716 22.6281 26.5199 21.42ZM41.2409 8.98686C40.7024 9.57523 39.924 10.1145 38.9561 10.5846C39.6458 11.5025 40.246 12.4775 40.7493 13.4975H39.8258C39.3585 12.5985 38.8117 11.7383 38.1914 10.9258C37.6921 11.1295 37.1527 11.3178 36.58 11.4868C35.9399 11.676 35.2562 11.8434 34.5359 11.9843C34.6904 12.3964 34.8372 12.8246 34.9746 13.2681L35.0446 13.4975H34.1791L34.1757 13.4862C34.0351 13.0305 33.8796 12.5791 33.7097 12.1324C32.2007 12.3739 30.674 12.5034 29.1435 12.5195V13.4975H28.3088V12.5195C26.7786 12.5038 25.2521 12.3743 23.7435 12.1324C23.5723 12.5831 23.4158 13.0386 23.2741 13.4983H22.4086C22.4308 13.421 22.4547 13.3453 22.4786 13.2689C22.616 12.8254 22.7628 12.3964 22.9182 11.9843C22.1605 11.8375 21.412 11.6515 20.676 11.4273C20.1969 11.2816 19.7256 11.1143 19.2635 10.9258C18.6757 11.6955 18.1537 12.5081 17.7025 13.3558L17.6274 13.4975H16.7039C17.208 12.4777 17.8084 11.5028 18.4979 10.5846C17.5309 10.1145 16.7525 9.57604 16.214 8.98686C14.5425 10.2651 13.0994 11.788 11.9397 13.4975H10.9573C14.5949 7.81816 21.2035 4.00781 28.727 4.00781C36.2505 4.00781 42.8591 7.81816 46.4967 13.4975H45.5152C44.3547 11.7885 42.9117 10.2657 41.2409 8.98686ZM23.3594 5.49203C23.7204 5.83008 24.2462 6.13272 24.8923 6.37902C25.9344 6.77663 27.2693 7.01569 28.727 7.01569C30.0772 7.01569 31.3225 6.81124 32.3253 6.46514C33.0781 6.20597 33.6884 5.87194 34.0946 5.49203C32.3859 5.03888 30.5851 4.7958 28.7262 4.7958C26.8673 4.7958 25.0673 5.03888 23.3594 5.49203ZM23.2288 6.41202C22.9504 6.22235 22.7008 5.99757 22.4872 5.74396C20.4706 6.3752 18.5743 7.307 16.8703 8.50393C17.3594 9.03113 18.0857 9.51889 19.0006 9.9479C20.2305 8.4677 21.6593 7.26279 23.2288 6.41202ZM25.5964 7.42779C25.2521 7.34022 24.9135 7.23352 24.5825 7.10825C24.4028 7.03981 24.226 6.9649 24.0525 6.88368C22.4701 7.66282 21.0251 8.82427 19.7841 10.2827C20.146 10.4244 20.5301 10.5572 20.9347 10.6812C21.6388 10.8977 22.4035 11.086 23.2152 11.2406C23.8894 9.64043 24.6968 8.33812 25.5964 7.42779ZM28.3088 7.79643C27.7232 7.77991 27.1397 7.72396 26.5626 7.62901C25.6178 8.4339 24.7617 9.72656 24.0473 11.3838C25.3728 11.5915 26.8084 11.7138 28.3088 11.7331V7.79643ZM30.8906 7.62901C30.3132 7.7236 29.7294 7.77955 29.1435 7.79643V11.7331C30.5716 11.7179 31.9964 11.6012 33.4059 11.3838C32.6915 9.72736 31.8354 8.4339 30.8906 7.62901ZM33.4007 6.88288C33.1541 6.99959 32.8886 7.10583 32.6087 7.20242C32.3697 7.28452 32.1188 7.36018 31.8576 7.42779C32.7572 8.33812 33.5646 9.64043 34.2389 11.2389C34.9455 11.1058 35.6443 10.9381 36.3325 10.7367C36.7855 10.604 37.2321 10.4522 37.6708 10.2819C36.4289 8.82347 34.984 7.66201 33.4007 6.88288ZM34.9669 5.74476C34.7531 5.99857 34.5032 6.22337 34.2244 6.41282C35.7939 7.2644 37.2235 8.46851 38.4517 9.9487C39.3666 9.5205 40.093 9.03274 40.5829 8.50553C38.8794 7.30806 36.9834 6.37596 34.9669 5.74476ZM41.2409 37.8607C40.7024 37.2715 39.924 36.7322 38.9561 36.2622C39.6458 35.3448 40.246 34.3704 40.7493 33.3509H39.8258C39.3585 34.2501 38.8117 35.1106 38.1914 35.9233C37.665 35.7099 37.1271 35.5227 36.58 35.3623C35.9075 35.1653 35.2254 34.999 34.5359 34.8641C34.6904 34.452 34.8372 34.0246 34.9746 33.5811L35.0446 33.3517H34.1791L34.1757 33.3629C34.0349 33.8186 33.8795 34.27 33.7097 34.7168C32.2008 34.4747 30.674 34.3455 29.1435 34.3304V33.3525H28.3088V34.3304C26.7786 34.3455 25.2521 34.4747 23.7435 34.7168C23.5719 34.2665 23.4154 33.8112 23.2741 33.3517H22.4086C22.4308 33.4289 22.4547 33.5038 22.4786 33.5811C22.616 34.0246 22.7628 34.4536 22.9182 34.8657C22.1227 35.021 21.3716 35.2086 20.676 35.4219C20.1768 35.574 19.7048 35.7422 19.2635 35.9233C18.6759 35.1532 18.1539 34.3404 17.7025 33.4925L17.6274 33.3509H16.7039C17.208 34.3702 17.8084 35.3445 18.4979 36.2622C17.5309 36.7322 16.7525 37.2715 16.214 37.8607C14.5421 36.5829 13.099 35.0599 11.9397 33.3501H10.9573C14.5949 39.0286 21.2035 42.8389 28.727 42.8389C36.2505 42.8389 42.8591 39.0286 46.4967 33.3501H45.5152C44.3552 35.0594 42.9121 36.5822 41.2409 37.8607ZM23.3594 41.3555C23.7204 41.0174 24.2462 40.7156 24.8923 40.4685C25.9344 40.0709 27.2693 39.8335 28.727 39.8335C30.0772 39.8335 31.3225 40.0379 32.3253 40.3824C33.0781 40.6416 33.6884 40.9764 34.0946 41.3555C32.3859 41.8095 30.5851 42.0517 28.7262 42.0517C26.8673 42.0517 25.0673 41.8078 23.3594 41.3555ZM23.2288 40.4355C22.9502 40.6249 22.7006 40.8498 22.4872 41.1036C20.4704 40.4724 18.5741 39.5403 16.8703 38.3428C17.3594 37.8164 18.0857 37.3286 19.0006 36.8996C20.2305 38.3806 21.6593 39.5855 23.2288 40.4355ZM25.5964 39.4197C25.2521 39.5071 24.9135 39.6135 24.5825 39.7385C24.4031 39.8076 24.2263 39.8825 24.0525 39.963C22.4701 39.1847 21.0251 38.0233 19.7841 36.564C20.146 36.4223 20.5301 36.2903 20.9347 36.1664C21.6388 35.9491 22.4035 35.7607 23.2152 35.607C23.8894 37.2079 24.6968 38.5102 25.5964 39.4197ZM28.3088 39.0503C27.702 39.0688 27.1156 39.1276 26.5626 39.2185C25.6178 38.4136 24.7617 37.1218 24.0473 35.4629C25.4568 35.2476 26.8811 35.1308 28.3088 35.1136V39.0503ZM30.8906 39.2185C30.3131 39.1241 29.7293 39.0678 29.1435 39.0503V35.1136C30.6448 35.1337 32.0795 35.2552 33.4059 35.4629C32.6915 37.1202 31.8354 38.4136 30.8906 39.2185ZM33.4007 39.9638C33.1432 39.8438 32.8788 39.7374 32.6087 39.6451C32.3697 39.563 32.1188 39.4882 31.8576 39.4205C32.7572 38.5102 33.5646 37.2087 34.2389 35.6086C34.9797 35.7502 35.6796 35.9185 36.3325 36.1116C36.8062 36.2517 37.2534 36.4038 37.6708 36.5656C36.4289 38.0241 34.984 39.1855 33.4007 39.9638ZM34.9669 41.1036C34.7536 40.8494 34.5036 40.6245 34.2244 40.4355C35.7939 39.5847 37.2235 38.379 38.4517 36.8996C39.3666 37.3286 40.093 37.8164 40.5829 38.3428C38.879 39.5397 36.9831 40.4717 34.9669 41.1036Z" fill="white"/>
<path fill-rule="evenodd" clip-rule="evenodd" d="M71.0611 14.4044H69.9234V6.99462H71.0611V14.4044ZM73.4466 14.4044H72.378V8.80643H73.4039V9.4439C73.6267 9.19197 73.8716 9.00765 74.1405 8.89094C74.4296 8.76988 74.7434 8.70999 75.0597 8.71548C75.8372 8.71548 76.4338 8.93119 76.8495 9.3618C77.2651 9.79242 77.4725 10.4106 77.4725 11.2147V14.4036H76.3997V11.4336C76.3997 10.8396 76.2827 10.3985 76.0497 10.112C75.815 9.82542 75.4523 9.68215 74.9624 9.68215C74.4298 9.68215 74.0449 9.85118 73.8059 10.1884C73.5661 10.5265 73.4474 11.0827 73.4474 11.861L73.4466 14.4044ZM79.083 14.4044V9.72159H78.2432V8.80643H79.083V6.99462H80.1465V8.80643H80.988V9.72159H80.1465V14.4044H79.083ZM86.3778 11.0722C86.2447 10.611 86.0142 10.2528 85.6857 10.0009C85.3588 9.74734 84.9687 9.62017 84.5121 9.62017C84.0435 9.62017 83.639 9.75057 83.2933 10.0089C82.9519 10.2697 82.7129 10.6239 82.5849 11.0714L86.3778 11.0722ZM82.5525 11.9777C82.6421 12.4445 82.8674 12.8252 83.2242 13.115C83.5826 13.4048 84.0077 13.5496 84.501 13.5496C84.8526 13.5496 85.1727 13.4692 85.4646 13.3098C85.7531 13.152 85.9827 12.9259 86.1568 12.6345H87.3602C87.0871 13.2551 86.703 13.7299 86.2131 14.0591C85.7215 14.3875 85.1514 14.5517 84.501 14.5517C84.0878 14.5566 83.6778 14.4824 83.2959 14.3336C82.9231 14.1805 82.5874 13.9573 82.3092 13.6776C81.7479 13.1154 81.4324 12.374 81.4259 11.6018C81.4259 11.2074 81.4976 10.8396 81.6392 10.4975C81.7809 10.1554 81.9909 9.84313 82.2674 9.56142C82.561 9.25556 82.8939 9.02616 83.2643 8.87162C83.6364 8.71709 84.041 8.64062 84.4797 8.64062C84.9994 8.64062 85.4851 8.75572 85.9332 8.98431C86.3812 9.2137 86.75 9.53325 87.0436 9.94293C87.2134 10.1981 87.344 10.4758 87.4251 10.78C87.5087 11.0843 87.5488 11.432 87.5488 11.8199V11.9785L82.5525 11.9777ZM89.5571 14.4044H88.4885V8.80643H89.4922V9.45276C89.6689 9.20565 89.872 9.02214 90.1008 8.90221C90.3295 8.78228 90.5941 8.7195 90.8962 8.71628V9.76908C90.4174 9.80369 90.0743 9.93569 89.8678 10.1683C89.6612 10.4009 89.5579 10.7744 89.5579 11.2903L89.5571 14.4044ZM92.7389 14.4044H91.6703V8.80643H92.6971V9.4439C92.919 9.19197 93.1639 9.00765 93.4336 8.89094C93.7225 8.76977 94.036 8.70987 94.352 8.71548C95.1287 8.71548 95.7253 8.93119 96.1426 9.3618C96.5557 9.79242 96.7648 10.4106 96.7648 11.2147V14.4036H95.6911V11.4336C95.6911 10.8396 95.5742 10.3985 95.3412 10.112C95.1082 9.82542 94.7446 9.68215 94.2547 9.68215C93.723 9.68215 93.3381 9.85118 93.0982 10.1884C92.8601 10.5265 92.7398 11.0827 92.7398 11.861L92.7389 14.4044ZM98.82 11.5696C98.82 12.1355 99.0197 12.6095 99.4166 12.9943C99.8135 13.379 100.298 13.569 100.875 13.569C101.4 13.569 101.864 13.3758 102.264 12.9919C102.664 12.6063 102.866 12.1564 102.866 11.6404C102.866 11.0915 102.666 10.6206 102.271 10.2287C101.872 9.83749 101.4 9.64191 100.854 9.64191C100.292 9.64191 99.8135 9.82703 99.4166 10.2005C99.0197 10.574 98.82 11.0311 98.82 11.5696ZM102.811 14.4044V13.7163C102.554 13.9746 102.243 14.1812 101.899 14.324C101.561 14.4608 101.203 14.5308 100.821 14.5308C99.9287 14.5308 99.1887 14.2491 98.5981 13.6889C98.0084 13.1279 97.713 12.4244 97.713 11.5801C97.713 11.1857 97.7864 10.8122 97.935 10.4597C98.0818 10.1071 98.2917 9.79564 98.5665 9.52842C98.8653 9.23302 99.1896 9.0157 99.5438 8.87484C99.9293 8.72863 100.342 8.65666 100.757 8.66316C101.165 8.66316 101.538 8.73077 101.877 8.86599C102.22 9.00121 102.533 9.20807 102.811 9.48254V8.80562H103.891V14.4036L102.811 14.4044ZM105.493 14.4044V9.72159H104.651V8.80643H105.493V6.99462H106.556V8.80643H107.398V9.72159H106.556V14.4044H105.493ZM109.227 8.14964H108.168V6.99462H109.227V8.14964ZM108.168 14.4044V8.80643H109.227V14.4044H108.168ZM111.262 11.6002C111.262 12.1596 111.449 12.6264 111.826 12.9999C112.2 13.3734 112.669 13.5593 113.23 13.5593C113.781 13.5593 114.241 13.3718 114.612 12.9967C114.986 12.6216 115.17 12.1524 115.17 11.5897C115.17 11.0231 114.985 10.5546 114.612 10.1844C114.24 9.81495 113.777 9.63064 113.218 9.63064C112.664 9.63064 112.2 9.81817 111.825 10.1933C111.449 10.5691 111.262 11.0376 111.262 11.6002ZM110.155 11.6115C110.155 11.2139 110.227 10.8436 110.369 10.4999C110.511 10.1547 110.724 9.83908 110.995 9.57107C111.294 9.26924 111.632 9.03582 112.006 8.87484C112.37 8.71328 112.768 8.62946 113.171 8.62935C113.602 8.62935 114.003 8.7026 114.369 8.84828C114.741 8.99397 115.074 9.20968 115.373 9.49461C115.663 9.77632 115.888 10.0943 116.044 10.4468C116.201 10.7993 116.277 11.164 116.277 11.5414C116.277 11.9238 116.204 12.2964 116.059 12.6602C115.912 13.0232 115.709 13.3412 115.447 13.6116C115.145 13.9247 114.805 14.1606 114.43 14.3223C114.056 14.4841 113.654 14.5638 113.23 14.5638C112.795 14.5638 112.394 14.4914 112.027 14.3433C111.654 14.191 111.317 13.9683 111.039 13.6889C110.76 13.4109 110.539 13.0856 110.388 12.7303C110.235 12.375 110.156 11.9951 110.155 11.6115ZM118.265 14.4044H117.197V8.80643H118.223V9.4439C118.447 9.19197 118.69 9.00765 118.96 8.89094C119.249 8.76994 119.562 8.71005 119.878 8.71548C120.655 8.71548 121.251 8.93119 121.669 9.3618C122.084 9.79242 122.292 10.4106 122.292 11.2147V14.4036H121.216V11.4336C121.216 10.8396 121.101 10.3985 120.868 10.112C120.634 9.82542 120.272 9.68215 119.782 9.68215C119.248 9.68215 118.865 9.85118 118.625 10.1884C118.385 10.5265 118.265 11.0827 118.265 11.861V14.4044ZM124.348 11.5696C124.348 12.1355 124.546 12.6095 124.945 12.9943C125.132 13.1807 125.358 13.3281 125.609 13.4271C125.861 13.5261 126.131 13.5744 126.403 13.569C126.928 13.569 127.39 13.3758 127.792 12.9919C128.19 12.6063 128.392 12.1564 128.392 11.6404C128.397 11.3797 128.346 11.1207 128.244 10.8784C128.142 10.636 127.99 10.4152 127.797 10.2287C127.398 9.83749 126.928 9.64191 126.38 9.64191C125.819 9.64191 125.34 9.82703 124.945 10.2005C124.751 10.378 124.598 10.5911 124.496 10.8267C124.393 11.0622 124.343 11.315 124.348 11.5696ZM128.339 14.4044V13.7163C128.066 13.9843 127.76 14.1871 127.426 14.324C127.085 14.4619 126.719 14.5323 126.349 14.5308C125.457 14.5308 124.717 14.2491 124.125 13.6889C123.535 13.1279 123.242 12.4244 123.242 11.5801C123.242 11.1857 123.315 10.8122 123.462 10.4597C123.611 10.1071 123.819 9.79564 124.094 9.52842C124.392 9.23302 124.718 9.0157 125.072 8.87484C125.457 8.72849 125.869 8.6565 126.284 8.66316C126.691 8.66316 127.064 8.73077 127.405 8.86599C127.747 9.00121 128.059 9.20807 128.339 9.48254V8.80562H129.418V14.4036L128.339 14.4044ZM130.66 14.4044V6.99462H131.716V14.4044H130.66ZM70.7555 23.8973C70.7555 24.2837 70.8238 24.6507 70.9595 24.9944C71.0961 25.3373 71.2932 25.6359 71.5484 25.8854C71.8173 26.1526 72.1288 26.357 72.4804 26.5035C72.8329 26.65 73.1931 26.7217 73.5601 26.7217C74.3726 26.7217 75.052 26.448 75.5991 25.9055C76.1462 25.3598 76.4193 24.6837 76.4193 23.8764C76.4193 23.5343 76.3527 23.2059 76.223 22.8968C76.0879 22.5806 75.893 22.2901 75.6477 22.0396C75.3792 21.7582 75.0532 21.5307 74.6893 21.3708C74.3337 21.2231 73.9486 21.149 73.5601 21.1534C73.1897 21.1534 72.8363 21.2194 72.5026 21.3514C72.1672 21.4834 71.871 21.6758 71.6133 21.9261C71.3427 22.1891 71.1283 22.4987 70.9817 22.8381C70.8315 23.1842 70.7555 23.5367 70.7555 23.8973ZM69.5675 23.8885C69.5675 23.3685 69.6725 22.8775 69.8798 22.4123C70.0934 21.9396 70.4054 21.512 70.7974 21.1551C71.1617 20.8127 71.5934 20.5406 72.0682 20.3542C72.545 20.1699 73.0559 20.0771 73.5712 20.0813C74.12 20.0813 74.6295 20.1715 75.0998 20.3542C75.5809 20.5428 76.0181 20.8184 76.3869 21.1655C76.7872 21.5358 77.0867 21.9487 77.2873 22.4075C77.4887 22.8662 77.5903 23.3596 77.5903 23.8893C77.5903 24.4124 77.5032 24.8986 77.33 25.3405C77.1579 25.783 76.8945 26.189 76.555 26.5349C76.1462 26.9503 75.693 27.2593 75.1911 27.4702C74.677 27.6834 74.1208 27.7912 73.5593 27.7865C72.9972 27.7913 72.4407 27.6821 71.9274 27.4662C71.4132 27.2428 70.9559 26.9178 70.5865 26.5132C70.2524 26.1664 69.9938 25.7611 69.8252 25.3204C69.6517 24.8608 69.5645 24.3763 69.5675 23.8885ZM79.6481 27.6376H78.5795V22.0396H79.5832V22.686C79.7599 22.4389 79.963 22.2553 80.1917 22.1354C80.4205 22.0155 80.685 21.9527 80.9872 21.9495V23.0023C80.5084 23.0369 80.1653 23.1689 79.9587 23.4015C79.7505 23.6341 79.6489 24.0076 79.6489 24.5235V27.6376H79.6481ZM81.8484 28.0852H82.9869C83.1516 28.3459 83.3667 28.5455 83.6373 28.6824C83.9036 28.8192 84.2125 28.89 84.5556 28.89C85.1573 28.89 85.6404 28.7186 86.0074 28.3773C86.3761 28.0361 86.5579 27.5837 86.5579 27.0203V26.9494C86.2996 27.2073 85.9891 27.4137 85.6447 27.5563C85.3049 27.6955 84.938 27.7662 84.5676 27.764C83.6757 27.764 82.9357 27.4823 82.3442 26.9213C81.7562 26.3603 81.4609 25.656 81.4609 24.8133C81.4609 24.4189 81.5343 24.0446 81.6811 23.6921C81.8296 23.3395 82.0395 23.0288 82.3127 22.7608C82.6114 22.4654 82.9374 22.2481 83.2908 22.1072C83.6756 21.9609 84.0878 21.8889 84.5027 21.8955C84.9064 21.8955 85.2777 21.9632 85.6225 22.0984C85.9639 22.2336 86.2805 22.4405 86.569 22.7149V22.038H87.6376V26.708C87.6376 27.6827 87.3696 28.4449 86.8345 28.9971C86.2976 29.5492 85.5593 29.8237 84.6222 29.8237C83.942 29.8237 83.3599 29.6724 82.8785 29.3698C82.3972 29.0663 82.054 28.6389 81.8484 28.0852ZM82.567 24.8028C82.567 25.3686 82.765 25.8435 83.1636 26.2275C83.3507 26.414 83.5772 26.5616 83.8284 26.6607C84.0796 26.7598 84.35 26.8082 84.6222 26.803C85.1471 26.803 85.6088 26.6098 86.0108 26.2259C86.4128 25.8403 86.6108 25.3896 86.6108 24.8736C86.6108 24.3247 86.4145 23.8546 86.016 23.4619C85.6191 23.0715 85.1471 22.8751 84.6009 22.8751C84.041 22.8751 83.5588 23.0602 83.1636 23.4337C82.9702 23.6113 82.8175 23.8245 82.7149 24.06C82.6123 24.2954 82.5619 24.5483 82.567 24.8028ZM89.6834 24.8028C89.6834 25.3686 89.8831 25.8435 90.28 26.2275C90.6769 26.6114 91.1616 26.803 91.7386 26.803C92.2635 26.803 92.7252 26.6098 93.1272 26.2259C93.5275 25.8403 93.7272 25.3896 93.7272 24.8736C93.7272 24.3247 93.5292 23.8546 93.1341 23.4619C92.7355 23.0715 92.2635 22.8751 91.7173 22.8751C91.1557 22.8751 90.6769 23.0602 90.28 23.4337C90.0867 23.6114 89.9341 23.8246 89.8315 24.06C89.7289 24.2955 89.6785 24.5483 89.6834 24.8028ZM93.6743 27.6376V26.9503C93.416 27.2081 93.1055 27.4145 92.7611 27.5571C92.4213 27.6963 92.0544 27.767 91.684 27.7648C90.7921 27.7648 90.0521 27.4831 89.4606 26.9221C88.8726 26.3611 88.5773 25.6568 88.5773 24.8141C88.5773 24.4197 88.6507 24.0454 88.7992 23.6929C88.946 23.3403 89.1559 23.0296 89.4308 22.7616C89.7295 22.4662 90.0538 22.2489 90.408 22.108C90.7929 21.9618 91.205 21.8898 91.62 21.8964C92.0288 21.8964 92.4018 21.964 92.7415 22.0992C93.0846 22.2344 93.3952 22.4413 93.6752 22.7157V22.0388H94.7557V27.6368L93.6743 27.6376ZM97.0627 27.6376H95.9941V22.0396H97.0209V22.6771C97.2445 22.426 97.4877 22.2408 97.7574 22.1249C98.0462 22.0038 98.3597 21.9439 98.6758 21.9495C99.4525 21.9495 100.049 22.1652 100.466 22.5958C100.881 23.0264 101.089 23.6446 101.089 24.4495V27.6376H100.014V24.6684C100.014 24.0744 99.8988 23.6325 99.6641 23.346C99.4311 23.0594 99.0675 22.917 98.5776 22.917C98.0459 22.917 97.661 23.0852 97.422 23.4224C97.1822 23.7613 97.0618 24.3175 97.0618 25.0958V27.6376H97.0627ZM103.397 21.3828H102.341V20.2278H103.397V21.3828ZM102.341 27.6376V22.0396H103.397V27.6376H102.341ZM108.25 27.6376H104.149V26.8231L107.014 22.9548H104.494V22.0396H108.088V23.0731L105.411 26.6911H108.249L108.25 27.6376ZM109.929 24.8028C109.929 25.3686 110.127 25.8435 110.526 26.2275C110.713 26.414 110.939 26.5616 111.19 26.6607C111.442 26.7598 111.712 26.8082 111.984 26.803C112.509 26.803 112.971 26.6098 113.373 26.2259C113.773 25.8403 113.973 25.3896 113.973 24.8736C113.973 24.3247 113.775 23.8546 113.378 23.4619C112.979 23.0715 112.509 22.8751 111.963 22.8751C111.401 22.8751 110.921 23.0602 110.526 23.4337C110.332 23.6112 110.179 23.8243 110.077 24.0598C109.974 24.2954 109.924 24.5482 109.929 24.8028ZM113.919 27.6376V26.9503C113.646 27.2175 113.34 27.4203 113.006 27.5571C112.666 27.6961 112.299 27.7668 111.929 27.7648C111.037 27.7648 110.297 27.4831 109.705 26.9221C109.117 26.3611 108.822 25.6568 108.822 24.8141C108.822 24.4197 108.895 24.0454 109.042 23.6929C109.191 23.3403 109.401 23.0296 109.674 22.7616C109.973 22.4662 110.299 22.2489 110.652 22.108C111.037 21.9617 111.449 21.8897 111.864 21.8964C112.271 21.8964 112.644 21.964 112.985 22.0992C113.327 22.2344 113.639 22.4413 113.919 22.7157V22.0388H114.998V27.6368L113.919 27.6376ZM116.602 27.6376V22.9556H115.76V22.0404H116.602V20.2286H117.663V22.0404H118.505V22.9556H117.663V27.6376H116.602ZM120.334 21.3828H119.277V20.2278H120.334V21.3828ZM119.277 27.6376V22.0396H120.334V27.6376H119.277ZM122.37 24.8342C122.37 25.3936 122.558 25.8604 122.933 26.2331C123.309 26.6074 123.776 26.7925 124.338 26.7925C124.889 26.7925 125.35 26.6058 125.721 26.2299C126.093 25.8556 126.279 25.3856 126.279 24.8229C126.279 24.2571 126.092 23.7886 125.721 23.4176C125.349 23.0481 124.885 22.8638 124.327 22.8638C123.773 22.8638 123.309 23.0514 122.932 23.4264C122.558 23.8023 122.37 24.2716 122.37 24.8342ZM121.263 24.8455C121.263 24.4479 121.334 24.0768 121.476 23.7323C121.618 23.387 121.828 23.0779 122.104 22.8035C122.403 22.5016 122.739 22.2682 123.113 22.1072C123.478 21.946 123.876 21.8625 124.28 21.8625C124.71 21.8625 125.11 21.935 125.478 22.0815C125.854 22.2316 126.195 22.4513 126.48 22.7278C126.772 23.0087 126.995 23.3266 127.152 23.68C127.309 24.0325 127.386 24.3963 127.386 24.7738C127.386 25.1562 127.313 25.5296 127.166 25.8934C127.021 26.2564 126.816 26.5744 126.554 26.8448C126.252 27.1579 125.914 27.3937 125.538 27.5555C125.163 27.7173 124.761 27.7978 124.338 27.7978C123.925 27.8019 123.516 27.7266 123.136 27.5765C122.763 27.4246 122.426 27.2022 122.148 26.9229C121.584 26.3614 121.267 25.6187 121.263 24.8455ZM129.374 27.6376H128.306V22.0396H129.331V22.6771C129.554 22.426 129.799 22.2408 130.067 22.1249C130.335 22.009 130.642 21.9495 130.987 21.9495C131.764 21.9495 132.361 22.1652 132.778 22.5958C133.191 23.0264 133.4 23.6446 133.4 24.4495V27.6376H132.326V24.6684C132.326 24.0744 132.209 23.6325 131.976 23.346C131.743 23.0594 131.38 22.917 130.89 22.917C130.358 22.917 129.973 23.0852 129.733 23.4224C129.495 23.7613 129.375 24.3175 129.375 25.0958V27.6376H129.374ZM139.172 27.6376H138.109V22.9153H137.402V22.0404H138.075V21.8722C138.075 21.3007 138.245 20.8685 138.584 20.5779C138.922 20.2882 139.427 20.1433 140.101 20.1433V21.0746H140.008C139.691 21.0746 139.466 21.1422 139.329 21.2774C139.193 21.4126 139.124 21.6404 139.124 21.9583V22.0404H140.102V22.9153H139.173V27.6376H139.172ZM141.643 24.8342C141.643 25.3936 141.832 25.8604 142.206 26.2331C142.583 26.6074 143.051 26.7925 143.613 26.7925C143.873 26.7977 144.13 26.7502 144.369 26.6531C144.607 26.556 144.821 26.4117 144.995 26.2299C145.369 25.8556 145.553 25.3856 145.553 24.8229C145.553 24.2571 145.368 23.7886 144.995 23.4176C144.623 23.0481 144.159 22.8638 143.601 22.8638C143.046 22.8638 142.583 23.0514 142.206 23.4264C141.832 23.8023 141.643 24.2716 141.643 24.8342ZM140.536 24.8455C140.536 24.4479 140.61 24.0768 140.751 23.7323C140.894 23.387 141.106 23.0715 141.378 22.8035C141.676 22.5016 142.014 22.2682 142.388 22.1072C142.753 21.9459 143.151 21.8624 143.553 21.8625C143.985 21.8625 144.385 21.935 144.753 22.0815C145.124 22.2272 145.455 22.4429 145.755 22.7278C146.045 23.0087 146.271 23.3266 146.427 23.68C146.584 24.0325 146.66 24.3963 146.66 24.7738C146.66 25.1562 146.587 25.5296 146.441 25.8934C146.295 26.2564 146.091 26.5744 145.829 26.8448C145.545 27.1445 145.2 27.3863 144.813 27.5555C144.437 27.7173 144.036 27.7978 143.613 27.7978C143.178 27.7978 142.777 27.7238 142.41 27.5765C142.036 27.4246 141.7 27.2022 141.421 26.9229C141.145 26.6476 140.928 26.3289 140.771 25.9643C140.614 25.5997 140.536 25.2246 140.536 24.8455ZM148.66 27.6376H147.591V22.0396H148.595V22.686C148.771 22.4389 148.975 22.2553 149.203 22.1354C149.432 22.0155 149.697 21.9527 149.999 21.9495V23.0023C149.52 23.0369 149.179 23.1689 148.972 23.4015C148.764 23.6341 148.66 24.0076 148.66 24.5235L148.66 27.6376ZM69.5086 38.7346H70.5294C70.5473 39.1186 70.6676 39.4244 70.8895 39.653C71.1123 39.8808 71.4042 39.9959 71.7592 39.9959C72.151 39.9959 72.4642 39.8808 72.7006 39.653C72.9362 39.4236 73.0548 39.117 73.0548 38.733C73.0548 38.3982 72.9678 38.1374 72.7945 37.9547C72.6238 37.7704 72.2611 37.6014 71.7097 37.4404C71.6609 37.429 71.6123 37.4169 71.5638 37.4042C70.9057 37.2392 70.4295 36.9655 70.135 36.5864C70.0048 36.4254 69.9034 36.2454 69.8346 36.0536C69.7677 35.8592 69.7342 35.6559 69.7356 35.4515C69.7356 34.8164 69.9345 34.3037 70.3339 33.9109C70.7342 33.5214 71.2565 33.3242 71.9052 33.3242C72.506 33.3242 72.99 33.4988 73.3578 33.849C73.7291 34.1999 73.9331 34.682 73.9715 35.2937H72.9089C72.8901 34.9983 72.7851 34.7593 72.5931 34.5766C72.4981 34.4866 72.3846 34.4161 72.2595 34.3693C72.1344 34.3225 72.0004 34.3004 71.8659 34.3045C71.5527 34.3045 71.2984 34.4051 71.1038 34.6064C70.9066 34.8092 70.8085 35.07 70.8085 35.3879C70.8085 35.5014 70.8272 35.6052 70.8622 35.7042C70.8981 35.8032 70.9544 35.8942 71.0295 35.9795C71.184 36.1526 71.5151 36.3015 72.0221 36.4278C72.256 36.4842 72.4361 36.5349 72.5615 36.5759C73.0804 36.7586 73.473 37.0259 73.7419 37.3744C74.009 37.7237 74.1439 38.1431 74.1439 38.6316C74.1439 39.3472 73.9288 39.9235 73.4952 40.3621C73.0642 40.7992 72.4915 41.0173 71.7806 41.0173C71.1097 41.0173 70.5669 40.8064 70.147 40.3887C69.7296 39.9718 69.5163 39.4196 69.5086 38.7346ZM75.4813 40.8708V36.1896H74.6406V35.2728H75.4813V33.4618H76.5448V35.2728H77.3863V36.1896H76.5448V40.8708H75.4813ZM78.961 38.0368C78.961 38.6026 79.1607 39.0775 79.5593 39.4615C79.7464 39.648 79.9729 39.7956 80.2241 39.8947C80.4753 39.9938 80.7457 40.0422 81.0179 40.037C81.5411 40.037 82.0045 39.8438 82.4065 39.4599C82.8051 39.0735 83.0065 38.6252 83.0065 38.1076C83.0065 37.5587 82.8085 37.0886 82.4117 36.6959C82.0131 36.3047 81.5411 36.1091 80.9949 36.1091C80.4333 36.1091 79.9545 36.2942 79.5593 36.6685C79.3655 36.8458 79.2125 37.0587 79.1095 37.2941C79.0066 37.5295 78.9561 37.7823 78.961 38.0368ZM82.9536 40.8708V40.1834C82.6805 40.4507 82.375 40.6535 82.0404 40.7903C81.7 40.9295 81.3326 41.0002 80.9616 40.998C80.0714 40.998 79.3314 40.7163 78.7391 40.1553C78.1493 39.5943 77.854 38.8916 77.854 38.0473C77.854 37.6529 77.9291 37.2786 78.0759 36.9261C78.2227 36.5735 78.4327 36.2628 78.7075 35.9956C79.0062 35.7002 79.3323 35.4829 79.6856 35.342C80.0707 35.1963 80.4827 35.1246 80.8976 35.1312C81.3047 35.1312 81.6777 35.1988 82.0191 35.334C82.3604 35.4692 82.6728 35.6769 82.9528 35.9505V35.2728H84.0316V40.8708H82.9536ZM86.3428 40.8708H85.2743V35.2728H86.2993V35.9111C86.5229 35.66 86.7679 35.474 87.0359 35.3573C87.3039 35.2406 87.6111 35.1827 87.9559 35.1827C88.7326 35.1827 89.3292 35.3984 89.7449 35.829C90.1605 36.2596 90.3679 36.8778 90.3679 37.6827V40.8708H89.2942V37.9016C89.2942 37.3076 89.1773 36.8657 88.9443 36.5792C88.7113 36.2926 88.3477 36.1501 87.8578 36.1501C87.3261 36.1501 86.9411 36.32 86.7013 36.6564C86.4615 36.9945 86.3428 37.5507 86.3428 38.329V40.8708ZM92.424 38.0368C92.424 38.6026 92.622 39.0775 93.0206 39.4615C93.2077 39.648 93.4341 39.7956 93.6853 39.8947C93.9365 39.9938 94.2069 40.0422 94.4792 40.037C95.0041 40.037 95.4658 39.8438 95.8678 39.4599C96.2698 39.0735 96.4678 38.6252 96.4678 38.1076C96.4678 37.5587 96.2715 37.0886 95.8729 36.6959C95.476 36.3047 95.0041 36.1091 94.4578 36.1091C93.8979 36.1091 93.4157 36.2942 93.0206 36.6685C92.8269 36.8457 92.6739 37.0587 92.5713 37.2941C92.4687 37.5295 92.4185 37.7823 92.424 38.0368ZM96.4149 40.8708V40.1834C96.1566 40.4413 95.8461 40.6477 95.5017 40.7903C95.1618 40.9295 94.795 41.0002 94.4245 40.998C93.5326 40.998 92.7927 40.7163 92.2012 40.1553C91.6131 39.5943 91.3178 38.8916 91.3178 38.0473C91.3178 37.6529 91.3912 37.2786 91.5397 36.9261C91.6865 36.5735 91.8965 36.2628 92.1696 35.9956C92.4683 35.7002 92.7944 35.4829 93.1477 35.342C93.5328 35.1963 93.9448 35.1246 94.3597 35.1312C94.7634 35.1312 95.1346 35.1988 95.4795 35.334C95.8226 35.4692 96.1392 35.6769 96.426 35.9505V33.4618H97.4946V40.8708H96.4149ZM99.5404 38.0368C99.5404 38.6026 99.7401 39.0775 100.137 39.4615C100.534 39.8454 101.019 40.037 101.596 40.037C102.12 40.037 102.582 39.8438 102.984 39.4599C103.384 39.0735 103.584 38.6252 103.584 38.1076C103.584 37.5587 103.386 37.0886 102.989 36.6959C102.592 36.3047 102.12 36.1091 101.574 36.1091C101.013 36.1091 100.534 36.2942 100.137 36.6685C99.9436 36.846 99.7909 37.059 99.6883 37.2943C99.5857 37.5297 99.5353 37.7824 99.5404 38.0368ZM103.533 40.8708V40.1834C103.26 40.4507 102.953 40.6535 102.618 40.7903C102.278 40.9295 101.911 41.0002 101.541 40.998C100.649 40.998 99.9091 40.7163 99.3176 40.1553C98.7296 39.5943 98.4342 38.8916 98.4342 38.0473C98.4342 37.6529 98.5076 37.2786 98.6562 36.9261C98.803 36.5735 99.0129 36.2628 99.2877 35.9956C99.5865 35.7002 99.9108 35.4829 100.265 35.342C100.65 35.1965 101.062 35.1248 101.477 35.1312C101.884 35.1312 102.259 35.1988 102.598 35.334C102.942 35.4692 103.252 35.6769 103.534 35.9505V35.2728H104.613V40.8708H103.533ZM106.932 40.8708H105.863V35.2728H106.867V35.9191C107.043 35.672 107.247 35.4885 107.475 35.3686C107.704 35.2487 107.969 35.1859 108.271 35.1835V36.2355C107.792 36.2701 107.449 36.4021 107.244 36.6363C107.036 36.8673 106.932 37.2416 106.932 37.7575V40.8708H106.932ZM109.851 38.0368C109.851 38.6026 110.05 39.0775 110.447 39.4615C110.844 39.8454 111.329 40.037 111.906 40.037C112.431 40.037 112.892 39.8438 113.294 39.4599C113.696 39.0735 113.894 38.6252 113.894 38.1076C113.899 37.847 113.849 37.5881 113.748 37.3457C113.646 37.1034 113.494 36.8825 113.301 36.6959C112.903 36.3047 112.431 36.1091 111.884 36.1091C111.325 36.1091 110.844 36.2942 110.447 36.6685C110.254 36.846 110.101 37.059 109.998 37.2943C109.896 37.5297 109.845 37.7824 109.851 38.0368ZM113.841 40.8708V40.1834C113.584 40.4413 113.274 40.6476 112.93 40.7903C112.589 40.9294 112.222 41.0001 111.851 40.998C110.959 40.998 110.219 40.7163 109.628 40.1553C109.04 39.5943 108.744 38.8916 108.744 38.0473C108.744 37.6529 108.818 37.2786 108.966 36.9261C109.113 36.5735 109.323 36.2628 109.598 35.9956C109.897 35.7002 110.221 35.4829 110.575 35.342C110.96 35.1966 111.372 35.1249 111.787 35.1312C112.191 35.1312 112.564 35.1988 112.907 35.334C113.25 35.4692 113.567 35.6769 113.853 35.9505V33.4618H114.922V40.8708H113.841ZM117.22 34.6176H116.164V33.4618H117.22V34.6176ZM116.163 40.8708V35.2728H117.22V40.8708H116.163ZM122.073 40.8708H117.972V40.0563L120.837 36.1888H118.316V35.272H121.91V36.3063L119.233 39.9235H122.072V40.8708H122.073ZM123.75 38.0368C123.75 38.6026 123.949 39.0775 124.348 39.4615C124.535 39.648 124.762 39.7956 125.013 39.8947C125.264 39.9938 125.534 40.0422 125.807 40.037C126.33 40.037 126.793 39.8438 127.195 39.4599C127.595 39.0735 127.795 38.6252 127.795 38.1076C127.795 37.5587 127.597 37.0886 127.2 36.6959C126.802 36.3047 126.33 36.1091 125.784 36.1091C125.222 36.1091 124.743 36.2942 124.348 36.6685C124.154 36.8457 124.001 37.0586 123.898 37.294C123.795 37.5294 123.745 37.7822 123.75 38.0368ZM127.742 40.8708V40.1834C127.469 40.4507 127.164 40.6535 126.829 40.7903C126.489 40.9295 126.121 41.0002 125.75 40.998C124.86 40.998 124.12 40.7163 123.528 40.1553C122.938 39.5943 122.644 38.8916 122.644 38.0473C122.644 37.6529 122.718 37.2786 122.865 36.9261C123.008 36.5798 123.223 36.2637 123.496 35.9956C123.795 35.7002 124.121 35.4829 124.474 35.342C124.859 35.1963 125.271 35.1246 125.686 35.1312C126.093 35.1312 126.466 35.1988 126.808 35.334C127.149 35.4692 127.461 35.6769 127.741 35.9505V35.2728H128.82V40.8708H127.742ZM130.422 40.8708V36.1896H129.582V35.2728H130.422V33.4618H131.486V35.2728H132.327V36.1896H131.486V40.8708H130.422ZM134.156 34.6176H133.1V33.4618H134.156V34.6176ZM133.1 40.8708V35.2728H134.156V40.8708H133.1ZM136.192 38.0682C136.192 38.6276 136.38 39.0944 136.755 39.4671C137.13 39.8414 137.598 40.0265 138.16 40.0265C138.71 40.0265 139.171 39.8398 139.544 39.4639C139.916 39.0896 140.102 38.6196 140.102 38.0569C140.102 37.4911 139.915 37.0226 139.544 36.6516C139.17 36.2821 138.707 36.0978 138.148 36.0978C137.887 36.0931 137.627 36.1408 137.387 36.2378C137.147 36.3348 136.931 36.4789 136.754 36.6604C136.38 37.0371 136.192 37.5056 136.192 38.0682ZM135.085 38.0787C135.085 37.6794 135.157 37.31 135.298 36.9655C135.44 36.6194 135.65 36.3119 135.926 36.0367C136.225 35.7348 136.561 35.5022 136.935 35.3404C137.3 35.1794 137.699 35.0962 138.102 35.0965C138.532 35.0965 138.932 35.169 139.3 35.3147C140.056 35.624 140.655 36.1964 140.974 36.9124C141.131 37.2657 141.209 37.6311 141.209 38.0062C141.209 38.3885 141.134 38.762 140.988 39.1258C140.843 39.4896 140.639 39.8068 140.377 40.0772C140.093 40.3777 139.747 40.6197 139.36 40.7879C138.985 40.9497 138.583 41.0302 138.16 41.0302C137.725 41.0302 137.324 40.9561 136.957 40.8088C136.583 40.6566 136.247 40.4342 135.968 40.1553C135.692 39.88 135.475 39.5613 135.318 39.1967C135.161 38.832 135.085 38.4594 135.085 38.0787ZM143.196 40.8708H142.128V35.2728H143.153V35.9111C143.377 35.66 143.621 35.474 143.889 35.3573C144.178 35.2366 144.492 35.177 144.808 35.1827C145.586 35.1827 146.183 35.3984 146.598 35.829C147.014 36.2596 147.221 36.8778 147.221 37.6827V40.8708H146.148V37.9016C146.148 37.3076 146.031 36.8657 145.798 36.5792C145.565 36.2926 145.201 36.1501 144.711 36.1501C144.18 36.1501 143.795 36.32 143.555 36.6564C143.315 36.9945 143.196 37.5507 143.196 38.329V40.8708ZM63.1953 4.52441H64.0155V43.4996H63.1953V4.52441Z" fill="#1E447F"/>
</svg>
