<svg width="35" height="38" viewBox="0 0 35 38" fill="none" xmlns="http://www.w3.org/2000/svg">
<path d="M27.0798 4.83074L17.5 0L7.91809 4.8314L0 2.73015V4.94693C0 4.94693 0 14.7457 0 21.8414C0 22.964 0.242687 24.0549 0.646021 25.0857C1.35622 26.8913 2.54577 28.5305 3.94916 30.0122C6.05947 32.2302 8.66866 34.0985 11.0955 35.4547C12.3103 36.1319 13.4778 36.6782 14.5401 37.0696C15.0719 37.2656 15.5778 37.4227 16.0631 37.5361C16.5506 37.6476 17.0133 37.7209 17.5 37.7222C18.2377 37.7169 18.9377 37.5599 19.717 37.3223C21.0678 36.9013 22.6209 36.1925 24.2533 35.2573C26.6944 33.8523 29.288 31.9451 31.3483 29.6921C32.3771 28.5642 33.2733 27.3467 33.9296 26.0373C34.5838 24.7293 34.9994 23.3164 35 21.8414C35 18.2936 35 14.0699 35 10.7332C35 9.06485 35 7.61821 35 6.58873C35 5.55925 35 4.94811 35 4.94811V2.73015L27.0798 4.83074ZM31.5 21.8414C31.5 22.4922 31.3598 23.1759 31.0796 23.8912C30.5935 25.1411 29.6659 26.4729 28.4703 27.7294C26.6821 29.6169 24.3093 31.3301 22.1547 32.5286C21.0787 33.129 20.056 33.6029 19.2131 33.9124C18.7927 34.0675 18.4174 34.1811 18.116 34.2511C17.8166 34.3224 17.5876 34.3448 17.5 34.3434C17.3627 34.3487 16.9142 34.2841 16.3538 34.1058C15.3597 33.799 13.9824 33.1859 12.5365 32.3537C10.3621 31.1077 8.00975 29.3609 6.27827 27.459C5.41078 26.5093 4.69981 25.524 4.22276 24.5678C3.7428 23.6095 3.4995 22.6942 3.50019 21.8415C3.50019 18.2937 3.50019 14.0701 3.50019 10.7333C3.50019 9.35337 3.50019 8.12923 3.50019 7.16304L8.31883 8.44133L17.5 3.8118L26.6799 8.44133L27.3437 8.26517L31.5 7.16304C31.5 10.4641 31.5 16.8258 31.5 21.8414Z" fill="#2A7BE4"/>
<path d="M17.5 7.63965L9.40764 11.7194L7 11.0806V21.604C7 25.1862 14.873 30.3793 17.5 30.8083C20.1271 30.3793 27.9999 25.1862 27.9999 21.604V11.0806L25.5903 11.7194L17.5 7.63965Z" fill="#2A7BE4"/>
</svg>
