<svg width="40" height="40" viewBox="0 0 40 40" fill="none" xmlns="http://www.w3.org/2000/svg">
<g clip-path="url(#clip0_839_771)">
<path d="M11.6561 8.08789C12.9056 8.08789 13.9189 7.07461 13.9189 5.82445V2.26281C13.9189 1.01328 12.9056 0 11.6561 0C10.4059 0 9.39258 1.01328 9.39258 2.26281V5.82445C9.39258 7.07469 10.4059 8.08789 11.6561 8.08789Z" fill="#2A7BE4"/>
<path d="M28.3455 8.08789C29.5951 8.08789 30.6083 7.07461 30.6083 5.82445V2.26281C30.6084 1.01328 29.5951 0 28.3455 0C27.0953 0 26.082 1.01328 26.082 2.26281V5.82445C26.082 7.07469 27.0953 8.08789 28.3455 8.08789Z" fill="#2A7BE4"/>
<path d="M33.9973 3.22559H32.597V5.82441C32.597 8.16949 30.6896 10.0768 28.3452 10.0768C26.0001 10.0768 24.0927 8.16949 24.0927 5.82441V3.22559H15.9077V5.82441C15.9077 8.16949 14.0002 10.0768 11.6559 10.0768C9.31086 10.0768 7.40336 8.16949 7.40336 5.82441V3.22559H6.00297C2.99297 3.22559 0.552734 5.66574 0.552734 8.67582V34.5497C0.552734 37.5598 2.99305 40 6.00297 40H33.9973C37.0073 40 39.4476 37.5598 39.4476 34.5497V8.67582C39.4476 5.66574 37.0073 3.22559 33.9973 3.22559ZM35.1582 33.5929C35.1582 34.9855 34.0252 36.1185 32.6325 36.1185H7.36781C5.97516 36.1185 4.84211 34.9855 4.84211 33.5929V13.3497H35.1583L35.1582 33.5929Z" fill="#2A7BE4"/>
<path d="M22.7641 26.1646H17.2324V31.6956H22.7641V26.1646Z" fill="#2A7BE4"/>
<path d="M14.192 26.1646H8.66016V31.6956H14.192V26.1646Z" fill="#2A7BE4"/>
<path d="M31.3417 17.5898H25.8086V23.1216H31.3417V17.5898Z" fill="#2A7BE4"/>
<path d="M31.3417 26.1646H25.8086V31.6956H31.3417V26.1646Z" fill="#2A7BE4"/>
<path d="M22.7641 17.5898H17.2324V23.1216H22.7641V17.5898Z" fill="#2A7BE4"/>
<path d="M14.192 17.5898H8.66016V23.1216H14.192V17.5898Z" fill="#2A7BE4"/>
</g>
<defs>
<clipPath id="clip0_839_771">
<rect width="40" height="40" fill="white"/>
</clipPath>
</defs>
</svg>
