<svg width="137" height="40" viewBox="0 0 137 40" fill="none" xmlns="http://www.w3.org/2000/svg">
<g filter="url(#filter0_g_839_697)">
<path fill-rule="evenodd" clip-rule="evenodd" d="M2.05064 23.0575C2.05064 24.1748 2.74996 24.3153 3.30941 24.0351C4.00872 23.6165 4.70804 22.4985 4.8479 21.1009C5.54721 17.1885 4.98776 14.8127 4.98776 14.6729C4.84717 14.6729 1.77018 18.3066 2.05064 23.0575ZM4.84717 13.6946C4.56744 12.0175 4.42758 11.04 4.28772 9.36292C4.14785 7.68585 4.14785 6.0095 4.7073 3.91316C5.12689 2.65536 5.82621 1.25854 6.2458 0.699512C4.84717 1.53805 3.30941 2.23683 2.19051 5.45048C1.63105 6.98707 1.63105 12.158 3.86886 14.8127C4.00872 14.6729 4.14859 14.3934 4.28845 14.2536L4.84717 13.6946ZM6.80525 12.5766C7.08497 13.9741 6.94511 18.1668 6.10593 20.4014C5.40662 22.358 4.7073 24.1741 3.02968 25.2922C1.35133 26.4109 0.232426 24.4544 0.652014 22.2183C1.35133 18.7258 3.44927 15.3717 3.58913 15.3717C-0.327026 12.7163 -0.746614 7.68584 0.93174 4.33244C2.33037 1.53805 5.26676 0.140487 7.08497 0.000731304C7.22484 0.000731304 7.22484 0.140489 7.22484 0.140489C6.10593 2.93487 6.2458 5.17097 6.2458 6.70828C6.38566 8.52511 6.80525 11.4593 6.80525 11.5997C7.3647 11.1805 8.20388 10.4817 9.04232 9.92267C11.1403 8.38536 12.6788 8.10657 12.8179 8.10657C12.6788 8.10657 11.1395 9.50413 11.1395 12.1588C11.1395 15.3731 14.0759 15.0936 15.1948 13.6961C15.6144 12.9973 15.6144 11.7402 15.4745 11.6005C15.4745 11.6005 13.3766 11.88 12.5374 10.6222C11.978 9.78365 12.6773 7.6873 14.6354 8.38608C15.8941 8.80535 16.3137 10.7619 16.3137 10.7619C16.7333 10.6222 17.013 10.4824 17.4326 10.3427C17.8522 10.2029 18.1319 10.0632 18.5515 9.78364C18.5515 9.64389 18.4117 6.70901 18.5515 5.73145C18.6914 4.47365 19.2508 1.67927 21.0691 0.700975C22.6076 0.00219531 23.8656 1.26 23.0271 3.91463C22.188 6.56926 20.2306 8.94511 20.2306 8.94511V13.4166C20.2306 13.4166 22.3278 9.64389 22.7481 9.08486C23.7272 7.6873 25.4048 8.10657 25.4048 9.78364C25.4048 11.6005 25.1251 12.578 25.1251 14.2551C25.1251 14.6744 25.5447 14.6744 25.5447 14.5346C26.6636 12.9973 27.6419 11.3202 28.9007 9.22462C29.8797 7.54755 31.4182 7.96682 31.4182 9.78364C31.4182 11.0414 31.2783 11.7402 31.2783 12.9973C31.2783 13.4166 31.558 13.1371 31.558 12.9973C32.2574 12.0197 33.2364 10.2029 33.9357 9.08486C34.914 7.54755 36.4525 8.10658 36.4525 9.9234C36.4525 11.4607 36.3134 12.439 36.3134 14.1153C36.1735 14.5346 36.4525 14.5346 36.733 14.2544C38.1316 12.4383 38.5505 11.1805 39.8092 9.22389C39.9491 8.94438 40.3687 8.24633 40.3687 8.24633C40.6484 7.96682 40.7883 8.10658 40.7883 8.24633C40.7883 8.38609 40.9281 8.6656 41.068 8.94511C41.3477 9.9234 41.6274 10.4824 42.047 11.4607C42.3268 11.321 43.8652 10.0632 45.1233 9.50487C46.382 8.80609 46.6618 8.66633 48.4793 8.24706C47.9198 8.66633 46.8009 10.6229 46.8009 11.88C46.8009 15.0944 49.1786 15.5129 50.5765 14.5346C51.5548 13.6961 51.6954 11.7402 51.4156 11.3202C51.4156 11.3202 49.3184 12.2985 48.3394 10.6214C47.6401 9.36364 48.759 7.96608 50.2975 8.38535C51.4156 8.80462 51.9758 10.2014 51.9758 10.3412C51.9758 10.2014 53.7933 9.08413 54.7724 8.66413C56.3108 7.8256 56.7304 8.66414 56.7304 9.92194C56.5906 11.4593 56.4507 13.4151 56.4507 13.4151C56.4507 13.4151 58.1283 10.4802 58.9682 9.36292C60.7857 7.12682 61.6249 9.22316 61.6249 10.0617C61.6249 11.4592 61.3452 12.4375 61.3452 14.5331C61.485 14.8127 61.7648 15.0922 62.0445 14.8127C62.3242 14.6729 62.6039 14.3934 62.6039 14.3934C62.7438 14.1139 63.1634 14.1139 63.0235 14.3934C62.8837 15.0922 62.1843 16.0705 61.3452 16.489C60.6459 16.9083 59.3878 16.7685 59.3878 15.5114C59.3878 14.9524 59.5277 11.599 59.6675 10.6207C59.6675 10.3412 59.3878 10.0617 59.248 10.3412C57.7095 12.4375 56.7304 14.8127 56.0311 16.0705C55.7514 16.7692 54.4926 16.7692 54.4926 15.791C54.4926 13.6946 54.4926 12.4375 54.6325 10.3412C54.6325 9.78218 54.3528 9.64243 54.073 9.92194C52.9541 10.481 52.2548 10.9002 52.2548 10.9002C52.3947 11.1797 52.5345 14.2536 50.8562 15.791C49.3177 17.1885 46.2414 16.909 45.2624 14.6729C44.4232 12.9958 45.2624 10.481 45.8219 9.92194C45.1225 10.2015 44.703 10.3412 44.0044 10.7605C43.4449 11.1797 43.0253 11.4593 42.4659 12.0183C42.4659 12.0183 43.7246 15.0929 42.0463 16.2102C40.5078 17.1885 39.1099 16.35 39.1099 15.0929C39.1099 13.9749 40.5085 12.7171 40.5085 12.7171C40.5085 12.5773 40.3687 12.0183 40.2288 11.5997C40.0897 11.3202 39.9491 11.0407 39.6694 10.7612C39.8092 10.901 37.2924 14.8134 36.8728 15.3724C35.4742 17.3283 34.2154 16.4897 34.2154 15.2327C34.2154 13.8351 34.4952 11.8792 34.4952 10.6214C34.4952 10.2022 34.2154 10.2022 34.0763 10.4817C32.6777 12.578 32.398 13.5563 30.8595 15.9314C30.4399 16.4905 29.1811 16.9097 29.321 15.5122V10.4817C29.321 10.3419 29.1811 10.0624 29.0412 10.3419C27.7825 12.1588 26.8034 14.6736 25.5454 15.9314C24.4265 17.0495 23.3076 16.3507 23.3076 15.2327C23.3076 13.4166 23.3076 12.2985 23.4475 10.3419C23.5873 9.92267 23.1677 9.78291 22.888 10.2022C21.7698 12.2985 21.3495 13.1371 20.2313 15.9314C19.8118 16.9097 18.4131 16.6302 18.4131 15.3724V10.481C17.9935 10.7605 17.8537 10.9002 17.4341 11.04C17.0145 11.1797 16.7348 11.3195 16.4558 11.4593C16.4558 11.599 16.7355 14.9524 14.218 16.0705C12.2606 17.0488 10.0228 16.4897 9.18365 13.6946C8.90392 12.5766 9.18365 11.04 9.46337 10.4802L8.20461 11.3188C7.64369 11.7388 7.3647 12.0183 6.80525 12.5766ZM14.3564 8.94364C13.5172 8.80462 12.9585 9.64243 13.5172 10.3412C13.9368 11.04 15.4753 10.9002 15.4753 10.9002C15.4753 10.9002 15.3354 9.22316 14.3564 8.94364ZM50.0163 9.0834C49.0372 8.80389 48.4778 9.92194 49.1771 10.6207C50.0163 11.3195 51.2743 10.7605 51.2743 10.7605C51.4149 10.6207 50.9953 9.22316 50.0163 9.0834ZM22.0481 2.65537C22.188 1.67781 21.6285 0.559758 20.9292 1.95658C20.2299 3.35341 20.2299 7.68585 20.2299 7.68585C20.2299 7.68585 22.0481 6.14926 22.0481 2.65537ZM39.9476 15.0922C39.8078 16.2095 40.9267 16.0697 41.2064 15.5114C41.4861 14.8127 40.7868 13.4151 40.7868 13.4151C40.7868 13.4151 40.0882 14.1139 39.9476 15.0922ZM75.4677 23.0575C75.6075 24.1748 76.3068 24.3153 76.7279 24.0351C77.4257 23.6165 78.1251 22.4985 78.4055 21.1009C79.1048 17.1885 78.5454 14.8127 78.4055 14.6729C78.2649 14.6729 75.1887 18.3066 75.4677 23.0575ZM78.4048 13.6946C77.9845 12.0175 77.9845 11.04 77.8453 9.36292C77.7055 7.68585 77.7055 6.0095 78.2642 3.91316C78.683 2.65536 79.3824 1.25854 79.8034 0.699512C78.2642 1.53805 76.8656 2.23683 75.7474 5.45048C75.1879 6.98707 75.0481 12.158 77.425 14.8127C77.5649 14.6729 77.7055 14.3934 77.8453 14.2536C77.9845 13.9741 78.1243 13.8344 78.4048 13.6946ZM87.9147 8.94364C87.0755 8.80462 86.3755 9.64243 86.935 10.3412C87.4944 11.04 89.0329 10.9002 89.0329 10.9002C89.0329 10.9002 88.893 9.22316 87.9147 8.94364ZM123.433 9.0834C122.595 8.80389 122.036 9.92194 122.735 10.6207C123.574 11.3195 124.832 10.7605 124.832 10.7605C124.833 10.6207 124.413 9.22316 123.433 9.0834ZM95.6065 2.65537C95.6065 1.67781 95.0455 0.559758 94.3477 1.95658C93.6484 3.35414 93.7882 7.68585 93.7882 7.68585C93.7882 7.68585 95.4659 6.14926 95.6065 2.65537ZM113.505 15.0922C113.365 16.2095 114.485 16.0697 114.764 15.5114C115.044 14.8127 114.345 13.4151 114.345 13.4151C114.345 13.4151 113.505 14.1139 113.505 15.0922ZM70.2942 13.6946C70.2942 13.6946 69.455 12.4368 68.1963 12.0175C66.9375 11.738 66.5179 13.1356 67.4969 13.5549C69.176 14.2536 70.2942 13.6946 70.2942 13.6946ZM79.8034 6.70755C79.9418 8.52438 80.3629 11.4585 80.3629 11.599C80.7817 11.1797 81.6216 10.481 82.5999 9.92194C84.6979 8.38462 86.2356 8.10584 86.3755 8.10584C86.0965 8.10584 84.6979 9.5034 84.6979 12.158C84.6979 15.3724 87.6343 15.0929 88.614 13.6953C89.0329 12.9966 89.0329 11.7395 89.0329 11.5997C89.0329 11.5997 86.935 11.8792 86.0965 10.6214C85.5371 9.78291 86.0965 7.68657 88.193 8.38535C89.4518 8.80462 89.8721 10.7612 89.8721 10.7612C90.1511 10.6214 90.5714 10.4817 90.8504 10.3419C91.2692 10.2022 91.5497 10.0624 91.9686 9.78291V5.73072C92.1084 4.47292 92.6679 1.67853 94.6259 0.700243C96.0246 0.00146397 97.4232 1.25927 96.584 3.9139C95.7448 6.56853 93.7882 8.94438 93.7882 8.94438V13.4158C93.7882 13.4158 95.8847 9.64316 96.1652 9.08413C97.2833 7.68657 98.961 8.10584 98.961 9.78291C98.961 11.5997 98.5421 12.5773 98.5421 14.2544C98.5421 14.6736 98.961 14.6736 99.1016 14.5339C100.22 12.9966 101.06 11.3195 102.318 9.22389C103.437 7.54682 104.976 7.96609 104.836 9.78291V12.9966C104.836 13.4158 105.115 13.1363 105.115 12.9966C105.676 12.019 106.794 10.2022 107.493 9.08413C108.332 7.54682 110.011 8.10584 110.011 9.92267C110.011 11.46 109.871 12.4383 109.73 14.1146C109.73 14.5339 110.011 14.5339 110.151 14.2536C111.548 12.4375 112.107 11.1797 113.227 9.22316C113.506 8.94365 113.786 8.2456 113.926 8.2456C114.065 7.96609 114.345 8.10584 114.345 8.2456C114.345 8.38536 114.485 8.66486 114.624 8.94438C114.905 9.92267 115.184 10.4817 115.604 11.46C115.744 11.3202 117.421 10.0624 118.68 9.50413C119.798 8.80535 120.219 8.6656 122.037 8.24633C121.338 8.6656 120.358 10.6222 120.358 11.8792C120.219 15.0936 122.736 15.5122 123.995 14.5339C125.113 13.6953 125.113 11.7395 124.973 11.3195C124.973 11.3195 122.736 12.2978 121.756 10.6207C121.057 9.36291 122.175 7.96535 123.854 8.38462C124.833 8.80389 125.532 10.2007 125.532 10.3405C125.532 10.2007 127.349 9.0834 128.189 8.6634C129.727 7.82487 130.287 8.6634 130.287 9.92121C130.147 11.4585 130.007 13.4144 130.007 13.4144C130.007 13.4144 131.545 10.4795 132.524 9.36218C134.202 7.12609 135.182 9.22242 135.182 10.061C135.182 11.4585 134.763 12.4368 134.901 14.5324C134.901 14.8119 135.32 14.9517 135.461 14.8119C136.02 14.5324 136.441 13.8336 136.441 13.8336C136.58 13.6939 137 13.6939 137 13.9734C136.72 14.5324 135.741 16.0697 134.902 16.489C134.064 16.9083 132.944 16.7685 132.944 15.5114C132.944 14.9524 133.084 11.599 133.224 10.6207C133.224 10.3412 132.944 10.0617 132.665 10.3412C131.126 12.4375 130.288 14.8127 129.589 16.0705C129.168 16.7692 127.91 16.7692 127.91 15.791C127.91 13.6946 128.049 12.4375 128.049 10.3412C128.189 9.78218 127.91 9.64243 127.49 9.92194C126.512 10.481 125.673 10.9002 125.673 10.9002C125.812 11.1797 126.091 14.2536 124.414 15.791C122.736 17.1885 119.798 16.909 118.82 14.6729C117.981 12.9958 118.68 10.481 119.239 9.92194C118.54 10.2015 118.121 10.3412 117.561 10.7605C116.862 11.1797 116.443 11.4593 115.882 12.0183C116.022 12.0183 117.141 15.0929 115.603 16.2102C113.926 17.1885 112.665 16.35 112.665 15.0929C112.665 13.9749 113.926 12.7171 114.064 12.7171C114.064 12.5773 113.785 12.0183 113.645 11.5997C113.505 11.3202 113.365 11.0407 113.226 10.7612C113.226 10.901 110.709 14.8134 110.429 15.3724C109.03 17.3283 107.772 16.4897 107.772 15.2327C107.633 13.8351 108.052 11.8792 107.911 10.6214C107.911 10.2022 107.772 10.2022 107.493 10.4817C106.234 12.578 105.953 13.5563 104.416 15.9314C103.996 16.4905 102.737 16.9097 102.737 15.5122C102.877 13.5556 102.877 12.4375 102.877 10.4817C102.877 10.3419 102.737 10.0624 102.597 10.3419C101.199 12.1588 100.22 14.6736 99.1016 15.9314C97.8428 17.0495 96.7246 16.3507 96.8645 15.2327C96.8645 13.4166 96.8645 12.2985 97.0029 10.3419C97.0029 9.92267 96.7239 9.78291 96.4434 10.2022C95.1847 12.2985 94.9057 13.1371 93.7875 15.9314C93.3672 16.9097 91.9686 16.6302 91.9686 15.3724V10.481C91.5497 10.7605 91.2692 10.9002 90.9902 11.04C90.5714 11.1797 90.2909 11.3195 89.8721 11.4593C89.8721 11.599 90.2909 14.9524 87.6335 16.0705C85.6755 17.0488 83.579 16.4897 82.7391 13.6946C82.4586 12.5766 82.7391 11.04 83.0195 10.4802C82.4586 10.7597 82.1804 11.0393 81.7593 11.3188C81.1998 11.738 80.781 12.0175 80.3621 12.5766C80.6411 13.9741 80.502 18.1668 79.6628 20.4014C78.9635 22.358 78.1236 24.1741 76.5866 25.2922C74.7691 26.55 73.6487 24.4544 74.069 22.2183C74.7683 18.7258 76.8648 15.3717 77.0054 15.3717C76.8656 15.2319 75.8872 13.9741 74.348 13.8344C72.6704 13.8344 71.4116 14.3934 71.4116 14.3934C71.4116 14.3934 71.2718 15.3717 71.1312 15.9307C70.9928 16.2102 70.5717 16.4897 70.5717 15.9307V14.5331C70.5717 14.5331 67.0759 15.2319 65.6773 13.8344C64.6982 12.7163 65.6773 11.3188 67.6353 11.4585C68.8934 11.5983 70.2927 12.7163 70.2927 12.9958C70.2927 12.8561 70.1529 11.8785 69.8724 11.3188C69.734 10.8995 69.5934 10.62 69.313 10.2007L70.7116 9.64169C70.9921 10.2007 71.1304 10.7597 71.271 11.4578C71.4109 12.1566 71.5515 12.7156 71.4109 13.5541C72.1102 13.4144 72.5291 13.4144 73.2284 13.2746C74.2067 13.1356 74.3466 13.2746 75.0459 13.2746C73.0878 10.4802 72.6689 7.54535 74.3466 4.47146C75.8858 1.67707 78.8214 0.139756 80.5005 0C80.6389 0 80.7795 0.139757 80.7795 0.139757C79.6636 2.93487 79.8034 5.17097 79.8034 6.70755ZM47.4995 39.5465H48.6184V39.9651H44.982V39.5465H46.2407V31.5804H46.1009L42.8847 39.8253H42.7449L39.3889 31.3017H39.249V39.5465H40.3672V39.9651H37.5707V39.5465H38.8287V29.7643H37.5707V29.4856H39.9476L43.1645 37.4502L46.3806 29.4856H48.6184V29.7643H47.4995V39.5465ZM52.5338 29.7643V34.3763C55.6108 34.3763 55.1905 34.2365 55.6108 32.8382H55.8905V36.3321H55.6108C55.1912 34.9346 55.6108 34.9346 52.5338 34.9346V39.5465H54.9115C56.7297 39.5465 57.1493 38.4292 57.5689 37.7304H57.9885V39.9658H49.8771V39.5473H51.1352V29.7651H49.8771V29.4863H57.4283V31.5812H57.0087C56.8688 30.7434 56.8688 30.1851 56.1695 30.0446C55.7499 29.9048 54.9108 29.7643 54.4912 29.7643H52.5338ZM61.6234 29.7643C63.5815 29.7643 65.2599 30.0446 66.0983 30.6029C66.9375 31.3017 67.7767 32.2792 67.9165 34.3756C68.0564 35.6334 67.6368 36.8912 66.6578 38.0085C65.5389 39.2663 63.3018 39.5465 61.6234 39.5465V29.7643ZM58.9668 29.7643H60.0849V39.5465H58.9668V39.9651H62.1829C63.8612 40.1048 65.6787 39.8253 66.7976 39.1265C68.476 38.2887 69.3144 36.4726 69.3144 34.6565C69.3144 32.6999 68.6151 31.1626 67.0774 30.1851C66.0983 29.4863 64.8395 29.4863 62.6025 29.4863H58.9668V29.7643ZM72.3907 39.5465H73.6494V39.9651H69.8739V39.5465H71.1326V29.7643H69.8739V29.4856H73.6494V29.7643H72.3907V39.5465ZM79.9425 29.0656C80.0824 29.0656 80.9223 29.0656 81.4818 29.2053C82.7405 29.4856 82.7405 29.9041 82.8804 31.0214C83.0203 31.1612 83.1594 31.7202 83.0203 31.7202C82.5999 31.7202 82.1811 29.6239 79.9425 29.6239C77.9845 29.4856 75.7474 31.1619 75.7474 34.516C75.7474 36.8912 77.2866 39.5465 79.8034 39.5465C81.0622 39.5465 81.76 38.9875 82.1803 38.4292C82.4593 38.0092 82.7398 37.3104 82.8797 37.3104C83.0195 37.3104 83.0195 37.4502 83.0195 37.4502C83.0195 38.4292 82.8797 38.8477 82.8797 38.9882C82.7398 39.267 81.2006 39.9658 79.8034 39.9658C76.8656 39.9658 74.3488 38.1497 74.3488 34.6565C74.3488 31.8607 76.167 29.0656 79.9425 29.0656ZM87.9147 31.7202L89.3134 35.6334H86.3755L87.9147 31.7202ZM86.0965 39.9651V39.5465H84.8377L86.2349 36.1924H89.5916L90.7098 39.5465H89.172V39.9651H93.2266V39.5465H92.2483L88.3321 29.3458H88.1923L84.2776 39.5465H83.5782V39.9651H86.0965ZM94.0672 39.9651V39.5465H95.326V29.7643H94.0672V29.4856H97.8428V29.7643H96.584V39.5465H98.961C100.778 39.5465 101.338 38.2887 101.478 37.4502H101.899L101.759 39.9658L94.0672 39.9651Z" fill="#3F3D56"/>
</g>
<defs>
<filter id="filter0_g_839_697" x="0" y="0" width="137" height="40" filterUnits="userSpaceOnUse" color-interpolation-filters="sRGB">
<feFlood flood-opacity="0" result="BackgroundImageFix"/>
<feBlend mode="normal" in="SourceGraphic" in2="BackgroundImageFix" result="shape"/>
<feTurbulence type="fractalNoise" baseFrequency="0.25 0.25" numOctaves="3" seed="2762" />
<feDisplacementMap in="shape" scale="0" xChannelSelector="R" yChannelSelector="G" result="displacedImage" width="100%" height="100%" />
<feMerge result="effect1_texture_839_697">
<feMergeNode in="displacedImage"/>
</feMerge>
</filter>
</defs>
</svg>
