<svg width="107" height="48" viewBox="0 0 107 48" fill="none" xmlns="http://www.w3.org/2000/svg">
<g filter="url(#filter0_g_839_698)">
<path fill-rule="evenodd" clip-rule="evenodd" d="M27.9771 6.97648L27.9443 6.81709C27.8695 6.81709 27.9729 6.19787 27.6567 6.09696C27.7534 6.066 27.9978 6.03676 28.0629 5.96682C28.0847 5.73977 28.0525 5.53623 28.1875 5.33442C28.4398 4.95773 28.8411 4.68195 28.4599 4.25251C28.2817 4.05184 27.5564 3.32197 27.2889 3.32197C26.7801 3.32197 26.9193 3.78122 26.6311 4.10057C25.7331 5.0982 25.6012 6.46792 25.5076 7.72928C25.4565 8.41902 25.3124 8.85763 25.3124 9.61731V11.5002C25.3124 11.5271 25.127 11.4904 25.127 11.6068V13.0408C25.127 13.3274 24.9403 13.1784 24.9403 13.3945V14.3084C24.9403 14.6278 24.7373 15.5641 25.1021 15.7538C24.6023 15.802 24.7349 16.3513 24.6643 16.7079C24.651 16.7738 24.6084 17.2916 24.4674 17.2583C24.3883 17.24 24.3986 17.2669 24.3986 17.338V18.5036C24.5014 18.4296 24.6017 18.3522 24.7002 18.2725L24.7774 20.7609C24.6625 20.6743 24.5446 20.5654 24.4169 20.4925C24.4692 20.8429 24.6072 20.9226 24.4649 21.2711C24.3658 21.5137 24.2424 21.7476 24.1105 21.9758C23.8126 22.4918 23.4551 22.8662 22.9669 23.2314C22.5085 22.4104 22.092 21.7591 22.0227 20.8085C21.9862 20.3079 21.8616 19.8332 21.7625 19.3418C21.7029 19.0454 21.7254 18.2943 21.4196 18.2685V15.7951C21.4196 15.5325 21.5047 15.1249 21.4196 14.8709C21.2919 14.7425 21.1795 14.6014 21.0542 14.4707C20.8062 14.2115 20.8135 14.4363 20.5368 14.5492C20.1423 14.7098 19.9562 14.6651 19.7349 15.0612C19.479 15.5193 19.7544 15.8398 19.7544 16.3203V17.7239C19.7544 17.9773 19.6255 17.8185 19.5823 17.9606C19.5294 18.3167 19.5896 18.6825 19.4936 19.0328C19.3173 19.6744 19.5501 20.4782 19.1324 21.0475C19.0005 20.7523 18.2029 18.9095 18.7877 18.8677C18.8856 18.8608 18.8266 17.7342 18.8266 17.6447C18.8266 17.0312 18.989 16.7228 18.4309 16.3903C18.0661 16.173 17.6247 16.2532 17.1803 16.2532C17.1778 16.8621 16.7365 18.573 16.2756 18.9801C16.2337 17.6384 15.2214 15.3261 13.8875 15.372C13.3428 15.3903 13.4662 15.7785 13.2206 16.1437C13.0698 16.3673 13.0686 16.4636 13.2242 16.693C13.5015 17.1012 12.8272 17.9308 12.6515 18.288C12.4017 18.0667 12.1208 17.975 12.2636 17.6665C12.3925 17.3879 12.5093 16.0818 12.6831 16.0583C12.7877 16.0445 12.7166 14.6874 12.7166 14.5412C12.7166 14.3199 12.9008 14.3778 12.9008 14.2459V13.7208V11.784C12.9008 11.0495 12.4241 10.205 12.1658 9.51296C11.9457 8.92299 11.8107 8.43679 11.6429 7.83191C11.5134 7.36291 11.2848 7.03668 10.8969 6.71503C10.4033 6.30566 9.78071 5.98918 9.12107 5.9198C8.76115 5.88139 8.76541 5.70193 8.52161 5.95707C8.43224 6.0511 8.17081 6.20476 8.0401 6.06773C7.94283 5.96624 7.35979 5.81889 7.35979 6.01154C7.35979 6.27413 7.50752 6.36242 7.69295 6.55793C7.51178 6.578 7.35918 6.58316 7.18652 6.53672C7.02662 7.55384 6.03928 7.91333 5.5669 8.77736C5.36079 9.15405 5.28662 9.90456 4.99419 10.1815C4.77836 10.3856 4.30172 10.4527 4.0257 10.6298C4.38379 10.6298 4.76012 10.4733 4.76012 10.8575C4.76012 11.049 4.81545 11.3236 4.76012 11.5082C4.62333 11.5363 4.56922 11.4887 4.56922 11.6068V15.4115C4.56922 15.7452 4.74006 15.978 4.75283 16.3163C4.77715 16.9619 4.71878 17.7732 5.12855 18.3138C5.43557 18.7186 5.70004 19.1486 5.96086 19.5798C6.11893 19.8406 6.29949 19.9175 6.07394 20.1589C5.99825 20.2411 5.92858 20.328 5.86541 20.4192C6.17608 20.4845 6.17061 20.2598 6.32685 20.2598C6.48128 20.2598 6.46425 20.4857 6.76702 20.4209C6.64786 20.2965 6.5056 20.1898 6.37063 20.082L7.02905 20.0849C7.35432 20.086 7.68262 20.3211 8.00545 20.2443C8.31794 20.1703 8.59517 19.9989 8.90706 19.9249C9.16727 19.8636 9.17457 20.1755 9.44025 20.0293C9.70167 19.8854 10.4568 19.0758 10.7699 19.2381C11.0617 19.39 11.2708 19.7707 11.3894 20.0493C11.5438 20.4128 12.1743 20.6955 12.4953 20.9633C12.6594 20.7379 12.8515 20.555 13.1622 20.6141C13.3093 20.6422 13.4911 21.129 13.5708 21.2482C13.9155 21.7619 14.3392 22.2315 14.7934 22.6621C14.977 22.7349 15.2293 22.7125 15.4214 22.6988C15.6822 22.6804 15.6719 22.5159 15.8762 22.3978C16.123 22.2556 16.202 22.4712 16.3978 22.5199C16.6071 22.3484 16.8106 22.1707 17.0082 21.9873C17.3055 21.7166 17.6369 21.3067 18.0247 21.1473C18.4716 20.9633 18.7634 21.9964 19.068 21.9964C19.217 21.9964 19.831 22.0853 19.9295 21.9964C19.9459 21.7614 20.1143 21.5274 20.1143 21.3187C20.1143 21.114 20.0122 19.8269 20.1696 19.7942C20.397 19.7472 20.4609 19.6566 20.5338 19.9077C20.6159 20.1915 20.625 20.492 20.6493 20.7832C20.6985 21.383 20.8781 21.9667 21.177 22.4981C21.492 23.0439 21.8045 23.373 21.8093 24.0215C21.8124 24.4899 21.8069 24.4045 22.2179 24.5903C22.475 24.7066 22.7122 24.8775 22.9906 24.948C24.2144 25.2605 24.3658 23.4017 25.4966 23.4017C25.496 23.6161 25.4948 23.8329 25.5264 24.0456C25.7678 24.2417 26.0292 24.4154 26.2633 24.6189C26.4597 24.6889 26.8202 24.6189 27.0305 24.6189C27.3211 24.6189 27.4585 23.6322 27.5041 23.3788C27.5722 23.0038 27.3625 22.7108 27.3297 22.341C29.139 22.7206 30.1755 21.3279 31.6085 20.6003C31.6949 21.3887 32.1709 22.0062 32.315 22.755C32.4737 23.5341 32.7588 24.4784 32.7138 25.2737C32.6901 25.6899 32.5952 26.1102 32.3861 26.48C32.1575 26.8842 31.8043 27.0144 31.7952 27.4914C31.78 28.2448 32.1818 28.3342 32.6871 28.8582C32.2834 28.825 31.8693 28.782 31.4681 28.8628C31.3532 28.8858 31.2754 28.9918 31.1653 28.9918H29.3086C29.1651 28.9918 29.1803 28.817 28.9475 28.817H27.8276C27.4756 28.817 26.3703 28.6002 26.242 29.0383C26.0742 28.645 26.0803 28.6427 25.5897 28.6427C25.3738 28.6427 24.8078 28.958 24.6358 28.782C24.4546 28.5968 24.3324 28.6495 24.0199 28.6495H18.3737C18.1573 28.6495 18.3932 28.8175 18.1725 28.8175H14.6037C14.3429 28.8175 14.4122 28.9924 14.138 28.9924H11.3383C11.1188 28.9924 11.3523 29.1684 11.1286 29.1684H9.09067C8.82985 29.1684 8.5283 29.3244 8.24012 29.3364C7.87473 29.3513 7.52637 29.4511 7.15551 29.4625C6.43811 29.4849 5.80887 29.8983 5.13524 29.4883C5.10302 30.0089 4.72304 29.9304 4.55281 29.5279C4.1248 29.3353 4.14729 29.9361 3.75516 30.0084C3.26331 30.0984 2.83652 30.107 2.34103 30.2486C1.59444 30.4619 0.846038 30.6671 0.11283 30.9194C0.111614 31.4968 0.140796 31.7427 1.04423 31.9962C-0.461698 31.4435 0.104927 35.4953 0.102495 36.916C0.554214 36.7389 0.54935 37.174 0.780985 37.455C1.05518 37.7881 1.32755 38.1241 1.62606 38.4389C1.96834 38.8001 2.34832 39.1412 2.79639 39.3826C3.09977 39.546 3.43901 39.5941 3.64876 39.8028C3.71321 39.8676 4.06947 39.5173 4.01233 39.7346C3.98679 39.8321 4.53639 39.6549 4.69325 39.6486C5.55352 39.6102 6.35239 39.0816 7.13058 38.7794C6.71474 39.3149 6.33111 39.8871 5.85021 40.3727C5.49941 40.7277 5.04648 40.9283 4.66406 41.2442C4.46648 41.4076 4.19715 41.6467 4.19715 41.9185C4.19715 42.2837 4.45249 42.4637 4.76073 42.3181C5.05803 42.1771 5.3991 42.1564 5.54866 41.8583C5.67572 41.6037 5.7578 41.3234 5.92803 41.0894C6.25572 40.6376 6.90017 40.4771 7.25035 40.0396C7.5057 39.7191 7.01021 39.6257 7.32878 39.2519C7.63884 38.8878 7.98538 38.6223 8.48088 38.5742C8.6967 38.5535 8.93199 38.358 9.11863 38.2582C9.29373 38.4331 9.49314 38.5805 9.69195 38.7301C9.5357 38.8069 8.95023 38.999 9.2074 39.2891C9.41471 39.5231 10.2209 38.7737 10.4902 38.7737C10.5364 39.5041 10.9419 40.4146 10.4568 41.0929C10.202 41.4489 9.86643 41.7585 9.57765 42.0888C9.35513 42.3422 9.39891 42.4735 9.39891 42.7934C9.76733 42.5813 9.9023 42.5618 10.1029 42.1943C10.2859 41.86 10.4628 41.516 10.6975 41.2098C11.1948 40.5591 11.9925 41.1364 11.7086 41.8285C11.6131 42.0618 11.4666 42.3038 11.2684 42.4746C11.2526 42.5859 11.2769 42.7842 11.2149 42.8892C10.8707 43.3454 10.5395 43.8102 10.2215 44.283C9.59467 45.2135 9.01954 46.1744 8.46264 47.1434C9.09614 47.3068 9.95398 45.2943 10.2428 44.8219C10.9085 43.7308 11.5791 42.6426 12.294 41.5796C12.7062 42.016 13.009 42.2373 12.8819 42.876C12.8455 43.06 12.6479 43.1976 12.5427 43.3461C12.4983 43.4648 12.5427 43.6655 12.5427 43.7922C12.8339 43.6122 12.9817 42.9574 13.2856 42.9574C13.8133 42.9574 13.814 42.868 13.8559 43.3851C13.8972 43.9034 14.1623 43.8151 13.6456 44.1832C13.9027 44.4343 14.0699 45.0937 13.9848 45.4211C13.8675 45.8734 13.71 46.1349 14.1575 46.4571C14.4523 45.5443 14.4809 44.514 15.0427 43.6941C15.402 43.9258 15.6099 43.5732 15.9984 43.4482C16.2823 43.0784 16.5808 43.0967 17.0295 43.2051C17.6897 43.3645 18.2485 44.3231 18.992 44.1735C18.7433 43.9327 17.9542 43.5789 17.9001 43.2836C17.832 42.9161 17.7262 42.5549 17.6539 42.1885C17.9901 42.415 18.3865 42.8605 18.8364 42.7745C18.598 42.5348 18.3561 42.2986 18.1092 42.0681C18.6199 42.0819 19.1264 42.0859 19.6182 42.2281C19.1525 41.7648 18.7123 41.516 18.6059 40.8676C19.3775 40.7099 19.8802 41.8801 20.6627 41.7281C20.3642 41.4329 20.0231 41.1829 19.6979 40.9157C19.9611 40.887 20.2244 40.8601 20.487 40.8309C19.7653 40.4152 19.0528 39.984 18.3117 39.5993C17.8126 39.339 17.3997 38.6607 17.5548 38.0753C17.6983 37.533 18.429 37.3283 18.9501 37.3432C19.2084 36.994 20.1046 37.5553 20.4663 37.6218C21.2603 37.7675 21.8835 37.8798 22.6045 38.2044C22.9572 38.3632 23.2605 38.3173 23.2605 37.9716C23.2605 37.9177 22.0957 37.6861 21.9309 37.4074C21.4026 37.3512 20.9028 37.1637 20.4092 36.9889C22.0847 36.5663 23.7779 36.2068 25.4997 36.001C26.3216 35.9024 26.8785 35.6432 27.5984 35.2998C27.9097 35.1599 28.2203 35.2958 28.5 35.1306C28.7255 34.9976 28.8216 35.2814 29.0155 35.2814C29.2143 35.2814 29.1627 35.1048 29.3274 35.1048H30.9854C31.3416 35.1048 32.5721 35.329 32.7302 34.9059C32.7679 34.9913 32.8086 35.1931 32.8822 35.251C33.2737 35.274 33.6659 35.2809 34.058 35.2918C34.4271 35.3027 34.3456 35.4557 34.7019 35.4557C35.0593 35.4557 36.0898 35.6616 36.2516 35.2574C36.3683 35.528 36.3209 35.5916 36.6492 35.6266C37.0577 35.6696 37.4553 35.7458 37.8572 35.8261C38.6755 35.9895 39.5066 36.0899 40.3407 36.1403C41.0746 36.1845 41.5251 36.3266 42.3215 36.3266H44.9108C45.3273 36.3266 45.2829 36.3696 45.4969 36.7802C45.8137 37.3862 46.0052 37.5702 46.5888 37.9228V37.3678C47.4315 37.3799 47.6138 37.1018 47.7087 36.2945C47.7464 35.9775 47.7239 35.6392 47.6801 35.3244C47.3372 35.0613 47.4029 34.9816 47.4649 34.5974C47.5792 33.8894 47.8321 33.1996 47.902 32.4841C47.9391 32.1085 47.7707 31.8408 47.3883 31.7789C46.8223 31.6877 46.3116 31.7318 46.1444 31.1705C45.8726 30.2583 45.7219 29.1696 45.6604 28.2241C45.3589 28.2568 45.4999 27.6869 45.4999 27.4759V24.5685C45.4999 24.5025 45.8039 24.342 45.6562 24.2789C45.5358 24.2267 45.4999 24.2927 45.4999 24.1207V22.6953C45.4999 22.5956 45.4379 21.6203 45.5924 21.657C45.8252 21.712 45.4914 21.3113 45.4987 21.2614C45.5218 21.0974 45.6781 21.1771 45.6781 20.9701V19.3464V18.8207C45.6781 18.6274 45.8702 18.7582 45.8702 18.6005C45.8702 18.4302 45.5431 18.3024 45.7328 18.112C45.7906 18.0541 45.9827 17.8706 45.8222 17.7852C45.5522 17.6419 45.782 17.291 45.8702 17.072C45.9815 16.7962 46.1565 16.5336 45.9182 16.2945C45.6732 16.0485 46.3 15.8628 45.9182 15.6604C45.965 15.6856 46.0483 14.6467 46.0483 14.5062C46.0483 14.1651 46.204 13.7379 45.7535 13.6468C45.869 13.6009 46.1334 13.5516 46.2131 13.4639C46.2713 12.9976 46.3439 12.533 46.4307 12.0707C46.601 11.1625 46.8204 10.2635 47.0521 9.36733C47.2825 8.47463 47.5257 7.5848 47.7439 6.68923C47.8813 6.09009 48.2577 5.57579 48.2984 4.94912C48.3203 4.61314 48.4632 4.79146 48.4632 4.59766V4.05585V3.03873C48.4632 2.83118 48.6006 2.478 48.828 2.42124C49.1386 2.34384 49.0249 1.54631 49.0395 1.26652C49.5125 0.910474 48.589 0.245392 48.3142 0C48.1403 0.262019 47.8564 0.10607 47.7239 0.321075C47.6722 0.404783 47.2211 0.348595 47.1536 0.348595C46.6022 0.348595 46.1699 0.356048 45.6866 0.203538C45.6241 0.356239 45.5045 0.482082 45.3504 0.557293C45.3371 0.709106 45.3061 0.859078 45.258 1.0045C45.0276 1.12605 44.8743 1.34163 44.6135 1.41846C44.4743 2.22688 44.312 3.03185 44.1387 3.83454C44.0651 4.17396 43.3854 7.67596 43.3484 7.67195C43.2243 7.65876 43.2797 9.10646 43.2797 9.26986V10.1024C43.2797 10.0892 43.093 10.1282 43.093 10.2491V16.314C43.093 16.5663 42.9738 17.0032 43.2541 17.1545C42.7033 17.1964 42.7726 18.2152 42.6358 18.6263C42.5325 18.9382 42.3823 19.1572 42.1975 19.429C42.0734 19.605 42.1379 19.8384 42.0066 20.0425C41.7811 20.3997 41.5724 20.766 41.381 21.1404C41.215 21.4569 41.1846 21.8055 41.0259 22.1191C40.776 22.591 40.3626 22.9872 40.0051 23.3862L39.9437 21.7333C39.9249 21.2201 40.2185 20.7419 40.5426 20.3612C40.7292 20.1417 40.6848 19.3957 40.3547 19.3957C39.1096 19.3957 38.3582 20.0155 37.4876 20.8096C36.3847 21.8164 35.342 22.8794 34.2726 23.9177C33.8373 22.8564 33.5473 21.712 33.464 20.5728C33.4245 20.0362 33.4956 19.4577 33.5887 18.9302C33.7048 18.2697 34.2301 17.8913 34.652 17.3867C34.9274 17.0582 35.2521 16.916 35.4782 16.5531C35.6035 16.3524 35.736 16.158 35.8929 15.978C35.9664 16.0411 36.0509 16.0703 36.1458 16.0652C36.2169 16.0336 36.3446 16.1013 36.4121 16.0652C36.4668 15.9167 36.5337 15.7728 36.6127 15.6346C36.7221 15.4351 36.8662 15.2126 36.7623 14.981C36.4874 14.3698 35.708 14.1852 35.0916 14.0625C34.4015 13.9254 33.8288 14.1089 33.1351 14.1565C33.4045 14.7963 32.6773 14.5854 32.38 15.0652C32.0426 15.6151 31.5502 16.0617 31.2401 16.6276C31.0887 17.1476 31.3969 17.7892 31.2401 18.3075C31.2395 18.5856 30.9531 18.526 31.1915 18.8774C31.2833 19.0127 31.2291 19.1045 31.1489 19.2157C30.8729 19.5998 30.4978 19.9347 30.1336 20.2431C29.7408 20.5757 29.3013 20.926 28.7821 21.0607C28.2975 21.1863 28.1729 21.1358 27.8428 20.8027C27.6653 20.6227 27.4658 20.4369 27.3698 20.2024C27.143 19.6451 26.749 18.9531 26.8044 18.3419C26.8518 17.8162 26.8834 16.7595 27.402 16.4441C28.2076 15.9545 29.0502 15.5119 29.891 15.0767C30.5355 14.743 30.8005 14.0321 29.9932 13.703C29.0745 13.3286 28.2246 14.8537 27.2962 14.8537C26.7746 14.8537 27.0579 14.6232 26.8889 14.2419C26.8688 14.1961 26.7053 14.0269 26.8226 13.9765C27.0846 13.8635 26.9789 13.4668 26.9789 13.1308C26.9789 12.9399 26.8244 11.9382 27.0269 11.8069C27.3941 11.5684 27.0846 9.64827 27.4999 9.60068C27.6829 9.57947 27.4336 7.51427 27.568 7.22932C27.7412 6.85894 27.63 6.97648 27.9771 6.97648ZM9.95276 13.4455C9.95276 13.359 10.0245 12.8372 9.90109 12.8103C9.757 12.7776 9.59163 12.9014 9.43842 12.8894C9.30893 12.7633 9.14295 12.6681 8.98063 12.585C8.73987 12.4623 8.53499 12.3212 8.28511 12.4967C8.21702 12.5448 8.16474 12.597 8.11792 12.6377C8.03585 13.0597 7.87413 13.1491 7.5361 13.3177C7.84798 13.551 8.3149 13.9306 7.91729 14.1983C8.08266 14.4392 8.19331 14.2517 8.29362 14.5991C8.36172 14.8353 8.42738 15.0721 8.49608 15.3078C8.60916 15.6959 8.73197 16.0829 8.89429 16.4556C9.05358 16.8203 9.48645 17.2153 9.21956 17.5392C9.03048 17.768 8.81587 18.0197 8.51371 18.1166C7.70937 18.374 7.28501 17.7445 7.32513 17.0599C7.33182 16.9418 7.41451 16.6557 7.29717 16.5663C7.25407 16.542 7.21864 16.5073 7.19459 16.4658C7.17053 16.4242 7.15872 16.3774 7.16037 16.33C7.16037 16.3266 7.45889 16.0915 7.31662 16.0801L7.18895 16.1426C7.11052 16.1368 7.16037 14.9792 7.16037 14.8955V14.1089C7.16037 13.9186 7.2084 13.9931 7.31358 13.9054C7.32757 13.7385 7.34459 13.5723 7.361 13.406L7.28866 13.4438C7.31966 13.3641 7.34945 13.2839 7.37985 13.203L7.38046 13.2007C7.43578 13.0562 7.49476 12.9123 7.57014 12.7764C7.68687 12.7501 7.79995 12.7157 7.91243 12.679C7.88096 12.659 7.85305 12.6344 7.82975 12.6062C7.72822 12.4898 7.59993 12.4101 7.46679 12.3287C7.77503 12.0219 7.76834 11.9027 7.34824 11.6722C7.6358 10.7617 8.04497 9.97164 8.85599 9.40116C9.25117 9.12309 9.19402 9.04626 9.57826 9.36561C9.75031 9.50895 9.76369 9.63509 9.82874 9.84149C9.95155 10.2314 10.0701 10.6224 10.1777 11.0168C10.2567 11.3087 10.3929 11.6584 10.2343 11.9497C10.0427 12.3006 10.4878 12.0804 10.4872 12.4399C10.4872 12.6188 10.1315 12.64 10.4464 12.8074C10.7711 12.9788 10.0184 13.4071 9.95276 13.4455ZM40.2149 30.455L34.697 29.6053L34.0744 29.5096C33.979 29.4952 33.9668 28.9689 34.0398 28.927C34.2295 28.8204 34.2094 28.6375 34.272 28.368C34.3219 28.1553 34.3736 27.9432 34.4125 27.7282C34.5018 27.7551 34.5572 27.7333 34.5778 27.6617C34.5876 27.3945 34.5742 27.1239 34.5742 26.8573V25.5219C34.5742 24.991 34.9864 24.8414 35.3828 24.4635C35.6412 24.217 35.874 23.9343 36.2072 23.7761C36.5051 23.6345 36.4911 23.2366 36.7525 22.9837C36.9422 22.8008 37.355 22.665 37.4857 22.4637C37.6122 22.2705 37.7478 22.0819 37.8815 21.8932C37.9368 22.6781 37.8645 24.7726 38.8907 25.1189C40.5912 25.6538 42.1731 22.8375 42.8887 21.8198V26.2214C42.8887 26.4037 43.0906 26.4725 43.0906 26.6348C43.0906 26.7053 42.6565 26.9215 43.045 26.8848C43.0979 28.2534 43.3982 29.5984 43.8207 30.9051C42.6078 30.9045 41.412 30.6391 40.2149 30.455Z" fill="#CD352C"/>
<path fill-rule="evenodd" clip-rule="evenodd" d="M41.0113 11.2997C40.7633 11.5794 40.1918 12.2239 39.7583 12.2239C39.4939 12.2239 39.2026 11.3742 39.2026 11.1758C39.2026 10.9367 39.3163 10.8008 39.4677 10.6242C39.5465 10.5332 39.6163 10.4355 39.6762 10.3324C39.8684 10.005 39.8635 10.1627 40.1918 10.2768C40.6076 10.4219 41.364 10.7297 41.0113 11.2997ZM106.709 16.219C106.545 15.6978 106.545 14.9863 106.849 14.5127C106.748 14.5127 106.548 14.4725 106.458 14.5127C106.26 14.8212 106.072 15.1355 105.895 15.4553C105.557 16.0685 105.251 16.697 104.979 17.3387C104.738 17.9166 104.532 18.5118 104.176 19.0387C103.883 19.4704 103.794 19.8247 103.466 20.2456C103.82 20.3688 103.58 20.6159 103.416 20.7977C103.125 21.1205 103.536 21.1176 103.455 21.3969C103.249 22.1055 102.73 22.5625 102.721 23.3227C102.714 23.9299 102.286 24.9636 101.826 25.3936C101.519 25.6803 101.115 25.8219 100.794 26.0851C100.501 26.3242 100.262 26.6183 100.007 26.8907C99.9768 26.8649 99.2904 26.3551 99.218 26.5128C99.122 26.7186 99.1007 26.8666 98.787 26.8952C98.2988 26.9394 98.2441 27.0993 97.8416 27.3241C97.4282 27.5546 97.1078 27.3396 97.1205 26.9222C97.1667 25.5496 95.6894 26.6086 95.4012 27.2994C95.2352 27.6956 95.3088 27.7329 95.718 27.7793C96.3119 27.847 96.2372 28.2329 96.6846 28.5293C97.112 28.8108 98.0039 28.6353 98.5249 28.6353C97.9632 29.3658 97.3637 29.9758 96.6013 30.5291C96.3411 30.7172 96.1107 30.9454 95.9411 30.5423C96.1332 30.3433 96.0682 30.1455 96.0596 29.8652C96.0262 28.7471 94.2084 29.2402 94.2084 30.04C94.2084 30.7195 95.3398 30.6942 95.7794 30.9706C94.8388 31.388 94.1075 31.1621 93.111 30.9379C91.8014 30.6438 90.5995 30.1432 89.772 29.1256C89.3495 28.6061 88.9124 28.2071 88.5421 27.636C88.3531 27.3447 88.091 27.1859 87.843 26.9486C87.629 26.7444 87.5001 26.4245 87.3493 26.1786C86.9705 25.5616 86.548 24.9665 86.1984 24.3324C86.0549 24.0692 85.8622 23.8164 85.7285 23.5532C85.6123 23.3256 85.8245 23.1467 85.8495 22.926C85.6367 23.0315 85.3187 23.1473 85.315 22.7815C85.2974 22.4948 85.557 22.5808 85.6579 22.3572C84.8743 21.9742 84.8542 21.0591 84.6353 20.3534C84.4049 19.6092 84.1332 18.877 83.9125 18.1299C83.769 17.646 84.0444 17.2286 83.9362 16.7166C83.8043 16.0968 83.6559 15.4811 83.5288 14.8601C83.4693 14.5689 83.4589 14.4359 83.6036 14.1543C83.803 13.7679 83.3319 13.4852 83.6036 13.0839C83.7878 12.8127 83.4668 12.8592 83.4668 12.6602C83.4668 12.4853 83.6523 12.5415 83.6523 12.4418C83.6523 12.0054 83.645 11.6505 83.7878 11.2308C83.8973 10.9098 84.163 10.4574 83.8851 10.1793C83.6985 9.99185 84.0632 9.67421 84.1344 9.51654C84.3314 9.07908 83.9775 8.71844 84.0371 8.27983C84.1003 7.80797 84.2414 7.52646 84.5715 7.1899C84.2712 7.00299 84.0942 6.69338 83.9301 6.4004C84.1271 6.51507 84.3502 6.69396 84.5751 6.76735C84.6037 6.59535 84.6773 6.44283 84.7709 6.29434C84.4444 6.28918 83.8851 6.40385 83.651 6.24446C83.2838 5.9939 82.8151 5.91192 82.3688 5.93141C82.333 5.639 82.1494 5.42228 81.8916 5.27034C81.5925 5.0949 81.2228 4.84721 80.9109 4.98195C80.6118 5.11152 80.4775 5.17746 80.2173 5.39074C79.9206 5.63327 79.6464 6.0134 79.3004 6.13839C78.9417 6.26739 78.9825 6.65153 78.8086 6.91756C78.5642 7.29138 78.1186 7.347 77.8146 7.63597C77.5355 7.90143 77.3209 8.09407 76.9798 8.30277C76.6059 8.53268 76.2162 8.74023 75.7876 8.86981C75.4301 8.97817 75.2733 9.28491 74.8945 9.4013C74.5121 9.51998 74.1048 9.53489 73.7321 9.6874C73.4409 9.80608 73.1654 9.95802 72.87 10.0681C72.5149 10.2005 72.2243 9.99643 71.9459 9.79117C71.5622 9.50794 71.4577 9.42939 70.964 9.42939C70.173 9.42939 69.4787 9.89724 68.6939 9.98038C68.2403 10.5067 68.7249 11.1798 68.8161 11.7876C68.8811 12.2285 68.8835 11.8994 69.1662 12.0857C69.2435 12.3357 69.3073 12.5885 69.3681 12.8419C69.4666 13.2462 69.5578 13.6538 69.7019 14.0466C69.9049 14.6016 70.3761 14.9685 70.6862 15.4633C70.874 15.7614 70.9792 16.0945 70.964 16.4426C70.9403 16.9569 71.0424 16.9758 71.3154 17.4155C71.4425 17.6208 71.5021 17.7916 71.2656 17.9172C70.9202 18.1007 71.2108 18.3518 71.4437 18.5559C71.7416 18.8185 71.6157 19.3013 71.6194 19.6418C71.623 19.9778 71.7155 20.323 71.755 20.6572C71.7787 20.8562 71.8 21.0551 71.8298 21.2529C71.9307 21.2971 71.983 21.2816 71.983 21.3946C71.983 21.4129 71.6717 21.6141 71.8261 21.6474C72.017 21.6887 71.9903 21.644 71.9903 21.8957V24.4757H71.5781C72.0377 25.2429 71.9732 26.1631 71.8784 26.9996C71.8462 27.284 71.8152 27.5678 71.7914 27.8527C71.7793 27.992 71.7702 28.1314 71.7629 28.2713C71.6954 28.2598 71.6455 28.2781 71.6121 28.3263C71.5896 28.4146 71.6121 28.5379 71.6121 28.6279V32.244C71.6121 32.5072 71.4552 32.377 71.403 32.69C71.3008 33.2932 71.1063 33.4927 70.7761 33.9761C70.4424 34.4651 70.7913 35.3057 70.3712 35.7408C70.0812 36.0407 69.9773 36.0453 69.8533 36.4587C69.7882 36.6782 69.7165 36.8967 69.6374 37.1123C69.3681 37.8381 68.8136 39.2405 67.8731 39.3523C67.5333 39.3925 67.4755 39.4636 67.2092 39.2342C67.0134 39.0657 66.8317 38.8833 66.6414 38.7079C66.3435 38.4333 66.2504 38.3329 65.9921 38.6723C65.5026 38.044 64.9093 37.4832 64.4472 36.8388C63.9827 36.1898 63.6538 35.4656 63.3681 34.7335C63.0826 34.0157 62.773 33.3067 62.4397 32.6075C62.2604 32.2274 62.3497 31.7956 62.34 31.3949C62.3303 31.06 62.2281 30.7258 62.1534 30.4001C62.0299 29.856 61.7211 29.0676 62.2354 28.6566C62.506 28.4393 62.6938 28.191 63.0063 28.011C63.3328 27.8235 63.6715 27.6612 63.9529 27.4112C64.2721 27.128 64.5737 26.9887 64.8272 26.6372C65.0704 26.2972 65.2807 25.9366 65.4923 25.5777C65.6929 25.2371 65.941 24.9132 66.0905 24.552C66.2316 24.2108 66.2304 24.0331 66.5939 24.0641C66.5417 23.9052 66.355 23.5962 66.4359 23.419C66.4845 23.3095 66.6554 23.2281 66.7526 23.1782C66.7666 23.0206 66.7763 22.8623 66.7788 22.7041C66.7855 22.3327 66.8281 21.9627 66.9058 21.5987C66.9247 21.5069 66.9308 21.1503 67.0864 21.1537C67.146 21.1681 67.1709 21.1434 67.1612 21.0792C67.1612 20.362 67.2208 19.5415 67.0232 18.8443C66.9733 18.6654 67.0244 18.6517 67.1381 18.5273C67.2864 18.3673 66.9551 17.9178 66.8937 17.7773C66.555 17.0073 66.2559 16.8319 65.4248 16.5716C64.8941 16.4053 64.3536 16.1679 63.8016 16.0722C63.5584 16.0303 63.7395 16.2402 63.5559 16.2402C63.314 16.2402 63.0963 16.0269 62.923 15.8962C62.923 15.9478 62.8896 16.4781 62.9431 16.485C62.9832 16.4644 63.024 16.4449 63.0641 16.4259C63.2745 16.4494 62.6902 16.7505 62.6008 16.7579C62.3576 16.7774 62.261 16.5223 62.0524 16.6197C61.7722 16.7505 61.5752 17.0136 61.3211 17.181C61.1289 17.3077 60.9362 17.2791 60.7204 17.3244C60.6341 17.4163 60.5317 17.4935 60.4176 17.5526C60.0997 17.7223 59.7239 17.7865 59.3646 17.8174C58.8813 17.8593 58.6594 17.7366 58.5347 18.2589C58.4065 18.8002 57.8137 19.1081 57.2167 19.0393C57.3523 19.5862 57.1717 19.7685 57.0063 20.3115C56.9504 20.4955 57.0191 21.5001 56.8403 21.4691C56.7954 21.4616 56.8081 22.2517 56.8081 22.2981V24.8788C55.5545 23.4724 55.56 21.7191 55.2797 19.9669C55.2213 19.6235 55.1241 19.0398 54.7264 18.8879C54.4486 18.7818 54.0388 19.0192 53.7926 19.1121C53.274 19.3082 52.7597 19.5128 52.235 19.6952C51.852 19.8287 51.9608 20.2914 51.7304 20.6051C51.6191 20.757 51.4209 20.8344 51.3273 20.9972C51.2033 21.2122 51.1291 21.9043 51.3747 21.9885C51.6155 22.0723 51.03 22.6972 50.9741 22.7821C50.816 23.0217 50.9248 23.2665 50.8355 23.5194C50.7589 23.7441 50.6604 23.9614 50.5588 24.1764C50.4889 24.3244 50.1345 25.326 50.0816 25.326C49.7077 25.3237 49.7685 25.3071 49.76 24.9608C49.7478 24.5428 49.549 24.1076 49.4955 23.6828C49.4305 23.1593 49.4037 22.633 49.3496 22.1089C49.0468 22.1319 49.1994 21.0058 49.1994 20.7719V18.8403C49.1994 18.3444 47.3555 18.3386 47.3555 18.908V22.391C47.3555 22.7167 47.2643 23.1788 47.3555 23.4959C47.4205 23.7206 47.5397 23.5767 47.5397 23.8536V24.9218C47.5397 25.2451 47.4898 25.3673 47.6898 25.5771C47.8491 25.744 47.4813 26.5191 47.5634 26.5363C47.7555 26.5782 47.7269 26.5323 47.7269 26.7943V27.7409C47.7269 27.9026 47.668 28.1457 47.7835 28.2753C47.8832 28.3859 47.9124 28.3194 47.9124 28.4754C47.9124 29.817 47.9032 30.9155 48.6881 32.0949C48.9714 32.2136 49.4852 32.8059 49.8238 32.6212C50.0208 32.5135 50.0992 32.4183 50.1406 32.2113C50.3448 32.127 50.5436 32.0158 50.7035 31.8667C51.027 31.5657 51.1394 30.9459 51.2094 30.5377C51.2501 30.3003 51.1474 30.0687 51.444 30.0062C51.6787 29.9569 51.6775 29.645 51.7371 29.4489C52.0502 28.4163 52.1791 27.3832 52.3067 26.3207C52.3292 26.1333 52.511 25.4808 52.4435 25.4968C52.1499 25.5662 52.629 24.9418 52.6381 24.9327C53.2217 25.8724 53.8194 26.8356 54.6328 27.6194C55.4049 28.363 56.4117 28.6887 57.3261 29.2339C57.9839 31.2962 58.3603 33.6504 59.4613 35.551C59.7227 36.0023 60.068 36.465 60.1665 36.9804C60.2523 37.427 60.3817 37.724 60.631 38.1076C61.0457 38.7423 61.4633 39.3764 61.9369 39.9721C62.8902 41.1681 64.1469 42.2718 65.7914 42.4432C66.189 42.4845 66.3672 42.6313 66.8207 42.5636C67.2244 42.5034 67.6427 42.4455 68.0093 42.2667C68.9139 41.8252 69.5815 41.3768 70.3141 40.6796C70.6704 40.3414 71.0467 39.9819 71.2783 39.5541C71.485 39.1746 71.5215 39.0852 71.9197 38.8862C72.6146 38.5393 72.4031 37.1753 72.8603 36.5945C73.3734 35.9438 73.5789 34.7593 73.7284 33.968C73.8184 33.4927 73.8604 33.01 73.8604 32.5272C73.8604 32.1018 74.2227 31.779 74.2191 31.3392C74.213 30.5704 74.5863 29.9827 74.751 29.2488C74.8082 28.9948 74.4872 28.8509 74.63 28.6021C74.7146 28.4542 74.7431 28.2873 74.7559 28.1216C74.8343 28.1044 75.0526 28.0815 75.1085 27.9989L75.0088 27.9043C75.0501 27.8888 75.0909 27.8722 75.1322 27.8562C74.765 27.8877 74.948 26.7444 74.948 26.5048V23.5842V21.7592C74.948 21.7684 74.5194 21.3504 74.8185 21.3355C75.1602 21.3189 75.0453 20.8292 75.0678 20.5466C75.1049 20.0971 75.21 19.7835 74.9097 19.4073C74.7631 19.2315 74.5912 19.0758 74.399 18.9446C74.4537 18.8844 74.5024 18.8185 74.5425 18.7486C74.5498 18.7342 74.1735 18.3409 74.154 18.181C74.109 17.8106 74.2039 17.5417 74.0355 17.2309C73.9522 17.0778 74.323 16.8422 74.1777 16.7619C73.7917 16.5504 74.4404 16.6736 74.6361 16.7143C75.4283 16.8817 76.0229 16.9391 76.8449 16.9408C77.1689 16.9414 77.4966 16.9305 77.8206 16.9431C78.0626 16.9523 78.0675 16.7654 78.2481 16.9936C78.2778 17.2453 78.2851 17.4981 78.3113 17.7504C78.3609 17.7591 78.4119 17.7577 78.4608 17.7464C78.5806 17.9413 78.3301 19.6206 78.4955 19.6332C78.5368 19.612 78.58 19.5914 78.6226 19.5702C78.8305 19.5862 78.4754 19.7427 78.4955 19.7313C78.4481 19.7571 78.6299 20.1636 78.6323 20.2077C78.6463 20.5363 78.6548 20.8654 78.67 21.1939C78.684 21.5 78.8147 21.6617 78.808 22.0086C78.7958 22.6393 78.991 23.2568 79.2713 23.825C79.4956 24.2791 79.9114 24.8375 79.94 25.3484C79.9972 26.3288 80.7662 27.304 81.0885 28.234C81.4922 28.7901 81.8533 29.3727 82.2509 29.9328C82.5214 30.3141 83.1939 30.8525 83.2887 31.2819C83.3696 31.6454 84.1885 32.1637 84.4748 32.4355C84.881 32.8219 85.2871 33.2089 85.7206 33.5678C86.199 33.9652 86.7146 34.3361 87.2915 34.5976C87.7639 34.8057 88.0837 35.2219 88.5136 35.4886C89.0905 35.8457 89.7496 36.1783 90.3697 36.4644C90.7533 36.6352 91.4324 36.5613 91.4324 37.1128C91.4324 37.5325 91.1144 37.8163 91.3686 38.2349C91.5728 38.5732 91.9814 38.6632 92.3675 38.6064C92.3675 38.7492 92.4508 39.1723 92.2902 39.2617C92.8259 39.1213 93.1098 39.1448 93.6454 39.2692C93.9032 39.3288 94.2108 39.295 94.3318 39.0393C94.5537 38.5663 94.288 37.8341 93.629 38.1414C93.2654 38.31 92.3571 38.8696 92.7207 38.0807C92.8465 37.8077 93.629 37.7361 93.964 37.6885C94.091 37.5429 94.1871 37.38 94.2777 37.2126C94.451 37.2069 94.6352 37.1914 94.7987 37.1306C95.3295 36.9334 96.0384 37.4924 96.5041 37.0291C96.777 36.7579 96.7132 36.5011 96.9673 36.2345C97.2856 35.9016 97.6453 35.6061 98.0386 35.3544C98.4234 35.1078 98.3888 34.8183 98.8806 34.7335C99.1834 34.6807 99.6333 34.0363 99.8746 33.8287C100.683 33.1327 101.573 32.5266 102.367 31.8145C101.82 31.4178 102.485 30.6615 102.726 30.2814C103.093 29.6989 103.363 29.0785 103.475 28.4066C103.586 28.4719 103.707 28.566 103.831 28.6124C104.199 27.8378 104.183 26.9239 104.602 26.1808C104.861 25.721 105.067 25.2629 105.279 24.7825L105.361 25.4303C105.507 25.1316 105.583 24.806 105.669 24.4889C105.65 24.2498 105.239 24.4975 105.473 24.161C105.8 23.6902 105.748 23.0263 105.96 22.481C106.175 21.926 105.906 21.3791 106.287 20.8711C106.491 20.6022 106.437 20.3086 106.437 19.9956V18.7962C106.437 18.2939 106.899 18.1592 106.715 17.5938C106.633 17.3507 106.878 16.2264 106.709 16.219ZM61.3436 26.3637C60.9575 26.3637 61.0694 26.2525 61.0694 25.9039V24.6707C61.0694 24.4889 60.9934 24.1317 61.0694 23.9603C61.6901 23.6472 61.1405 22.8669 61.909 22.6863C62.1692 22.0906 62.4683 22.0419 63.0586 21.9192C62.9054 22.3245 62.5394 22.8583 62.5394 23.2992V24.3158C62.5394 24.6632 62.6093 24.8685 62.3747 25.0433C62.3291 25.4923 61.9874 26.3637 61.3436 26.3637ZM21.3698 8.76145C21.5509 8.89274 21.6549 9.13125 21.7978 9.29523C21.6428 9.50336 21.526 9.73097 21.3892 9.94999C21.2068 10.2424 21.0859 10.4499 20.7053 10.4528C20.3283 10.4557 20.0256 10.4821 19.811 10.7991C19.358 11.4665 18.3834 9.94254 18.2248 9.55438C18.1251 9.31186 17.9463 8.76661 18.2011 8.54587C18.3415 8.42432 18.5646 7.69043 18.4965 7.69043H19.5143C19.6869 7.69043 20.0809 8.00061 20.2371 8.08604C20.6226 8.29703 21.0123 8.50745 21.3698 8.76145Z" fill="#CD352C"/>
</g>
<defs>
<filter id="filter0_g_839_698" x="0" y="0" width="106.85" height="47.1528" filterUnits="userSpaceOnUse" color-interpolation-filters="sRGB">
<feFlood flood-opacity="0" result="BackgroundImageFix"/>
<feBlend mode="normal" in="SourceGraphic" in2="BackgroundImageFix" result="shape"/>
<feTurbulence type="fractalNoise" baseFrequency="0.25 0.25" numOctaves="3" seed="2762" />
<feDisplacementMap in="shape" scale="0" xChannelSelector="R" yChannelSelector="G" result="displacedImage" width="100%" height="100%" />
<feMerge result="effect1_texture_839_698">
<feMergeNode in="displacedImage"/>
</feMerge>
</filter>
</defs>
</svg>
