<svg width="80" height="76" viewBox="0 0 80 76" fill="none" xmlns="http://www.w3.org/2000/svg">
<g filter="url(#filter0_g_839_690)">
<path fill-rule="evenodd" clip-rule="evenodd" d="M5.90619 50.982C5.90619 51.9155 5.7078 52.3511 4.98191 52.4137L3.99206 52.4756C3.66169 52.5382 3.52971 52.4756 3.52971 52.9112C3.52971 53.285 3.5957 53.3468 3.99206 53.3468C4.25602 53.3468 5.31228 53.2224 7.09443 53.2224C8.81059 53.2224 9.86684 53.3468 10.1308 53.3468C10.5267 53.3468 10.5927 53.285 10.5927 52.9112C10.5927 52.4756 10.4608 52.5382 10.1308 52.4756L9.14054 52.4137C8.41423 52.3511 8.15027 51.9781 8.15027 50.982V34.7342C8.15027 34.4231 8.15027 34.3608 7.9523 34.3608C7.82032 34.3608 7.09443 34.4853 5.77379 34.4853L4.12362 34.5475H3.92565C3.66128 34.5475 3.5293 34.5475 3.5293 34.9209C3.5293 35.2943 3.66128 35.2943 4.05722 35.2943L4.84952 35.3566C5.64181 35.3566 5.90577 35.8544 5.90577 36.8505L5.90619 50.982ZM14.0251 46.4375V46.3756C14.0251 43.4491 15.0153 42.0174 17.1938 42.0174C19.1739 42.0174 20.0982 43.2628 20.0982 45.877V46.4375H14.0251ZM14.0251 47.3087H21.6824C22.2763 47.3087 22.5407 47.3087 22.5407 46.6864C22.5407 42.9513 20.9565 41.2084 17.3918 41.2084C13.4971 41.2084 11.583 43.2624 11.583 47.4958C11.583 51.5421 13.5631 53.5961 17.1942 53.5961C20.3626 53.5961 22.2767 51.8532 22.2767 49.861C22.2767 49.4254 22.1447 49.3628 21.6168 49.3628C20.4946 49.3628 20.6926 49.4872 20.5606 50.297C20.2966 51.7906 19.0424 52.7249 17.2598 52.7249C15.0153 52.7249 14.0255 51.2931 14.0255 48.3674L14.0251 47.3087ZM26.5673 50.982C26.5673 51.9155 26.3694 52.3511 25.5771 52.4137L24.6528 52.4756C24.3228 52.5382 24.1909 52.4756 24.1909 52.9112C24.1909 53.285 24.2568 53.3468 24.6528 53.3468C24.9827 53.3468 25.973 53.2224 27.6892 53.2224C29.2733 53.2224 30.1316 53.3468 30.3956 53.3468C30.7255 53.3468 30.7915 53.285 30.7915 52.9112C30.7915 52.4756 30.7255 52.5382 30.3956 52.4756L29.6033 52.4137C28.943 52.3511 28.745 51.9155 28.745 50.982V44.7572C28.745 43.4491 29.9332 42.2667 31.7154 42.2667C33.8939 42.2667 34.4218 43.2628 34.4218 45.504V50.982C34.4218 51.9155 34.2239 52.3511 33.5635 52.4137L32.7717 52.4756C32.3757 52.5382 32.3097 52.4756 32.3097 52.9112C32.3097 53.285 32.3757 53.3468 32.7717 53.3468C32.9696 53.3468 33.8939 53.2224 35.4781 53.2224C37.0623 53.2224 37.9205 53.3468 38.1845 53.3468C38.5145 53.3468 38.5805 53.285 38.5805 52.9112C38.5805 52.4756 38.5145 52.5382 38.1845 52.4756L37.3262 52.4137C36.7323 52.3511 36.5339 51.9155 36.5339 50.982V44.7572C36.5339 43.4491 37.7222 42.2667 39.5043 42.2667C41.6828 42.2667 42.1447 43.2628 42.1447 45.504V50.982C42.1447 51.9155 42.0128 52.3511 41.3529 52.4137L40.4946 52.4756C40.165 52.5382 40.0986 52.4756 40.0986 52.9112C40.0986 53.285 40.1646 53.3468 40.561 53.3468C40.759 53.3468 41.6828 53.2224 43.2674 53.2224C44.9172 53.2224 45.9074 53.3468 46.2374 53.3468C46.6337 53.3468 46.6993 53.285 46.6993 52.9112C46.6993 52.4756 46.5673 52.5382 46.2374 52.4756L45.2467 52.4137C44.5212 52.3511 44.3224 51.9781 44.3224 50.982V45.0683C44.3224 42.3912 43.465 41.1461 40.7581 41.1461C38.9096 41.1461 37.5898 41.7692 36.2696 43.0765C35.8072 41.8311 34.6854 41.1461 32.9028 41.1461C31.1866 41.1461 29.8664 41.7066 28.7442 42.8898V41.5818C28.7442 41.3951 28.6782 41.3332 28.4802 41.3332C27.8863 41.3332 27.16 41.4577 26.3681 41.4577L24.7839 41.5195C24.322 41.5195 24.256 41.5195 24.256 41.8933C24.256 42.2663 24.322 42.2663 24.6524 42.2663L25.4447 42.3289C26.3025 42.3289 26.5669 42.8264 26.5669 43.8225L26.5673 50.982ZM59.8363 47.0602C59.8363 43.138 57.9226 41.1457 54.0275 41.1457C49.8025 41.1457 47.6908 43.3873 47.6908 47.8073C47.6908 51.6043 49.6705 53.5965 53.4996 53.5965C57.7238 53.5965 59.8363 51.4176 59.8363 47.0602ZM53.5652 52.7249C50.9907 52.7249 50.0009 51.1065 50.0009 47.6199C50.0009 43.8229 51.2547 42.0174 54.0271 42.0174C56.6016 42.0174 57.4594 43.7611 57.4594 47.3717C57.4594 50.9824 56.1401 52.7249 53.5652 52.7249ZM63.7314 50.982C63.7314 51.9781 63.467 52.3511 62.7407 52.4137L61.8165 52.4756C61.4201 52.5382 61.3545 52.4756 61.3545 52.9112C61.3545 53.285 61.4201 53.3468 61.8165 53.3468C62.0808 53.3468 63.0703 53.2224 64.8528 53.2224C66.569 53.2224 67.5593 53.3468 67.8228 53.3468C68.2192 53.3468 68.2847 53.285 68.2847 52.9112C68.2847 52.4756 68.2192 52.5382 67.8228 52.4756L66.8985 52.4137C66.1731 52.3511 65.9087 51.9781 65.9087 50.982V44.7572C65.9087 43.4491 67.1625 42.2667 69.0775 42.2667C71.3211 42.2667 71.9154 43.2628 71.9154 45.504V50.982C71.9154 51.9781 71.6519 52.3511 70.8592 52.4137L69.9349 52.4756C69.5394 52.5382 69.473 52.4756 69.473 52.9112C69.473 53.285 69.5394 53.3468 69.9349 53.3468C70.1993 53.3468 71.1887 53.2224 72.9713 53.2224C74.6874 53.2224 75.7437 53.3468 76.0077 53.3468C76.404 53.3468 76.4696 53.285 76.4696 52.9112C76.4696 52.4756 76.3376 52.5382 76.0077 52.4756L75.0178 52.4137C74.2915 52.3511 74.0935 51.9781 74.0935 50.982V45.0683C74.0935 42.3912 73.1028 41.1461 70.3308 41.1461C68.4827 41.1461 67.0965 41.7066 65.9083 42.8898V41.5818C65.9083 41.3951 65.7763 41.3332 65.5783 41.3332C65.3139 41.3332 64.5876 41.4577 63.4658 41.4577L61.9476 41.5195C61.4857 41.5195 61.3533 41.5814 61.3533 41.8933C61.3533 42.2663 61.4189 42.2663 61.8152 42.2663L62.6071 42.3289C63.399 42.3908 63.7298 42.8264 63.7298 43.8225V50.982H63.7314ZM22.9366 61.9999C22.9366 63.8672 22.5407 64.7389 21.1545 64.7389C19.7683 64.7389 19.3063 63.9302 19.3063 61.9999C19.3063 60.0703 19.8343 59.199 21.1545 59.199C22.5407 59.199 22.9366 60.0084 22.9366 61.9999ZM22.9366 64.3032V64.9264C22.9366 65.0508 23.0026 65.0508 23.135 65.0508H24.9832C25.2471 65.0508 25.3131 65.0508 25.3131 64.8015C25.3131 64.614 25.2471 64.614 25.0491 64.614H24.6532C24.1913 64.614 24.0593 64.3029 24.0593 63.8054V56.7708C24.0593 55.8991 24.1253 55.4635 24.1253 55.4009C24.1253 55.2142 24.0593 55.1523 23.9933 55.1523C23.8613 55.1523 23.5314 55.2142 22.8051 55.2142L22.0132 55.2768H21.8812C21.7492 55.2768 21.6832 55.2768 21.6832 55.4635C21.6832 55.6502 21.7492 55.6502 21.9472 55.6502L22.3435 55.7128C22.8055 55.7128 22.9375 55.9614 22.9375 56.4596V59.5098C22.5415 58.9493 21.8812 58.7004 21.0233 58.7004C19.0432 58.7004 18.0529 59.821 18.0529 61.9999C18.0529 64.1166 19.0432 65.2371 20.9573 65.2371C21.8144 65.2375 22.4747 64.9264 22.9366 64.3032ZM27.9535 61.5024V61.4398C27.9535 59.9462 28.4815 59.199 29.6037 59.199C30.6596 59.199 31.1219 59.8213 31.1219 61.1912V61.5024H27.9535ZM27.9535 61.938H31.9138C32.2437 61.938 32.3761 61.938 32.3761 61.5642C32.3761 59.6346 31.5178 58.7634 29.6697 58.7634C27.6896 58.7634 26.6993 59.8213 26.6993 62.0629C26.6993 64.1169 27.6896 65.1749 29.6041 65.1749C31.2543 65.1749 32.2446 64.3032 32.2446 63.2453C32.2446 63.0586 32.1786 62.996 31.9146 62.996C31.3207 62.996 31.4527 63.0586 31.3207 63.4942C31.1887 64.3029 30.5944 64.7389 29.6701 64.7389C28.4819 64.7389 27.954 63.9921 27.954 62.4355L27.9535 61.938ZM35.1485 63.2453C35.0826 63.0586 35.1485 63.0586 34.7526 63.0586C34.5542 63.0586 34.4882 63.0586 34.4882 63.1831V64.7389C34.4882 64.9264 35.2145 65.1745 36.5348 65.1745C38.2509 65.1745 39.2412 64.4277 39.2412 63.1204C39.2412 62.2488 38.7133 61.875 37.5906 61.5639C36.3364 61.2527 35.6765 61.1908 35.6765 60.2566C35.6765 59.5716 36.2044 59.136 36.9967 59.136C37.3266 59.136 37.5906 59.1986 37.789 59.3853C38.0529 59.572 38.0529 59.7591 38.1189 60.0703L38.2509 60.4433C38.3169 60.6308 38.3169 60.6308 38.5809 60.6308H38.6469C38.8448 60.6308 38.9108 60.6308 38.9108 60.4433V59.0742C38.9108 59.0123 38.1849 58.763 37.1287 58.763C35.6105 58.763 34.6862 59.5098 34.6862 60.6926C34.6862 61.8132 35.4125 62.1243 36.7983 62.4355C37.7886 62.623 38.1845 62.8093 38.1845 63.5561C38.1845 64.3029 37.5902 64.7385 36.5339 64.7385C35.6761 64.7385 35.4117 64.4273 35.2137 63.6805L35.1485 63.2453ZM42.41 63.8676C42.41 64.3659 42.3444 64.5526 41.948 64.6144H41.4197C41.2217 64.677 41.2217 64.6144 41.2217 64.8637C41.2217 65.0512 41.2217 65.0512 41.4197 65.0512C41.5517 65.0512 42.0804 64.9886 43.0043 64.9886C43.9281 64.9886 44.4561 65.0512 44.6549 65.0512C44.786 65.0512 44.8528 65.0512 44.8528 64.8637C44.8528 64.6144 44.7864 64.677 44.5885 64.6144H44.1265C43.7302 64.5526 43.599 64.3659 43.599 63.8676V59.0127C43.599 58.8252 43.599 58.8252 43.467 58.8252C43.3351 58.8252 42.9387 58.8879 42.3452 58.8879H41.4205C41.2225 58.8879 41.2225 58.8879 41.2225 59.1364C41.2225 59.2609 41.2225 59.2609 41.4205 59.3239H41.8825C42.2788 59.3239 42.4108 59.5724 42.4108 60.0707V63.8676H42.41ZM42.2776 56.6467C42.2776 57.2072 42.4755 57.5183 43.0039 57.5183C43.5314 57.5183 43.7957 57.2072 43.7957 56.6467C43.7957 56.0862 43.5314 55.8373 43.0039 55.8373C42.4755 55.8369 42.2776 56.0862 42.2776 56.6467ZM47.2945 62.3736C47.1641 62.7986 47.0975 63.2386 47.0965 63.6809C47.0965 64.0547 47.2277 64.4277 47.36 64.7389L46.4358 65.4864C46.3038 65.7976 46.2378 66.1706 46.2378 66.4199C46.2378 67.4779 47.1621 68.101 48.9442 68.101C51.3203 68.101 52.5085 67.1667 52.5085 65.4864C52.5085 64.3032 51.7822 63.8672 50.1985 63.8672H48.5479C47.888 63.8672 47.558 63.6805 47.558 63.2449C47.558 62.9956 47.6236 62.8093 47.69 62.6226C48.1511 62.8093 48.6798 62.9337 49.2074 62.9337C50.8579 62.9337 51.9138 61.9995 51.9138 60.7552C51.9138 60.1947 51.7818 59.7591 51.3863 59.3853H52.5737V58.8879H50.7255C50.33 58.8879 49.8013 58.7004 49.0758 58.7004C47.5576 58.7004 46.6333 59.5098 46.6333 60.8797C46.6346 61.5024 46.8325 61.9999 47.2945 62.3736ZM47.6908 64.8637C48.4827 64.8019 49.077 64.8019 49.539 64.8019C50.9908 64.8019 51.5851 64.9264 51.5851 65.9225C51.5851 67.0423 50.6608 67.6654 49.077 67.6654C47.8224 67.6654 47.1625 67.1671 47.1625 66.171C47.1625 65.735 47.36 65.2375 47.6908 64.8637ZM47.8224 60.8174C47.8224 59.6969 48.2843 59.1364 49.275 59.1364C50.2649 59.1364 50.7268 59.6969 50.7268 60.7556C50.7268 61.938 50.2649 62.4985 49.2086 62.4985C48.2843 62.4985 47.8224 61.938 47.8224 60.8174ZM55.2814 63.8676C55.2814 64.3659 55.1494 64.5526 54.7538 64.6144H54.2919C54.0931 64.677 54.0275 64.6144 54.0275 64.8637C54.0275 65.0512 54.0931 65.0512 54.2919 65.0512C54.4239 65.0512 54.9518 64.9886 55.8757 64.9886C56.734 64.9886 57.2619 65.0512 57.4594 65.0512C57.6582 65.0512 57.6582 65.0512 57.6582 64.8637C57.6582 64.6144 57.6582 64.677 57.4594 64.6144H56.9319C56.5356 64.5526 56.4044 64.3659 56.4044 63.8676V60.5681C56.4044 59.9458 57.0643 59.2609 58.0542 59.2609C59.2424 59.2609 59.5724 59.8213 59.5724 61.0038V63.8672C59.5724 64.3655 59.4412 64.5522 59.0449 64.614H58.5165C58.3186 64.6766 58.3186 64.614 58.3186 64.8633C58.3186 65.0508 58.3186 65.0508 58.5165 65.0508C58.6485 65.0508 59.1773 64.9882 60.1011 64.9882C61.025 64.9882 61.5529 65.0508 61.6849 65.0508C61.8829 65.0508 61.9493 65.0508 61.9493 64.8633C61.9493 64.614 61.8829 64.6766 61.6849 64.614H61.223C60.761 64.5522 60.6955 64.3655 60.6955 63.8672V60.7552C60.6955 59.3235 60.1671 58.7004 58.7153 58.7004C57.7911 58.7004 56.9992 59.0123 56.4053 59.6346V58.9497C56.4053 58.8252 56.3389 58.8252 56.2733 58.8252C56.1413 58.8252 55.7449 58.8879 55.1506 58.8879H54.3587C54.0944 58.8879 54.0288 58.9497 54.0288 59.1364C54.0288 59.2609 54.0944 59.2609 54.2932 59.3239H54.6887C55.1506 59.3857 55.283 59.5724 55.283 60.0707V63.8676H55.2814Z" fill="#3F3D56"/>
<path fill-rule="evenodd" clip-rule="evenodd" d="M42.7402 35.9174H55.0841V16.8062L44.5224 17.989L42.7402 35.9174Z" fill="#F3D235"/>
<path fill-rule="evenodd" clip-rule="evenodd" d="M31.9785 35.9169H38.6456L38.7116 27.6372L35.6748 27.8239L31.9785 35.9169Z" fill="#76B254"/>
<path fill-rule="evenodd" clip-rule="evenodd" d="M24.7188 20.2922V35.9172H28.2831L34.7522 19.1094L24.7188 20.2922Z" fill="#0D99D7"/>
<path fill-rule="evenodd" clip-rule="evenodd" d="M55.0834 7.34375H47.2276C47.162 7.46821 47.162 7.65491 47.0965 7.84161C46.2382 11.2656 43.2014 14.1286 40.231 14.3157C37.3262 14.4402 35.61 11.7634 36.4683 8.33947C36.5343 8.02831 36.6663 7.65491 36.7983 7.34375H24.7188V17.6152L55.0834 13.32V7.34375Z" fill="#C61E80"/>
</g>
<defs>
<filter id="filter0_g_839_690" x="3.5293" y="7.34375" width="72.9395" height="60.7573" filterUnits="userSpaceOnUse" color-interpolation-filters="sRGB">
<feFlood flood-opacity="0" result="BackgroundImageFix"/>
<feBlend mode="normal" in="SourceGraphic" in2="BackgroundImageFix" result="shape"/>
<feTurbulence type="fractalNoise" baseFrequency="0.25 0.25" numOctaves="3" seed="2762" />
<feDisplacementMap in="shape" scale="0" xChannelSelector="R" yChannelSelector="G" result="displacedImage" width="100%" height="100%" />
<feMerge result="effect1_texture_839_690">
<feMergeNode in="displacedImage"/>
</feMerge>
</filter>
</defs>
</svg>
