<svg width="416" height="125" viewBox="0 0 416 125" fill="none" xmlns="http://www.w3.org/2000/svg">
<path d="M72.25 56.6L78.2 58.05C76.15 64.55 73.2 70.35 69.6 75.2C71.05 78.8 72.65 80.9 74.25 80.9C75.45 80.9 76.05 78.4 76.3 72.15C77.65 73.55 79.75 74.85 81.35 75.5C80.4 84.75 78.4 86.95 73.75 86.95C70.25 86.95 67.5 84.45 65.3 80.35C62.75 83 59.95 85.25 56.85 87.15C55.95 85.85 53.8 83.4 52.55 82.25C56.4 80.15 59.85 77.4 62.75 74.15C61.05 68.5 59.95 61.5 59.3 54H44.8V59.35H57.15C57.15 59.35 57.1 60.9 57.1 61.6C56.95 72.1 56.65 76.55 55.5 78C54.55 79.3 53.55 79.75 52.05 80C50.75 80.2 48.6 80.2 46.3 80.15C46.2 78.4 45.55 76.1 44.65 74.6C46.45 74.75 48.15 74.8 48.95 74.8C49.65 74.8 50.05 74.7 50.45 74.2C50.95 73.5 51.15 71.1 51.3 64.8H44.8C44.6 72.1 43.55 81.85 39.45 87.95C38.4 86.8 35.75 84.6 34.4 83.9C38.2 77.9 38.55 69.2 38.55 62.7V48.1H58.95C58.85 45.65 58.75 43.2 58.75 40.7H65C64.95 43.2 65 45.65 65.1 48.1H72.75C70.9 46.6 68.4 45 66.35 43.75L69.95 40.2C72.7 41.6 76.35 43.9 78.1 45.55L75.7 48.1H80.9V54H65.45C65.9 59 66.6 63.7 67.45 67.7C69.4 64.35 71.05 60.65 72.25 56.6ZM123.45 69.4H111.85C112.95 71.35 114.25 73.05 115.8 74.6C118.45 73.05 121.3 71.1 123.45 69.4ZM125.2 69.4L129.05 72.1C126.2 74.15 122.85 76.15 119.85 77.75C123.05 79.75 126.9 81.2 131.5 82.05C130.25 83.35 128.55 85.8 127.75 87.4C116.45 84.8 109.8 78.85 105.65 69.4H99.9V80C103.4 79.5 107.1 78.95 110.7 78.4L110.95 83.65C103.3 84.9 95.05 86.15 89 87.05L87.65 81.6C89.45 81.4 91.5 81.1 93.75 80.85V69.4H85.5V64.15H93.8V42.35H125.35V47.2H99.9V49.85H123.95V54.45H99.9V56.95H123.95V61.55H99.9V64.15H130.55V69.4H125.2ZM157.3 42.9C157.05 44.15 156.7 45.8 156.05 47.9C160.8 47.65 165.8 47.2 170.2 46.45L170.15 52.25C165.4 52.95 159.25 53.35 153.85 53.5C153 55.35 152 57.15 151 58.6C152.3 58 155 57.6 156.65 57.6C159.7 57.6 162.2 58.9 163.3 61.45C165.9 60.25 168 59.4 170.05 58.5C172 57.65 173.75 56.85 175.6 55.9L178.1 61.7C176.5 62.15 173.85 63.15 172.15 63.8C169.9 64.7 167.05 65.8 164 67.2C164.05 70 164.15 73.7 164.2 76H158.2C158.35 74.5 158.4 72.1 158.45 69.9C154.7 72.05 152.7 74 152.7 76.5C152.7 79.25 155.05 80 159.95 80C164.2 80 169.75 79.45 174.15 78.6L173.95 85.05C170.65 85.5 164.5 85.9 159.8 85.9C151.95 85.9 146.15 84 146.15 77.55C146.15 71.15 152.15 67.15 157.85 64.2C157.1 62.95 155.75 62.5 154.35 62.5C151.55 62.5 148.45 64.1 146.55 65.95C145.05 67.45 143.6 69.25 141.9 71.45L136.55 67.45C141.8 62.6 145.35 58.15 147.6 53.65C147.35 53.65 147.15 53.65 146.95 53.65C144.9 53.65 141.25 53.55 138.5 53.35V47.5C141.05 47.9 144.75 48.1 147.3 48.1C148.05 48.1 148.9 48.1 149.7 48.1C150.25 46.1 150.6 44.15 150.7 42.35L157.3 42.9ZM213.2 78.9H230.8V84.85H185.15V78.9H191.5V50.9H197.75V78.9H206.85V40.65H213.2V56.25H228.1V62.25H213.2V78.9ZM267.95 43.8C267.55 45.15 267.1 47.6 266.8 48.85C266.65 49.5 266.5 50.1 266.35 50.75C274.2 52.55 279.4 58.9 279.4 67.65C279.4 78.25 271.85 84.3 261.45 85.9L257.65 80.1C268.6 79.2 272.95 73.55 272.95 67.3C272.95 61.75 269.85 57.6 264.85 56.25C263.1 62.05 260.9 67.8 258.05 72.15C258.95 73.2 259.85 74.25 260.8 75.15L255.75 79.15C255.15 78.5 254.55 77.85 254.05 77.2C250.7 80.85 247.9 82.5 244.2 82.5C240.05 82.5 236.25 79 236.25 72.55C236.25 66.85 239.1 60.75 243.65 56.75C243.15 55.4 242.75 54.05 242.3 52.7C241.75 50.9 241.2 49.3 240.3 47.5L246.85 45.45C247.15 47.1 247.55 48.75 247.95 50.25C248.2 51.2 248.5 52.25 248.85 53.3C252.65 51.4 256.35 50.45 260.2 50.3C260.4 49.45 260.55 48.65 260.65 47.9C260.9 46.45 261.05 44.3 261.05 43.15L267.95 43.8ZM242.1 72.05C242.1 74.5 243.15 76.05 244.95 76.05C246.75 76.05 248.6 74.5 250.45 72.25C248.85 69.8 247.25 66.4 245.8 62.65C243.45 65.4 242.1 68.95 242.1 72.05ZM250.65 58.75C251.8 61.85 253.05 64.75 254.25 66.75C256.05 63.55 257.55 59.65 258.7 55.95C255.65 56.3 253 57.35 250.65 58.75ZM306.6 42.75C306.2 44.35 305.55 46.9 304.8 49.6C307.25 49.15 309.6 48.6 311.55 48L311.75 53.8C309.45 54.4 306.35 55.05 303 55.55C300.6 62.55 296.35 71.3 292.3 76.95L286.25 73.85C290.2 68.95 294.25 61.6 296.45 56.2C295.55 56.25 294.7 56.25 293.85 56.25C291.8 56.25 289.75 56.2 287.6 56.05L287.15 50.25C289.3 50.5 291.95 50.6 293.8 50.6C295.3 50.6 296.8 50.55 298.35 50.4C299.05 47.65 299.6 44.65 299.7 42.05L306.6 42.75ZM304 77.35C304 79.2 305.55 80.45 308.3 80.45C311.75 80.45 312.8 78.55 312.8 75.8C312.8 75.5 312.8 75.2 312.8 74.8C311.5 74.5 310.15 74.3 308.75 74.3C305.85 74.3 304 75.6 304 77.35ZM318.3 58.3C318.15 60.4 318.25 62.5 318.3 64.7C318.35 66.15 318.5 68.55 318.6 71.05C322.9 72.65 326.4 75.15 328.95 77.45L325.6 82.8C323.85 81.2 321.6 79.1 318.85 77.45C318.85 77.6 318.85 77.8 318.85 77.95C318.85 82.6 316.3 86.2 309.2 86.2C303 86.2 298.1 83.45 298.1 77.95C298.1 73.05 302.2 69.3 309.15 69.3C310.35 69.3 311.45 69.4 312.6 69.5C312.4 65.8 312.15 61.35 312.05 58.3H318.3ZM326.9 60.95C324 58.65 318.3 55.4 314.9 53.85L318.1 48.9C321.7 50.45 327.9 53.85 330.45 55.7L326.9 60.95ZM346 47.25C345.65 49.05 345.4 51.95 345.4 53.35C345.35 56.6 345.4 60.35 345.7 63.95C346.4 71.15 347.9 76.1 351.05 76.1C353.4 76.1 355.4 70.25 356.35 66.25L361.35 72.35C358.05 81.05 354.9 84.1 350.9 84.1C345.4 84.1 340.65 79.15 339.25 65.75C338.75 61.15 338.7 55.3 338.7 52.25C338.7 50.85 338.6 48.7 338.3 47.15L346 47.25ZM371 48.4C375.75 54.15 379.55 66.65 380.1 74.3L373.55 76.85C372.75 68.8 370.1 56.65 364.65 50.45L371 48.4Z" fill="#2A7BE4"/>
<path d="M392.6 89.8L390.9 86.6C394.15 84.8 395.8 82.7 395.8 79.45C395.6 79.5 395.45 79.5 395.25 79.5C393.1 79.5 391.25 78.05 391.25 75.65C391.25 73.1 392.95 71.45 395.25 71.45C398.4 71.45 400.1 73.95 400.1 78.2C400.1 83.35 397.6 87.25 392.6 89.8ZM405.1 89.8L403.4 86.6C406.65 84.8 408.3 82.7 408.3 79.45C408.1 79.5 407.95 79.5 407.75 79.5C405.6 79.5 403.75 78.05 403.75 75.65C403.75 73.1 405.45 71.45 407.75 71.45C410.9 71.45 412.6 73.95 412.6 78.2C412.6 83.35 410.1 87.25 405.1 89.8Z" fill="#2A7BE4"/>
<path d="M23.4 35.2L25.1 38.4C21.85 40.2 20.2 42.3 20.2 45.55C20.4 45.5 20.55 45.5 20.75 45.5C22.9 45.5 24.75 46.95 24.75 49.35C24.75 51.9 23.05 53.55 20.75 53.55C17.6 53.55 15.9 51.05 15.9 46.8C15.9 41.65 18.4 37.75 23.4 35.2ZM10.9 35.2L12.6 38.4C9.35 40.2 7.7 42.3 7.7 45.55C7.9 45.5 8.05 45.5 8.25 45.5C10.4 45.5 12.25 46.95 12.25 49.35C12.25 51.9 10.55 53.55 8.25 53.55C5.1 53.55 3.4 51.05 3.4 46.8C3.4 41.65 5.9 37.75 10.9 35.2Z" fill="#2A7BE4"/>
</svg>
