<svg width="157" height="115" viewBox="0 0 157 115" fill="none" xmlns="http://www.w3.org/2000/svg">
<path d="M25.6738 114.244C25.6738 114.405 25.7677 114.535 25.8847 114.535H131.025C131.143 114.535 131.236 114.405 131.236 114.244C131.236 114.082 131.142 113.952 131.025 113.952H25.8847C25.7677 113.952 25.6738 114.082 25.6738 114.244Z" fill="#CCCCCC"/>
<path d="M63.7148 113.283H59.9609V113.908H63.7148V113.283Z" fill="#B6B3C5"/>
<path d="M96.9473 113.388H93.1934V114.012H96.9473V113.388Z" fill="#B6B3C5"/>
<path d="M83.8367 85.4824C83.6277 86.6749 82.9765 87.7587 81.9991 88.5406C81.0217 89.3225 79.7817 89.7517 78.5 89.7517C77.2184 89.7517 75.9783 89.3225 75.0009 88.5406C74.0236 87.7587 73.3723 86.6749 73.1633 85.4824H59.5098V113.387H97.4909V85.4824H83.8367Z" fill="#D6D6E3"/>
<path d="M97.6014 111.176H59.6211V112.147H97.6014V111.176Z" fill="#3F3D56"/>
<path d="M154.883 86.2121H2.11735C1.55599 86.2115 1.01779 86.001 0.620848 85.6266C0.223902 85.2523 0.000624087 84.7447 0 84.2153L0 1.99697C0.000572085 1.46754 0.223827 0.959943 0.620779 0.58556C1.01773 0.211178 1.55595 0.000588637 2.11735 0H154.883C155.444 0.000637488 155.982 0.211217 156.379 0.585549C156.776 0.95988 156.999 1.4674 157 1.99678V84.2153C156.999 84.7447 156.776 85.2522 156.379 85.6266C155.982 86.0009 155.444 86.2115 154.883 86.2121Z" fill="#3F3D56"/>
<path d="M153.334 3.33105H3.8418V82.8794H153.334V3.33105Z" fill="white"/>
<path d="M130.351 71.51H26.0414C25.7731 71.5098 25.5158 71.4091 25.326 71.2302C25.1363 71.0512 25.0296 70.8086 25.0293 70.5555V12.3988C25.0296 12.1457 25.1363 11.9031 25.326 11.7242C25.5158 11.5452 25.7731 11.4446 26.0414 11.4443H130.351C130.62 11.4446 130.877 11.5452 131.067 11.7242C131.256 11.9031 131.363 12.1457 131.363 12.3988V70.5555C131.363 70.8086 131.256 71.0512 131.067 71.2302C130.877 71.4091 130.62 71.5098 130.351 71.51ZM26.0414 11.8262C25.8804 11.8264 25.7261 11.8868 25.6123 11.9942C25.4985 12.1015 25.4345 12.247 25.4343 12.3988V70.5555C25.4345 70.7073 25.4985 70.8528 25.6123 70.9602C25.7261 71.0675 25.8804 71.1279 26.0414 71.1281H130.351C130.512 71.1279 130.666 71.0675 130.78 70.9602C130.894 70.8528 130.958 70.7073 130.958 70.5555V12.3988C130.958 12.247 130.894 12.1015 130.78 11.9942C130.666 11.8868 130.512 11.8264 130.351 11.8262H26.0414Z" fill="#E6E6E6"/>
<path d="M68.445 16.1162C68.2322 16.1162 68.0281 16.1959 67.8776 16.3379C67.7271 16.4798 67.6426 16.6723 67.6426 16.873C67.6426 17.0737 67.7271 17.2662 67.8776 17.4081C68.0281 17.55 68.2322 17.6297 68.445 17.6297H88.5629C88.7757 17.6333 88.9813 17.557 89.1344 17.4177C89.2876 17.2783 89.3757 17.0873 89.3796 16.8866C89.3834 16.6859 89.3025 16.492 89.1547 16.3476C89.0069 16.2031 88.8043 16.12 88.5915 16.1164L68.445 16.1162Z" fill="#2E7EE5"/>
<path d="M93.1253 15.905C93.1106 15.9188 93.0989 15.9352 93.0909 15.9532C93.0829 15.9713 93.0788 15.9907 93.0788 16.0102C93.0788 16.0298 93.0829 16.0492 93.0909 16.0673C93.0989 16.0853 93.1106 16.1017 93.1253 16.1155L93.8032 16.7548H92.1325C92.0906 16.7548 92.0504 16.7705 92.0208 16.7984C91.9912 16.8263 91.9746 16.8642 91.9746 16.9037C91.9746 16.9431 91.9912 16.981 92.0208 17.0089C92.0504 17.0369 92.0906 17.0526 92.1325 17.0526H93.8026L93.1247 17.6918C93.0951 17.7197 93.0785 17.7576 93.0785 17.7971C93.0785 17.8366 93.0951 17.8744 93.1247 17.9023C93.1543 17.9302 93.1945 17.9459 93.2364 17.9459C93.2782 17.9459 93.3184 17.9302 93.348 17.9023L94.2952 17.009C94.31 16.9952 94.3217 16.9788 94.3296 16.9608C94.3376 16.9427 94.3417 16.9233 94.3417 16.9038C94.3417 16.8842 94.3376 16.8648 94.3296 16.8467C94.3217 16.8287 94.31 16.8123 94.2952 16.7985L93.348 15.9052C93.3333 15.8913 93.316 15.8803 93.2968 15.8727C93.2776 15.8652 93.2571 15.8613 93.2364 15.8613C93.2156 15.8613 93.1951 15.8652 93.1759 15.8727C93.1567 15.8803 93.1394 15.8913 93.1247 15.9052L93.1253 15.905Z" fill="#E6E6E6"/>
<path d="M63.8756 15.905C63.8903 15.9188 63.902 15.9352 63.91 15.9532C63.918 15.9713 63.9221 15.9907 63.9221 16.0102C63.9221 16.0298 63.918 16.0492 63.91 16.0673C63.902 16.0853 63.8903 16.1017 63.8756 16.1155L63.1977 16.7548H64.869C64.9109 16.7548 64.951 16.7705 64.9807 16.7984C65.0103 16.8263 65.0269 16.8642 65.0269 16.9037C65.0269 16.9431 65.0103 16.981 64.9807 17.0089C64.951 17.0369 64.9109 17.0526 64.869 17.0526H63.1973L63.8752 17.6918C63.9048 17.7197 63.9214 17.7576 63.9214 17.7971C63.9214 17.8366 63.9048 17.8744 63.8752 17.9023C63.8456 17.9302 63.8054 17.9459 63.7636 17.9459C63.7217 17.9459 63.6816 17.9302 63.652 17.9023L62.7047 17.009C62.69 16.9952 62.6783 16.9788 62.6703 16.9608C62.6623 16.9427 62.6582 16.9233 62.6582 16.9038C62.6582 16.8842 62.6623 16.8648 62.6703 16.8467C62.6783 16.8287 62.69 16.8123 62.7047 16.7985L63.652 15.9052C63.6666 15.8913 63.684 15.8803 63.7031 15.8727C63.7223 15.8652 63.7428 15.8613 63.7636 15.8613C63.7843 15.8613 63.8049 15.8652 63.824 15.8727C63.8432 15.8803 63.8606 15.8913 63.8752 15.9052L63.8756 15.905Z" fill="#E6E6E6"/>
<path d="M131.236 75.8986C130.321 75.8986 129.427 75.6428 128.667 75.1635C127.906 74.6843 127.313 74.0031 126.963 73.2062C126.613 72.4093 126.522 71.5323 126.7 70.6863C126.879 69.8403 127.319 69.0632 127.966 68.4532C128.613 67.8433 129.437 67.4279 130.334 67.2596C131.231 67.0913 132.161 67.1777 133.006 67.5078C133.851 67.8379 134.573 68.3969 135.081 69.1141C135.59 69.8313 135.861 70.6746 135.861 71.5372C135.861 72.6939 135.374 73.8032 134.506 74.6211C133.639 75.4391 132.463 75.8986 131.236 75.8986Z" fill="#2E7EE5"/>
<path d="M133.061 71.1066H131.692V69.816C131.692 69.7019 131.644 69.5925 131.559 69.5118C131.473 69.4311 131.357 69.3857 131.236 69.3857C131.115 69.3857 130.999 69.4311 130.913 69.5118C130.828 69.5925 130.78 69.7019 130.78 69.816V71.1066H129.411C129.29 71.1066 129.174 71.1519 129.089 71.2326C129.003 71.3133 128.955 71.4228 128.955 71.5369C128.955 71.651 129.003 71.7604 129.089 71.8411C129.174 71.9218 129.29 71.9671 129.411 71.9671H130.781V73.2585C130.781 73.3726 130.829 73.482 130.914 73.5627C131 73.6434 131.116 73.6888 131.237 73.6888C131.358 73.6888 131.474 73.6434 131.56 73.5627C131.645 73.482 131.693 73.3726 131.693 73.2585V71.967H133.062C133.183 71.967 133.299 71.9216 133.384 71.8409C133.47 71.7602 133.518 71.6508 133.518 71.5367C133.518 71.4226 133.47 71.3131 133.384 71.2325C133.299 71.1518 133.183 71.1064 133.062 71.1064L133.061 71.1066Z" fill="white"/>
<path d="M47.6665 23.8633H33.7676V32.7714H47.6665V23.8633Z" fill="#F1F1F1"/>
<path d="M66.5591 23.8633H52.6602V32.7714H66.5591V23.8633Z" fill="#F1F1F1"/>
<path d="M85.4498 23.8633H71.5508V32.7714H85.4498V23.8633Z" fill="#F1F1F1"/>
<path d="M104.342 23.8633H90.4434V32.7714H104.342V23.8633Z" fill="#F1F1F1"/>
<path d="M123.233 23.8633H109.334V32.7714H123.233V23.8633Z" fill="#F1F1F1"/>
<path d="M47.7173 39.5156H33.8184V48.4237H47.7173V39.5156Z" fill="#F1F1F1"/>
<path d="M66.608 39.5156H52.709V48.4237H66.608V39.5156Z" fill="#F1F1F1"/>
<path d="M85.5005 39.5156H71.6016V48.4237H85.5005V39.5156Z" fill="#F1F1F1"/>
<path d="M104.393 39.5156H90.4941V48.4237H104.393V39.5156Z" fill="#F1F1F1"/>
<path d="M123.284 39.5156H109.385V48.4237H123.284V39.5156Z" fill="#F1F1F1"/>
<path d="M47.7681 55.168H33.8691V64.076H47.7681V55.168Z" fill="#F1F1F1"/>
<path d="M66.6587 55.168H52.7598V64.076H66.6587V55.168Z" fill="#F1F1F1"/>
<path d="M85.5513 55.168H71.6523V64.076H85.5513V55.168Z" fill="#F1F1F1"/>
<path d="M104.444 55.168H90.5449V64.076H104.444V55.168Z" fill="#F1F1F1"/>
<path d="M123.116 55.0752H109.217V63.9833H123.116V55.0752Z" fill="#F1F1F1"/>
<path d="M74.4359 28.3175C75.4047 28.3175 76.1901 27.5768 76.1901 26.6631C76.1901 25.7495 75.4047 25.0088 74.4359 25.0088C73.467 25.0088 72.6816 25.7495 72.6816 26.6631C72.6816 27.5768 73.467 28.3175 74.4359 28.3175Z" fill="#2E7EE5"/>
<path d="M55.2738 43.9698C56.2426 43.9698 57.028 43.2292 57.028 42.3155C57.028 41.4018 56.2426 40.6611 55.2738 40.6611C54.3049 40.6611 53.5195 41.4018 53.5195 42.3155C53.5195 43.2292 54.3049 43.9698 55.2738 43.9698Z" fill="#2E7EE5"/>
<path d="M74.4359 59.6222C75.4047 59.6222 76.1901 58.8815 76.1901 57.9678C76.1901 57.0542 75.4047 56.3135 74.4359 56.3135C73.467 56.3135 72.6816 57.0542 72.6816 57.9678C72.6816 58.8815 73.467 59.6222 74.4359 59.6222Z" fill="#2E7EE5"/>
<path d="M93.7328 43.9698C94.7016 43.9698 95.487 43.2292 95.487 42.3155C95.487 41.4018 94.7016 40.6611 93.7328 40.6611C92.7639 40.6611 91.9785 41.4018 91.9785 42.3155C91.9785 43.2292 92.7639 43.9698 93.7328 43.9698Z" fill="#3F3D56"/>
<path d="M112.489 43.9698C113.457 43.9698 114.243 43.2292 114.243 42.3155C114.243 41.4018 113.457 40.6611 112.489 40.6611C111.52 40.6611 110.734 41.4018 110.734 42.3155C110.734 43.2292 111.52 43.9698 112.489 43.9698Z" fill="#3F3D56"/>
<path d="M55.2738 59.6222C56.2426 59.6222 57.028 58.8815 57.028 57.9678C57.028 57.0542 56.2426 56.3135 55.2738 56.3135C54.3049 56.3135 53.5195 57.0542 53.5195 57.9678C53.5195 58.8815 54.3049 59.6222 55.2738 59.6222Z" fill="#3F3D56"/>
<path d="M112.489 28.3175C113.457 28.3175 114.243 27.5768 114.243 26.6631C114.243 25.7495 113.457 25.0088 112.489 25.0088C111.52 25.0088 110.734 25.7495 110.734 26.6631C110.734 27.5768 111.52 28.3175 112.489 28.3175Z" fill="white"/>
</svg>
