<svg width="140" height="120" viewBox="0 0 140 120" fill="none" xmlns="http://www.w3.org/2000/svg">
<g clip-path="url(#clip0_839_1076)">
<path d="M41.1433 118.748C43.3907 116.846 44.7558 113.843 44.3978 110.918C44.0398 107.994 41.8225 105.306 38.9462 104.685C36.07 104.064 32.7913 105.783 31.9177 108.596C31.4369 103.172 30.8829 97.5208 28.0029 92.9018C25.3952 88.7194 20.8785 85.7267 15.9835 85.1913C11.0884 84.656 5.93456 86.678 2.8817 90.5467C-0.17116 94.4153 -0.918638 100.039 1.21951 104.481C2.7946 107.753 5.69648 110.188 8.73693 112.169C18.5617 118.516 30.3452 121.097 41.9195 119.438" fill="#F2F2F2"/>
<path d="M7.72192 86.7901C11.7609 90.0843 15.4663 93.7685 18.7844 97.7895C23.9773 104.061 28.1794 111.092 31.2444 118.638C31.4688 119.189 30.576 119.429 30.3541 118.884C28.405 114.113 25.9936 109.545 23.1545 105.244C18.7271 98.527 13.303 92.5245 7.06906 87.4439C6.60814 87.068 7.2648 86.4174 7.72192 86.7901Z" fill="white"/>
<path d="M42.6961 118.748C40.4486 116.846 39.0835 113.843 39.4415 110.918C39.7995 107.994 42.0169 105.306 44.8931 104.685C47.7694 104.064 51.0481 105.783 51.9217 108.596C52.4025 103.172 52.9565 97.5208 55.8365 92.9018C58.4442 88.7194 62.9609 85.7267 67.8559 85.1913C72.751 84.656 77.9048 86.678 80.9577 90.5467C84.0105 94.4153 84.758 100.039 82.6199 104.481C81.0448 107.753 78.1429 110.188 75.1024 112.169C65.2777 118.516 53.4941 121.097 41.9199 119.438" fill="#F2F2F2"/>
<path d="M76.117 86.7901C72.0779 90.0843 68.3726 93.7685 65.0544 97.7895C59.8616 104.061 55.6594 111.092 52.5945 118.638C52.3701 119.189 53.2629 119.429 53.4847 118.884C58.4996 106.62 66.5054 95.8102 76.7698 87.4439C77.2307 87.068 76.5741 86.4174 76.117 86.7901Z" fill="white"/>
<path d="M49.3641 53.9822C53.5218 53.9822 56.8923 50.6074 56.8923 46.4442C56.8923 42.2811 53.5218 38.9062 49.3641 38.9062C45.2064 38.9062 41.8359 42.2811 41.8359 46.4442C41.8359 50.6074 45.2064 53.9822 49.3641 53.9822Z" fill="#F2F2F2"/>
<path d="M26.1523 20.459H78.0195V23.3004H32.7736C30.1133 23.3004 27.4791 23.825 25.0213 24.8444C22.5635 25.8638 20.3303 27.3579 18.4492 29.2415C16.5681 31.125 15.0759 33.3611 14.0579 35.8221C13.0398 38.2831 12.5158 40.9208 12.5158 43.5845V75.8662H6.84043C6.58957 75.8662 6.34898 75.7664 6.17159 75.5888C5.9942 75.4112 5.89454 75.1703 5.89453 74.9191V40.7431C5.89453 38.0793 6.41851 35.4417 7.43656 32.9807C8.45461 30.5197 9.94679 28.2836 11.8279 26.4C13.709 24.5165 15.9422 23.0224 18.4 22.003C20.8578 20.9836 23.492 20.459 26.1523 20.459Z" fill="#F2F2F2"/>
<path d="M36.1289 118.906V75.7451H48.7569V118.906C48.7565 119.196 48.6413 119.474 48.4364 119.68C48.2315 119.885 47.9538 120 47.664 120H37.2217C36.932 120 36.6542 119.885 36.4493 119.68C36.2445 119.474 36.1292 119.196 36.1289 118.906Z" fill="#3F3D56"/>
<path d="M3.22461 74.8938V39.7973C3.23091 34.2102 5.4503 28.8537 9.39587 24.903C13.3414 20.9522 18.691 18.73 24.2708 18.7236H77.778V76.1097H4.43883C4.11692 76.1093 3.80829 75.9811 3.58066 75.7531C3.35303 75.5252 3.22498 75.2162 3.22461 74.8938ZM77.2924 19.21H24.2708C18.8197 19.2161 13.5937 21.3872 9.73915 25.2467C5.88463 29.1062 3.71646 34.3391 3.7103 39.7973V74.8938C3.71051 75.0873 3.78733 75.2727 3.92392 75.4094C4.0605 75.5462 4.24568 75.6231 4.43883 75.6233H77.2924V19.21Z" fill="#3F3D56"/>
<path d="M49.3639 50.3343C48.205 50.333 47.0939 49.8715 46.2744 49.0509C45.455 48.2304 44.994 47.1179 44.9927 45.9574V14.5897C44.9925 14.3963 44.9157 14.2108 44.7791 14.0741C44.6425 13.9373 44.4573 13.8604 44.2642 13.8602H27.265C26.9431 13.8598 26.6345 13.7316 26.4068 13.5037C26.1792 13.2757 26.0512 12.9667 26.0508 12.6444V1.21581C26.0512 0.893468 26.1792 0.584439 26.4068 0.356512C26.6345 0.128585 26.9431 0.000373262 27.265 0H52.5209C52.8428 0.000368766 53.1514 0.128581 53.3791 0.356508C53.6067 0.584436 53.7348 0.893467 53.7351 1.21581V45.9574C53.7338 47.1179 53.2729 48.2304 52.4534 49.0509C51.6339 49.8715 50.5228 50.333 49.3639 50.3343Z" fill="#2E7EE5"/>
<path d="M79.7211 18.2373C83.3846 18.2296 86.901 19.6795 89.497 22.2679C92.0929 24.8563 93.5556 28.3713 93.5632 32.0395V71.9932H120.762C121.855 71.9909 122.903 72.4234 123.677 73.1953C124.452 73.9673 124.888 75.0156 124.89 76.1097H65.8789V32.0395C65.8866 28.3713 67.3493 24.8563 69.9452 22.2679C72.5411 19.6795 76.0576 18.2296 79.7211 18.2373Z" fill="#3F3D56"/>
<path d="M76.398 40.9887L79.2643 52.8443L135.333 39.2536L132.466 27.3981C132.432 27.2531 132.361 27.1192 132.261 27.0089C132.161 26.8986 132.035 26.8154 131.894 26.767C131.79 26.7304 131.68 26.7139 131.57 26.7182L99.16 9.91532C98.9701 9.81821 98.7517 9.79228 98.5444 9.84218C98.337 9.89209 98.1543 10.0146 98.0292 10.1875L82.4095 31.9975L76.521 40.2219C76.5103 40.2363 76.5028 40.2528 76.4991 40.2704C76.4954 40.2879 76.4955 40.3061 76.4994 40.3236C76.3795 40.5233 76.3431 40.7623 76.398 40.9887Z" fill="white"/>
<path d="M76.4991 40.3236C76.5019 40.339 76.5077 40.3537 76.5161 40.3669C76.5246 40.3801 76.5356 40.3915 76.5484 40.4004C76.5636 40.4108 76.5808 40.4181 76.5989 40.4216C76.617 40.4252 76.6356 40.4251 76.6537 40.4212C76.683 40.4134 76.7087 40.3956 76.7262 40.3708L76.7465 40.3427L77.0531 39.9134L82.6212 32.141L98.2364 10.3359C98.3255 10.2124 98.4558 10.1249 98.6039 10.0894C98.7519 10.0538 98.9077 10.0726 99.0431 10.1423L131.202 26.8151L131.491 26.965C131.502 26.9699 131.514 26.9741 131.526 26.9776C131.548 26.9736 131.57 26.9715 131.592 26.9713C131.622 26.9612 131.648 26.9399 131.663 26.9118C131.67 26.897 131.675 26.8808 131.677 26.8641C131.678 26.8474 131.677 26.8306 131.672 26.8146C131.667 26.7986 131.659 26.7837 131.648 26.7708C131.637 26.7579 131.624 26.7472 131.609 26.7394L131.57 26.7182L99.1597 9.91532C98.9698 9.81821 98.7515 9.79228 98.5441 9.84218C98.3368 9.89209 98.1541 10.0146 98.029 10.1875L82.4092 31.9975L76.5207 40.2219C76.51 40.2363 76.5026 40.2528 76.4988 40.2704C76.4951 40.2879 76.4952 40.3061 76.4991 40.3236Z" fill="#3F3D56"/>
<path d="M93.3387 41.5326L94.5868 41.6712L103.85 42.6987L109.99 43.3794L110.353 43.4197L118.015 37.4271L118.309 37.1975L120.118 35.7823L126.557 30.7473L126.596 30.3937L128.886 9.69724C128.917 9.41225 128.834 9.12649 128.655 8.90262C128.476 8.67874 128.216 8.53501 127.932 8.50294L97.3682 5.11285C97.0836 5.08173 96.7983 5.1648 96.5747 5.34388C96.3512 5.52295 96.2076 5.78343 96.1755 6.06828L94.5604 20.6671L93.6646 28.7609L92.8632 36.0019L92.4917 39.3646L92.3833 40.3386C92.3524 40.6237 92.4356 40.9095 92.6147 41.1333C92.7937 41.3571 93.0541 41.5007 93.3387 41.5326Z" fill="#E6E6E6"/>
<path d="M101.737 23.392L114.976 24.8602L119.671 25.3807C119.878 25.4037 120.088 25.3856 120.289 25.3274C120.489 25.2692 120.676 25.1721 120.839 25.0416C121.001 24.9111 121.137 24.7497 121.237 24.5668C121.338 24.3838 121.402 24.1828 121.425 23.9752C121.447 23.7677 121.429 23.5576 121.371 23.3571C121.313 23.1565 121.216 22.9694 121.086 22.8064C120.955 22.6433 120.794 22.5076 120.612 22.407C120.429 22.3063 120.228 22.2426 120.021 22.2196L114.181 21.5721L102.088 20.2294C101.669 20.183 101.249 20.3051 100.92 20.5687C100.591 20.8324 100.38 21.216 100.334 21.6352C100.287 22.0545 100.409 22.475 100.672 22.8045C100.935 23.1339 101.318 23.3452 101.737 23.392Z" fill="white"/>
<path d="M100.984 29.2552C101.018 29.2613 101.052 29.2674 101.087 29.2708L116.455 30.9756L119.021 31.2608C119.44 31.3072 119.86 31.1851 120.189 30.9213C120.518 30.6576 120.729 30.2739 120.775 29.8545C120.822 29.4352 120.7 29.0146 120.436 28.6852C120.173 28.3559 119.79 28.1449 119.371 28.0985L115.661 27.6874L103.487 26.3367L101.438 26.1094C101.028 26.0637 100.617 26.1792 100.291 26.4317C99.9644 26.6841 99.7491 27.0537 99.6902 27.4623C99.6312 27.8708 99.7332 28.2863 99.9746 28.6209C100.216 28.9555 100.578 29.183 100.984 29.2552Z" fill="white"/>
<path d="M99.244 34.455C99.37 34.6643 99.5424 34.8418 99.748 34.9736C99.9535 35.1054 100.187 35.188 100.429 35.2149L106.728 35.9135L117.947 37.158L117.95 37.1574L118.308 37.1974L120.118 35.7822C120.129 35.6746 120.129 35.5663 120.118 35.4588C120.08 35.0977 119.92 34.7606 119.665 34.5031C119.409 34.2456 119.073 34.0831 118.713 34.0426L117.155 33.8692L110.972 33.1842L106.524 32.6902L100.779 32.0526C100.484 32.02 100.186 32.0705 99.9191 32.1984C99.6518 32.3263 99.4255 32.5265 99.2659 32.7764C99.1063 33.0263 99.0196 33.3159 99.0158 33.6125C99.0119 33.9092 99.091 34.201 99.244 34.455Z" fill="white"/>
<path d="M108.093 16.2238L111.387 16.5892L112.842 16.7509L115.039 16.9945C115.458 17.0409 115.878 16.9188 116.207 16.6551C116.536 16.3913 116.747 16.0076 116.793 15.5882C116.839 15.1689 116.718 14.7483 116.454 14.419C116.191 14.0896 115.808 13.8786 115.389 13.8322L108.443 13.0625C108.025 13.0159 107.605 13.1377 107.276 13.4012C106.947 13.6647 106.736 14.0482 106.689 14.4675C106.643 14.8867 106.765 15.3073 107.028 15.6366C107.291 15.966 107.674 16.1773 108.093 16.2238Z" fill="white"/>
<path d="M81.1571 25.0293L85.1731 41.6406L91.876 42.9167L98.0763 44.0987L104.729 45.3662L106.854 45.7712C106.979 45.7947 107.107 45.7915 107.23 45.7617C107.353 45.7318 107.468 45.6761 107.568 45.5982L109.273 44.2645L110.353 43.4203L118.015 37.4276L113.143 17.276C113.095 17.0755 112.99 16.8932 112.841 16.751C112.711 16.6252 112.55 16.5343 112.375 16.4868C112.2 16.4394 112.016 16.4368 111.84 16.4793L81.9528 23.7238C81.6744 23.7914 81.4343 23.9669 81.2852 24.2117C81.136 24.4565 81.0899 24.7505 81.1571 25.0293Z" fill="#2E7EE5"/>
<path d="M90.3666 38.2435C90.466 38.6533 90.7238 39.0068 91.0833 39.2265C91.4428 39.4461 91.8746 39.514 92.284 39.4151L109.821 35.1642C110.23 35.0645 110.583 34.8063 110.802 34.4464C111.022 34.0865 111.089 33.6542 110.991 33.2443C110.986 33.224 110.981 33.2039 110.974 33.1843C110.862 32.7891 110.601 32.4526 110.247 32.2454C109.893 32.0382 109.472 31.9763 109.074 32.0727L91.5366 36.3236C91.1274 36.4232 90.7743 36.6813 90.555 37.0412C90.3356 37.4012 90.2678 37.8336 90.3666 38.2435Z" fill="white"/>
<path d="M91.877 42.9161L98.0773 44.0981L111.211 40.9145C111.621 40.8152 111.974 40.5572 112.194 40.1971C112.413 39.8371 112.481 39.4045 112.381 38.9945C112.282 38.5846 112.025 38.2308 111.665 38.0111C111.305 37.7914 110.873 37.7237 110.464 37.823L92.9271 42.0738C92.5606 42.162 92.2378 42.3786 92.0171 42.6845C91.9639 42.7576 91.917 42.8351 91.877 42.9161Z" fill="white"/>
<path d="M104.729 45.3663L106.854 45.7713C106.979 45.7948 107.107 45.7916 107.23 45.7618C107.353 45.7319 107.468 45.6762 107.568 45.5983L109.273 44.2646L104.729 45.3663Z" fill="white"/>
<path d="M93.9 29.3363C93.9995 29.7461 94.2572 30.0996 94.6167 30.3193C94.9762 30.5389 95.4081 30.6067 95.8175 30.5079L102.61 28.8614C103.019 28.7617 103.372 28.5035 103.591 28.1436C103.811 27.7837 103.878 27.3514 103.78 26.9415C103.727 26.7212 103.627 26.515 103.487 26.3369C103.299 26.0962 103.046 25.9148 102.758 25.8142C102.47 25.7137 102.159 25.6983 101.863 25.7699L95.0701 27.4164C94.6607 27.5157 94.3074 27.7737 94.088 28.1338C93.8686 28.4938 93.801 28.9264 93.9 29.3363Z" fill="white"/>
<path d="M98.0752 44.0982L104.729 45.366L106.854 45.7712C106.978 45.7944 107.106 45.791 107.229 45.7612C107.352 45.7314 107.467 45.6759 107.567 45.5982L109.274 44.2643L108.675 44.4094L107.411 45.3969C107.339 45.4524 107.257 45.4921 107.169 45.5134C107.081 45.5347 106.99 45.5371 106.901 45.5205L105.327 45.2208L98.674 43.9531L98.0752 44.0982ZM117.949 37.1586L118.014 37.4266L118.309 37.1968L117.949 37.1586ZM98.0752 44.0982L104.729 45.366L106.854 45.7712C106.978 45.7944 107.106 45.791 107.229 45.7612C107.352 45.7314 107.467 45.6759 107.567 45.5982L109.274 44.2643L108.675 44.4094L107.411 45.3969C107.339 45.4524 107.257 45.4921 107.169 45.5134C107.081 45.5347 106.99 45.5371 106.901 45.5205L105.327 45.2208L98.674 43.9531L98.0752 44.0982ZM98.0752 44.0982L104.729 45.366L106.854 45.7712C106.978 45.7944 107.106 45.791 107.229 45.7612C107.352 45.7314 107.467 45.6759 107.567 45.5982L109.274 44.2643L108.675 44.4094L107.411 45.3969C107.339 45.4524 107.257 45.4921 107.169 45.5134C107.081 45.5347 106.99 45.5371 106.901 45.5205L105.327 45.2208L98.674 43.9531L98.0752 44.0982ZM76.398 40.989L83.9058 72.0431C83.9616 72.2726 84.1059 72.4705 84.3073 72.5936C84.5086 72.7166 84.7504 72.7546 84.9797 72.6992L139.319 59.5277C139.548 59.4719 139.746 59.3274 139.869 59.1258C139.992 58.9242 140.029 58.682 139.974 58.4524L132.466 27.3983C132.432 27.2533 132.361 27.1195 132.261 27.0092C132.161 26.8989 132.035 26.8156 131.894 26.7673C131.79 26.7307 131.68 26.7141 131.57 26.7185C131.442 26.7222 131.316 26.7553 131.202 26.8153C131.15 26.8402 131.1 26.871 131.055 26.907L126.595 30.3939L120.118 35.4598L117.949 37.1568L117.949 37.1586L117.947 37.1591L109.99 43.3787L108.675 44.4094L107.411 45.3969C107.339 45.4524 107.257 45.4921 107.169 45.5134C107.081 45.5347 106.99 45.5371 106.901 45.5205L105.327 45.2208L98.674 43.9531L92.0147 42.6848L77.4291 39.9056C77.3047 39.8809 77.1765 39.8836 77.0533 39.9137C76.8875 39.9543 76.7367 40.0417 76.6191 40.1656C76.574 40.2142 76.5339 40.2672 76.4994 40.3238C76.3795 40.5236 76.3431 40.7625 76.398 40.989ZM98.0752 44.0982L104.729 45.366L106.854 45.7712C106.978 45.7944 107.106 45.791 107.229 45.7612C107.352 45.7314 107.467 45.6759 107.567 45.5982L109.274 44.2643L108.675 44.4094L107.411 45.3969C107.339 45.4524 107.257 45.4921 107.169 45.5134C107.081 45.5347 106.99 45.5371 106.901 45.5205L105.327 45.2208L98.674 43.9531L98.0752 44.0982ZM98.0752 44.0982L104.729 45.366L106.854 45.7712C106.978 45.7944 107.106 45.791 107.229 45.7612C107.352 45.7314 107.467 45.6759 107.567 45.5982L109.274 44.2643L108.675 44.4094L107.411 45.3969C107.339 45.4524 107.257 45.4921 107.169 45.5134C107.081 45.5347 106.99 45.5371 106.901 45.5205L105.327 45.2208L98.674 43.9531L98.0752 44.0982ZM98.0752 44.0982L104.729 45.366L106.854 45.7712C106.978 45.7944 107.106 45.791 107.229 45.7612C107.352 45.7314 107.467 45.6759 107.567 45.5982L109.274 44.2643L108.675 44.4094L107.411 45.3969C107.339 45.4524 107.257 45.4921 107.169 45.5134C107.081 45.5347 106.99 45.5371 106.901 45.5205L105.327 45.2208L98.674 43.9531L98.0752 44.0982Z" fill="white"/>
<path d="M98.0752 44.0982L104.729 45.366L106.854 45.7712C106.978 45.7944 107.106 45.791 107.229 45.7612C107.352 45.7314 107.467 45.6759 107.567 45.5982L109.274 44.2643L108.675 44.4094L107.411 45.3969C107.339 45.4524 107.257 45.4921 107.169 45.5133C107.081 45.5346 106.99 45.5371 106.901 45.5204L105.327 45.2208L98.674 43.953L98.0752 44.0982ZM117.949 37.1586L118.014 37.4265L118.309 37.1968L117.949 37.1586ZM98.0752 44.0982L104.729 45.366L106.854 45.7712C106.978 45.7944 107.106 45.791 107.229 45.7612C107.352 45.7314 107.467 45.6759 107.567 45.5982L109.274 44.2643L108.675 44.4094L107.411 45.3969C107.339 45.4524 107.257 45.4921 107.169 45.5133C107.081 45.5346 106.99 45.5371 106.901 45.5204L105.327 45.2208L98.674 43.953L98.0752 44.0982ZM98.0752 44.0982L104.729 45.366L106.854 45.7712C106.978 45.7944 107.106 45.791 107.229 45.7612C107.352 45.7314 107.467 45.6759 107.567 45.5982L109.274 44.2643L108.675 44.4094L107.411 45.3969C107.339 45.4524 107.257 45.4921 107.169 45.5133C107.081 45.5346 106.99 45.5371 106.901 45.5204L105.327 45.2208L98.674 43.953L98.0752 44.0982ZM76.7467 40.343L76.7797 40.3678C76.7852 40.3587 76.7949 40.3506 76.8022 40.3411C76.8757 40.2644 76.9672 40.2073 77.0683 40.1747C77.1694 40.1421 77.2769 40.1351 77.3814 40.1544L91.8757 42.9153L98.0752 44.0982L104.729 45.366L106.854 45.7712C106.978 45.7944 107.106 45.791 107.229 45.7612C107.352 45.7314 107.467 45.6759 107.567 45.5982L109.274 44.2643L108.675 44.4094L107.411 45.3969C107.339 45.4524 107.257 45.4921 107.169 45.5133C107.081 45.5346 106.99 45.5371 106.901 45.5204L105.327 45.2208L98.674 43.953L92.0147 42.6848L77.4291 39.9055C77.3047 39.8809 77.1765 39.8836 77.0533 39.9137L76.7467 40.343ZM76.398 40.9889L83.9058 72.0431C83.9616 72.2726 84.1059 72.4705 84.3073 72.5936C84.5086 72.7166 84.7504 72.7546 84.9797 72.6992L139.319 59.5277C139.548 59.4719 139.746 59.3274 139.869 59.1258C139.992 58.9242 140.029 58.682 139.974 58.4524L132.466 27.3983C132.432 27.2533 132.361 27.1195 132.261 27.0092C132.161 26.8989 132.035 26.8156 131.894 26.7673C131.79 26.7307 131.68 26.7141 131.57 26.7185C131.442 26.7222 131.316 26.7553 131.202 26.8153C131.15 26.8402 131.1 26.871 131.055 26.907L126.595 30.3939L120.118 35.4598L117.949 37.1568L117.949 37.1586L117.947 37.1591L109.99 43.3787L108.675 44.4094L107.411 45.3969C107.339 45.4524 107.257 45.4921 107.169 45.5133C107.081 45.5346 106.99 45.5371 106.901 45.5204L105.327 45.2208L98.674 43.953L92.0147 42.6848L77.4291 39.9055C77.3047 39.8809 77.1765 39.8836 77.0533 39.9137C76.8875 39.9542 76.7367 40.0417 76.6191 40.1656C76.574 40.2142 76.5339 40.2672 76.4994 40.3238C76.3795 40.5236 76.3431 40.7625 76.398 40.9889ZM76.6457 40.9289C76.6235 40.8374 76.6221 40.7421 76.6414 40.6499C76.6608 40.5577 76.7006 40.4711 76.7577 40.3963C76.7629 40.3853 76.7704 40.3756 76.7797 40.3678C76.7852 40.3587 76.7949 40.3506 76.8022 40.3411C76.8757 40.2644 76.9672 40.2073 77.0683 40.1747C77.1694 40.1421 77.2769 40.1351 77.3814 40.1544L91.8757 42.9153L98.0752 44.0982L104.729 45.366L106.854 45.7712C106.978 45.7944 107.106 45.791 107.229 45.7612C107.352 45.7314 107.467 45.6759 107.567 45.5982L109.274 44.2643L110.353 43.42L118.014 37.4265L118.309 37.1968L120.117 35.7822L126.557 30.7465L131.213 27.106C131.284 27.0507 131.365 27.0112 131.452 26.99C131.477 26.984 131.502 26.98 131.527 26.9778C131.548 26.9739 131.57 26.9718 131.592 26.9715C131.667 26.9708 131.741 26.9829 131.811 27.0072C131.912 27.0422 132.002 27.1018 132.073 27.1805C132.145 27.2592 132.195 27.3545 132.221 27.4579L139.728 58.512C139.748 58.5934 139.752 58.6779 139.739 58.7606C139.726 58.8433 139.697 58.9227 139.653 58.9942C139.61 59.0657 139.553 59.1279 139.485 59.1772C139.417 59.2265 139.341 59.262 139.259 59.2817L84.9202 72.4532C84.7563 72.4926 84.5834 72.4653 84.4396 72.3771C84.2958 72.289 84.1929 72.1472 84.1535 71.9831L76.6457 40.9289ZM98.0752 44.0982L104.729 45.366L106.854 45.7712C106.978 45.7944 107.106 45.791 107.229 45.7612C107.352 45.7314 107.467 45.6759 107.567 45.5982L109.274 44.2643L108.675 44.4094L107.411 45.3969C107.339 45.4524 107.257 45.4921 107.169 45.5133C107.081 45.5346 106.99 45.5371 106.901 45.5204L105.327 45.2208L98.674 43.953L98.0752 44.0982ZM98.0752 44.0982L104.729 45.366L106.854 45.7712C106.978 45.7944 107.106 45.791 107.229 45.7612C107.352 45.7314 107.467 45.6759 107.567 45.5982L109.274 44.2643L108.675 44.4094L107.411 45.3969C107.339 45.4524 107.257 45.4921 107.169 45.5133C107.081 45.5346 106.99 45.5371 106.901 45.5204L105.327 45.2208L98.674 43.953L98.0752 44.0982ZM98.0752 44.0982L104.729 45.366L106.854 45.7712C106.978 45.7944 107.106 45.791 107.229 45.7612C107.352 45.7314 107.467 45.6759 107.567 45.5982L109.274 44.2643L108.675 44.4094L107.411 45.3969C107.339 45.4524 107.257 45.4921 107.169 45.5133C107.081 45.5346 106.99 45.5371 106.901 45.5204L105.327 45.2208L98.674 43.953L98.0752 44.0982Z" fill="#3F3D56"/>
<path d="M125.156 53.4267C125.034 52.9178 125.118 52.3811 125.39 51.9343C125.663 51.4875 126.101 51.1671 126.609 51.0434L133.467 49.381C133.975 49.2598 134.509 49.345 134.954 49.6179C135.399 49.8908 135.718 50.3291 135.841 50.8369C135.963 51.3446 135.88 51.8804 135.609 52.3268C135.338 52.7732 134.902 53.0938 134.395 53.2185L127.537 54.881C127.028 55.0035 126.492 54.9193 126.046 54.6466C125.6 54.374 125.28 53.9352 125.156 53.4267Z" fill="#2E7EE5"/>
<path d="M49.364 47.6591C50.3028 47.6591 51.0639 46.8971 51.0639 45.957C51.0639 45.017 50.3028 44.2549 49.364 44.2549C48.4251 44.2549 47.6641 45.017 47.6641 45.957C47.6641 46.8971 48.4251 47.6591 49.364 47.6591Z" fill="white"/>
</g>
<defs>
<clipPath id="clip0_839_1076">
<rect width="140" height="120" fill="white"/>
</clipPath>
</defs>
</svg>
