<svg width="509" height="341" viewBox="0 0 509 341" fill="none" xmlns="http://www.w3.org/2000/svg">
<rect x="40" y="9" width="90" height="90" rx="4" fill="#2A7BE4" fill-opacity="0.6"/>
<rect y="42" width="6" height="6" rx="3" fill="#2A7BE4" fill-opacity="0.6"/>
<rect y="28" width="6" height="6" rx="3" fill="#2A7BE4" fill-opacity="0.6"/>
<rect y="14" width="6" height="6" rx="3" fill="#2A7BE4" fill-opacity="0.6"/>
<rect width="6" height="6" rx="3" fill="#2A7BE4" fill-opacity="0.6"/>
<rect x="14" y="42" width="6" height="6" rx="3" fill="#2A7BE4" fill-opacity="0.6"/>
<rect x="14" y="28" width="6" height="6" rx="3" fill="#2A7BE4" fill-opacity="0.6"/>
<rect x="14" y="14" width="6" height="6" rx="3" fill="#2A7BE4" fill-opacity="0.6"/>
<rect x="14" width="6" height="6" rx="3" fill="#2A7BE4" fill-opacity="0.6"/>
<rect x="28" y="42" width="6" height="6" rx="3" fill="#2A7BE4" fill-opacity="0.6"/>
<rect x="28" y="28" width="6" height="6" rx="3" fill="#2A7BE4" fill-opacity="0.6"/>
<rect x="28" y="14" width="6" height="6" rx="3" fill="#2A7BE4" fill-opacity="0.6"/>
<rect x="28" width="6" height="6" rx="3" fill="#2A7BE4" fill-opacity="0.6"/>
<rect x="42" y="42" width="6" height="6" rx="3" fill="#2A7BE4" fill-opacity="0.6"/>
<rect x="42" y="28" width="6" height="6" rx="3" fill="#2A7BE4" fill-opacity="0.6"/>
<rect x="42" y="14" width="6" height="6" rx="3" fill="#2A7BE4" fill-opacity="0.6"/>
<rect x="42" width="6" height="6" rx="3" fill="#2A7BE4" fill-opacity="0.6"/>
<rect x="461" y="286" width="6" height="6" rx="3" fill="#2A7BE4" fill-opacity="0.6"/>
<rect x="461" y="272" width="6" height="6" rx="3" fill="#2A7BE4" fill-opacity="0.6"/>
<rect x="461" y="258" width="6" height="6" rx="3" fill="#2A7BE4" fill-opacity="0.6"/>
<rect x="461" y="244" width="6" height="6" rx="3" fill="#2A7BE4" fill-opacity="0.6"/>
<rect x="475" y="286" width="6" height="6" rx="3" fill="#2A7BE4" fill-opacity="0.6"/>
<rect x="475" y="272" width="6" height="6" rx="3" fill="#2A7BE4" fill-opacity="0.6"/>
<rect x="475" y="258" width="6" height="6" rx="3" fill="#2A7BE4" fill-opacity="0.6"/>
<rect x="475" y="244" width="6" height="6" rx="3" fill="#2A7BE4" fill-opacity="0.6"/>
<rect x="489" y="286" width="6" height="6" rx="3" fill="#2A7BE4" fill-opacity="0.6"/>
<rect x="489" y="272" width="6" height="6" rx="3" fill="#2A7BE4" fill-opacity="0.6"/>
<rect x="489" y="258" width="6" height="6" rx="3" fill="#2A7BE4" fill-opacity="0.6"/>
<rect x="489" y="244" width="6" height="6" rx="3" fill="#2A7BE4" fill-opacity="0.6"/>
<rect x="503" y="286" width="6" height="6" rx="3" fill="#2A7BE4" fill-opacity="0.6"/>
<rect x="503" y="272" width="6" height="6" rx="3" fill="#2A7BE4" fill-opacity="0.6"/>
<rect x="503" y="258" width="6" height="6" rx="3" fill="#2A7BE4" fill-opacity="0.6"/>
<rect x="503" y="244" width="6" height="6" rx="3" fill="#2A7BE4" fill-opacity="0.6"/>
<rect x="377" y="251" width="90" height="90" rx="4" fill="#2A7BE4" fill-opacity="0.6"/>
<path d="M436.276 34H72.0232C62.6338 34 55 41.2041 55 50.0539V304.77C55 313.62 62.6338 320.824 72.0232 320.824H436.276C445.661 320.824 453.3 313.62 453.3 304.77V50.0539C453.3 41.2047 445.661 34 436.276 34ZM453.144 304.771C453.144 305.169 453.128 305.566 453.097 305.959C453.086 306.072 453.076 306.18 453.066 306.293C452.998 306.961 452.889 307.619 452.732 308.263C452.707 308.385 452.675 308.508 452.639 308.631C452.618 308.719 452.592 308.813 452.566 308.905C452.243 310.045 451.785 311.13 451.212 312.152C451.155 312.265 451.092 312.373 451.024 312.481C450.894 312.707 450.759 312.923 450.613 313.139C450.55 313.237 450.483 313.34 450.41 313.439C450.342 313.542 450.269 313.645 450.191 313.748C449.989 314.033 449.769 314.313 449.541 314.583C449.442 314.706 449.343 314.818 449.239 314.932C449.088 315.113 448.921 315.285 448.755 315.462C448.656 315.566 448.557 315.664 448.453 315.762C448.281 315.939 448.094 316.111 447.906 316.278C447.901 316.283 447.896 316.292 447.885 316.297C447.51 316.636 447.12 316.955 446.708 317.259C446.698 317.264 446.692 317.269 446.682 317.279C446.073 317.735 445.427 318.147 444.75 318.516C444.527 318.644 444.292 318.767 444.058 318.879C444.021 318.894 443.985 318.914 443.948 318.934C443.75 319.032 443.547 319.125 443.344 319.208C443.104 319.317 442.859 319.419 442.614 319.508C442.365 319.606 442.114 319.695 441.865 319.778C441.62 319.862 441.37 319.94 441.12 320.009C441.109 320.009 441.094 320.014 441.078 320.019C440.829 320.092 440.573 320.156 440.318 320.215C440.058 320.279 439.792 320.333 439.527 320.377C439.256 320.431 438.985 320.475 438.714 320.509C438.475 320.544 438.241 320.574 438.001 320.593C437.965 320.593 437.923 320.598 437.886 320.603C437.496 320.637 437.105 320.662 436.709 320.671C436.563 320.676 436.422 320.676 436.277 320.676H72.0232C71.8772 320.676 71.7366 320.676 71.5913 320.671C71.1956 320.661 70.8046 320.637 70.4143 320.603C70.378 320.598 70.3363 320.593 70.3 320.593C70.0603 320.574 69.8258 320.544 69.5867 320.509C69.3159 320.475 69.0451 320.431 68.7743 320.377C68.5088 320.333 68.2433 320.278 67.9831 320.215C67.7281 320.156 67.4725 320.092 67.2228 320.019C67.207 320.014 67.1918 320.009 67.1812 320.009C66.9316 319.94 66.6812 319.861 66.4369 319.778C66.1872 319.695 65.9369 319.606 65.6872 319.508C65.4422 319.419 65.1978 319.317 64.9581 319.208C64.7546 319.125 64.5519 319.031 64.3537 318.934C64.3174 318.914 64.2811 318.894 64.2441 318.879C64.0096 318.767 63.7751 318.644 63.5512 318.516C62.8742 318.148 62.2283 317.735 61.6193 317.279C61.6088 317.269 61.6035 317.264 61.5936 317.259C61.1821 316.955 60.7918 316.636 60.4166 316.297C60.406 316.292 60.4007 316.282 60.3955 316.278C60.2079 316.111 60.0203 315.939 59.8486 315.762C59.7442 315.664 59.6452 315.566 59.5467 315.462C59.3803 315.285 59.2132 315.113 59.0626 314.932C58.9583 314.819 58.8592 314.706 58.7608 314.583C58.5316 314.312 58.313 314.033 58.1095 313.748C58.0316 313.645 57.9583 313.542 57.8909 313.439C57.8176 313.34 57.7502 313.237 57.6875 313.139C57.5415 312.923 57.4061 312.707 57.276 312.481C57.208 312.373 57.1459 312.265 57.0884 312.152C56.5158 311.13 56.0574 310.045 55.7345 308.905C55.7087 308.812 55.6823 308.719 55.6618 308.631C55.6255 308.508 55.5938 308.385 55.568 308.263C55.4115 307.619 55.3025 306.961 55.2345 306.293C55.2239 306.18 55.2133 306.072 55.2034 305.959C55.1724 305.566 55.1565 305.169 55.1565 304.771V50.0545C55.1565 49.6565 55.1724 49.2591 55.2034 48.866C55.214 48.7433 55.2246 48.6156 55.2398 48.4929C55.3078 47.8352 55.4168 47.1961 55.568 46.5676C55.5938 46.44 55.6255 46.3172 55.6618 46.1945C55.6876 46.0868 55.7193 45.9734 55.7503 45.8707C56.0733 44.7507 56.5264 43.6807 57.0884 42.6735C57.1512 42.5607 57.2133 42.4523 57.276 42.3446C57.5362 41.9023 57.8176 41.4751 58.1194 41.0578C58.1921 40.9643 58.2654 40.8665 58.3381 40.7681C58.4735 40.5912 58.6141 40.4143 58.7601 40.2424C59.1353 39.7908 59.5362 39.3635 59.9628 38.9506C60.0566 38.8571 60.1504 38.7687 60.2495 38.6802C60.2964 38.631 60.3486 38.5868 60.3955 38.5476C60.4424 38.5033 60.4893 38.4591 60.5361 38.4249C60.6821 38.2872 60.8327 38.1595 60.9892 38.0368C61.1299 37.9191 61.2812 37.8008 61.4318 37.688C61.4945 37.6388 61.5566 37.5896 61.6193 37.5454C61.6557 37.5161 61.692 37.4862 61.7343 37.4619C61.8954 37.3442 62.0572 37.2259 62.2237 37.1131C62.2395 37.1081 62.2494 37.0982 62.2653 37.0838C62.4634 36.9512 62.6715 36.8235 62.8749 36.6958C62.896 36.6858 62.9165 36.6715 62.9377 36.6565C63.1404 36.5338 63.3438 36.4161 63.5519 36.3077C63.7758 36.1801 64.0103 36.0623 64.2447 35.9446C64.2811 35.9247 64.3174 35.9103 64.3544 35.8904C64.5525 35.792 64.7553 35.6992 64.9587 35.6157C65.1985 35.508 65.4429 35.4096 65.6879 35.3161C65.9329 35.2177 66.1826 35.1293 66.4375 35.0458C67.1925 34.7904 67.9738 34.5892 68.7756 34.4466C69.0464 34.3924 69.3172 34.3482 69.588 34.3139C69.8278 34.2797 70.0616 34.2498 70.3013 34.2305C70.3377 34.2305 70.3793 34.2255 70.4156 34.2205C70.5351 34.2055 70.66 34.1956 70.7855 34.1956C70.9367 34.1806 71.0873 34.1713 71.2386 34.1663C71.4988 34.1514 71.759 34.1464 72.0245 34.1464H436.278C436.543 34.1464 436.804 34.1514 437.064 34.1663C437.216 34.1713 437.366 34.1813 437.518 34.1956C437.642 34.1956 437.768 34.2055 437.887 34.2205C437.924 34.2255 437.965 34.2305 438.002 34.2305C438.242 34.2498 438.476 34.2797 438.716 34.3139C438.986 34.3482 439.257 34.3924 439.528 34.4466C440.33 34.5892 441.111 34.7904 441.866 35.0458C442.121 35.1293 442.371 35.2177 442.616 35.3161C442.861 35.4096 443.105 35.5074 443.345 35.6157C443.548 35.6992 443.751 35.7926 443.949 35.8904C443.986 35.9103 444.022 35.9247 444.059 35.9446C444.293 36.0623 444.528 36.1801 444.752 36.3077C444.96 36.4155 445.163 36.5338 445.366 36.6565C445.387 36.6715 445.408 36.6858 445.429 36.6958C445.632 36.8235 445.84 36.9512 446.038 37.0838C446.054 37.0988 446.064 37.1081 446.079 37.1131C446.246 37.2259 446.408 37.3436 446.569 37.4619C446.61 37.4862 446.647 37.5161 446.683 37.5454C446.746 37.5896 446.808 37.6388 446.871 37.688C447.022 37.8008 447.172 37.9191 447.313 38.0368C447.47 38.1595 447.62 38.2872 447.766 38.4249C447.813 38.4591 447.86 38.5033 447.907 38.5476C447.954 38.5868 448.006 38.631 448.053 38.6802C448.152 38.7687 448.246 38.8571 448.34 38.9506C448.766 39.3629 449.168 39.7902 449.542 40.2424C449.688 40.4143 449.829 40.5912 449.964 40.7681C450.037 40.8665 450.11 40.9643 450.183 41.0578C450.485 41.4751 450.766 41.9023 451.026 42.3446C451.089 42.4523 451.151 42.5607 451.214 42.6735C451.777 43.68 452.229 44.7507 452.552 45.8707C452.583 45.9741 452.615 46.0868 452.641 46.1945C452.677 46.3172 452.709 46.44 452.734 46.5676C452.886 47.1961 452.995 47.8346 453.063 48.4929C453.078 48.6156 453.088 48.7433 453.099 48.866C453.13 49.2591 453.146 49.6565 453.146 50.0545V304.771H453.144Z" fill="white"/>
<path d="M436.276 46.1797H72.0229C69.7575 46.1797 67.9141 47.9181 67.9141 50.0546V304.771C67.9141 306.907 69.7575 308.646 72.0229 308.646H436.276C438.542 308.646 440.385 306.907 440.385 304.771V50.0546C440.385 47.9175 438.542 46.1797 436.276 46.1797Z" fill="white"/>
<path d="M436.277 45.9336H72.0234C69.6146 45.9336 67.6543 47.7817 67.6543 50.0539V304.77C67.6543 307.042 69.6139 308.89 72.0234 308.89H436.277C438.686 308.89 440.646 307.042 440.646 304.77V50.0539C440.646 47.7823 438.686 45.9336 436.277 45.9336ZM440.386 304.771C440.386 306.907 438.542 308.646 436.277 308.646H72.0234C69.7579 308.646 67.9145 306.907 67.9145 304.771V50.0545C67.9145 47.9181 69.7579 46.1796 72.0234 46.1796H436.277C438.542 46.1796 440.386 47.9181 440.386 50.0545V304.771Z" fill="url(#paint0_linear_862_7)"/>
<path d="M436.277 35.6206H72.0234C63.5818 35.6206 56.7188 42.0935 56.7188 50.0537V304.77C56.7188 312.731 63.5825 319.203 72.0234 319.203H436.277C444.718 319.203 451.581 312.73 451.581 304.77V50.0537C451.582 42.0935 444.718 35.6206 436.277 35.6206ZM440.646 304.771C440.646 307.042 438.686 308.891 436.277 308.891H72.0234C69.6146 308.891 67.6543 307.042 67.6543 304.771V50.0544C67.6543 47.7821 69.614 45.9341 72.0234 45.9341H436.277C438.686 45.9341 440.646 47.7821 440.646 50.0544V304.771H440.646Z" fill="#030303"/>
<path d="M71.237 320.658C71.0547 320.648 70.8724 320.638 70.6901 320.624C70.5963 320.618 70.5078 320.614 70.414 320.604C70.3777 320.599 70.3361 320.594 70.2997 320.594C70.06 320.569 69.8209 320.539 69.5864 320.51C69.3103 320.471 69.0448 320.427 68.774 320.377C68.5085 320.328 68.243 320.274 67.9828 320.216C67.7278 320.152 67.4722 320.088 67.2226 320.019C67.2067 320.014 67.1915 320.009 67.1809 320.009C66.9313 319.936 66.681 319.857 66.4366 319.779C66.1816 319.695 65.9313 319.607 65.6869 319.509C65.4419 319.415 65.1975 319.317 64.9578 319.209C64.7543 319.121 64.5516 319.027 64.3534 318.934C64.3171 318.914 64.2808 318.895 64.2438 318.88C64.0093 318.762 63.7749 318.645 63.551 318.517C62.874 318.144 62.228 317.732 61.619 317.279C61.6085 317.269 61.6032 317.264 61.5933 317.26C61.1871 316.955 60.7915 316.632 60.4163 316.298C60.4057 316.293 60.4005 316.283 60.3952 316.278C60.2076 316.111 60.0253 315.94 59.8483 315.763C59.7439 315.665 59.6449 315.566 59.5465 315.463C59.3853 315.291 59.2182 315.114 59.0623 314.932C58.958 314.82 58.8589 314.706 58.7605 314.584C58.5366 314.313 58.318 314.034 58.1093 313.749C58.0366 313.646 57.9633 313.543 57.8906 313.439C57.8226 313.341 57.7552 313.238 57.6872 313.14C57.5412 312.924 57.4058 312.707 57.2757 312.481C57.213 312.374 57.1509 312.26 57.0882 312.152C56.5155 311.131 56.0571 310.046 55.7342 308.906C55.7084 308.818 55.682 308.724 55.6615 308.631C55.6252 308.509 55.5935 308.386 55.5677 308.263C55.4112 307.62 55.3022 306.961 55.2342 306.294C55.2236 306.181 55.2131 306.073 55.2031 305.96C55.1721 305.567 55.1562 305.169 55.1562 304.771V50.0552C55.1562 49.6572 55.1721 49.2598 55.2031 48.8667C55.2137 48.744 55.2243 48.6163 55.2395 48.4936C55.3075 47.8359 55.4165 47.1968 55.5677 46.5684C55.5935 46.4407 55.6252 46.318 55.6615 46.1953C55.6873 46.0875 55.719 45.9741 55.75 45.8714C56.073 44.7514 56.5261 43.6813 57.0882 42.6742C57.1509 42.5614 57.213 42.4531 57.2757 42.3453C57.536 41.9031 57.8173 41.4758 58.1192 41.0584C58.1918 40.965 58.2651 40.8672 58.3378 40.7688C58.4732 40.5919 58.6139 40.415 58.7598 40.2431C59.135 39.7915 59.5359 39.3642 59.9626 38.9513C60.0564 38.8578 60.1501 38.7694 60.2492 38.681C60.2961 38.6318 60.3483 38.5875 60.3952 38.5483C60.4421 38.5041 60.489 38.4598 60.5359 38.4256C60.6818 38.2879 60.8324 38.1602 60.9889 38.0375C61.1296 37.9198 61.2809 37.8015 61.4315 37.6887C61.4942 37.6395 61.5563 37.5903 61.619 37.5461C61.6554 37.5168 61.6917 37.4869 61.734 37.4626C61.8951 37.3449 62.0569 37.2266 62.2234 37.1138C62.2392 37.1088 62.2491 37.0989 62.265 37.0845C62.4631 36.9519 62.6712 36.8242 62.8746 36.6965C62.8958 36.6865 62.9162 36.6722 62.9374 36.6573C63.1401 36.5395 63.3436 36.4218 63.5516 36.3085C63.7755 36.1808 64.01 36.063 64.2445 35.9453C64.2808 35.9254 64.3171 35.9111 64.3541 35.8911C64.5522 35.7977 64.755 35.7049 64.9584 35.6164C65.1982 35.5087 65.4426 35.4103 65.6876 35.3168C65.9326 35.2184 66.1823 35.13 66.4372 35.0465C67.1922 34.7961 67.9735 34.5949 68.7753 34.4473C69.0461 34.3981 69.3117 34.3539 69.5877 34.3146C69.8222 34.2854 70.0613 34.2555 70.3011 34.2312C70.3374 34.2312 70.379 34.2262 70.4153 34.2212C70.5349 34.2063 70.6597 34.1963 70.7852 34.1963C70.6861 34.2013 70.587 34.2112 70.4886 34.2212C70.2383 34.2455 69.9887 34.2754 69.7443 34.3097C69.6241 34.3246 69.5045 34.3439 69.3903 34.3688C69.239 34.3888 69.0937 34.4131 68.9477 34.4423C68.7238 34.4816 68.5052 34.5308 68.2919 34.585C68.0574 34.6391 67.8229 34.6977 67.5937 34.7668C67.4009 34.821 67.2133 34.8796 67.0264 34.9437C66.6255 35.0714 66.2299 35.2141 65.8494 35.381C65.7299 35.4252 65.6097 35.4794 65.4954 35.533C65.3131 35.6114 65.1308 35.6949 64.9538 35.7834C64.938 35.7933 64.9228 35.7983 64.9069 35.8077C64.7035 35.9111 64.506 36.0138 64.3079 36.1222C64.2973 36.1272 64.2867 36.1322 64.2814 36.1371C64.1408 36.2156 64.0001 36.2941 63.8647 36.3776C63.7451 36.4461 63.6249 36.5202 63.5107 36.5937C63.4849 36.6087 63.4585 36.628 63.4327 36.6479C63.2452 36.7656 63.0576 36.8933 62.8753 37.021C62.6983 37.1437 62.5213 37.2714 62.3495 37.4091C62.3079 37.4334 62.2716 37.4633 62.2399 37.4975C62.0682 37.6202 61.9017 37.7579 61.7399 37.9055C61.5576 38.0575 61.3806 38.2194 61.2089 38.382C61.0576 38.5196 60.907 38.6666 60.7611 38.8192C60.7248 38.8585 60.6831 38.8977 60.6415 38.9419C60.5009 39.0939 60.3602 39.2515 60.2195 39.4085C60.0583 39.5854 59.9071 39.7672 59.7664 39.9535C59.6469 40.1011 59.5319 40.2481 59.4282 40.4001C59.3655 40.4736 59.314 40.552 59.2565 40.6312C59.1891 40.7246 59.1211 40.8224 59.059 40.9258C58.991 41.0192 58.9289 41.1126 58.8714 41.2104C58.7519 41.4017 58.6317 41.5935 58.5227 41.7897C58.4547 41.9074 58.3873 42.0301 58.3246 42.1528C58.1733 42.4375 58.028 42.7321 57.8979 43.0317C57.8563 43.1251 57.8147 43.2235 57.7731 43.3213C57.7103 43.4689 57.6535 43.6159 57.5961 43.7679C57.5234 43.9592 57.4554 44.156 57.3926 44.3522C57.3246 44.5484 57.2678 44.7502 57.2103 44.9514C57.2051 44.9613 57.2051 44.9707 57.2051 44.9807C57.1423 45.2018 57.0855 45.4229 57.0386 45.6434C57.0386 45.6583 57.0333 45.6677 57.0333 45.6777C56.997 45.8446 56.9607 46.0115 56.9395 46.1784C56.7936 46.9595 56.7209 47.7599 56.7209 48.5802V306.243C56.7209 306.528 56.7315 306.818 56.752 307.098C56.7573 307.25 56.7678 307.402 56.783 307.55C56.7936 307.678 56.8088 307.805 56.8299 307.933C56.8352 307.997 56.8458 308.056 56.851 308.115C56.8722 308.287 56.8979 308.454 56.9343 308.621C56.9395 308.645 56.9395 308.665 56.9448 308.689C56.9607 308.792 56.9812 308.896 57.0023 308.999C57.0129 309.048 57.0234 309.097 57.0333 309.147C57.0386 309.166 57.0439 309.181 57.0439 309.201C57.0749 309.353 57.1119 309.5 57.1535 309.652C57.1694 309.716 57.1846 309.78 57.2057 309.844C57.2632 310.055 57.3253 310.266 57.3933 310.473C57.4613 310.679 57.5287 310.885 57.6066 311.082C57.6119 311.092 57.6119 311.096 57.6172 311.106C57.6535 311.209 57.6899 311.307 57.7367 311.406C57.742 311.421 57.7473 311.43 57.7526 311.445C57.7942 311.558 57.8411 311.666 57.888 311.774C57.8933 311.784 57.8933 311.789 57.8986 311.798C58.034 312.098 58.1746 312.387 58.3252 312.673C58.388 312.795 58.4554 312.913 58.5234 313.036C58.633 313.232 58.7526 313.424 58.8721 313.615C58.9296 313.713 58.9917 313.806 59.0597 313.9C59.1218 313.998 59.1898 314.096 59.2572 314.194C59.3094 314.273 59.3668 314.351 59.4289 314.425C59.5333 314.577 59.6475 314.725 59.7671 314.872C59.9077 315.058 60.059 315.24 60.2201 315.417C60.3344 315.555 60.4599 315.692 60.59 315.824C60.6059 315.844 60.6263 315.864 60.6422 315.883C60.6838 315.927 60.7254 315.966 60.7617 316.006C60.7776 316.02 60.7928 316.035 60.8034 316.05C60.9388 316.182 61.0742 316.315 61.2095 316.443C61.3449 316.575 61.4803 316.698 61.6157 316.816C61.6263 316.821 61.6369 316.831 61.6468 316.84C61.7042 316.894 61.7663 316.949 61.8344 316.997C61.9592 317.11 62.0893 317.213 62.2194 317.312C62.261 317.346 62.3026 317.38 62.3495 317.415C62.5213 317.548 62.693 317.68 62.8753 317.803C63.0054 317.902 63.1355 317.989 63.2709 318.073C63.2815 318.083 63.2967 318.093 63.3125 318.103C63.4169 318.172 63.5206 318.24 63.6249 318.304C63.8019 318.412 63.9842 318.525 64.1718 318.628C64.1824 318.633 64.1929 318.638 64.2028 318.647C64.3277 318.716 64.4525 318.785 64.5826 318.848C64.6507 318.888 64.7233 318.927 64.796 318.961C64.9314 319.03 65.0668 319.099 65.2022 319.157C65.3792 319.246 65.5667 319.329 65.7543 319.403C65.8897 319.461 66.0251 319.52 66.1605 319.575C66.2127 319.595 66.2596 319.614 66.3118 319.634C66.4577 319.688 66.603 319.742 66.7543 319.791C66.8428 319.825 66.9366 319.854 67.0304 319.884C67.0515 319.889 67.0667 319.899 67.0878 319.904C67.2543 319.958 67.4214 320.007 67.5931 320.056C67.7701 320.11 67.9524 320.159 68.1347 320.199C68.1604 320.209 68.1816 320.214 68.2073 320.219C68.2701 320.234 68.3322 320.248 68.3949 320.263C68.5666 320.307 68.7436 320.341 68.9207 320.376C68.9312 320.376 68.9365 320.381 68.9464 320.381C69.0924 320.41 69.2383 320.435 69.3889 320.454C69.5032 320.478 69.6234 320.498 69.743 320.513C69.9873 320.547 70.2377 320.577 70.4873 320.602C70.7317 320.628 70.9866 320.648 71.237 320.658Z" fill="url(#paint1_linear_862_7)"/>
<path d="M72.023 320.677C71.7594 320.677 71.4972 320.671 71.2363 320.658C71.4972 320.669 71.7594 320.677 72.023 320.677Z" fill="#DFDFDF"/>
<path d="M453.144 50.0538V304.77C453.144 305.168 453.128 305.566 453.097 305.959C453.086 306.071 453.076 306.18 453.066 306.292C452.998 306.96 452.889 307.618 452.732 308.262C452.707 308.385 452.675 308.507 452.639 308.63C452.618 308.723 452.592 308.817 452.566 308.905C452.243 310.044 451.785 311.13 451.212 312.151C451.149 312.259 451.087 312.372 451.024 312.48C450.894 312.706 450.759 312.922 450.613 313.138C450.545 313.237 450.477 313.34 450.41 313.438C450.337 313.541 450.264 313.644 450.192 313.747C449.983 314.032 449.765 314.312 449.541 314.582C449.442 314.705 449.343 314.818 449.239 314.931C449.083 315.113 448.916 315.29 448.755 315.462C448.656 315.565 448.557 315.663 448.453 315.761C448.276 315.938 448.094 316.11 447.906 316.277C447.901 316.282 447.896 316.291 447.885 316.296C447.51 316.63 447.114 316.955 446.708 317.259C446.698 317.264 446.692 317.269 446.682 317.278C446.073 317.73 445.427 318.142 444.75 318.516C444.527 318.643 444.292 318.761 444.058 318.879C444.021 318.894 443.985 318.913 443.948 318.933C443.75 319.026 443.547 319.119 443.344 319.208C443.104 319.316 442.86 319.414 442.614 319.507C442.37 319.606 442.12 319.694 441.865 319.778C441.62 319.856 441.37 319.934 441.12 320.008C441.109 320.008 441.094 320.013 441.078 320.018C440.829 320.086 440.573 320.151 440.318 320.214C440.058 320.273 439.792 320.328 439.527 320.376C439.256 320.425 438.99 320.47 438.714 320.509C438.48 320.538 438.241 320.567 438.001 320.592C437.965 320.592 437.923 320.597 437.886 320.602C437.792 320.612 437.704 320.617 437.61 320.622C437.678 320.617 437.745 320.607 437.813 320.602C438.063 320.583 438.313 320.553 438.558 320.514C438.677 320.499 438.798 320.479 438.912 320.455C439.063 320.435 439.208 320.41 439.354 320.381C439.605 320.332 439.849 320.278 440.094 320.219C440.302 320.17 440.511 320.116 440.708 320.057C440.88 320.008 441.047 319.959 441.214 319.905C441.531 319.802 441.838 319.694 442.141 319.576C442.276 319.522 442.412 319.464 442.547 319.404C442.735 319.331 442.922 319.247 443.099 319.159C443.235 319.095 443.37 319.031 443.505 318.963C443.578 318.929 443.651 318.889 443.719 318.85C443.859 318.782 443.995 318.707 444.13 318.629C444.318 318.526 444.5 318.413 444.677 318.305C444.782 318.242 444.885 318.172 444.99 318.104C445.141 318.01 445.286 317.908 445.427 317.804C445.604 317.682 445.781 317.554 445.953 317.416C445.999 317.382 446.041 317.348 446.083 317.313C446.213 317.214 446.343 317.112 446.468 316.998C446.535 316.949 446.598 316.895 446.655 316.841C446.807 316.714 446.953 316.586 447.093 316.443C447.244 316.306 447.394 316.159 447.54 316.006C447.577 315.967 447.618 315.928 447.66 315.883C447.801 315.731 447.941 315.574 448.082 315.417C448.243 315.24 448.394 315.058 448.535 314.872C448.655 314.724 448.769 314.577 448.874 314.425C448.937 314.352 448.993 314.273 449.046 314.194C449.113 314.096 449.181 313.998 449.244 313.899C449.311 313.806 449.374 313.713 449.431 313.615C449.551 313.424 449.671 313.232 449.78 313.036C449.848 312.913 449.915 312.795 449.978 312.672C450.129 312.388 450.269 312.098 450.405 311.798C450.457 311.68 450.504 311.562 450.551 311.444C450.603 311.326 450.65 311.204 450.697 311.081C450.775 310.885 450.843 310.678 450.91 310.472C450.977 310.266 451.04 310.055 451.098 309.843C451.165 309.617 451.217 309.382 451.269 309.146C451.311 308.974 451.342 308.797 451.369 308.62C451.509 307.849 451.582 307.054 451.582 306.243V48.5807C451.582 47.7604 451.509 46.96 451.363 46.1789C451.343 46.012 451.306 45.8451 451.269 45.6781C451.269 45.6682 451.264 45.6582 451.264 45.6439C451.217 45.4228 451.16 45.2016 451.098 44.9811C451.098 44.9712 451.098 44.9612 451.092 44.9519C451.035 44.7507 450.977 44.5489 450.91 44.3527C450.847 44.1565 450.78 43.9596 450.707 43.7684C450.65 43.6158 450.592 43.4688 450.53 43.3218C450.489 43.2234 450.447 43.1256 450.406 43.0322C450.275 42.7326 450.129 42.438 449.979 42.1533C449.916 42.0306 449.849 41.9079 449.781 41.7902C449.671 41.594 449.552 41.4021 449.432 41.2109C449.375 41.1125 449.312 41.0197 449.244 40.9263C449.182 40.8235 449.114 40.7251 449.046 40.6316C448.989 40.5532 448.937 40.4747 448.875 40.4006C448.77 40.2486 448.656 40.101 448.536 39.954C448.395 39.7671 448.244 39.5859 448.083 39.409C447.942 39.252 447.801 39.0944 447.661 38.9424C447.619 38.8982 447.577 38.859 447.541 38.8197C447.395 38.6677 447.244 38.5201 447.093 38.3825C446.921 38.2205 446.744 38.0586 446.562 37.906C446.401 37.7583 446.234 37.6213 446.062 37.498C446.031 37.4637 445.995 37.4338 445.953 37.4095C445.781 37.2719 445.605 37.1442 445.427 37.0215C445.245 36.8938 445.058 36.7661 444.87 36.6484C444.844 36.6291 444.818 36.6092 444.792 36.5942C444.678 36.5207 444.558 36.4466 444.438 36.3781C444.303 36.2946 444.162 36.2161 444.021 36.1376C444.016 36.1327 444.005 36.1277 443.996 36.1227C443.797 36.0149 443.6 35.9115 443.397 35.8081C443.381 35.7982 443.365 35.7932 443.35 35.7839C443.173 35.6954 442.99 35.6119 442.808 35.5335C442.693 35.4793 442.574 35.4257 442.454 35.3815C442.074 35.2146 441.678 35.0719 441.277 34.9442C441.089 34.8801 440.902 34.8215 440.71 34.7673C440.48 34.6988 440.246 34.6396 440.012 34.5854C439.798 34.5313 439.58 34.482 439.356 34.4428C439.21 34.4135 439.064 34.3886 438.913 34.3693C438.799 34.345 438.679 34.3251 438.559 34.3101C438.314 34.2759 438.064 34.246 437.814 34.2217C437.715 34.2117 437.616 34.2018 437.518 34.1968C437.642 34.1968 437.768 34.2067 437.887 34.2217C437.924 34.2267 437.965 34.2317 438.002 34.2317C438.242 34.2559 438.481 34.2858 438.716 34.3151C438.992 34.3544 439.257 34.3986 439.528 34.4478C440.33 34.5954 441.111 34.7966 441.866 35.047C442.121 35.1305 442.371 35.2189 442.616 35.3173C442.861 35.4108 443.105 35.5085 443.345 35.6169C443.548 35.7054 443.751 35.7988 443.949 35.8916C443.986 35.9115 444.022 35.9259 444.059 35.9458C444.293 36.0635 444.528 36.1812 444.752 36.3089C444.96 36.4217 445.163 36.54 445.366 36.6577C445.387 36.6727 445.408 36.687 445.429 36.697C445.632 36.8247 445.84 36.9523 446.038 37.085C446.054 37.1 446.064 37.1093 446.079 37.1143C446.246 37.227 446.408 37.3448 446.569 37.4631C446.61 37.4874 446.647 37.5173 446.683 37.5466C446.746 37.5908 446.808 37.64 446.871 37.6892C447.022 37.8019 447.172 37.9203 447.313 38.038C447.47 38.1607 447.62 38.2884 447.766 38.4261C447.813 38.4603 447.86 38.5045 447.907 38.5488C447.954 38.588 448.006 38.6322 448.053 38.6814C448.152 38.7699 448.246 38.8583 448.34 38.9518C448.766 39.3641 449.168 39.7914 449.542 40.2436C449.688 40.4155 449.829 40.5924 449.964 40.7693C450.037 40.8677 450.11 40.9655 450.183 41.0589C450.485 41.4763 450.766 41.9035 451.026 42.3458C451.089 42.4535 451.151 42.5619 451.214 42.6747C451.777 43.6812 452.229 44.7519 452.552 45.8718C452.583 45.9752 452.615 46.088 452.641 46.1957C452.677 46.3184 452.709 46.4412 452.734 46.5688C452.886 47.1973 452.995 47.8358 453.063 48.4941C453.078 48.6168 453.088 48.7445 453.099 48.8672C453.128 49.2584 453.144 49.6564 453.144 50.0538Z" fill="url(#paint2_linear_862_7)"/>
<path d="M436.275 320.677C436.539 320.677 436.801 320.669 437.062 320.658C436.802 320.671 436.54 320.677 436.275 320.677Z" fill="#DFDFDF"/>
<path d="M451.582 48.5806V50.0537C451.582 42.0928 444.718 35.6206 436.277 35.6206H72.0234C63.5825 35.6206 56.7188 42.0934 56.7188 50.0537V48.5806C56.7188 47.7603 56.7914 46.9599 56.9374 46.1788C56.9585 46.0119 56.9948 45.845 57.0312 45.678C57.0312 45.6681 57.0364 45.6581 57.0364 45.6438C57.0833 45.4226 57.1408 45.2015 57.2029 44.981C57.2029 44.9711 57.2029 44.9611 57.2082 44.9518C57.2656 44.7506 57.3224 44.5488 57.3905 44.3526C57.4532 44.1564 57.5206 43.9595 57.5939 43.7683C57.6513 43.6157 57.7081 43.4687 57.7709 43.3217C57.8125 43.2233 57.8541 43.1255 57.8957 43.0321C58.0258 42.7325 58.1718 42.4379 58.3224 42.1532C58.3851 42.0305 58.4525 41.9078 58.5205 41.7901C58.6302 41.5939 58.7497 41.402 58.8693 41.2108C58.9267 41.1124 58.9888 41.0196 59.0568 40.9261C59.1189 40.8234 59.187 40.725 59.2543 40.6315C59.3065 40.5531 59.364 40.4746 59.4261 40.4004C59.5304 40.2485 59.6447 40.1009 59.7642 39.9539C59.9102 39.767 60.0614 39.5857 60.2173 39.4089C60.358 39.2519 60.4987 39.0943 60.6394 38.9423C60.681 38.8981 60.7226 38.8589 60.7589 38.8196C60.9049 38.672 61.0555 38.525 61.2067 38.3824C61.3784 38.2204 61.5554 38.0585 61.7377 37.9059C61.8989 37.7632 62.066 37.6305 62.2377 37.4979C62.2688 37.4636 62.3057 37.4337 62.3474 37.4094C62.5191 37.2768 62.6908 37.1491 62.8731 37.0214C63.0554 36.8937 63.243 36.766 63.4305 36.6483C63.4563 36.629 63.4827 36.609 63.5085 36.5941C63.6234 36.5206 63.7429 36.4465 63.8625 36.378C63.9979 36.2945 64.1386 36.216 64.2793 36.1375C64.2845 36.1326 64.2951 36.1276 64.3057 36.1226C64.5038 36.0148 64.7013 35.9114 64.9047 35.808C64.9206 35.7981 64.9358 35.7931 64.9516 35.7837C65.1286 35.6953 65.3109 35.6118 65.4932 35.5333C65.6081 35.4792 65.7277 35.4256 65.8472 35.3814C66.2277 35.2144 66.6233 35.0718 67.0242 34.9441C67.2118 34.88 67.3994 34.8214 67.5916 34.7672C67.8208 34.7037 68.0552 34.6395 68.2897 34.5853C68.503 34.5312 68.7217 34.4819 68.9456 34.4427C69.0915 34.4134 69.2375 34.3885 69.3881 34.3692C69.5023 34.3449 69.6225 34.325 69.7421 34.31C69.9865 34.2758 70.2368 34.2459 70.4865 34.2216C70.5855 34.2116 70.6846 34.2017 70.783 34.1967C70.9343 34.1817 71.0848 34.1724 71.2361 34.1674C71.4963 34.1525 71.7566 34.1475 72.0221 34.1475H436.275C436.541 34.1475 436.801 34.1525 437.062 34.1674C437.213 34.1724 437.364 34.1823 437.515 34.1967C437.614 34.2017 437.713 34.2116 437.812 34.2216C438.062 34.2459 438.312 34.2758 438.557 34.31C438.676 34.325 438.796 34.3443 438.911 34.3692C439.062 34.3891 439.207 34.4134 439.353 34.4427C439.577 34.4819 439.796 34.5312 440.009 34.5853C440.244 34.6395 440.478 34.7031 440.707 34.7672C440.9 34.8214 441.088 34.88 441.275 34.9441C441.676 35.0718 442.071 35.2144 442.452 35.3814C442.571 35.4256 442.691 35.4798 442.806 35.5333C442.988 35.6118 443.17 35.6953 443.347 35.7837C443.363 35.7937 443.378 35.7987 443.394 35.808C443.597 35.9114 443.795 36.0142 443.993 36.1226C444.004 36.1276 444.014 36.1326 444.019 36.1375C444.16 36.216 444.3 36.2945 444.436 36.378C444.555 36.4465 444.675 36.5206 444.79 36.5941C444.815 36.609 444.842 36.6284 444.868 36.6483C445.055 36.766 445.243 36.8937 445.425 37.0214C445.607 37.1491 445.779 37.2768 445.951 37.4094C445.992 37.4337 446.029 37.4636 446.06 37.4979C446.231 37.6305 446.399 37.7632 446.56 37.9059C446.742 38.0578 446.919 38.2198 447.091 38.3824C447.242 38.525 447.393 38.672 447.539 38.8196C447.575 38.8589 447.616 38.8981 447.658 38.9423C447.799 39.0943 447.94 39.2519 448.08 39.4089C448.237 39.5857 448.387 39.7676 448.533 39.9539C448.653 40.1015 448.768 40.2485 448.872 40.4004C448.935 40.4739 448.992 40.5524 449.044 40.6315C449.111 40.725 449.179 40.8228 449.242 40.9261C449.309 41.0196 449.372 41.113 449.43 41.2108C449.549 41.402 449.669 41.5939 449.778 41.7901C449.846 41.9078 449.914 42.0305 449.976 42.1532C450.128 42.4379 450.273 42.7325 450.403 43.0321C450.445 43.1255 450.486 43.2239 450.528 43.3217C450.591 43.4693 450.647 43.6163 450.705 43.7683C450.778 43.9595 450.846 44.1564 450.908 44.3526C450.975 44.5488 451.033 44.7506 451.09 44.9518C451.095 44.9617 451.095 44.9711 451.095 44.981C451.158 45.2022 451.215 45.4233 451.262 45.6438C451.262 45.6587 451.267 45.6681 451.267 45.678C451.303 45.845 451.34 46.0119 451.361 46.1788C451.509 46.9599 451.582 47.7603 451.582 48.5806Z" fill="url(#paint3_linear_862_7)"/>
<path d="M451.582 304.771V306.244C451.582 307.054 451.509 307.849 451.369 308.62C451.343 308.797 451.311 308.974 451.27 309.146C451.217 309.382 451.165 309.618 451.098 309.844C451.04 310.055 450.978 310.266 450.91 310.472C450.842 310.678 450.775 310.885 450.697 311.081C450.65 311.204 450.603 311.327 450.551 311.445C450.504 311.562 450.457 311.68 450.405 311.798C450.27 312.098 450.129 312.388 449.978 312.673C449.916 312.796 449.848 312.913 449.78 313.036C449.671 313.232 449.551 313.424 449.431 313.615C449.374 313.714 449.312 313.807 449.244 313.9C449.181 313.998 449.114 314.096 449.046 314.195C448.994 314.273 448.936 314.352 448.874 314.426C448.77 314.578 448.655 314.725 448.535 314.872C448.389 315.058 448.239 315.24 448.082 315.417C447.941 315.574 447.801 315.732 447.66 315.884C447.618 315.928 447.577 315.967 447.541 316.006C447.395 316.154 447.244 316.301 447.093 316.444C446.952 316.576 446.806 316.709 446.655 316.842C446.598 316.896 446.536 316.95 446.468 316.999C446.343 317.107 446.213 317.21 446.083 317.313C446.041 317.348 446 317.382 445.953 317.417C445.781 317.549 445.609 317.682 445.427 317.805C445.286 317.907 445.14 318.006 444.99 318.104C444.885 318.173 444.782 318.242 444.677 318.305C444.5 318.413 444.318 318.527 444.13 318.629C443.995 318.708 443.86 318.781 443.719 318.851C443.652 318.89 443.578 318.929 443.506 318.963C443.37 319.032 443.235 319.096 443.099 319.159C442.922 319.248 442.735 319.331 442.547 319.405C442.412 319.463 442.277 319.523 442.141 319.577C441.839 319.694 441.532 319.803 441.214 319.906C441.047 319.96 440.88 320.008 440.709 320.058C440.51 320.117 440.302 320.171 440.094 320.22C439.849 320.279 439.605 320.332 439.355 320.381C439.209 320.411 439.063 320.436 438.912 320.455C438.798 320.479 438.678 320.499 438.558 320.514C438.313 320.548 438.063 320.578 437.813 320.603C437.746 320.608 437.678 320.618 437.61 320.623C437.428 320.637 437.246 320.647 437.063 320.657C436.944 320.662 436.829 320.667 436.709 320.671C436.563 320.676 436.423 320.676 436.277 320.676H72.0234C71.8774 320.676 71.7367 320.676 71.5914 320.671C71.4719 320.666 71.3569 320.661 71.2374 320.657C71.0551 320.647 70.8728 320.637 70.6905 320.623C70.6225 320.618 70.5551 320.608 70.4871 320.603C70.2368 320.578 69.9871 320.548 69.7427 320.514C69.6225 320.499 69.503 320.48 69.3887 320.455C69.2375 320.435 69.0922 320.411 68.9462 320.381C68.9356 320.381 68.9303 320.377 68.9204 320.377C68.7434 320.342 68.5664 320.308 68.3947 320.264C68.3319 320.249 68.2699 320.235 68.2071 320.22C68.1813 320.215 68.1602 320.21 68.1345 320.2C67.9522 320.16 67.7699 320.111 67.5929 320.057C67.4211 320.008 67.2547 319.959 67.0876 319.905C67.0665 319.9 67.0513 319.89 67.0301 319.885C66.9363 319.856 66.8426 319.827 66.7541 319.792C66.6028 319.742 66.4575 319.688 66.3115 319.635C66.2594 319.615 66.2125 319.595 66.1603 319.576C66.0249 319.521 65.8895 319.463 65.7541 319.404C65.5665 319.33 65.3789 319.247 65.2019 319.158C65.0665 319.099 64.9311 319.03 64.7957 318.962C64.7231 318.928 64.6498 318.888 64.5824 318.849C64.4523 318.786 64.3275 318.717 64.2026 318.648C64.1921 318.638 64.1815 318.633 64.1716 318.629C63.984 318.525 63.8017 318.413 63.6247 318.305C63.5203 318.241 63.4167 318.172 63.3123 318.104C63.2964 318.094 63.2812 318.084 63.2707 318.074C63.1353 317.986 62.9999 317.897 62.8751 317.804C62.6928 317.681 62.521 317.549 62.3493 317.416C62.3024 317.382 62.2608 317.347 62.2192 317.313C62.0891 317.209 61.959 317.106 61.8341 316.998C61.7661 316.949 61.704 316.895 61.6466 316.841C61.636 316.831 61.6254 316.822 61.6155 316.817C61.4748 316.689 61.3394 316.566 61.2093 316.444C61.0739 316.316 60.9385 316.183 60.8031 316.051C60.7926 316.036 60.7774 316.021 60.7615 316.006C60.7252 315.967 60.6836 315.928 60.642 315.884C60.6261 315.864 60.6056 315.844 60.5898 315.825C60.465 315.693 60.3454 315.555 60.2199 315.418C60.0634 315.241 59.9128 315.059 59.7668 314.873C59.6473 314.725 59.5324 314.578 59.4287 314.426C59.3659 314.353 59.3091 314.274 59.2569 314.195C59.1896 314.097 59.1215 313.999 59.0595 313.901C58.9914 313.807 58.9293 313.714 58.8719 313.616C58.7523 313.425 58.6321 313.233 58.5232 313.037C58.4551 312.914 58.3878 312.796 58.325 312.673C58.1738 312.389 58.0337 312.099 57.8983 311.799C57.8931 311.789 57.8931 311.784 57.8878 311.775C57.8409 311.667 57.794 311.554 57.7524 311.446C57.7471 311.431 57.7418 311.422 57.7365 311.407C57.6896 311.308 57.6533 311.21 57.617 311.107C57.6117 311.097 57.6117 311.093 57.6064 311.083C57.5285 310.886 57.4604 310.68 57.3931 310.474C57.325 310.267 57.263 310.056 57.2055 309.845C57.1844 309.781 57.1692 309.717 57.1533 309.653C57.1117 309.501 57.0754 309.354 57.0437 309.202C57.0437 309.182 57.0384 309.167 57.0331 309.147C57.0225 309.098 57.012 309.049 57.0021 309C56.9816 308.896 56.9605 308.794 56.9446 308.69C56.9393 308.666 56.9393 308.646 56.934 308.622C56.903 308.455 56.8766 308.288 56.8508 308.116C56.8455 308.057 56.835 307.998 56.8297 307.934C56.8085 307.806 56.7986 307.679 56.7828 307.551C56.7669 307.403 56.757 307.251 56.7517 307.099C56.7306 306.819 56.7207 306.53 56.7207 306.244V304.771C56.7207 312.732 63.5844 319.204 72.0253 319.204H436.279C444.718 319.204 451.582 312.731 451.582 304.771Z" fill="url(#paint4_linear_862_7)"/>
<path d="M434.647 59.4624H74.353C72.6672 59.4654 71.0514 60.0915 69.8604 61.2033C68.6693 62.3152 68.0003 63.8219 68 65.3929V290.095C68.0024 291.664 68.6725 293.168 69.8634 294.278C71.0543 295.388 72.6689 296.013 74.353 296.015H434.647C436.331 296.013 437.946 295.388 439.137 294.278C440.327 293.168 440.998 291.664 441 290.095V65.3934C441 63.823 440.331 62.3168 439.141 61.2051C437.951 60.0933 436.336 59.4668 434.651 59.4628L434.647 59.4624Z" fill="white"/>
<path d="M190.815 219.662H91.8923C91.4067 219.661 90.9411 219.481 90.5976 219.161C90.2542 218.841 90.0611 218.407 90.0605 217.955V195.089C90.0612 194.636 90.2544 194.202 90.5978 193.882C90.9412 193.562 91.4067 193.382 91.8923 193.382H190.815C191.301 193.382 191.767 193.562 192.11 193.882C192.453 194.202 192.646 194.636 192.647 195.089V217.953C192.646 218.406 192.453 218.84 192.11 219.16C191.767 219.48 191.301 219.66 190.815 219.66V219.662ZM91.8923 194.064C91.6006 194.064 91.3208 194.172 91.1144 194.364C90.908 194.556 90.7919 194.817 90.7916 195.088V217.953C90.7919 218.225 90.9078 218.485 91.1139 218.677C91.32 218.869 91.5994 218.977 91.8909 218.978H190.815C191.107 218.977 191.386 218.869 191.592 218.677C191.798 218.485 191.914 218.225 191.915 217.953V195.088C191.914 194.817 191.798 194.556 191.592 194.364C191.386 194.172 191.107 194.064 190.815 194.064H91.8923Z" fill="#E6E6E6"/>
<path d="M122.486 201.616C122.15 201.622 121.831 201.751 121.595 201.974C121.36 202.198 121.229 202.498 121.229 202.811C121.229 203.124 121.36 203.425 121.595 203.648C121.831 203.872 122.15 204 122.486 204.006H182.936C183.274 204.015 183.602 203.899 183.849 203.684C184.096 203.469 184.241 203.171 184.254 202.856C184.267 202.542 184.145 202.235 183.917 202.003C183.688 201.771 183.37 201.632 183.033 201.618H182.976H122.486L122.486 201.616Z" fill="#E6E6E6"/>
<path d="M122.487 208.785C122.147 208.785 121.821 208.911 121.581 209.135C121.34 209.359 121.205 209.663 121.205 209.98C121.205 210.297 121.34 210.601 121.581 210.825C121.821 211.049 122.147 211.175 122.487 211.175H182.938C183.275 211.184 183.603 211.068 183.85 210.853C184.097 210.637 184.242 210.34 184.255 210.025C184.268 209.71 184.147 209.404 183.918 209.172C183.689 208.94 183.371 208.801 183.034 208.786H182.977H122.487L122.487 208.785Z" fill="#E6E6E6"/>
<path d="M155.934 178.218C155.7 178.219 155.471 178.159 155.271 178.046C155.071 177.932 154.909 177.769 154.803 177.575C153.899 175.927 152.65 174.465 151.131 173.273C149.612 172.081 147.853 171.184 145.956 170.635C145.18 170.415 144.388 170.248 143.585 170.135L143.422 170.112L151.859 145.53L152.003 145.535C168.394 149.685 177.772 161.927 180.255 165.58C180.35 165.719 180.412 165.876 180.437 166.039C180.463 166.203 180.452 166.369 180.404 166.528C180.356 166.687 180.273 166.835 180.16 166.963C180.047 167.09 179.907 167.194 179.748 167.267L156.504 178.093C156.328 178.175 156.132 178.218 155.934 178.218Z" fill="#F2F2F2"/>
<path d="M141.777 182.893C143.023 182.893 144.033 181.952 144.033 180.791C144.033 179.63 143.023 178.688 141.777 178.688C140.531 178.688 139.521 179.63 139.521 180.791C139.521 181.952 140.531 182.893 141.777 182.893Z" fill="#3F3D56"/>
<path d="M126.636 178.187C126.429 178.186 126.226 178.139 126.044 178.049L102.935 166.688C102.781 166.613 102.646 166.509 102.538 166.383C102.429 166.257 102.349 166.112 102.303 165.956C102.257 165.801 102.246 165.638 102.27 165.478C102.294 165.318 102.353 165.164 102.444 165.026C105.531 160.416 109.44 156.33 114.002 152.946C121.983 147.051 131.061 144.094 140.982 144.144C144.703 144.16 148.405 144.627 151.997 145.535L152.141 145.57L143.702 170.148L143.583 170.132C142.823 170.025 142.057 169.961 141.289 169.942C132.702 169.718 128.981 175.165 127.78 177.518C127.707 177.66 127.605 177.788 127.477 177.892C127.35 177.996 127.202 178.075 127.041 178.124C126.911 178.165 126.775 178.186 126.638 178.186L126.636 178.187Z" fill="#3083E9"/>
<path d="M151.965 145.661L145.997 170.508C145.214 170.286 144.414 170.118 143.605 170.003L151.961 145.66L151.965 145.661Z" fill="#3F3D56"/>
<path d="M104.235 213.55C108.484 213.55 111.929 210.34 111.929 206.381C111.929 202.421 108.484 199.211 104.235 199.211C99.9857 199.211 96.541 202.421 96.541 206.381C96.541 210.34 99.9857 213.55 104.235 213.55Z" fill="#3083E9"/>
<path d="M103.137 210.29C102.998 210.29 102.86 210.26 102.736 210.202C102.611 210.144 102.503 210.06 102.42 209.956L100.221 207.224C100.081 207.046 100.022 206.825 100.057 206.607C100.091 206.389 100.217 206.193 100.406 206.061C100.595 205.929 100.832 205.872 101.066 205.902C101.3 205.932 101.512 206.047 101.655 206.221L103.094 208.009L106.789 202.844C106.921 202.661 107.126 202.535 107.359 202.492C107.591 202.45 107.832 202.495 108.029 202.617C108.226 202.739 108.363 202.929 108.41 203.146C108.457 203.362 108.411 203.587 108.281 203.771L103.883 209.918C103.803 210.03 103.696 210.121 103.57 210.186C103.445 210.251 103.304 210.286 103.161 210.29H103.137Z" fill="white"/>
<path d="M309.015 219.662H210.092C209.606 219.661 209.14 219.481 208.797 219.161C208.453 218.841 208.26 218.407 208.26 217.955V195.089C208.26 194.636 208.454 194.202 208.797 193.882C209.14 193.562 209.606 193.382 210.092 193.382H309.015C309.5 193.382 309.966 193.562 310.309 193.882C310.652 194.202 310.846 194.636 310.846 195.089V217.953C310.846 218.406 310.652 218.84 310.309 219.16C309.966 219.48 309.5 219.66 309.015 219.66V219.662ZM210.092 194.064C209.8 194.064 209.52 194.172 209.314 194.364C209.107 194.556 208.991 194.817 208.991 195.088V217.953C208.991 218.225 209.107 218.485 209.313 218.677C209.519 218.869 209.799 218.977 210.09 218.978H309.015C309.306 218.977 309.585 218.869 309.792 218.677C309.998 218.485 310.114 218.225 310.114 217.953V195.088C310.114 194.817 309.998 194.556 309.792 194.364C309.585 194.172 309.306 194.064 309.015 194.064H210.092Z" fill="#E6E6E6"/>
<path d="M240.686 201.616C240.35 201.622 240.03 201.751 239.795 201.974C239.559 202.198 239.428 202.498 239.428 202.811C239.428 203.124 239.559 203.425 239.795 203.648C240.03 203.872 240.35 204 240.686 204.006H301.136C301.474 204.015 301.801 203.899 302.048 203.684C302.295 203.469 302.44 203.171 302.453 202.856C302.466 202.542 302.345 202.235 302.116 202.003C301.887 201.771 301.569 201.632 301.232 201.618H301.176H240.685L240.686 201.616Z" fill="#E6E6E6"/>
<path d="M240.687 208.785C240.347 208.785 240.02 208.911 239.78 209.135C239.539 209.359 239.404 209.663 239.404 209.98C239.404 210.297 239.539 210.601 239.78 210.825C240.02 211.049 240.347 211.175 240.687 211.175H301.137C301.475 211.184 301.803 211.068 302.049 210.853C302.296 210.637 302.442 210.34 302.454 210.025C302.467 209.71 302.346 209.404 302.117 209.172C301.888 208.94 301.571 208.801 301.233 208.786H301.177H240.686L240.687 208.785Z" fill="#E6E6E6"/>
<path d="M274.134 178.218C273.9 178.219 273.67 178.159 273.47 178.046C273.27 177.932 273.108 177.769 273.002 177.575C272.098 175.927 270.849 174.465 269.33 173.273C267.811 172.081 266.052 171.184 264.156 170.635C263.379 170.415 262.587 170.248 261.785 170.135L261.621 170.112L270.058 145.53L270.202 145.535C286.593 149.685 295.971 161.927 298.454 165.58C298.549 165.719 298.611 165.876 298.637 166.039C298.662 166.203 298.651 166.369 298.603 166.528C298.555 166.687 298.472 166.835 298.359 166.963C298.246 167.09 298.106 167.194 297.947 167.267L274.704 178.093C274.527 178.175 274.331 178.218 274.134 178.218Z" fill="#F2F2F2"/>
<path d="M259.977 182.892C261.222 182.892 262.232 181.951 262.232 180.79C262.232 179.629 261.222 178.688 259.977 178.688C258.731 178.688 257.721 179.629 257.721 180.79C257.721 181.951 258.731 182.892 259.977 182.892Z" fill="#3F3D56"/>
<path d="M244.835 178.187C244.629 178.186 244.425 178.139 244.243 178.049L221.134 166.688C220.981 166.613 220.845 166.509 220.737 166.383C220.628 166.257 220.549 166.112 220.503 165.956C220.457 165.801 220.445 165.638 220.469 165.478C220.494 165.318 220.553 165.164 220.643 165.026C223.73 160.416 227.639 156.33 232.202 152.946C240.182 147.051 249.26 144.094 259.181 144.144C262.902 144.16 266.605 144.627 270.196 145.535L270.34 145.57L261.902 170.148L261.783 170.132C261.023 170.025 260.256 169.961 259.488 169.942C250.901 169.718 247.18 175.165 245.979 177.518C245.907 177.66 245.804 177.788 245.677 177.892C245.55 177.996 245.401 178.075 245.24 178.124C245.11 178.165 244.974 178.186 244.837 178.186L244.835 178.187Z" fill="#3083E9"/>
<path d="M270.164 145.661L264.196 170.508C263.413 170.286 262.614 170.118 261.805 170.003L270.16 145.66L270.164 145.661Z" fill="#3F3D56"/>
<path d="M222.434 213.55C226.683 213.55 230.128 210.34 230.128 206.381C230.128 202.421 226.683 199.211 222.434 199.211C218.185 199.211 214.74 202.421 214.74 206.381C214.74 210.34 218.185 213.55 222.434 213.55Z" fill="#3083E9"/>
<path d="M221.336 210.29C221.197 210.29 221.06 210.26 220.935 210.202C220.811 210.144 220.702 210.06 220.619 209.956L218.42 207.224C218.28 207.046 218.221 206.825 218.256 206.607C218.29 206.389 218.416 206.193 218.605 206.061C218.794 205.929 219.031 205.872 219.265 205.902C219.499 205.932 219.711 206.047 219.855 206.221L221.293 208.009L224.988 202.844C225.121 202.661 225.325 202.535 225.558 202.492C225.79 202.45 226.031 202.495 226.228 202.617C226.425 202.739 226.562 202.929 226.609 203.146C226.657 203.362 226.61 203.587 226.48 203.771L222.082 209.918C222.002 210.03 221.895 210.121 221.77 210.186C221.644 210.251 221.503 210.286 221.36 210.29H221.336Z" fill="white"/>
<path d="M427.216 219.662H328.293C327.807 219.661 327.341 219.481 326.998 219.161C326.655 218.841 326.461 218.407 326.461 217.955V195.089C326.462 194.636 326.655 194.202 326.998 193.882C327.342 193.562 327.807 193.382 328.293 193.382H427.216C427.701 193.382 428.167 193.562 428.51 193.882C428.854 194.202 429.047 194.636 429.048 195.089V217.953C429.047 218.406 428.854 218.84 428.51 219.16C428.167 219.48 427.701 219.66 427.216 219.66V219.662ZM328.293 194.064C328.001 194.064 327.721 194.172 327.515 194.364C327.308 194.556 327.192 194.817 327.192 195.088V217.953C327.192 218.225 327.308 218.485 327.514 218.677C327.72 218.869 328 218.977 328.291 218.978H427.216C427.507 218.977 427.787 218.869 427.993 218.677C428.199 218.485 428.315 218.225 428.315 217.953V195.088C428.315 194.817 428.199 194.556 427.993 194.364C427.787 194.172 427.507 194.064 427.216 194.064H328.293Z" fill="#E6E6E6"/>
<path d="M358.885 201.616C358.549 201.622 358.229 201.751 357.994 201.974C357.759 202.198 357.627 202.498 357.627 202.811C357.627 203.124 357.759 203.425 357.994 203.648C358.229 203.872 358.549 204 358.885 204.006H419.335C419.673 204.015 420.001 203.899 420.247 203.684C420.494 203.469 420.64 203.171 420.652 202.856C420.665 202.542 420.544 202.235 420.315 202.003C420.086 201.771 419.769 201.632 419.431 201.618H419.375H358.884L358.885 201.616Z" fill="#E6E6E6"/>
<path d="M358.886 208.785C358.546 208.785 358.22 208.911 357.979 209.135C357.739 209.359 357.604 209.663 357.604 209.98C357.604 210.297 357.739 210.601 357.979 210.825C358.22 211.049 358.546 211.175 358.886 211.175H419.336C419.674 211.184 420.002 211.068 420.249 210.853C420.495 210.637 420.641 210.34 420.654 210.025C420.666 209.71 420.545 209.404 420.316 209.172C420.088 208.94 419.77 208.801 419.432 208.786H419.376H358.885L358.886 208.785Z" fill="#E6E6E6"/>
<path d="M392.333 178.218C392.099 178.219 391.869 178.159 391.669 178.046C391.47 177.932 391.308 177.769 391.201 177.575C390.297 175.927 389.049 174.465 387.53 173.273C386.01 172.081 384.251 171.184 382.355 170.635C381.578 170.415 380.786 170.248 379.984 170.135L379.82 170.112L388.257 145.53L388.402 145.535C404.793 149.685 414.17 161.927 416.653 165.58C416.748 165.719 416.81 165.876 416.836 166.039C416.862 166.203 416.85 166.369 416.802 166.528C416.755 166.687 416.672 166.835 416.559 166.963C416.446 167.09 416.305 167.194 416.147 167.267L392.903 178.093C392.726 178.175 392.531 178.218 392.333 178.218Z" fill="#F2F2F2"/>
<path d="M378.176 182.892C379.422 182.892 380.432 181.951 380.432 180.79C380.432 179.629 379.422 178.688 378.176 178.688C376.93 178.688 375.92 179.629 375.92 180.79C375.92 181.951 376.93 182.892 378.176 182.892Z" fill="#3F3D56"/>
<path d="M363.034 178.187C362.828 178.186 362.625 178.139 362.442 178.049L339.333 166.688C339.18 166.613 339.045 166.509 338.936 166.383C338.827 166.257 338.748 166.112 338.702 165.956C338.656 165.801 338.644 165.638 338.669 165.478C338.693 165.318 338.752 165.164 338.842 165.026C341.929 160.416 345.838 156.33 350.401 152.946C358.381 147.051 367.459 144.094 377.38 144.144C381.101 144.16 384.804 144.627 388.395 145.535L388.54 145.57L380.101 170.148L379.982 170.132C379.222 170.025 378.455 169.961 377.687 169.942C369.1 169.718 365.379 175.165 364.178 177.518C364.106 177.66 364.003 177.788 363.876 177.892C363.749 177.996 363.6 178.075 363.439 178.124C363.31 178.165 363.174 178.186 363.037 178.186L363.034 178.187Z" fill="#3083E9"/>
<path d="M388.363 145.661L382.395 170.508C381.612 170.286 380.813 170.118 380.004 170.003L388.359 145.66L388.363 145.661Z" fill="#3F3D56"/>
<path d="M340.633 213.55C344.883 213.55 348.327 210.34 348.327 206.381C348.327 202.421 344.883 199.211 340.633 199.211C336.384 199.211 332.939 202.421 332.939 206.381C332.939 210.34 336.384 213.55 340.633 213.55Z" fill="#3083E9"/>
<path d="M339.535 210.29C339.396 210.29 339.259 210.26 339.134 210.202C339.01 210.144 338.902 210.06 338.818 209.956L336.619 207.224C336.479 207.046 336.42 206.825 336.455 206.607C336.49 206.389 336.615 206.193 336.804 206.061C336.993 205.929 337.23 205.872 337.464 205.902C337.698 205.932 337.91 206.047 338.054 206.221L339.492 208.009L343.187 202.844C343.32 202.661 343.525 202.535 343.757 202.492C343.989 202.45 344.23 202.495 344.427 202.617C344.624 202.739 344.761 202.929 344.809 203.146C344.856 203.362 344.809 203.587 344.679 203.771L340.281 209.918C340.202 210.03 340.094 210.121 339.969 210.186C339.843 210.251 339.703 210.286 339.559 210.29H339.535Z" fill="white"/>
<path d="M93.0284 238.117H426.081C427.676 238.117 428.969 239.007 428.969 240.105V275.896C428.969 276.994 427.676 277.884 426.081 277.884H93.0284C91.4334 277.884 90.1406 276.994 90.1406 275.896V240.105C90.1406 239.007 91.4334 238.117 93.0284 238.117Z" fill="#F2F2F2"/>
<path d="M427.993 116.38H91.1966C90.6147 116.38 90.1426 116.272 90.1426 116.138V79.1299C90.1426 78.9954 90.6142 78.8882 91.1966 78.8882C91.779 78.8882 92.2506 78.9963 92.2506 79.1299V115.897H427.995C428.577 115.897 429.049 116.005 429.049 116.138C429.049 116.272 428.577 116.38 427.995 116.38L427.993 116.38Z" fill="#E6E6E6"/>
<path d="M108.072 113.723H100.536C100.435 113.723 100.334 113.704 100.241 113.668C100.148 113.632 100.063 113.579 99.9912 113.512C99.9197 113.446 99.8629 113.367 99.8242 113.28C99.7855 113.193 99.7656 113.099 99.7656 113.005V103.325C99.7656 103.23 99.7855 103.137 99.8242 103.05C99.8629 102.963 99.9197 102.884 99.9912 102.817C100.063 102.75 100.148 102.698 100.241 102.662C100.334 102.625 100.435 102.607 100.536 102.607H108.072C108.173 102.607 108.273 102.625 108.366 102.662C108.46 102.698 108.545 102.75 108.616 102.817C108.688 102.884 108.744 102.963 108.783 103.05C108.822 103.137 108.842 103.23 108.842 103.325V113.005C108.842 113.196 108.761 113.378 108.616 113.513C108.472 113.647 108.276 113.723 108.072 113.723V113.723Z" fill="#3083E9"/>
<path d="M202.404 113.723H194.868C194.767 113.723 194.666 113.704 194.573 113.668C194.48 113.632 194.395 113.579 194.323 113.512C194.252 113.446 194.195 113.367 194.156 113.28C194.118 113.192 194.098 113.099 194.098 113.005V94.1419C194.098 93.9516 194.179 93.7691 194.323 93.6345C194.468 93.4999 194.663 93.4243 194.868 93.4243H202.404C202.505 93.4243 202.605 93.4429 202.698 93.4789C202.792 93.515 202.877 93.5679 202.948 93.6345C203.02 93.7011 203.077 93.7802 203.115 93.8673C203.154 93.9544 203.174 94.0477 203.174 94.1419V113.005C203.174 113.099 203.154 113.192 203.115 113.28C203.077 113.367 203.02 113.446 202.948 113.512C202.877 113.579 202.792 113.632 202.698 113.668C202.605 113.704 202.505 113.723 202.404 113.723Z" fill="#3083E9"/>
<path d="M269.785 113.723H262.249C262.147 113.723 262.047 113.704 261.954 113.668C261.86 113.632 261.776 113.579 261.704 113.512C261.633 113.446 261.576 113.367 261.537 113.28C261.498 113.193 261.479 113.099 261.479 113.005V103.325C261.479 103.23 261.498 103.137 261.537 103.05C261.576 102.963 261.633 102.884 261.704 102.817C261.776 102.75 261.86 102.698 261.954 102.662C262.047 102.625 262.147 102.607 262.249 102.607H269.785C269.886 102.607 269.986 102.625 270.079 102.662C270.173 102.698 270.258 102.75 270.329 102.817C270.401 102.884 270.457 102.963 270.496 103.05C270.535 103.137 270.555 103.23 270.555 103.325V113.005C270.555 113.196 270.473 113.378 270.329 113.513C270.185 113.647 269.989 113.723 269.785 113.723Z" fill="#3083E9"/>
<path d="M323.66 113.722H316.124C315.924 113.726 315.731 113.656 315.587 113.527C315.442 113.399 315.358 113.223 315.354 113.037V90.4838C315.358 90.298 315.442 90.1215 315.587 89.9931C315.731 89.8647 315.924 89.7949 316.124 89.799H323.66C323.859 89.7949 324.052 89.8647 324.197 89.9931C324.341 90.1215 324.425 90.298 324.43 90.4838V113.037C324.425 113.223 324.341 113.399 324.197 113.527C324.052 113.656 323.859 113.726 323.66 113.722Z" fill="#3083E9"/>
<path d="M418.605 113.722H411.069C410.865 113.722 410.669 113.647 410.524 113.512C410.38 113.378 410.299 113.195 410.299 113.005V83.993C410.299 83.8027 410.38 83.6201 410.524 83.4856C410.669 83.351 410.865 83.2754 411.069 83.2754H418.605C418.706 83.2754 418.806 83.294 418.9 83.33C418.993 83.3661 419.078 83.4189 419.149 83.4856C419.221 83.5522 419.278 83.6313 419.316 83.7184C419.355 83.8054 419.375 83.8988 419.375 83.993V113.006C419.375 113.196 419.294 113.378 419.149 113.512C419.005 113.647 418.809 113.722 418.605 113.722Z" fill="#3083E9"/>
<path d="M104.335 99.7071C105.195 99.7071 105.891 99.0579 105.891 98.2571C105.891 97.4563 105.195 96.8071 104.335 96.8071C103.476 96.8071 102.779 97.4563 102.779 98.2571C102.779 99.0579 103.476 99.7071 104.335 99.7071Z" fill="#3F3D56"/>
<path d="M198.552 91.6192C199.411 91.6192 200.108 90.9701 200.108 90.1692C200.108 89.3684 199.411 88.7192 198.552 88.7192C197.693 88.7192 196.996 89.3684 196.996 90.1692C196.996 90.9701 197.693 91.6192 198.552 91.6192Z" fill="#3F3D56"/>
<path d="M266.019 99.7071C266.878 99.7071 267.575 99.0579 267.575 98.2571C267.575 97.4563 266.878 96.8071 266.019 96.8071C265.16 96.8071 264.463 97.4563 264.463 98.2571C264.463 99.0579 265.16 99.7071 266.019 99.7071Z" fill="#3F3D56"/>
<path d="M320.089 87.4859C320.949 87.4859 321.645 86.8368 321.645 86.0359C321.645 85.2351 320.949 84.5859 320.089 84.5859C319.23 84.5859 318.533 85.2351 318.533 86.0359C318.533 86.8368 319.23 87.4859 320.089 87.4859Z" fill="#3F3D56"/>
<path d="M414.839 80.3761C415.699 80.3761 416.395 79.7269 416.395 78.9261C416.395 78.1253 415.699 77.4761 414.839 77.4761C413.98 77.4761 413.283 78.1253 413.283 78.9261C413.283 79.7269 413.98 80.3761 414.839 80.3761Z" fill="#3F3D56"/>
<path d="M266.161 98.5815L199.257 90.2304L105.927 98.4501L104.178 98.063L199.257 89.6267L265.792 97.932L319.973 85.7517L320.28 85.7311L413.843 78.8564L414.934 79.3049L321.679 86.1598L266.161 98.5815Z" fill="#3F3D56"/>
<path d="M121.547 113.722H114.011C113.797 113.712 113.595 113.623 113.451 113.474C113.307 113.326 113.231 113.13 113.241 112.931V102.248C113.231 102.048 113.307 101.853 113.451 101.704C113.595 101.556 113.797 101.467 114.011 101.457H121.547C121.762 101.467 121.963 101.556 122.107 101.704C122.252 101.853 122.327 102.048 122.317 102.248V112.931C122.327 113.13 122.252 113.326 122.107 113.474C121.963 113.623 121.762 113.712 121.547 113.722Z" fill="#E6E6E6"/>
<path d="M135.024 113.722H127.488C127.273 113.712 127.072 113.623 126.928 113.474C126.783 113.326 126.708 113.13 126.718 112.931V102.248C126.708 102.048 126.783 101.853 126.928 101.704C127.072 101.556 127.273 101.467 127.488 101.457H135.024C135.238 101.467 135.44 101.556 135.584 101.704C135.728 101.853 135.804 102.048 135.794 102.248V112.931C135.804 113.13 135.728 113.326 135.584 113.474C135.44 113.623 135.238 113.712 135.024 113.722Z" fill="#E6E6E6"/>
<path d="M148.5 113.722H140.964C140.735 113.694 140.526 113.584 140.382 113.416C140.238 113.247 140.171 113.032 140.194 112.818V100.611C140.171 100.397 140.238 100.182 140.382 100.014C140.526 99.8447 140.735 99.7348 140.964 99.707H148.5C148.729 99.7348 148.938 99.8447 149.082 100.014C149.226 100.182 149.293 100.397 149.27 100.611V112.818C149.293 113.032 149.226 113.247 149.082 113.416C148.938 113.584 148.729 113.694 148.5 113.722Z" fill="#E6E6E6"/>
<path d="M161.976 113.722H154.44C154.015 113.722 153.67 113.285 153.67 112.746V99.5579C153.67 99.0197 154.015 98.5815 154.44 98.5811H161.976C162.401 98.5811 162.746 99.0188 162.746 99.5579V112.744C162.746 113.282 162.401 113.72 161.976 113.721V113.722Z" fill="#E6E6E6"/>
<path d="M175.453 113.724H167.917C167.492 113.724 167.146 113.259 167.146 112.686V98.6721C167.146 98.0989 167.491 97.6347 167.917 97.6338H175.453C175.878 97.6338 176.223 98.0989 176.223 98.6721V112.684C176.223 113.257 175.878 113.721 175.453 113.722V113.724Z" fill="#E6E6E6"/>
<path d="M188.929 113.722H181.393C180.968 113.722 180.623 113.233 180.623 112.63V97.8983C180.623 97.2959 180.968 96.8075 181.393 96.8066H188.929C189.354 96.8066 189.699 97.2955 189.699 97.8983V112.63C189.699 113.233 189.354 113.721 188.929 113.722Z" fill="#E6E6E6"/>
<path d="M215.88 113.722H208.344C207.919 113.722 207.574 113.233 207.574 112.63V97.8983C207.574 97.2959 207.919 96.8075 208.344 96.8066H215.88C216.305 96.8066 216.65 97.2955 216.65 97.8983V112.63C216.65 113.233 216.305 113.721 215.88 113.722Z" fill="#E6E6E6"/>
<path d="M229.357 113.724H221.821C221.396 113.724 221.051 113.259 221.051 112.686V98.6721C221.051 98.0989 221.395 97.6347 221.821 97.6338H229.357C229.782 97.6338 230.127 98.0989 230.127 98.6721V112.684C230.127 113.257 229.782 113.721 229.357 113.722V113.724Z" fill="#E6E6E6"/>
<path d="M242.832 113.722H235.296C235.067 113.694 234.858 113.584 234.714 113.416C234.57 113.247 234.503 113.032 234.526 112.818V100.611C234.503 100.397 234.57 100.182 234.714 100.014C234.858 99.8447 235.067 99.7348 235.296 99.707H242.832C243.061 99.7348 243.27 99.8447 243.414 100.014C243.558 100.182 243.625 100.397 243.602 100.611V112.818C243.625 113.032 243.558 113.247 243.414 113.416C243.27 113.584 243.061 113.694 242.832 113.722Z" fill="#E6E6E6"/>
<path d="M256.309 113.722H248.773C248.558 113.712 248.357 113.623 248.213 113.474C248.068 113.326 247.993 113.13 248.003 112.931V102.248C247.993 102.048 248.068 101.853 248.213 101.704C248.357 101.556 248.558 101.467 248.773 101.457H256.309C256.523 101.467 256.725 101.556 256.869 101.704C257.013 101.853 257.089 102.048 257.079 102.248V112.931C257.089 113.13 257.013 113.326 256.869 113.474C256.725 113.623 256.523 113.712 256.309 113.722Z" fill="#E6E6E6"/>
<path d="M283.233 113.722H275.697C275.482 113.712 275.281 113.623 275.137 113.474C274.992 113.326 274.917 113.13 274.927 112.931V102.248C274.917 102.048 274.992 101.853 275.137 101.704C275.281 101.556 275.482 101.467 275.697 101.457H283.233C283.447 101.467 283.649 101.556 283.793 101.704C283.937 101.853 284.013 102.048 284.003 102.248V112.931C284.013 113.13 283.937 113.326 283.793 113.474C283.649 113.623 283.447 113.712 283.233 113.722Z" fill="#E6E6E6"/>
<path d="M296.709 113.722H289.173C288.944 113.694 288.735 113.584 288.591 113.416C288.447 113.247 288.38 113.032 288.403 112.818V100.611C288.38 100.397 288.447 100.182 288.591 100.014C288.735 99.8447 288.944 99.7348 289.173 99.707H296.709C296.938 99.7348 297.147 99.8447 297.291 100.014C297.435 100.182 297.502 100.397 297.479 100.611V112.818C297.502 113.032 297.435 113.247 297.291 113.416C297.147 113.584 296.938 113.694 296.709 113.722Z" fill="#E6E6E6"/>
<path d="M310.185 113.722H302.649C302.224 113.722 301.879 113.285 301.879 112.746V99.5579C301.879 99.0197 302.224 98.5815 302.649 98.5811H310.185C310.61 98.5811 310.955 99.0188 310.955 99.5579V112.744C310.955 113.282 310.61 113.72 310.185 113.721V113.722Z" fill="#E6E6E6"/>
<path d="M337.136 113.722H329.6C329.175 113.722 328.83 113.233 328.83 112.63V97.8983C328.83 97.2959 329.175 96.8075 329.6 96.8066H337.136C337.561 96.8066 337.906 97.2955 337.906 97.8983V112.63C337.906 113.233 337.561 113.721 337.136 113.722Z" fill="#E6E6E6"/>
<path d="M350.613 113.724H343.077C342.652 113.724 342.307 113.259 342.307 112.686V98.6721C342.307 98.0989 342.651 97.6347 343.077 97.6338H350.613C351.038 97.6338 351.383 98.0989 351.383 98.6721V112.684C351.383 113.257 351.038 113.721 350.613 113.722V113.724Z" fill="#E6E6E6"/>
<path d="M364.089 113.722H356.553C356.128 113.722 355.783 113.233 355.783 112.63V97.8983C355.783 97.2959 356.128 96.8075 356.553 96.8066H364.089C364.514 96.8066 364.859 97.2955 364.859 97.8983V112.63C364.859 113.233 364.514 113.721 364.089 113.722Z" fill="#E6E6E6"/>
<path d="M377.566 113.723H370.03C369.605 113.723 369.26 113.136 369.26 112.413V94.7344C369.26 94.0114 369.604 93.4253 370.03 93.4248H377.566C377.991 93.4248 378.336 94.0114 378.336 94.7344V112.413C378.336 113.136 377.991 113.722 377.566 113.723Z" fill="#E6E6E6"/>
<path d="M391.042 113.721H383.506C383.081 113.721 382.736 113.041 382.736 112.201V91.6884C382.736 90.8493 383.081 90.1694 383.506 90.1685H391.042C391.467 90.1685 391.813 90.8493 391.813 91.6884V112.202C391.813 113.041 391.467 113.721 391.042 113.721Z" fill="#E6E6E6"/>
<path d="M404.519 113.722H396.983C396.558 113.722 396.213 112.964 396.213 112.029V89.1784C396.213 88.2438 396.557 87.4862 396.983 87.4854H404.519C404.944 87.4854 405.289 88.2438 405.289 89.1784V112.03C405.289 112.964 404.944 113.721 404.519 113.723V113.722Z" fill="#E6E6E6"/>
<defs>
<linearGradient id="paint0_linear_862_7" x1="92.4748" y1="24.9433" x2="396.89" y2="347.739" gradientUnits="userSpaceOnUse">
<stop stop-color="#F2F3F4"/>
<stop offset="0.4788" stop-color="#EDEEEF"/>
<stop offset="1" stop-color="#E2E2E2"/>
</linearGradient>
<linearGradient id="paint1_linear_862_7" x1="55.1562" y1="177.427" x2="71.2368" y2="177.427" gradientUnits="userSpaceOnUse">
<stop stop-color="#F1F1F1"/>
<stop offset="0.0591" stop-color="#DDDDDD"/>
<stop offset="0.1453" stop-color="#C7C7C7"/>
<stop offset="0.2467" stop-color="#B6B6B6"/>
<stop offset="0.3711" stop-color="#AAAAAA"/>
<stop offset="0.5437" stop-color="#A3A3A3"/>
<stop offset="1" stop-color="#A1A1A1"/>
</linearGradient>
<linearGradient id="paint2_linear_862_7" x1="437.516" y1="177.41" x2="453.144" y2="177.41" gradientUnits="userSpaceOnUse">
<stop stop-color="#A1A1A1"/>
<stop offset="0.4563" stop-color="#A3A3A3"/>
<stop offset="0.6289" stop-color="#AAAAAA"/>
<stop offset="0.7533" stop-color="#B6B6B6"/>
<stop offset="0.8547" stop-color="#C7C7C7"/>
<stop offset="0.9409" stop-color="#DDDDDD"/>
<stop offset="1" stop-color="#F1F1F1"/>
</linearGradient>
<linearGradient id="paint3_linear_862_7" x1="56.7189" y1="42.1007" x2="451.582" y2="42.1007" gradientUnits="userSpaceOnUse">
<stop stop-color="#C9C9C9"/>
<stop offset="0.4778" stop-color="#F1F1F1"/>
<stop offset="0.636" stop-color="#ECECEC"/>
<stop offset="0.819" stop-color="#DEDEDE"/>
<stop offset="1" stop-color="#C9C9C9"/>
</linearGradient>
<linearGradient id="paint4_linear_862_7" x1="56.7189" y1="312.724" x2="451.582" y2="312.724" gradientUnits="userSpaceOnUse">
<stop stop-color="#C9C9C9"/>
<stop offset="0.4778" stop-color="#F1F1F1"/>
<stop offset="0.636" stop-color="#ECECEC"/>
<stop offset="0.819" stop-color="#DEDEDE"/>
<stop offset="1" stop-color="#C9C9C9"/>
</linearGradient>
</defs>
</svg>
