<svg width="562" height="357" viewBox="0 0 562 357" fill="none" xmlns="http://www.w3.org/2000/svg">
<rect x="22" y="48" width="6" height="6" rx="3" fill="#2A7BE4" fill-opacity="0.6"/>
<rect x="22" y="34" width="6" height="6" rx="3" fill="#2A7BE4" fill-opacity="0.6"/>
<rect x="22" y="20" width="6" height="6" rx="3" fill="#2A7BE4" fill-opacity="0.6"/>
<rect x="22" y="6" width="6" height="6" rx="3" fill="#2A7BE4" fill-opacity="0.6"/>
<rect x="36" y="48" width="6" height="6" rx="3" fill="#2A7BE4" fill-opacity="0.6"/>
<rect x="36" y="34" width="6" height="6" rx="3" fill="#2A7BE4" fill-opacity="0.6"/>
<rect x="36" y="20" width="6" height="6" rx="3" fill="#2A7BE4" fill-opacity="0.6"/>
<rect x="36" y="6" width="6" height="6" rx="3" fill="#2A7BE4" fill-opacity="0.6"/>
<rect x="50" y="48" width="6" height="6" rx="3" fill="#2A7BE4" fill-opacity="0.6"/>
<rect x="50" y="34" width="6" height="6" rx="3" fill="#2A7BE4" fill-opacity="0.6"/>
<rect x="50" y="20" width="6" height="6" rx="3" fill="#2A7BE4" fill-opacity="0.6"/>
<rect x="50" y="6" width="6" height="6" rx="3" fill="#2A7BE4" fill-opacity="0.6"/>
<rect x="64" y="48" width="6" height="6" rx="3" fill="#2A7BE4" fill-opacity="0.6"/>
<rect x="64" y="34" width="6" height="6" rx="3" fill="#2A7BE4" fill-opacity="0.6"/>
<rect x="64" y="20" width="6" height="6" rx="3" fill="#2A7BE4" fill-opacity="0.6"/>
<rect x="64" y="6" width="6" height="6" rx="3" fill="#2A7BE4" fill-opacity="0.6"/>
<rect x="489" y="347" width="6" height="6" rx="3" fill="#2A7BE4" fill-opacity="0.6"/>
<rect x="489" y="333" width="6" height="6" rx="3" fill="#2A7BE4" fill-opacity="0.6"/>
<rect x="489" y="319" width="6" height="6" rx="3" fill="#2A7BE4" fill-opacity="0.6"/>
<rect x="489" y="305" width="6" height="6" rx="3" fill="#2A7BE4" fill-opacity="0.6"/>
<rect x="503" y="347" width="6" height="6" rx="3" fill="#2A7BE4" fill-opacity="0.6"/>
<rect x="503" y="333" width="6" height="6" rx="3" fill="#2A7BE4" fill-opacity="0.6"/>
<rect x="503" y="319" width="6" height="6" rx="3" fill="#2A7BE4" fill-opacity="0.6"/>
<rect x="503" y="305" width="6" height="6" rx="3" fill="#2A7BE4" fill-opacity="0.6"/>
<rect x="517" y="347" width="6" height="6" rx="3" fill="#2A7BE4" fill-opacity="0.6"/>
<rect x="517" y="333" width="6" height="6" rx="3" fill="#2A7BE4" fill-opacity="0.6"/>
<rect x="517" y="319" width="6" height="6" rx="3" fill="#2A7BE4" fill-opacity="0.6"/>
<rect x="517" y="305" width="6" height="6" rx="3" fill="#2A7BE4" fill-opacity="0.6"/>
<rect x="531" y="347" width="6" height="6" rx="3" fill="#2A7BE4" fill-opacity="0.6"/>
<rect x="531" y="333" width="6" height="6" rx="3" fill="#2A7BE4" fill-opacity="0.6"/>
<rect x="531" y="319" width="6" height="6" rx="3" fill="#2A7BE4" fill-opacity="0.6"/>
<rect x="531" y="305" width="6" height="6" rx="3" fill="#2A7BE4" fill-opacity="0.6"/>
<rect x="512" y="276" width="50" height="50" rx="4" fill="#2A7BE4" fill-opacity="0.44"/>
<rect y="28" width="43" height="43" rx="4" fill="#2A7BE4" fill-opacity="0.44"/>
<rect x="355" y="217" width="140" height="140" rx="70" fill="white"/>
<g clip-path="url(#clip0_862_9)">
<path fill-rule="evenodd" clip-rule="evenodd" d="M415.584 254.438C404.844 255.26 395.713 255.979 395.298 256.03C394.105 256.287 393.015 257.058 392.496 258.136L392.029 259.061L392.081 281.351L392.133 303.641L392.808 305.027C393.223 305.798 395.817 309.393 398.67 313.04C404.326 320.333 404.741 320.692 406.868 320.949C407.49 321 412.212 320.795 417.244 320.487C422.329 320.178 430.526 319.665 435.403 319.408C456.312 318.124 455.222 318.227 456.468 317.2C457.972 315.967 457.817 318.021 457.92 290.904C457.972 267.946 457.92 266.405 457.557 265.737C457.194 264.916 456.468 264.402 446.921 257.777C440.54 253.308 440.073 253.103 437.219 253.052C436.026 253 426.272 253.668 415.584 254.438Z" fill="white"/>
<path fill-rule="evenodd" clip-rule="evenodd" d="M415.584 254.438C404.844 255.26 395.713 255.979 395.298 256.03C394.105 256.287 393.015 257.058 392.496 258.136L392.029 259.061L392.081 281.351L392.133 303.641L392.808 305.027C393.223 305.798 395.817 309.393 398.67 313.04C404.326 320.333 404.741 320.692 406.868 320.949C407.49 321 412.212 320.795 417.244 320.487C422.329 320.178 430.526 319.665 435.403 319.408C456.312 318.124 455.222 318.227 456.468 317.2C457.972 315.967 457.817 318.021 457.92 290.904C457.972 267.946 457.92 266.405 457.557 265.737C457.194 264.916 456.468 264.402 446.921 257.777C440.54 253.308 440.073 253.103 437.219 253.052C436.026 253 426.272 253.668 415.584 254.438ZM439.71 257.366C440.643 257.777 447.233 262.296 448.166 263.169C448.426 263.426 448.53 263.683 448.374 263.786C448.115 264.043 407.283 266.456 406.09 266.251C405.571 266.2 404.792 265.891 404.326 265.583C402.458 264.299 397.84 260.55 397.84 260.293C397.84 259.574 397.685 259.574 415.843 258.239C419.32 258.033 425.079 257.623 428.555 257.314C436.078 256.749 438.309 256.749 439.71 257.366ZM452.68 268.973C452.992 269.281 453.251 269.846 453.355 270.411C453.407 270.925 453.458 280.478 453.407 291.571C453.355 310.574 453.303 311.807 452.94 312.32C452.732 312.68 452.317 313.04 451.954 313.142C451.072 313.502 408.32 315.916 407.438 315.659C407.023 315.556 406.453 315.197 406.193 314.888L405.674 314.375L405.623 293.831C405.571 279.399 405.623 273.03 405.778 272.466C405.882 272.055 406.245 271.541 406.505 271.336C406.868 271.079 409.41 270.873 418.126 270.36C424.248 270.052 433.743 269.487 439.139 269.127C452.11 268.357 452.058 268.357 452.68 268.973Z" fill="#3F3D56"/>
<path fill-rule="evenodd" clip-rule="evenodd" d="M441.214 276.009C438.879 276.163 436.804 276.368 436.596 276.522C435.87 276.882 435.455 277.498 435.351 278.166C435.299 278.834 435.507 278.936 437.841 279.245L438.827 279.347V288.438C438.827 293.831 438.775 297.374 438.62 297.272C438.516 297.169 435.507 292.547 431.875 287.103C428.243 281.556 425.234 277.036 425.182 277.036C425.13 276.985 422.795 277.087 419.942 277.293C416.466 277.498 414.546 277.755 414.183 277.961C413.56 278.269 412.834 279.399 412.834 280.118C412.834 280.58 413.664 280.837 415.376 280.837H416.31V306.927L414.806 307.39C413.716 307.698 413.301 307.903 413.093 308.365C412.782 309.084 412.782 309.701 413.145 309.701C413.249 309.701 415.688 309.598 418.489 309.393C423.989 309.084 424.611 308.93 425.182 307.8C425.39 307.492 425.545 307.133 425.545 306.979C425.545 306.927 424.767 306.671 423.885 306.465C422.951 306.26 422.017 306.003 421.81 306.003C421.447 305.9 421.447 305.232 421.447 296.09V286.281L427.984 296.399C434.832 307.03 435.662 308.263 436.752 308.776C438.049 309.444 441.369 308.982 443.03 307.903L443.549 307.595L443.6 293.112L443.652 278.577L444.794 278.371C446.143 278.115 446.765 277.498 446.765 276.42C446.765 275.752 446.713 275.701 446.091 275.752C445.728 275.752 443.497 275.906 441.214 276.009Z" fill="#3F3D56"/>
</g>
<rect x="356" width="200" height="200" rx="100" fill="white"/>
<g clip-path="url(#clip1_862_9)">
<path fill-rule="evenodd" clip-rule="evenodd" d="M431.189 110.771L432.874 106.874C434.694 108.229 437.119 108.933 439.511 108.933C441.277 108.933 442.394 108.255 442.394 107.229C442.367 104.359 431.816 106.605 431.735 99.4088C431.708 95.754 434.969 92.9377 439.592 92.9377C442.34 92.9377 445.084 93.6149 447.044 95.1574L445.467 99.1347C443.674 97.9952 441.444 97.1837 439.322 97.1837C437.88 97.1837 436.93 97.8609 436.93 98.7262C436.957 101.542 447.589 100 447.697 106.874C447.697 110.61 444.517 113.238 439.948 113.238C436.6 113.232 433.528 112.448 431.189 110.771ZM495.887 105.466C495.044 106.928 493.468 107.928 491.642 107.928C488.948 107.928 486.777 105.762 486.777 103.085C486.777 100.408 488.953 98.2425 491.642 98.2425C493.462 98.2425 495.044 99.2422 495.887 100.704L500.536 98.135C498.797 95.0499 495.449 92.9377 491.642 92.9377C486.01 92.9377 481.442 97.4846 481.442 103.09C481.442 108.696 486.01 113.243 491.642 113.243C495.476 113.243 498.797 111.158 500.536 108.046L495.887 105.466ZM450.035 84.5156H455.857V112.856H450.035V84.5156ZM502.82 84.5156V112.856H508.642V104.353L515.548 112.856H523L514.214 102.757L522.347 93.3354H515.219L508.636 101.156V84.5156H502.82Z" fill="#3F3D56"/>
<path d="M473.152 105.52C472.309 106.901 470.571 107.928 468.61 107.928C465.916 107.928 463.745 105.762 463.745 103.085C463.745 100.409 465.921 98.2428 468.61 98.2428C470.571 98.2428 472.309 99.3231 473.152 100.731V105.52ZM473.152 93.3411V95.6414C472.201 94.0452 469.836 92.9326 467.358 92.9326C462.244 92.9326 458.221 97.4258 458.221 103.058C458.221 108.691 462.244 113.238 467.358 113.238C469.831 113.238 472.196 112.131 473.152 110.529V112.83H478.973V93.3411H473.152Z" fill="#3F3D56"/>
<path fill-rule="evenodd" clip-rule="evenodd" d="M395.209 105.493C395.209 107.471 393.606 109.067 391.618 109.067C389.631 109.067 388.027 107.466 388.027 105.493C388.027 103.521 389.631 101.919 391.618 101.919H395.209V105.493ZM397.002 105.493C397.002 103.515 398.606 101.919 400.593 101.919C402.58 101.919 404.184 103.515 404.184 105.493V114.426C404.184 116.404 402.58 118 400.593 118C398.606 118 397.002 116.404 397.002 114.426V105.493Z" fill="#E01E5A"/>
<path fill-rule="evenodd" clip-rule="evenodd" d="M400.593 91.1483C398.606 91.1483 397.002 89.552 397.002 87.5741C397.002 85.5963 398.606 84 400.593 84C402.58 84 404.184 85.5963 404.184 87.5741V91.1483H400.593ZM400.593 92.9595C402.58 92.9595 404.184 94.5558 404.184 96.5337C404.184 98.5115 402.58 100.108 400.593 100.108H391.591C389.604 100.108 388 98.5062 388 96.5337C388 94.5612 389.604 92.9595 391.591 92.9595H400.593Z" fill="#36C5F0"/>
<path fill-rule="evenodd" clip-rule="evenodd" d="M414.979 96.5337C414.979 94.5558 416.583 92.9595 418.57 92.9595C420.557 92.9595 422.161 94.5558 422.161 96.5337C422.161 98.5115 420.557 100.108 418.57 100.108H414.979V96.5337ZM413.186 96.5337C413.186 98.5115 411.582 100.108 409.595 100.108C407.608 100.108 406.004 98.5115 406.004 96.5337V87.5741C406.004 85.5963 407.608 84 409.595 84C411.582 84 413.186 85.5963 413.186 87.5741V96.5337Z" fill="#2EB67D"/>
<path fill-rule="evenodd" clip-rule="evenodd" d="M409.595 110.852C411.582 110.852 413.186 112.448 413.186 114.426C413.186 116.404 411.582 118 409.595 118C407.608 118 406.004 116.404 406.004 114.426V110.852H409.595ZM409.595 109.067C407.608 109.067 406.004 107.471 406.004 105.493C406.004 103.515 407.608 101.919 409.595 101.919H418.597C420.584 101.919 422.188 103.515 422.188 105.493C422.188 107.471 420.584 109.067 418.597 109.067H409.595Z" fill="#ECB22E"/>
</g>
<rect x="167" y="84" width="200" height="200" rx="100" fill="white"/>
<path d="M218.482 188.95H221.688L215.316 211.572H212.178L207.045 196.66H206.909L201.769 211.572H198.637L192 188.95H195.2L200.237 206.737H200.373L205.54 191.987H208.406L213.58 206.737H213.716L218.482 188.95Z" fill="#5F6368"/>
<path d="M221.395 203.829C221.395 201.45 222.184 199.484 223.764 197.924C225.363 196.364 227.378 195.584 229.802 195.584C232.226 195.584 234.227 196.364 235.806 197.924C237.406 199.484 238.209 201.45 238.209 203.829C238.209 206.227 237.406 208.2 235.806 209.734C234.227 211.294 232.226 212.074 229.802 212.074C227.378 212.074 225.363 211.294 223.764 209.734C222.184 208.174 221.395 206.208 221.395 203.829ZM224.465 203.829C224.465 205.492 224.975 206.84 225.997 207.871C227.018 208.903 228.284 209.418 229.802 209.418C231.32 209.418 232.58 208.903 233.607 207.871C234.635 206.84 235.139 205.492 235.139 203.829C235.139 202.185 234.629 200.851 233.607 199.819C232.566 198.768 231.293 198.24 229.802 198.24C228.311 198.24 227.045 198.768 225.997 199.819C224.975 200.851 224.465 202.185 224.465 203.829ZM243.451 211.572H240.381V196.093H243.315V198.62H243.451C243.764 197.801 244.404 197.099 245.371 196.519C246.338 195.938 247.291 195.648 248.224 195.648C249.115 195.648 249.871 195.777 250.49 196.029L249.551 198.839C249.17 198.691 248.571 198.62 247.747 198.62C246.59 198.62 245.582 199.065 244.731 199.948C243.873 200.831 243.445 201.863 243.445 203.043V211.572H243.451ZM266.291 211.572H262.588L257.482 204.274L254.984 206.608V211.572H251.913V188.95H254.984V202.881L262.05 196.093H265.991V196.216L259.62 202.217L266.291 211.443V211.572Z" fill="#5F6368"/>
<path d="M279.567 207.272C279.567 208.619 278.947 209.76 277.701 210.682C276.456 211.604 274.89 212.075 272.997 212.075C271.35 212.075 269.907 211.668 268.661 210.856C267.442 210.076 266.51 208.954 265.992 207.652L268.729 206.55C269.131 207.478 269.716 208.2 270.478 208.716C271.207 209.219 272.092 209.489 272.997 209.489C273.978 209.489 274.794 209.29 275.448 208.89C276.102 208.49 276.428 208.013 276.428 207.472C276.428 206.485 275.625 205.757 274.025 205.293L271.22 204.629C268.041 203.868 266.448 202.417 266.448 200.271C266.448 198.859 267.054 197.731 268.266 196.873C269.478 196.016 271.03 195.59 272.922 195.597C274.366 195.597 275.673 195.926 276.844 196.577C278.015 197.228 278.825 198.105 279.294 199.201L276.558 200.277C276.245 199.62 275.714 199.085 275.04 198.743C274.318 198.369 273.508 198.182 272.684 198.188C271.922 198.176 271.18 198.375 270.533 198.756C269.9 199.136 269.58 199.6 269.58 200.148C269.58 201.031 270.458 201.663 272.214 202.044L274.686 202.643C277.946 203.384 279.567 204.932 279.567 207.272ZM290.227 212.075C289.029 212.075 287.933 211.83 286.939 211.346C285.945 210.863 285.19 210.218 284.652 209.419H284.516L284.652 211.565V218.386H281.582V196.093H284.516V198.24H284.652C285.183 197.441 285.945 196.796 286.939 196.312C287.926 195.829 289.022 195.584 290.227 195.584C292.385 195.584 294.21 196.383 295.701 197.982C297.233 199.607 298.002 201.554 298.002 203.829C298.002 206.124 297.233 208.071 295.701 209.67C294.21 211.275 292.385 212.075 290.227 212.075ZM289.73 209.419C291.201 209.419 292.433 208.89 293.434 207.839C294.435 206.808 294.932 205.473 294.932 203.829C294.932 202.211 294.435 200.87 293.434 199.819C292.433 198.769 291.201 198.24 289.73 198.24C288.24 198.24 286.994 198.769 285.993 199.819C285.013 200.87 284.523 202.211 284.523 203.829C284.523 205.473 285.013 206.821 285.993 207.871C286.994 208.903 288.24 209.419 289.73 209.419ZM306.402 195.584C308.669 195.584 310.46 196.158 311.774 197.305C313.088 198.453 313.741 200.026 313.741 202.031V211.572H310.807V209.425H310.671C309.405 211.191 307.716 212.081 305.599 212.081C303.795 212.081 302.291 211.578 301.079 210.566C299.867 209.554 299.261 208.29 299.261 206.775C299.261 205.177 299.901 203.9 301.181 202.953C302.461 202.005 304.17 201.528 306.3 201.528C308.125 201.528 309.622 201.844 310.8 202.475V201.805C310.8 200.793 310.378 199.935 309.534 199.233C308.717 198.537 307.662 198.163 306.566 198.176C304.85 198.176 303.496 198.859 302.495 200.232L299.792 198.62C301.29 196.596 303.489 195.584 306.402 195.584ZM302.434 206.833C302.434 207.594 302.774 208.226 303.448 208.729C304.129 209.232 304.918 209.489 305.831 209.489C307.117 209.489 308.268 209.038 309.282 208.129C310.296 207.227 310.8 206.163 310.8 204.938C309.84 204.223 308.506 203.862 306.797 203.862C305.551 203.862 304.51 204.145 303.679 204.712C302.849 205.286 302.434 205.989 302.434 206.833ZM324.15 212.075C321.726 212.075 319.711 211.295 318.112 209.734C316.532 208.136 315.743 206.163 315.743 203.829C315.743 201.45 316.532 199.484 318.112 197.924C319.711 196.364 321.726 195.584 324.15 195.584C325.818 195.584 327.275 195.977 328.521 196.77C329.766 197.557 330.699 198.653 331.325 200.039L328.527 201.147C327.663 199.207 326.138 198.24 323.959 198.24C322.557 198.24 321.345 198.775 320.324 199.852C319.323 200.928 318.82 202.25 318.82 203.829C318.82 205.409 319.317 206.737 320.324 207.807C321.345 208.883 322.557 209.419 323.959 209.419C326.206 209.419 327.785 208.452 328.698 206.511L331.434 207.613C330.835 209.006 329.896 210.095 328.616 210.882C327.322 211.681 325.838 212.075 324.15 212.075ZM340.665 212.075C338.262 212.075 336.281 211.295 334.729 209.734C333.177 208.174 332.394 206.208 332.394 203.829C332.394 201.47 333.15 199.51 334.661 197.937C336.172 196.364 338.106 195.584 340.468 195.584C342.891 195.584 344.818 196.325 346.254 197.808C347.691 199.291 348.406 201.373 348.406 204.048L348.372 204.364H335.532C335.58 205.879 336.111 207.104 337.132 208.026C338.153 208.954 339.379 209.419 340.802 209.419C342.755 209.419 344.294 208.49 345.404 206.64L348.14 207.904C347.446 209.174 346.384 210.237 345.09 210.966C343.783 211.707 342.306 212.075 340.665 212.075ZM335.764 201.966H345.131C345.043 200.89 344.58 200 343.749 199.297C342.919 198.595 341.802 198.24 340.4 198.24C339.243 198.24 338.249 198.575 337.411 199.252C336.574 199.923 336.023 200.825 335.764 201.966Z" fill="#5F6368"/>
<path d="M226.779 170.188V166.688H239.141C239.278 167.397 239.346 168.113 239.339 168.835C239.339 171.458 238.583 174.707 236.139 177.015C233.763 179.356 230.734 180.606 226.711 180.606C219.263 180.606 213 174.862 213 167.803C213 160.744 219.263 155 226.711 155C230.836 155 233.763 156.528 235.976 158.526L233.375 160.995C231.789 159.59 229.652 158.494 226.717 158.494C221.278 158.494 217.023 162.646 217.023 167.803C217.023 172.96 221.278 177.112 226.711 177.112C230.237 177.112 232.252 175.771 233.532 174.553C234.58 173.56 235.268 172.135 235.54 170.195L226.779 170.188Z" fill="#4285F4"/>
<path d="M258.175 172.361C258.175 177.112 254.254 180.606 249.441 180.606C244.628 180.606 240.707 177.112 240.707 172.361C240.707 167.584 244.628 164.115 249.441 164.115C254.254 164.115 258.182 167.584 258.175 172.361ZM254.356 172.361C254.356 169.395 252.083 167.364 249.441 167.364C246.8 167.364 244.526 169.395 244.526 172.361C244.526 175.294 246.8 177.357 249.441 177.357C252.083 177.357 254.356 175.294 254.356 172.361Z" fill="#EA4335"/>
<path d="M277.237 172.361C277.237 177.112 273.316 180.606 268.503 180.606C263.69 180.606 259.762 177.112 259.762 172.361C259.762 167.584 263.683 164.115 268.496 164.115C273.309 164.115 277.237 167.584 277.237 172.361ZM273.411 172.361C273.411 169.395 271.137 167.364 268.496 167.364C265.855 167.364 263.581 169.395 263.581 172.361C263.581 175.294 265.855 177.357 268.496 177.357C271.137 177.357 273.411 175.294 273.411 172.361Z" fill="#FBBC04"/>
<path d="M295.501 164.619V179.42C295.501 185.512 291.709 188.007 287.223 188.007C283.002 188.007 280.463 185.319 279.51 183.134L282.839 181.818C283.431 183.159 284.881 184.752 287.223 184.752C290.089 184.752 291.873 183.063 291.873 179.91V178.724H291.743C290.885 179.723 289.238 180.6 287.162 180.6C282.812 180.6 278.822 177.009 278.822 172.387C278.822 167.732 282.812 164.109 287.162 164.109C289.238 164.109 290.885 164.986 291.743 165.953H291.873V164.612H295.501V164.619ZM292.138 172.393C292.138 169.486 290.096 167.365 287.488 167.365C284.854 167.365 282.641 169.486 282.641 172.393C282.641 175.269 284.847 177.357 287.488 177.357C290.096 177.357 292.138 175.269 292.138 172.393Z" fill="#4285F4"/>
<path d="M298.156 155.954H301.982V180.103H298.156V155.954Z" fill="#34A853"/>
<path d="M316.749 175.081L319.717 176.957C318.764 178.298 316.456 180.613 312.467 180.613C307.525 180.613 303.828 176.99 303.828 172.367C303.828 167.468 307.552 164.122 312.038 164.122C316.552 164.122 318.764 167.526 319.486 169.37L319.881 170.304L308.239 174.862C309.131 176.519 310.513 177.364 312.46 177.364C314.407 177.364 315.755 176.455 316.749 175.081ZM307.613 172.116L315.394 169.054C314.965 168.022 313.679 167.307 312.161 167.307C310.221 167.307 307.518 168.931 307.613 172.116Z" fill="#EA4335"/>
<rect x="32" y="35" width="142" height="142" rx="71" fill="white"/>
<g clip-path="url(#clip2_862_9)">
<path d="M100.975 94.0005C106.519 94.0005 111.013 89.495 111.013 83.9372C111.013 78.3795 106.519 73.874 100.975 73.874C95.4315 73.874 90.9375 78.3795 90.9375 83.9372C90.9375 89.495 95.4315 94.0005 100.975 94.0005Z" fill="#7B83EB"/>
<path opacity="0.1" d="M100.259 86.0938H91.168L91.2131 86.2943L91.2174 86.3115L91.2648 86.497C91.9253 89.0084 93.5281 91.1669 95.7383 92.5217C97.9485 93.8765 100.595 94.323 103.126 93.7678V88.968C103.124 88.2064 102.821 87.4767 102.284 86.9381C101.747 86.3996 101.019 86.096 100.259 86.0938Z" fill="#3F3D56"/>
<path opacity="0.2" d="M98.1071 88.25H91.9043C92.7184 89.9707 94.0028 91.4246 95.6082 92.4425C97.2137 93.4605 99.0744 94.0008 100.974 94.0007V91.1243C100.972 90.3627 100.669 89.6329 100.132 89.0944C99.5946 88.5558 98.8667 88.2523 98.1071 88.25Z" fill="#3F3D56"/>
<path d="M123.557 94.7188C127.714 94.7188 131.085 91.3399 131.085 87.1719C131.085 83.0039 127.714 79.625 123.557 79.625C119.4 79.625 116.029 83.0039 116.029 87.1719C116.029 91.3399 119.4 94.7188 123.557 94.7188Z" fill="#5059C9"/>
<path d="M130.01 96.875H113.103C112.738 96.875 112.388 97.0204 112.13 97.2792C111.872 97.538 111.726 97.889 111.726 98.255V115.742C111.68 118.273 112.502 120.743 114.055 122.739C115.609 124.735 117.798 126.135 120.259 126.705C121.825 127.034 123.446 127.009 125.002 126.632C126.558 126.254 128.01 125.534 129.253 124.522C130.496 123.511 131.499 122.235 132.188 120.786C132.877 119.337 133.235 117.753 133.236 116.148V100.109C133.236 99.2516 132.896 98.4289 132.291 97.8223C131.686 97.2158 130.866 96.875 130.01 96.875Z" fill="#5059C9"/>
<path d="M118.18 100.109V120.594C118.182 124.39 116.934 128.081 114.63 131.093C112.326 134.106 109.094 136.272 105.437 137.255C101.78 138.238 97.901 137.983 94.4029 136.53C90.9047 135.077 87.9827 132.507 86.0904 129.219C85.6765 128.529 85.317 127.808 85.015 127.063C84.7335 126.359 84.4965 125.639 84.3053 124.906C83.9507 123.496 83.7701 122.048 83.7676 120.594V100.109C83.767 99.6845 83.8501 99.2636 84.012 98.871C84.1739 98.4783 84.4115 98.1215 84.7112 97.8211C85.0109 97.5206 85.3668 97.2824 85.7585 97.12C86.1501 96.9577 86.5699 96.8744 86.9937 96.875H114.953C115.377 96.8744 115.797 96.9577 116.189 97.12C116.58 97.2824 116.936 97.5206 117.236 97.8211C117.536 98.1215 117.773 98.4783 117.935 98.871C118.097 99.2636 118.18 99.6845 118.18 100.109Z" fill="#7B83EB"/>
<path opacity="0.2" d="M98.1071 88.25H91.9043C92.7184 89.9707 94.0028 91.4246 95.6082 92.4425C97.2137 93.4605 99.0744 94.0008 100.974 94.0007V91.1243C100.972 90.3627 100.669 89.6329 100.132 89.0944C99.5946 88.5558 98.8667 88.2523 98.1071 88.25Z" fill="#3F3D56"/>
<path opacity="0.1" d="M103.124 96.875V124.195C103.124 124.845 102.902 125.475 102.496 125.981C102.089 126.487 101.521 126.838 100.888 126.976C100.685 127.037 100.475 127.066 100.264 127.063H85.015C84.7335 126.359 84.4965 125.639 84.3053 124.906C83.9507 123.496 83.7701 122.048 83.7676 120.594V100.109C83.767 99.6845 83.8501 99.2636 84.012 98.871C84.1739 98.4783 84.4115 98.1215 84.7112 97.8211C85.0109 97.5206 85.3668 97.2824 85.7585 97.12C86.1501 96.9577 86.5699 96.8744 86.9937 96.875H103.124Z" fill="#3F3D56"/>
<path opacity="0.2" d="M100.974 96.875V126.351C100.977 126.563 100.948 126.773 100.888 126.976C100.75 127.611 100.4 128.18 99.895 128.588C99.3903 128.996 98.7614 129.219 98.1131 129.219H86.0904C85.6765 128.529 85.317 127.808 85.015 127.063C84.7335 126.359 84.4965 125.639 84.3053 124.906C83.9507 123.496 83.7701 122.048 83.7676 120.594V100.109C83.767 99.6845 83.8501 99.2636 84.012 98.871C84.1739 98.4783 84.4115 98.1215 84.7112 97.8211C85.0109 97.5206 85.3668 97.2824 85.7585 97.12C86.1501 96.9577 86.5699 96.8744 86.9937 96.875H100.974Z" fill="#3F3D56"/>
<path opacity="0.2" d="M100.974 96.875V122.038C100.97 122.798 100.668 123.525 100.132 124.063C99.5963 124.6 98.8707 124.903 98.1131 124.906H84.3053C83.9507 123.496 83.7701 122.048 83.7676 120.594V100.109C83.767 99.6845 83.8501 99.2636 84.012 98.871C84.1739 98.4783 84.4115 98.1215 84.7112 97.8211C85.0109 97.5206 85.3668 97.2824 85.7585 97.12C86.1501 96.9577 86.5699 96.8744 86.9937 96.875H100.974Z" fill="#3F3D56"/>
<path opacity="0.2" d="M86.9937 96.875C86.5699 96.8744 86.1501 96.9577 85.7585 97.12C85.3668 97.2824 85.0109 97.5206 84.7112 97.8211C84.4115 98.1215 84.1739 98.4783 84.012 98.871C83.8501 99.2636 83.767 99.6845 83.7676 100.109V120.594C83.7701 122.048 83.9507 123.496 84.3053 124.906H95.9623C96.7199 124.903 97.4455 124.6 97.9813 124.063C98.517 123.525 98.8194 122.798 98.8228 122.038V96.875H86.9937Z" fill="#3F3D56"/>
<path d="M66.8669 88H95.545C96.3054 88 97.0346 88.3028 97.5723 88.8419C98.1099 89.3809 98.412 90.112 98.412 90.8743V119.626C98.412 120.388 98.1099 121.119 97.5723 121.658C97.0346 122.197 96.3054 122.5 95.545 122.5H66.8669C66.1066 122.5 65.3774 122.197 64.8397 121.658C64.3021 121.119 64 120.388 64 119.626V90.8743C64 90.112 64.3021 89.3809 64.8397 88.8419C65.3774 88.3028 66.1066 88 66.8669 88Z" fill="#4B53BC"/>
<path d="M90.1786 98.9773H83.7478V116.27H79.528V98.9773H73.0586V94.7295H90.1786V98.9773Z" fill="white"/>
</g>
<rect x="20" y="187" width="160" height="160" rx="80" fill="white"/>
<path fill-rule="evenodd" clip-rule="evenodd" d="M132.36 266.576C132.772 267.298 132.907 268.12 132.951 269.043L133.01 270.274V278.882L133.069 280.114C133.189 282.127 134.65 283.615 136.646 283.741L137.853 283.802V270.274L137.912 269.043C137.962 268.13 138.096 267.293 138.514 266.566C138.94 265.82 139.552 265.201 140.288 264.772C141.024 264.342 141.859 264.117 142.708 264.118C143.557 264.12 144.39 264.348 145.125 264.78C145.86 265.213 146.469 265.834 146.893 266.581C147.305 267.304 147.433 268.141 147.483 269.043L147.543 270.27V278.882L147.602 280.114C147.727 282.137 149.176 283.625 151.179 283.741L152.386 283.802V269.043C152.386 266.434 151.365 263.931 149.549 262.085C147.733 260.239 145.27 259.202 142.701 259.201C141.326 259.199 139.966 259.496 138.713 260.071C137.46 260.646 136.342 261.486 135.434 262.535C134.526 261.486 133.408 260.646 132.155 260.071C130.902 259.496 129.543 259.199 128.168 259.2C126.156 259.2 124.29 259.82 122.744 260.89C121.8 259.821 119.69 259.2 118.478 259.2V283.802L119.69 283.741C121.716 283.606 123.181 282.158 123.26 280.114L123.325 278.882V270.274L123.385 269.043C123.435 268.115 123.563 267.298 123.976 266.571C124.402 265.826 125.014 265.207 125.75 264.777C126.485 264.347 127.319 264.12 128.168 264.12C129.017 264.12 129.852 264.347 130.588 264.778C131.323 265.209 131.935 265.829 132.36 266.576ZM49.4563 283.743L50.668 283.802H68.831L68.7712 282.575C68.6072 280.552 67.1971 279.075 65.1996 278.943L63.9879 278.882H53.0914L67.6192 264.118L67.5595 262.892C67.4654 260.849 65.9956 259.373 63.9879 259.26L62.7762 259.205L44.6133 259.2L44.673 260.431C44.832 262.434 46.2624 263.943 48.2433 264.059L49.4563 264.12H60.3528L45.825 278.883L45.8848 280.114C46.0043 282.142 47.4448 283.611 49.4563 283.741V283.743ZM113.724 262.801C114.849 263.943 115.741 265.299 116.349 266.792C116.958 268.284 117.271 269.884 117.271 271.5C117.271 273.115 116.958 274.715 116.349 276.207C115.741 277.7 114.849 279.056 113.724 280.198C111.452 282.505 108.371 283.8 105.159 283.8C101.947 283.8 98.8669 282.505 96.5948 280.198C91.8662 275.395 91.8662 267.604 96.5948 262.801C97.7184 261.659 99.0523 260.753 100.521 260.135C101.989 259.517 103.562 259.198 105.152 259.198C106.744 259.197 108.32 259.515 109.791 260.133C111.262 260.752 112.598 261.658 113.724 262.802V262.801ZM110.297 266.284C111.659 267.669 112.424 269.547 112.424 271.504C112.424 273.462 111.659 275.339 110.297 276.724C108.934 278.107 107.086 278.885 105.159 278.885C103.232 278.885 101.384 278.107 100.021 276.724C98.6594 275.339 97.8943 273.462 97.8943 271.504C97.8943 269.547 98.6594 267.669 100.021 266.284C101.384 264.901 103.232 264.123 105.159 264.123C107.086 264.123 108.934 264.901 110.297 266.284ZM79.7376 259.198C81.327 259.199 82.9007 259.517 84.369 260.135C85.8372 260.754 87.1711 261.66 88.2946 262.802C93.0245 267.604 93.0245 275.396 88.2946 280.198C86.0225 282.505 82.9419 283.8 79.73 283.8C76.518 283.8 73.4375 282.505 71.1654 280.198C66.4368 275.395 66.4368 267.604 71.1654 262.801C72.289 261.659 73.623 260.753 75.0912 260.135C76.5594 259.517 78.1331 259.198 79.7224 259.198H79.7376ZM84.868 266.282C86.2304 267.667 86.9957 269.544 86.9957 271.502C86.9957 273.46 86.2304 275.338 84.868 276.722C83.505 278.106 81.6569 278.883 79.73 278.883C77.8031 278.883 75.955 278.106 74.592 276.722C73.23 275.338 72.4649 273.46 72.4649 271.503C72.4649 269.545 73.23 267.668 74.592 266.283C75.955 264.899 77.8031 264.122 79.73 264.122C81.6569 264.122 83.505 264.898 84.868 266.282Z" fill="#2D8CFF"/>
<defs>
<clipPath id="clip0_862_9">
<rect width="66" height="68" fill="white" transform="translate(392 253)"/>
</clipPath>
<clipPath id="clip1_862_9">
<rect width="135" height="34" fill="white" transform="translate(388 84)"/>
</clipPath>
<clipPath id="clip2_862_9">
<rect width="70" height="69" fill="white" transform="translate(64 71)"/>
</clipPath>
</defs>
</svg>
