<svg width="24" height="24" viewBox="0 0 24 24" fill="none" xmlns="http://www.w3.org/2000/svg">
<path d="M23.7668 11.5433C21.3109 6.73418 16.8019 3.74707 12 3.74707C7.19953 3.74707 2.69044 6.73418 0.233344 11.5432L0 12L0.233344 12.4568C2.69044 17.2659 7.19953 20.2529 12 20.2529C16.8019 20.2529 21.3109 17.2659 23.7668 12.4568L24 12.0001L23.7668 11.5433ZM12 18.2454C8.04712 18.2454 4.44047 15.9209 2.26439 12C4.44047 8.07907 8.04712 5.75468 12 5.75468C15.9543 5.75468 19.5609 8.07912 21.7357 12C19.5609 15.921 15.9543 18.2454 12 18.2454Z" fill="white"/>
<path d="M11.9999 7.2041C9.32063 7.2041 7.14844 9.37629 7.14844 12.0557C7.14844 14.7349 9.32063 16.9071 11.9999 16.9071C14.6792 16.9071 16.8515 14.7349 16.8515 12.0557C16.8515 9.37629 14.6792 7.2041 11.9999 7.2041ZM11.9999 14.1912C10.8217 14.1912 9.86438 13.2339 9.86438 12.0557C9.86438 11.791 9.91922 11.5414 10.0062 11.3081L11.7804 12.0001L11.0309 10.1619C11.3229 10.0129 11.649 9.92009 12 9.92009C13.1783 9.92009 14.1356 10.8775 14.1356 12.0557C14.1355 13.2339 13.1782 14.1912 11.9999 14.1912Z" fill="white"/>
</svg>
