<svg width="40" height="27" viewBox="0 0 40 27" fill="none" xmlns="http://www.w3.org/2000/svg">
<path d="M32.0393 0.449408C30.8805 1.41744 29.4568 2.46165 28.0736 2.72645C25.5057 3.21868 22.7441 2.08576 20.623 2.38871C20.485 2.40905 20.3519 2.4327 20.2201 2.45377C19.8578 2.36565 19.4766 2.29205 19.0739 2.23421C18.7833 2.19281 18.4912 2.17572 18.2 2.17572C17.3651 2.17763 16.529 2.30782 15.7019 2.42739C14.874 2.5483 14.0566 2.66132 13.2852 2.66132C12.8789 2.66132 12.4866 2.63111 12.1104 2.55758C11.5995 2.46165 11.0441 2.21977 10.4874 1.88138C9.92921 1.54549 9.37179 1.11441 8.84351 0.674121C8.60101 0.46908 8.32585 0.312665 8.03586 0.208193C7.74531 0.104383 7.43937 0.0564194 7.14039 0.0570824C6.66515 0.0570824 6.20734 0.172754 5.77601 0.352819C5.39554 0.512549 5.03179 0.724073 4.67922 0.973836C4.06109 1.40823 3.47437 1.96088 2.93086 2.57865C2.11695 3.50653 1.39851 4.58235 0.873046 5.64366C0.61039 6.17589 0.395 6.7043 0.243125 7.21554C0.0912499 7.72685 0 8.21967 0 8.69414C0 8.94391 0.025 9.18962 0.0892187 9.42884C0.153281 9.67006 0.257109 9.90656 0.413984 10.1201C0.462031 10.1859 0.51289 10.2385 0.579843 10.2858C0.589609 10.2937 0.924062 10.5447 1.28711 10.8719C1.46898 11.0368 1.65719 11.2203 1.81391 11.3964C1.9693 11.5672 2.09055 11.7381 2.13586 11.8334C2.34133 12.2442 2.86469 13.2457 3.55945 14.3661C3.90781 14.926 4.29945 15.5155 4.71961 16.078C4.93218 16.3606 5.15242 16.6386 5.3782 16.9015C4.76289 17.6203 4.7664 18.6757 5.43945 19.3901C6.18929 20.1892 7.48257 20.2621 8.32859 19.5544L8.3871 19.505C8.02273 20.1905 8.11117 21.0448 8.6832 21.6533C9.43234 22.4511 10.7263 22.5246 11.573 21.8169L11.9055 21.5316C11.4511 22.2355 11.5117 23.1661 12.1215 23.8153C12.8726 24.6117 14.166 24.6854 15.0126 23.9803L15.5241 23.5426C15.0412 24.2523 15.0929 25.2032 15.7137 25.8643C16.4628 26.6622 17.7569 26.7363 18.6035 26.0287L19.4313 25.3584C19.5094 25.3938 19.5854 25.426 19.6558 25.4569L20.2216 25.7684L20.2167 25.7645C20.4997 25.9235 20.7923 26.0523 21.0969 26.1423C21.4007 26.2323 21.7164 26.2849 22.0376 26.2849C22.3854 26.2849 22.7401 26.2219 23.0731 26.0825C23.4048 25.9445 23.7101 25.7303 23.9637 25.4595C24.2669 25.1374 24.4683 24.7596 24.5707 24.366C24.8724 24.4692 25.1888 24.521 25.5023 24.521C25.8794 24.521 26.2564 24.4474 26.6082 24.3016C26.9594 24.1558 27.2849 23.9369 27.5545 23.6498C27.889 23.2949 28.1001 22.8723 28.1914 22.4346C28.3712 22.4688 28.5524 22.4878 28.7336 22.4878C29.1126 22.4878 29.4896 22.4155 29.8408 22.2684C30.1927 22.1231 30.5181 21.9037 30.7878 21.6171C31.1543 21.2281 31.3711 20.7582 31.4449 20.2771C31.5244 20.2837 31.603 20.2864 31.6804 20.2864C32.1333 20.2864 32.5779 20.1943 32.9905 20.03C33.4001 19.8644 33.7827 19.6239 34.0901 19.2986C34.3758 18.993 34.5918 18.6368 34.7465 18.253C34.9004 17.8679 34.9904 17.4572 34.9918 17.036C34.9918 16.8822 34.9778 16.7271 34.95 16.5734C36.5269 14.9186 37.3617 12.1625 37.7234 11.4396C38.1401 10.6037 39.7143 9.41683 39.7143 9.41683C41.4118 7.10642 35.1207 -2.12594 32.0393 0.449408ZM33.2148 17.7078C33.1256 17.9325 32.9946 18.1388 32.8658 18.2742C32.748 18.4011 32.564 18.524 32.3494 18.6107C32.1354 18.6961 31.8937 18.7428 31.6804 18.7428C31.5404 18.7428 31.4114 18.7224 31.3069 18.6896C31.3006 18.6869 31.2943 18.685 31.2894 18.6829L28.9537 16.5577C28.6275 16.262 28.1097 16.2712 27.7962 16.5774C27.4819 16.8844 27.491 17.3733 27.8163 17.669L29.6999 19.3836C29.7076 19.4006 29.7124 19.4171 29.7215 19.4342C29.7988 19.5794 29.8393 19.7424 29.8393 19.9041C29.8393 20.1524 29.7501 20.393 29.5612 20.5928C29.4518 20.7111 29.3222 20.7966 29.1807 20.8557C29.0406 20.9147 28.8873 20.945 28.7333 20.945C28.4713 20.9437 28.2163 20.8596 28.003 20.6821L27.9557 20.6414C27.9452 20.6322 27.9397 20.6217 27.9299 20.6112L25.8826 18.5963C25.5697 18.2875 25.0512 18.2769 24.7265 18.5713C24.3997 18.8657 24.3878 19.356 24.6993 19.6636L26.4365 21.3735C26.44 21.3794 26.4427 21.3866 26.4462 21.3919C26.5529 21.5562 26.6065 21.7454 26.6065 21.9353C26.6058 22.1844 26.5166 22.4256 26.3284 22.626H26.3291C26.2183 22.7429 26.0887 22.8284 25.9487 22.8889C25.808 22.9467 25.6546 22.9756 25.5019 22.9756C25.2386 22.9756 24.9815 22.8915 24.7689 22.7148L24.7376 22.6905L24.1048 22.2107L23.0672 21.1725C22.7571 20.8629 22.238 20.8484 21.9098 21.1409C21.5808 21.4327 21.5655 21.9229 21.8755 22.2325L22.8602 23.2176C22.9612 23.3793 23.0156 23.5619 23.0156 23.7472C23.0135 23.9943 22.925 24.2361 22.7383 24.4346C22.6254 24.5549 22.5187 24.6246 22.408 24.6713C22.2972 24.7167 22.1794 24.7409 22.0373 24.7416C21.9055 24.7416 21.7557 24.7198 21.5885 24.6699C21.4212 24.6199 21.2408 24.5424 21.054 24.4386L21.0491 24.4346L20.7593 24.2769C21.5599 23.5645 21.6226 22.3771 20.8874 21.5943C20.1473 20.8084 18.8777 20.7282 18.0325 21.4051L18.1851 21.275C19.0324 20.5686 19.1098 19.3482 18.3593 18.5505C17.6108 17.7526 16.3162 17.6791 15.4702 18.3862L14.9684 18.8127C15.4534 18.105 15.4019 17.1521 14.7803 16.4909C14.0298 15.6932 12.7372 15.6189 11.8905 16.3266L11.2244 16.8984C11.5366 16.2307 11.4334 15.4217 10.885 14.8395C10.1352 14.041 8.84117 13.9681 7.99585 14.6745L6.58625 15.8535C6.40851 15.6438 6.23078 15.4197 6.05664 15.1871C5.47968 14.4143 4.9375 13.5521 4.50758 12.8135C4.07828 12.0748 3.75703 11.4571 3.61695 11.1752C3.54304 11.0273 3.45531 10.892 3.36047 10.7619C3.19461 10.5371 3.00437 10.3255 2.81062 10.131C2.52219 9.83716 2.22117 9.57826 1.99117 9.38965C1.88109 9.29895 1.78766 9.22336 1.71805 9.17017C1.70344 9.13922 1.68953 9.10187 1.67695 9.0545C1.65328 8.96387 1.63648 8.84231 1.63648 8.69444C1.63648 8.44998 1.6818 8.13981 1.77445 7.79014C1.9368 7.18032 2.24547 6.4594 2.65109 5.74113C3.25937 4.65949 4.09078 3.5752 4.93812 2.79703C5.36179 2.40603 5.78687 2.09386 6.17297 1.89081C6.36523 1.79032 6.54718 1.71539 6.70945 1.66934C6.87179 1.62204 7.01609 1.60104 7.14007 1.60104C7.25921 1.6017 7.35961 1.61872 7.45781 1.65225C7.55398 1.68908 7.65156 1.74036 7.7575 1.829C8.31843 2.2989 8.93375 2.77662 9.60343 3.18147C10.2709 3.58433 10.9943 3.91948 11.7837 4.07192C12.2904 4.16917 12.7921 4.20461 13.2848 4.20461C14.2192 4.20395 15.1189 4.07457 15.9516 3.9536C16.1613 3.92206 16.3662 3.89311 16.5669 3.86423C15.9419 4.27033 15.3369 4.75203 14.6938 5.31786C12.8584 6.93247 11.2758 8.90464 10.3978 9.80098C9.52046 10.6961 11.1525 12.2496 13.7503 11.5372C16.3467 10.8262 17.4658 8.99924 17.4658 8.99924L20.7264 7.89586L23.9625 8.59446L31.7845 15.2357L33.1364 16.4685L33.1629 16.4896C33.2172 16.5369 33.259 16.5921 33.2952 16.6815C33.3301 16.7708 33.3538 16.8917 33.3538 17.0364C33.3549 17.2392 33.3062 17.483 33.2148 17.7078Z" fill="#2A7BE4"/>
</svg>
