<svg width="267" height="26" viewBox="0 0 267 26" fill="none" xmlns="http://www.w3.org/2000/svg">
<g filter="url(#filter0_g_839_731)">
<path fill-rule="evenodd" clip-rule="evenodd" d="M262.012 19.1898L249.35 8.02131L249.082 7.80905L248.952 7.70614L248.816 7.60323L248.599 7.436L248.547 7.39741L248.254 7.21731L247.93 7.05136L247.585 6.9163L247.185 6.82625L246.798 6.76836L246.259 6.81981L245.684 6.93559L245.22 7.07581L244.896 7.26749L244.628 7.4733L244.346 7.67785L244.07 7.87724L235.188 16.0767L235.405 16.397L235.645 16.7045L235.905 16.9991L236.18 17.2756L236.48 17.5445L236.791 17.794L237.119 18.032L237.459 18.2507L237.817 18.4424L238.187 18.6225L238.564 18.7897L238.956 18.9299L239.356 19.0521L239.76 19.1859H262.012V19.1898ZM262.463 21.0962L263.062 21.1091L263.637 21.1605L264.125 21.2827L264.518 21.4886L264.846 21.751L265.157 22.034L267 23.9507H222.758L222.193 23.8864L221.693 23.7848L221.265 23.6047L220.912 23.3667L220.631 23.0593L220.396 22.7184L220.209 22.3337L220.09 21.8899L220.039 21.4152V12.9353L220.507 12.8196L220.965 12.6896L221.429 12.5494L221.88 12.3951L222.325 12.2291L222.761 12.0426L223.195 11.8368L223.613 11.6322L224.035 11.4007L224.433 11.1691L224.833 10.9196L225.214 10.6558L225.591 10.3806L225.955 10.0975L226.307 9.79653L226.647 9.4878L226.975 9.18035L227.293 8.84717L227.597 8.50757L228.725 7.2945L229.834 6.05699L230.327 5.53728L230.856 5.04973L231.408 4.58793L231.994 4.15183L232.605 3.74791L233.233 3.3697L233.891 3.0301L234.566 2.72265L235.258 2.43964L235.968 2.20166L236.697 1.98941L237.43 1.82218L238.175 1.68067L238.926 1.58548L239.684 1.52116L240.446 1.49414L241.204 1.50829L241.96 1.56489L245.641 4.91981L245.083 4.70755L244.518 4.53518L243.943 4.39368L243.363 4.27147L242.775 4.18142L242.176 4.12354L241.583 4.09781H240.98L240.38 4.12997L239.787 4.19429L239.194 4.29077L238.614 4.40654L238.138 4.54676L237.68 4.68826L237.241 4.86193L236.835 5.04845L236.424 5.24655L236.013 5.43308L235.631 5.65691L235.297 5.90647L234.963 6.19592L234.635 6.49693L234.329 6.80438L234.042 7.13112L233.767 7.47202L233.503 7.81163L233.262 8.17181L233.033 8.53072L232.822 8.90249L232.634 9.28069L232.464 9.66532L232.311 10.0577L232.183 10.4616L232.066 10.8591L231.972 11.2695L231.896 11.6811L231.837 12.0915L231.813 12.5275L231.806 12.9572L231.83 13.3933L231.883 13.8229L231.954 14.2603L232.053 14.6771L232.177 15.099L232.324 15.5158L232.488 15.9198L232.682 16.3185L232.899 16.6967L233.133 17.0621L233.386 17.421L233.668 17.7619L233.955 18.0951L234.272 18.4102L234.6 18.71L234.947 18.9994L235.311 19.2695L235.686 19.5191L236.079 19.7571L236.479 19.9822L236.901 20.1803L237.325 20.3668L237.759 20.5276L238.204 20.6743L238.655 20.7965L239.119 20.8994L239.583 20.9817L240.046 21.0461L240.516 21.0846L240.991 21.0975L262.463 21.0962Z" fill="#D35B2B"/>
<path d="M37.848 1.49651C37.848 0.773556 37.848 0.0493164 39.4535 0.0493164C41.0591 0.0493164 41.0591 0.773556 41.0591 1.49651V20.8863L40.2256 21.2993C37.8951 22.4532 35.5103 23.2237 33.0042 23.3215C30.451 23.4218 27.8222 22.8313 25.0706 21.2555L24.3242 20.8284V1.61228C24.3242 0.889327 24.3242 0.165087 25.9298 0.165087C27.5353 0.165087 27.5353 0.889327 27.5353 1.61228V19.2127C29.4021 20.1415 31.166 20.494 32.8629 20.4271C34.5455 20.3615 36.201 19.8868 37.8451 19.1587V1.49651H37.848ZM105.45 6.37065C105.492 7.0936 105.537 7.81656 103.93 7.88988C102.324 7.96449 102.28 7.24155 102.237 6.51859L102.133 4.80511C100.781 4.10146 99.4299 3.64478 98.0042 3.5676C96.5356 3.48784 94.9344 3.80559 93.0933 4.66232L93.1033 8.94215L104.436 12.6856L105.488 13.0329L105.491 14.0427L105.51 20.2097L105.511 20.9751L104.793 21.4086C102.493 22.7992 99.7896 23.6675 97.0123 23.6572C94.5191 23.6495 91.983 22.9471 89.6396 21.307L89.0145 20.867L89.0188 20.1569L89.0373 17.651C89.0431 16.9281 89.0488 16.2038 90.6543 16.209C92.2599 16.2154 92.2556 16.9384 92.2499 17.6626L92.237 19.4263C93.7884 20.3525 95.4182 20.7564 97.0123 20.7615C98.8562 20.7693 100.673 20.2573 102.294 19.4134L102.281 15.0525L90.9469 11.3104L89.8951 10.9618L89.8922 9.95198L89.8765 3.81458L89.8751 2.99258L90.6729 2.56936C93.4658 1.09001 95.9105 0.547143 98.1911 0.670637C100.476 0.794131 102.528 1.57883 104.556 2.75588L105.253 3.15853L105.297 3.8982L105.45 6.37065ZM130.705 2.41499C130.705 1.69204 130.705 0.967798 132.31 0.967798C133.917 0.967798 133.917 1.69204 133.917 2.41499V20.6059L143.897 20.6483C144.699 20.6509 145.504 20.6548 145.497 22.102C145.49 23.5504 144.688 23.5466 143.885 23.5427L132.303 23.4951L130.703 23.4887L130.705 2.41499Z" fill="#D35B2B"/>
<path fill-rule="evenodd" clip-rule="evenodd" d="M241.275 13.3021L245.871 8.9271L246.235 8.63766L246.71 8.52832L247.18 8.61194L247.568 8.88208L252.344 13.077H250.79L250.331 13.0899L249.938 13.1169L249.593 13.1799L249.287 13.3279L249.041 13.5337L248.807 13.7639L248.565 13.9942L248.313 14.2116L248.066 14.4367L247.883 14.5975L247.749 14.7069L247.602 14.8162L247.491 14.8471L247.339 14.8419L247.238 14.7776L247.132 14.6245L247.087 14.4753L247.05 14.2644L247.04 14.0843V12.8583L247.021 12.538L246.991 12.3335L246.957 12.1212L246.886 11.9939L246.757 11.8524L246.629 11.8073L246.429 11.8138L246.288 11.8588L246.123 11.9604L246.012 12.0569L245.848 12.2434L245.618 12.4814L245.373 12.7117L245.102 12.9162L244.808 13.077L244.486 13.1799L244.133 13.2365L243.727 13.2764L241.275 13.3021Z" fill="white"/>
<path d="M16.859 3.44805C16.8647 3.55739 16.8647 3.66931 16.8633 3.78252L16.7349 19.9821L16.732 20.4735L19.0982 22.614C19.6648 23.126 20.2314 23.6393 19.0968 24.6581C17.9608 25.6757 17.3942 25.1637 16.8276 24.6504L13.9904 22.0853C12.2593 22.753 10.4882 23.1595 8.6543 23.2071C6.10824 23.274 3.48798 22.6526 0.746405 21.0832L0 20.6549V3.95103C0 3.65645 6.3799e-08 3.36443 0.107037 3.12001C0.0970469 2.6106 0.548029 2.34561 0.999012 2.08318C3.71775 0.502203 6.31375 -0.0895389 8.83412 0.0107998C11.3074 0.109852 13.6622 0.881693 15.9642 2.03945C16.5493 2.33275 17.1316 2.62733 16.859 3.44805ZM8.14195 16.797C7.57536 16.285 7.00878 15.7717 8.14337 14.7542C9.27797 13.7353 9.84597 14.2473 10.4126 14.7606L13.5409 17.5894L13.6479 4.19545C12.0138 3.4532 10.3683 2.97208 8.69426 2.90519C6.95027 2.83572 5.13635 3.22293 3.21111 4.24561V19.0379C5.0864 19.9769 6.86036 20.3551 8.56439 20.3101C9.56426 20.2783 10.5541 20.1189 11.5043 19.8367L8.14195 16.797ZM58.7933 20.1583C59.5968 20.1583 60.3988 20.1583 60.3988 21.6068C60.3988 23.054 59.5968 23.054 58.7933 23.054H48.6091C47.8056 23.054 47.0021 23.054 47.0021 21.6068C47.0021 20.1583 47.8056 20.1583 48.6091 20.1583H52.2241V3.41846H49.2556C48.4535 3.41846 47.6486 3.41846 47.6486 1.97127C47.6486 0.522787 48.4521 0.522788 49.2556 0.522788H58.535C59.337 0.522788 60.1405 0.522787 60.1405 1.97127C60.1405 3.41846 59.337 3.41846 58.535 3.41846H55.4366V20.1596L58.7933 20.1583ZM83.6872 20.7218C84.2567 21.2325 84.8261 21.7444 83.6958 22.7671C82.5655 23.7911 81.9975 23.2791 81.428 22.7697L70.7514 13.1899C70.6075 13.2661 70.4439 13.3068 70.277 13.3077C70.1101 13.3086 69.9459 13.2697 69.8009 13.1951V21.6299C69.8009 22.3529 69.8009 23.0784 68.1954 23.0784C66.5884 23.0784 66.5884 22.3542 66.5884 21.6299V1.71014C66.5884 0.987182 66.5884 0.262942 68.1954 0.262942C69.8009 0.262942 69.8009 0.985895 69.8009 1.71014V10.1051L80.8129 0.776206C81.398 0.280944 81.9832 -0.215598 83.0821 0.836672C84.181 1.88894 83.5945 2.3842 83.0093 2.87946L73.1305 11.25L83.6872 20.7218ZM123.234 20.5095C124.037 20.5095 124.841 20.5095 124.841 21.958C124.841 23.4052 124.037 23.4052 123.234 23.4052H113.048C112.246 23.4052 111.443 23.4052 111.443 21.958C111.443 20.5095 112.245 20.5095 113.048 20.5095H116.665V3.76836H113.696C112.893 3.76836 112.089 3.76836 112.089 2.32117C112.089 0.873977 112.891 0.873977 113.696 0.873977H122.974C123.778 0.873977 124.58 0.873977 124.58 2.32117C124.58 3.76836 123.778 3.76836 122.974 3.76836H119.877V20.5095H123.234ZM146.482 2.66078C146.281 1.96098 146.081 1.25989 147.631 0.897129C149.181 0.534366 149.382 1.23674 149.583 1.93653L154.922 20.5429L160.858 2.11663C161.082 1.42069 161.305 0.72604 162.845 1.12739C164.38 1.52875 164.158 2.22469 163.934 2.91934L157.356 23.3383L156.936 23.6432H152.799L152.433 23.4026L146.482 2.66078ZM178.292 10.6904C179.094 10.6904 179.899 10.6904 179.899 12.1376C179.899 13.5848 179.096 13.5848 178.292 13.5848H172.595L172.498 20.898L182.46 20.9392C183.262 20.943 184.065 20.9456 184.059 22.3941C184.052 23.8413 183.25 23.8387 182.447 23.8348L170.865 23.7872L169.247 23.7795L169.265 22.322L169.525 2.97722L169.545 1.53647L171.138 1.54675L181.038 1.60979C181.84 1.61494 182.644 1.62008 182.636 3.06727C182.631 4.51446 181.829 4.51061 181.025 4.50547L172.719 4.45272L172.635 10.6904H178.292ZM192.178 13.1217C192.755 13.1282 193.312 13.1487 193.878 13.1655C196.658 13.2517 199.745 13.3481 201.952 12.1749L202.027 5.32747C200.723 4.12341 196.169 4.25719 192.208 4.43343L192.178 13.1217ZM205.066 21.5631C205.622 22.0853 206.176 22.6076 205.023 23.6097C203.867 24.6105 203.312 24.0882 202.757 23.566L194.819 16.0907L193.778 16.0611C193.242 16.0427 192.705 16.0286 192.168 16.0187L192.146 22.7401C192.143 23.4631 192.14 24.1873 190.534 24.1873C188.927 24.1873 188.93 23.4643 188.933 22.7401L189.002 3.0557L189.006 1.67411L190.532 1.60851L191.338 1.57249H191.344C196.581 1.33451 203.076 1.03863 205.037 4.16714L205.248 4.50418L205.244 4.88495L205.156 12.9494L205.148 13.6414L204.533 14.075C202.901 15.2276 201.037 15.7486 199.122 15.9685L205.066 21.5631Z" fill="#D35B2B"/>
</g>
<defs>
<filter id="filter0_g_839_731" x="0" y="0" width="267" height="25.2441" filterUnits="userSpaceOnUse" color-interpolation-filters="sRGB">
<feFlood flood-opacity="0" result="BackgroundImageFix"/>
<feBlend mode="normal" in="SourceGraphic" in2="BackgroundImageFix" result="shape"/>
<feTurbulence type="fractalNoise" baseFrequency="0.25 0.25" numOctaves="3" seed="2762" />
<feDisplacementMap in="shape" scale="0" xChannelSelector="R" yChannelSelector="G" result="displacedImage" width="100%" height="100%" />
<feMerge result="effect1_texture_839_731">
<feMergeNode in="displacedImage"/>
</feMerge>
</filter>
</defs>
</svg>
