<svg width="92" height="33" viewBox="0 0 92 33" fill="none" xmlns="http://www.w3.org/2000/svg">
<g filter="url(#filter0_g_839_701)">
<path d="M91.3733 13.3644C91.1179 11.7638 89.2476 10.9013 87.9952 10.4973C85.4658 4.3512 79.1793 0 71.8135 0C62.2231 0 54.4453 7.38927 54.4453 16.5035C54.4453 25.6177 62.2231 33.007 71.8135 33.007C81.2061 33.007 88.8603 25.9207 89.1734 17.0629C90.3434 16.3015 91.5875 15.0893 91.3733 13.3644ZM68.1965 29.6814C61.7452 29.6814 56.5133 23.7917 56.5133 16.5268C56.5133 9.26184 61.7452 3.37218 68.1965 3.37218C74.6478 3.37218 79.8796 9.26184 79.8796 16.5268C79.8796 23.7995 74.6478 29.6814 68.1965 29.6814ZM83.2165 13.9161C83.3154 13.4188 83.2906 12.8594 83.1259 12.2921C82.9364 11.6395 82.5903 11.0878 82.1619 10.6838C82.9364 10.7692 83.612 11.282 83.8262 12.028C84.0404 12.7428 83.7768 13.4654 83.2165 13.9161ZM84.2546 10.4118C84.3123 9.83682 84.2299 9.20745 83.9827 8.57808C83.7026 7.85547 83.2412 7.26495 82.7139 6.85314C83.5955 6.86868 84.4194 7.38927 84.749 8.22066C85.0538 8.99766 84.8396 9.84459 84.2546 10.4118ZM85.713 14.7242C85.9189 14.2424 86.0096 13.6752 85.9354 13.0925C85.853 12.4165 85.5647 11.8259 85.1609 11.3753C86.0178 11.554 86.6193 12.0746 86.7181 12.8516C86.8088 13.5742 86.4298 14.3434 85.713 14.7242Z" fill="#F53E61"/>
<path d="M67.5694 14.196C67.5694 14.196 65.0976 11.4299 64.0512 9.34756C63.3262 7.89457 63.491 5.9443 65.1553 5.14399C65.4931 4.98082 65.8721 4.88758 66.2511 4.87981C67.0668 4.86427 67.7753 5.28385 68.2038 5.92099C69.003 7.08649 68.8135 8.64049 68.5993 9.93808C68.3933 11.1968 68.0967 12.4323 67.7342 13.6599C67.7177 13.7065 67.5282 14.1494 67.5694 14.196Z" fill="#F53E61"/>
<path d="M67.5032 17.1406C67.4784 17.1639 67.5444 17.4359 67.5526 17.467C67.5938 17.77 67.6267 18.073 67.6597 18.3761C67.7668 19.3473 67.841 20.3186 67.8739 21.2898C67.9316 23.0147 68.1046 25.066 67.0747 26.5656C66.7534 27.0318 66.3002 27.3893 65.7565 27.5835C65.0232 27.8477 64.1745 27.8166 63.4495 27.498C62.6832 27.1639 62.0818 26.5346 61.7852 25.7731C61.4638 24.9417 61.5627 24.0715 61.9088 23.2789C61.9747 23.1235 62.0488 22.9759 62.1312 22.8283C62.502 22.16 62.9963 21.5695 63.5072 21.0023C63.5813 20.9168 63.6637 20.8314 63.7379 20.7537C64.9161 19.4872 66.2261 18.3294 67.5032 17.1406Z" fill="#F53E61"/>
<path d="M66.7702 16.3637C66.7702 16.3637 63.1038 15.7732 60.7309 15.9674C59.0831 16.1073 57.4188 17.1873 57.5094 18.8734C57.5259 19.2153 57.6247 19.5572 57.806 19.8602C58.185 20.5051 58.9018 20.8548 59.6763 20.8858C61.1017 20.9402 62.4035 20.0389 63.4581 19.2386C64.4797 18.4694 65.4437 17.6302 66.3665 16.7522C66.4077 16.7134 66.7126 16.3482 66.7702 16.3637Z" fill="#F53E61"/>
<path d="M75.5452 7.68486C75.2898 7.41291 74.9685 7.21089 74.6225 7.07103C72.9087 6.39504 71.2197 7.53723 70.5111 8.99799C69.4977 11.0959 68.8633 14.6701 68.8633 14.6701C68.8715 14.6157 69.3576 14.4681 69.4071 14.4448C70.6347 13.9164 71.8211 13.3259 72.9746 12.6577C74.1611 11.9739 75.5453 11.1037 75.9737 9.77499C76.2044 9.04461 76.089 8.25984 75.5452 7.68486ZM72.126 8.17437C73.1641 7.19535 74.6637 7.6227 75.0591 8.36085C73.815 7.98789 72.126 8.17437 72.126 8.17437Z" fill="#F53E61"/>
<path d="M66.4244 14.7323C65.6664 13.761 64.8507 12.8286 63.9774 11.9428C63.0711 11.026 61.9588 9.97702 60.5911 9.80608C59.8495 9.71284 59.1163 9.9304 58.6713 10.4743C58.4654 10.7307 58.3253 11.0337 58.2676 11.3523C57.9628 12.9219 59.4046 14.1961 60.9536 14.5846C63.1864 15.1441 66.7457 15.1596 66.7457 15.1596C66.7045 15.1596 66.4574 14.7711 66.4244 14.7323ZM59.7507 10.5054C61.1843 10.2024 62.4861 11.0571 62.9392 12.0982C61.3161 11.0648 59.7507 10.5054 59.7507 10.5054Z" fill="#F53E61"/>
<path d="M75.5191 21.2665C75.412 21.15 75.3049 21.0412 75.1896 20.9324C74.6705 20.4429 74.0525 20.0544 73.4264 19.6892C73.3357 19.6348 73.2369 19.5804 73.1462 19.5261C71.7209 18.718 70.2131 18.0342 68.7383 17.3271C68.7712 17.3427 68.7877 17.5913 68.796 17.6224C68.8454 17.8944 68.9031 18.1663 68.9607 18.4383C69.142 19.3085 69.3562 20.171 69.6116 21.0179C70.0565 22.533 70.4932 24.359 71.8527 25.4002C72.2729 25.7265 72.7837 25.9208 73.3275 25.9596C74.0608 26.0062 74.8106 25.7654 75.3708 25.3147C75.964 24.833 76.3183 24.1337 76.3595 23.4033C76.4007 22.603 76.0629 21.8726 75.5191 21.2665ZM75.1813 23.8306C74.5304 21.927 72.7096 20.272 72.7096 20.272C74.275 20.6993 75.5768 22.1135 75.1813 23.8306Z" fill="#F53E61"/>
<path d="M78.4944 14.5767C77.9589 13.9551 77.1185 13.7608 76.2945 13.7608C74.4984 13.753 72.694 14.4213 71.0709 15.0739C70.3871 15.3459 69.7114 15.6411 69.0605 15.9753C69.1429 16.0141 69.2336 16.0607 69.316 16.0996C69.9916 16.4182 70.6919 16.7056 71.3922 16.9698C72.4056 17.3583 73.452 17.7002 74.5231 17.9255C74.5643 17.9333 74.6055 17.9411 74.6467 17.9566C75.9402 18.2286 77.7364 18.5238 78.6097 17.3117C78.8157 17.0242 78.9476 16.6901 78.997 16.3482C79.0959 15.7188 78.9146 15.0662 78.4944 14.5767ZM74.9268 14.8098C75.965 13.9473 77.5304 14.3824 78.0495 15.4857C76.7477 14.7476 74.9268 14.8098 74.9268 14.8098Z" fill="#F53E61"/>
<path d="M4.57965 5.3612L6.39227 8.35265H4.72796L2.98949 5.5166H1.66298V8.35265H0.212891V1.49951H3.38497C5.08224 1.49951 5.93088 2.15996 5.93088 3.47309C5.9144 4.45988 5.46948 5.08925 4.57965 5.3612ZM1.66298 4.24232H3.69806C4.28304 4.23455 4.57965 3.97814 4.59613 3.48863C4.57965 3.03797 4.28304 2.80487 3.7063 2.78156H1.65475L1.66298 4.24232Z" fill="#F53E61"/>
<path d="M6.45117 6.06856C6.45117 5.40034 6.67363 4.84867 7.12678 4.42132C7.57994 3.99397 8.15668 3.78418 8.87349 3.78418C9.58206 3.78418 10.1506 3.99397 10.5708 4.42132C10.991 4.84867 11.1969 5.39257 11.1969 6.06856V6.52699H7.85183C7.88479 6.76786 8.00014 6.96211 8.18964 7.10197C8.37914 7.24183 8.60983 7.30399 8.86525 7.30399C9.3184 7.30399 9.72212 7.17967 10.0764 6.9388L10.8509 7.66918C10.4966 8.12761 9.82923 8.35294 8.86525 8.35294C8.15668 8.35294 7.5717 8.14315 7.11855 7.7158C6.67363 7.28845 6.45117 6.73678 6.45117 6.06856ZM9.5491 5.04292C9.3596 4.90306 9.1289 4.8409 8.87349 4.8409C8.61807 4.8409 8.38738 4.91083 8.19788 5.04292C8.00014 5.18278 7.90951 5.36926 7.90951 5.6179H9.84571C9.84571 5.36926 9.74684 5.17501 9.5491 5.04292Z" fill="#F53E61"/>
<path d="M16.6161 1.49947V8.34484H15.2567V7.97965C14.8941 8.22052 14.5398 8.34484 14.1938 8.34484C13.4523 8.34484 12.8591 8.11951 12.4224 7.66108C11.9857 7.20265 11.7715 6.67429 11.7715 6.06046C11.7715 5.4544 11.9857 4.91827 12.4224 4.45984C12.8591 4.00141 13.444 3.77608 14.1938 3.77608C14.6799 3.80716 15.0342 3.93148 15.2567 4.14904V1.4917L16.6161 1.49947ZM15.2567 6.48004V5.74189C15.1907 5.22907 14.8529 4.92604 14.235 4.84057C13.4605 4.90273 13.0238 5.27569 12.925 5.97499C12.9579 6.82969 13.3946 7.27258 14.235 7.30366C14.8529 7.21042 15.1907 6.93847 15.2567 6.48004Z" fill="#F53E61"/>
<path d="M22.8626 1.49951V7.0706H26.735V8.35265H21.4043V1.49951H22.8626Z" fill="#F53E61"/>
<path d="M27.0645 6.06807C27.0645 5.39985 27.2869 4.84818 27.7401 4.42083C28.1932 3.99348 28.77 3.78369 29.4868 3.78369C30.1953 3.78369 30.7638 3.99348 31.184 4.42083C31.6042 4.84818 31.8102 5.39208 31.8102 6.06807V6.5265H28.4733C28.5063 6.76737 28.6217 6.96162 28.8112 7.10148C29.0007 7.24134 29.2314 7.3035 29.4868 7.3035C29.9399 7.3035 30.3436 7.17918 30.6979 6.93831L31.4724 7.66869C31.1181 8.12712 30.459 8.35245 29.4868 8.35245C28.7782 8.35245 28.1932 8.14266 27.7401 7.71531C27.2952 7.28796 27.0645 6.73629 27.0645 6.06807ZM30.1706 5.04243C29.9729 4.90257 29.7504 4.84041 29.495 4.84041C29.2396 4.84041 29.0089 4.91034 28.8194 5.04243C28.6217 5.18229 28.531 5.36877 28.531 5.61741H30.4672C30.459 5.36877 30.3601 5.17452 30.1706 5.04243Z" fill="#F53E61"/>
<path d="M34.0528 5.42312V8.34464H32.6934V3.91574L34.0528 3.77588V4.17992C34.3577 3.90797 34.7449 3.77588 35.2145 3.77588C35.8242 3.77588 36.2939 3.95459 36.6152 4.30424C36.9695 3.95459 37.505 3.77588 38.2136 3.77588C38.8233 3.77588 39.2929 3.95459 39.6143 4.30424C39.9356 4.65389 40.1004 5.05793 40.1004 5.51636V8.35241H38.7409V5.8427C38.7409 5.53967 38.6668 5.2988 38.5267 5.13563C38.3784 4.96469 38.1477 4.87922 37.8181 4.87145C37.5545 4.88699 37.3155 5.05793 37.1178 5.3765C37.1013 5.46974 37.0931 5.57075 37.0931 5.66399V8.36018H35.7336V5.85047C35.7336 5.54744 35.6595 5.30657 35.5194 5.1434C35.3711 4.97246 35.1404 4.88699 34.8108 4.87922C34.5307 4.87922 34.2753 5.07347 34.0528 5.42312Z" fill="#F53E61"/>
<path d="M41.566 7.7306C41.0964 7.28771 40.8574 6.72827 40.8574 6.06782C40.8574 5.40737 41.0964 4.84793 41.566 4.40504C42.0356 3.96215 42.6288 3.73682 43.3292 3.73682C44.0295 3.73682 44.6227 3.96215 45.0924 4.40504C45.562 4.84793 45.8009 5.40737 45.8009 6.06782C45.8009 6.72827 45.562 7.28771 45.0924 7.7306C44.6227 8.17349 44.0295 8.39882 43.3292 8.39882C42.6288 8.39882 42.0356 8.17349 41.566 7.7306ZM43.3292 7.28771C43.6999 7.28771 43.9965 7.17116 44.2272 6.93806C44.4579 6.70496 44.5733 6.41747 44.5733 6.06782C44.5733 5.71817 44.4579 5.43068 44.2272 5.19758C43.9965 4.96448 43.6999 4.84793 43.3292 4.84793C42.9666 4.84793 42.67 4.96448 42.4393 5.19758C42.2086 5.43068 42.0933 5.72594 42.0933 6.06782C42.0933 6.41747 42.2086 6.70496 42.4393 6.93806C42.6618 7.17116 42.9584 7.28771 43.3292 7.28771Z" fill="#F53E61"/>
<path d="M47.8258 5.44643V8.35241H46.4746V3.91574L47.8258 3.77588V4.19546C48.1554 3.92351 48.5426 3.78365 48.9876 3.78365C49.6055 3.78365 50.0669 3.96236 50.3882 4.31201C50.7095 4.66166 50.8743 5.0657 50.8743 5.52413V8.36018H49.5149V5.85047C49.5149 5.54744 49.4325 5.30657 49.2677 5.1434C49.1029 4.97246 48.864 4.88699 48.5344 4.87922C48.2707 4.87922 48.0318 5.07347 47.8258 5.44643Z" fill="#F53E61"/>
<path d="M2.69421 28.9586C0.89807 27.2725 0 25.1591 0 22.6183C0.00823917 20.1319 0.906309 18.0418 2.70245 16.3479C4.49859 14.6541 6.71492 13.8071 9.36794 13.8071C12.0457 13.8071 14.3444 14.5919 16.2641 16.1692L13.7594 18.7488C12.4823 17.8087 11.0158 17.3347 9.36794 17.3347C7.68715 17.3425 6.32768 17.8398 5.29779 18.8188C4.26789 19.8056 3.75706 21.0565 3.75706 22.595C3.7653 24.2422 4.28437 25.5476 5.3225 26.5111C6.3524 27.4823 7.71186 27.9641 9.40089 27.9641C11.0817 27.9641 12.54 27.4979 13.7677 26.5577L16.2724 29.1373C14.3609 30.7069 12.0621 31.4994 9.37618 31.4994C6.72316 31.4917 4.49859 30.6447 2.69421 28.9586Z" fill="#F53E61"/>
<path d="M18.3066 31.4994V13.8071H21.8083V31.4994H18.3066Z" fill="#F53E61"/>
<path d="M32.1657 27.3113V19.689H35.6674V31.4994H32.1657V30.4271C31.3253 31.1342 30.3201 31.4916 29.1667 31.4916C27.5847 31.4916 26.3736 31.0409 25.5414 30.1318C24.7093 29.2228 24.2891 28.1816 24.2891 27.0083V19.689H27.7907V26.1769C27.7907 26.9617 27.9967 27.5755 28.4169 28.0029C28.8371 28.438 29.4633 28.6633 30.3037 28.6866C31.0287 28.6478 31.6466 28.1816 32.1657 27.3113Z" fill="#F53E61"/>
<path d="M42.0856 13.8071V20.6603C42.6706 20.1008 43.5852 19.7823 44.8375 19.7046C46.7572 19.7046 48.2815 20.2951 49.402 21.4761C50.5308 22.6572 51.091 24.0324 51.091 25.602C51.091 27.1715 50.5308 28.5468 49.402 29.7279C48.2732 30.9089 46.7572 31.4994 44.8375 31.4994C43.9394 31.4994 43.0167 31.1809 42.0856 30.5515V31.4994H38.584V13.8149L42.0856 13.8071ZM44.7057 28.7877C46.8726 28.71 48.0014 27.5678 48.0837 25.3689C47.8366 23.5585 46.7078 22.5795 44.7057 22.4318C43.1238 22.6572 42.2504 23.4342 42.0774 24.7551V26.6665C42.2504 27.8398 43.1238 28.5468 44.7057 28.7877Z" fill="#F53E61"/>
</g>
<defs>
<filter id="filter0_g_839_701" x="0" y="0" width="91.3984" height="33.0068" filterUnits="userSpaceOnUse" color-interpolation-filters="sRGB">
<feFlood flood-opacity="0" result="BackgroundImageFix"/>
<feBlend mode="normal" in="SourceGraphic" in2="BackgroundImageFix" result="shape"/>
<feTurbulence type="fractalNoise" baseFrequency="0.25 0.25" numOctaves="3" seed="2762" />
<feDisplacementMap in="shape" scale="0" xChannelSelector="R" yChannelSelector="G" result="displacedImage" width="100%" height="100%" />
<feMerge result="effect1_texture_839_701">
<feMergeNode in="displacedImage"/>
</feMerge>
</filter>
</defs>
</svg>
