<svg width="190" height="35" viewBox="0 0 190 35" fill="none" xmlns="http://www.w3.org/2000/svg">
<g filter="url(#filter0_g_839_730)">
<path fill-rule="evenodd" clip-rule="evenodd" d="M51.275 10.0265C51.7726 10.0265 52.2217 10.4377 52.2217 10.9814V29.0893C52.2217 29.5889 51.7726 29.9912 51.275 29.9912H48.8266C48.351 29.9912 47.9018 29.6198 47.9018 29.1202V27.4536C46.6688 29.2927 44.5507 30.5526 41.4418 30.5526C36.2368 30.5526 33.0311 27.0911 33.0311 21.9761V10.9505C33.0311 10.4377 33.5066 10.0309 34.0086 10.0309H36.457C36.9546 10.0309 37.3597 10.4377 37.3597 10.9505V21.2555C37.3597 24.5933 39.1124 26.7816 42.5559 26.7816C45.9114 26.7816 47.9018 24.5049 47.9018 21.3042V10.9549C47.9018 10.4421 48.351 10.0354 48.8266 10.0354L51.275 10.0265ZM15.1482 0.00442088C6.76826 8.74916e-09 0 6.52078 0 15.2697C0 24.0053 6.76386 30.5526 15.1482 30.5526C16.575 30.5526 17.9753 30.3537 19.2832 29.9912L20.9213 34.2352C21.0842 34.7215 21.4189 35 22.0354 35H24.6467C25.2632 35 25.7476 34.58 25.4349 33.7843L23.3212 28.214C27.5222 25.5614 30.3008 20.8842 30.3008 15.2697C30.3008 6.51636 23.537 0 15.1526 0M21.7536 24.1158L19.8292 19.1335C19.6663 18.7135 19.3316 18.351 18.5962 18.351H16.1038C15.4829 18.351 14.9853 18.7622 15.2671 19.5402L17.7815 26.0875C16.9217 26.3116 16.0366 26.423 15.1482 26.4191C8.99646 26.4191 4.65015 21.6004 4.65015 15.2653C4.65015 8.95226 8.99646 4.11583 15.1482 4.11583C21.3044 4.11583 25.6463 8.95226 25.6463 15.2653C25.6463 18.9478 24.1711 22.1132 21.7536 24.107M189.925 28.9876C190.141 29.4872 189.881 29.9867 189.256 29.9867H186.535C186.046 29.9867 185.61 29.7569 185.434 29.2573L180.387 15.5968L175.231 29.2573C175.01 29.7878 174.654 29.9867 174.156 29.9867H171.717C171.219 29.9867 170.831 29.7878 170.616 29.2573L165.441 15.5128L160.333 29.2573C160.254 29.4797 160.105 29.6705 159.909 29.8018C159.713 29.9331 159.481 29.9979 159.246 29.9867H156.678C156.444 29.9983 156.212 29.9336 156.016 29.8022C155.821 29.6708 155.674 29.4797 155.595 29.2573L150.527 15.5128L145.308 29.2573C145.088 29.7878 144.701 29.9867 144.203 29.9867H141.768C141.27 29.9867 140.887 29.7878 140.694 29.2573L135.585 15.5128L130.49 29.2573C130.319 29.7569 129.883 29.9867 129.385 29.9867H126.725C126.109 29.9867 125.876 29.4872 126.061 28.9876L133.009 10.8046C133.207 10.2741 133.595 10.0265 134.093 10.0265H137.087C137.589 10.0265 137.946 10.2741 138.144 10.8046L143.036 24.0893L147.986 10.8046C148.197 10.2741 148.585 10.0265 149.082 10.0265H152.019C152.517 10.0265 152.905 10.2741 153.094 10.8046L158.004 24.0893L162.892 10.8046C163.112 10.2741 163.469 10.0265 163.966 10.0265H166.934C167.414 10.0265 167.789 10.2741 168.004 10.8046L172.989 24.0893L177.837 10.8046C178.058 10.2741 178.428 10.0265 178.925 10.0265H181.92C182.422 10.0265 182.778 10.2741 182.998 10.8046L189.925 28.9876ZM75.0321 10.0265H72.5618C72.0774 10.0265 71.593 10.4377 71.593 10.9814V12.6481C70.3688 10.7648 67.9424 9.45623 65.1021 9.45623C59.7166 9.45623 55.0532 13.7445 55.0532 19.9823C55.0532 26.313 59.7166 30.5526 65.0537 30.5526C67.9424 30.5526 70.3203 29.2131 71.5974 27.3254V29.0937C71.5974 29.5889 72.0774 29.9912 72.5618 29.9912H75.0277C75.1462 29.9923 75.2638 29.9698 75.3736 29.925C75.4833 29.8801 75.5831 29.8138 75.6671 29.7299C75.7511 29.646 75.8177 29.5461 75.8629 29.4362C75.9081 29.3262 75.9311 29.2083 75.9305 29.0893V10.9814C75.9305 10.4377 75.5297 10.0265 75.0321 10.0265ZM65.5513 26.5429C61.98 26.5429 59.448 23.6428 59.448 20.0265C59.448 16.366 61.98 13.5279 65.5513 13.5279C69.0741 13.5279 71.659 16.366 71.659 20.0265C71.659 23.6428 69.0785 26.5429 65.5513 26.5429ZM104.237 27.1706C104.778 27.8426 104.325 28.3422 104.052 28.5411C102.334 29.8364 100.088 30.5526 97.6356 30.5526C91.4618 30.5526 87.3489 25.9991 87.3489 20.0265C87.3489 14.0274 91.4618 9.45623 97.6356 9.45623C100.088 9.45623 102.339 10.137 104.052 11.4368C104.329 11.6357 104.73 12.0866 104.237 12.8073L103.074 14.4253C102.616 15.0663 102.079 14.9116 101.621 14.6021C100.478 13.8459 99.1451 13.4291 97.7765 13.3996C94.1392 13.3996 91.7436 16.3174 91.7436 20.0265C91.7436 23.7047 94.1392 26.5915 97.7765 26.5915C99.2473 26.5915 100.458 26.0035 101.55 25.3758C102 25.1415 102.506 24.9248 103.004 25.5968L104.237 27.1706ZM115.778 9.48718C114.398 9.4753 113.03 9.74012 111.753 10.2661C110.477 10.7921 109.318 11.5687 108.344 12.5503C107.37 13.532 106.602 14.6989 106.083 15.9827C105.565 17.2665 105.307 18.6413 105.324 20.0265C105.306 21.4113 105.564 22.7858 106.082 24.0691C106.601 25.3524 107.369 26.5188 108.343 27.4995C109.317 28.4802 110.477 29.2555 111.754 29.7798C113.031 30.3041 114.399 30.5669 115.778 30.5526C117.159 30.5687 118.528 30.3072 119.807 29.7837C121.085 29.2602 122.246 28.4851 123.222 27.5042C124.197 26.5234 124.967 25.3564 125.486 24.0722C126.006 22.788 126.264 21.4124 126.245 20.0265C126.263 18.6403 126.004 17.2647 125.484 15.9803C124.964 14.6959 124.195 13.5286 123.22 12.5469C122.245 11.5652 121.084 10.7889 119.806 10.2635C118.529 9.73804 117.159 9.47412 115.778 9.48718ZM115.778 26.5031C112.216 26.5031 109.675 23.6428 109.675 20.0265C109.675 16.366 112.216 13.5279 115.778 13.5279C119.367 13.5279 121.886 16.366 121.886 20.0265C121.886 23.6428 119.367 26.5031 115.778 26.5031ZM83.6103 0.552608C83.7325 0.553754 83.8532 0.579202 83.9656 0.627481C84.0779 0.67576 84.1796 0.745912 84.2647 0.833884C84.3499 0.921855 84.4169 1.0259 84.4618 1.14001C84.5066 1.25411 84.5285 1.37602 84.5262 1.49867V29.0407C84.5291 29.1637 84.5077 29.2861 84.463 29.4007C84.4184 29.5153 84.3516 29.6199 84.2663 29.7083C84.1811 29.7968 84.0792 29.8673 83.9666 29.9159C83.854 29.9644 83.7328 29.99 83.6103 29.9912H81.1531C80.9048 29.9824 80.669 29.8794 80.4933 29.703C80.3176 29.5266 80.2151 29.29 80.2063 29.0407V1.49867C80.2063 0.999116 80.6555 0.548187 81.1531 0.548187L83.6103 0.552608Z" fill="#3051DC"/>
</g>
<defs>
<filter id="filter0_g_839_730" x="0" y="0" width="190" height="35" filterUnits="userSpaceOnUse" color-interpolation-filters="sRGB">
<feFlood flood-opacity="0" result="BackgroundImageFix"/>
<feBlend mode="normal" in="SourceGraphic" in2="BackgroundImageFix" result="shape"/>
<feTurbulence type="fractalNoise" baseFrequency="0.25 0.25" numOctaves="3" seed="2762" />
<feDisplacementMap in="shape" scale="0" xChannelSelector="R" yChannelSelector="G" result="displacedImage" width="100%" height="100%" />
<feMerge result="effect1_texture_839_730">
<feMergeNode in="displacedImage"/>
</feMerge>
</filter>
</defs>
</svg>
