<svg width="469" height="331" viewBox="0 0 469 331" fill="none" xmlns="http://www.w3.org/2000/svg">
<g clip-path="url(#clip0_839_1199)">
<path d="M103.927 33.1566H74.0181C71.1427 33.1592 68.3857 34.3044 66.3525 36.3408C64.3192 38.3772 63.1758 41.1384 63.1732 44.0183V76.4946C62.7908 76.4717 62.4084 76.4374 62.0316 76.3917C54.9459 75.6451 48.2094 72.9307 42.5815 68.5548C36.9536 64.1788 32.6582 58.3152 30.1797 51.6251C27.7011 44.935 27.1378 37.6844 28.5535 30.6909C29.9691 23.6974 33.3073 17.239 38.1917 12.0439C43.0761 6.84879 49.3125 3.12363 56.1976 1.28839C63.0828 -0.546856 70.3429 -0.419195 77.1595 1.65698C83.9761 3.73316 90.078 7.67529 94.7773 13.0389C99.4766 18.4025 102.586 24.9743 103.756 32.0133C103.819 32.3906 103.876 32.7736 103.927 33.1566Z" fill="white"/>
<path d="M457.014 32.0137H74.0177C70.8398 32.0172 67.793 33.2831 65.5459 35.5337C63.2987 37.7843 62.0347 40.8358 62.0312 44.0187V246.388C62.0347 249.571 63.2987 252.623 65.5459 254.873C67.793 257.124 70.8398 258.39 74.0177 258.393H457.014C460.192 258.39 463.239 257.124 465.486 254.873C467.733 252.623 468.997 249.571 469.001 246.388V44.0187C468.997 40.8358 467.733 37.7843 465.486 35.5337C463.239 33.2831 460.192 32.0172 457.014 32.0137ZM467.859 246.388C467.856 249.268 466.713 252.029 464.68 254.066C462.646 256.102 459.889 257.247 457.014 257.25H74.0177C71.1423 257.247 68.3853 256.102 66.3521 254.066C64.3188 252.029 63.1754 249.268 63.1728 246.388V44.0187C63.1754 41.1388 64.3188 38.3776 66.3521 36.3412C68.3853 34.3048 71.1423 33.1596 74.0177 33.157H457.014C459.889 33.1596 462.646 34.3048 464.68 36.3412C466.713 38.3776 467.856 41.1388 467.859 44.0187V246.388Z" fill="#3F3D56"/>
<path d="M438.179 64.8093H92.854C92.7026 64.8093 92.5574 64.7491 92.4504 64.6419C92.3433 64.5347 92.2832 64.3893 92.2832 64.2377C92.2832 64.0861 92.3433 63.9407 92.4504 63.8335C92.5574 63.7263 92.7026 63.666 92.854 63.666H438.179C438.33 63.666 438.475 63.7263 438.582 63.8335C438.689 63.9407 438.749 64.0861 438.749 64.2377C438.749 64.3893 438.689 64.5347 438.582 64.6419C438.475 64.7491 438.33 64.8093 438.179 64.8093Z" fill="#3F3D56"/>
<path d="M190.458 233.811C190.306 233.811 190.161 233.751 190.054 233.644C189.947 233.537 189.887 233.391 189.887 233.24V45.1615C189.887 45.0099 189.947 44.8645 190.054 44.7573C190.161 44.6501 190.306 44.5898 190.458 44.5898C190.609 44.5898 190.754 44.6501 190.861 44.7573C190.968 44.8645 191.028 45.0099 191.028 45.1615V233.24C191.028 233.391 190.968 233.537 190.861 233.644C190.754 233.751 190.609 233.811 190.458 233.811Z" fill="#3F3D56"/>
<path d="M276.645 233.811C276.494 233.811 276.348 233.751 276.241 233.644C276.134 233.537 276.074 233.391 276.074 233.24V45.1615C276.074 45.0099 276.134 44.8645 276.241 44.7573C276.348 44.6501 276.494 44.5898 276.645 44.5898C276.796 44.5898 276.942 44.6501 277.049 44.7573C277.156 44.8645 277.216 45.0099 277.216 45.1615V233.24C277.216 233.391 277.156 233.537 277.049 233.644C276.942 233.751 276.796 233.811 276.645 233.811Z" fill="#3F3D56"/>
<path d="M362.834 233.811C362.683 233.811 362.538 233.751 362.431 233.644C362.324 233.537 362.264 233.391 362.264 233.24V45.1615C362.264 45.0099 362.324 44.8645 362.431 44.7573C362.538 44.6501 362.683 44.5898 362.834 44.5898C362.986 44.5898 363.131 44.6501 363.238 44.7573C363.345 44.8645 363.405 45.0099 363.405 45.1615V233.24C363.405 233.391 363.345 233.537 363.238 233.644C363.131 233.751 362.986 233.811 362.834 233.811Z" fill="#3F3D56"/>
<path d="M135.042 123.816H114.186C113.505 123.815 112.852 123.543 112.37 123.061C111.889 122.579 111.618 121.925 111.617 121.243V96.593C111.618 95.911 111.889 95.2571 112.37 94.7748C112.852 94.2925 113.505 94.0213 114.186 94.0205H135.042C135.723 94.0213 136.376 94.2925 136.858 94.7748C137.339 95.2571 137.61 95.911 137.611 96.593V121.243C137.61 121.925 137.339 122.579 136.858 123.061C136.376 123.543 135.723 123.815 135.042 123.816Z" fill="#2A7BE4"/>
<path d="M164.724 194.131H143.867C143.186 194.13 142.534 193.859 142.052 193.377C141.57 192.894 141.3 192.24 141.299 191.558V166.908C141.3 166.226 141.57 165.572 142.052 165.09C142.534 164.608 143.186 164.337 143.867 164.336H164.724C165.405 164.337 166.058 164.608 166.539 165.09C167.021 165.572 167.292 166.226 167.292 166.908V191.558C167.292 192.24 167.021 192.894 166.539 193.377C166.058 193.859 165.405 194.13 164.724 194.131Z" fill="#2A7BE4"/>
<path d="M232.077 138.679H211.221C210.54 138.678 209.887 138.407 209.405 137.924C208.924 137.442 208.653 136.788 208.652 136.106V111.456C208.653 110.774 208.924 110.12 209.405 109.638C209.887 109.156 210.54 108.885 211.221 108.884H232.077C232.758 108.885 233.411 109.156 233.893 109.638C234.374 110.12 234.645 110.774 234.646 111.456V136.106C234.645 136.788 234.374 137.442 233.893 137.924C233.411 138.407 232.758 138.678 232.077 138.679Z" fill="#2A7BE4"/>
<path d="M319.405 111.811H298.549C297.868 111.81 297.215 111.539 296.734 111.056C296.252 110.574 295.981 109.92 295.98 109.238V84.5881C295.981 83.9061 296.252 83.2522 296.734 82.7699C297.215 82.2877 297.868 82.0164 298.549 82.0156H319.405C320.086 82.0164 320.739 82.2877 321.221 82.7699C321.702 83.2522 321.973 83.9061 321.974 84.5881V109.238C321.973 109.92 321.702 110.574 321.221 111.056C320.739 111.539 320.086 111.81 319.405 111.811Z" fill="#2A7BE4"/>
<path d="M399.888 111.811H379.031C378.35 111.81 377.698 111.539 377.216 111.056C376.734 110.574 376.464 109.92 376.463 109.238V84.5881C376.464 83.9061 376.734 83.2522 377.216 82.7699C377.698 82.2877 378.35 82.0164 379.031 82.0156H399.888C400.569 82.0164 401.222 82.2877 401.703 82.7699C402.185 83.2522 402.456 83.9061 402.456 84.5881V109.238C402.456 109.92 402.185 110.574 401.703 111.056C401.222 111.539 400.569 111.81 399.888 111.811Z" fill="#2A7BE4"/>
<path d="M436.987 118.671H416.131C415.45 118.67 414.797 118.399 414.316 117.917C413.834 117.434 413.563 116.781 413.562 116.098V91.4485C413.563 90.7664 413.834 90.1126 414.316 89.6303C414.797 89.148 415.45 88.8767 416.131 88.876H436.987C437.668 88.8767 438.321 89.148 438.803 89.6303C439.284 90.1126 439.555 90.7664 439.556 91.4485V116.098C439.555 116.781 439.284 117.434 438.803 117.917C438.321 118.399 437.668 118.67 436.987 118.671Z" fill="#E6E6E6"/>
<path d="M420.435 162.689H399.578C398.897 162.688 398.244 162.416 397.763 161.934C397.281 161.452 397.011 160.798 397.01 160.116V135.466C397.011 134.784 397.281 134.13 397.763 133.648C398.244 133.166 398.897 132.894 399.578 132.894H420.435C421.116 132.894 421.769 133.166 422.25 133.648C422.732 134.13 423.003 134.784 423.003 135.466V160.116C423.003 160.798 422.732 161.452 422.25 161.934C421.769 162.417 421.116 162.688 420.435 162.689Z" fill="#E6E6E6"/>
<path d="M349.657 153.542H328.801C328.12 153.541 327.467 153.27 326.986 152.788C326.504 152.305 326.233 151.652 326.232 150.97V126.32C326.233 125.638 326.504 124.984 326.986 124.501C327.467 124.019 328.12 123.748 328.801 123.747H349.657C350.338 123.748 350.991 124.019 351.473 124.501C351.954 124.984 352.225 125.638 352.226 126.32V150.97C352.225 151.652 351.954 152.305 351.473 152.788C350.991 153.27 350.338 153.541 349.657 153.542Z" fill="#FF6584"/>
<path d="M309.132 162.689H288.276C287.595 162.688 286.942 162.416 286.46 161.934C285.979 161.452 285.708 160.798 285.707 160.116V135.466C285.708 134.784 285.979 134.13 286.46 133.648C286.942 133.166 287.595 132.894 288.276 132.894H309.132C309.813 132.894 310.466 133.166 310.947 133.648C311.429 134.13 311.7 134.784 311.701 135.466V160.116C311.7 160.798 311.429 161.452 310.947 161.934C310.466 162.417 309.813 162.688 309.132 162.689Z" fill="#E6E6E6"/>
<path d="M221.802 201.563H200.945C200.265 201.562 199.612 201.291 199.13 200.808C198.649 200.326 198.378 199.672 198.377 198.99V174.34C198.378 173.658 198.649 173.004 199.13 172.522C199.612 172.04 200.265 171.768 200.945 171.768H221.802C222.483 171.768 223.136 172.04 223.617 172.522C224.099 173.004 224.37 173.658 224.37 174.34V198.99C224.37 199.672 224.099 200.326 223.617 200.808C223.136 201.291 222.483 201.562 221.802 201.563Z" fill="#E6E6E6"/>
<path d="M116.206 168.978H95.3498C94.6688 168.977 94.0159 168.706 93.5344 168.223C93.0529 167.741 92.782 167.087 92.7812 166.405V141.755C92.782 141.073 93.0529 140.419 93.5344 139.937C94.0159 139.455 94.6688 139.183 95.3498 139.183H116.206C116.887 139.183 117.54 139.455 118.022 139.937C118.503 140.419 118.774 141.073 118.775 141.755V166.405C118.774 167.087 118.503 167.741 118.022 168.223C117.54 168.706 116.887 168.977 116.206 168.978Z" fill="#FF6584"/>
<path d="M174.997 123.816H154.141C153.46 123.815 152.807 123.543 152.325 123.061C151.844 122.579 151.573 121.925 151.572 121.243V96.593C151.573 95.911 151.844 95.2571 152.325 94.7748C152.807 94.2925 153.46 94.0213 154.141 94.0205H174.997C175.678 94.0213 176.331 94.2925 176.813 94.7748C177.294 95.2571 177.565 95.911 177.566 96.593V121.243C177.565 121.925 177.294 122.579 176.813 123.061C176.331 123.543 175.678 123.815 174.997 123.816Z" fill="#E6E6E6"/>
<path d="M157.923 55.4513H125.389C124.783 55.4513 124.202 55.2103 123.774 54.7815C123.346 54.3527 123.105 53.7711 123.105 53.1646C123.105 52.5581 123.346 51.9765 123.774 51.5477C124.202 51.1188 124.783 50.8779 125.389 50.8779H157.923C158.529 50.8779 159.11 51.1188 159.538 51.5477C159.966 51.9765 160.206 52.5581 160.206 53.1646C160.206 53.7711 159.966 54.3527 159.538 54.7815C159.11 55.2103 158.529 55.4513 157.923 55.4513Z" fill="#CCCCCC"/>
<path d="M249.818 55.4513H217.283C216.678 55.4513 216.097 55.2103 215.669 54.7815C215.241 54.3527 215 53.7711 215 53.1646C215 52.5581 215.241 51.9765 215.669 51.5477C216.097 51.1188 216.678 50.8779 217.283 50.8779H249.818C250.423 50.8779 251.004 51.1188 251.432 51.5477C251.86 51.9765 252.101 52.5581 252.101 53.1646C252.101 53.7711 251.86 54.3527 251.432 54.7815C251.004 55.2103 250.423 55.4513 249.818 55.4513Z" fill="#CCCCCC"/>
<path d="M336.007 55.4513H303.473C302.867 55.4513 302.286 55.2103 301.858 54.7815C301.43 54.3527 301.189 53.7711 301.189 53.1646C301.189 52.5581 301.43 51.9765 301.858 51.5477C302.286 51.1188 302.867 50.8779 303.473 50.8779H336.007C336.613 50.8779 337.194 51.1188 337.622 51.5477C338.05 51.9765 338.29 52.5581 338.29 53.1646C338.29 53.7711 338.05 54.3527 337.622 54.7815C337.194 55.2103 336.613 55.4513 336.007 55.4513Z" fill="#CCCCCC"/>
<path d="M416.488 55.4513H383.953C383.348 55.4513 382.767 55.2103 382.339 54.7815C381.91 54.3527 381.67 53.7711 381.67 53.1646C381.67 52.5581 381.91 51.9765 382.339 51.5477C382.767 51.1188 383.348 50.8779 383.953 50.8779H416.488C417.093 50.8779 417.674 51.1188 418.102 51.5477C418.53 51.9765 418.771 52.5581 418.771 53.1646C418.771 53.7711 418.53 54.3527 418.102 54.7815C417.674 55.2103 417.093 55.4513 416.488 55.4513Z" fill="#CCCCCC"/>
<path d="M85.0518 222.887C84.2167 222.806 83.4097 222.541 82.6876 222.113C81.9655 221.685 81.3459 221.104 80.8724 220.41C80.399 219.716 80.0832 218.927 79.9473 218.097C79.8114 217.268 79.8587 216.419 80.0859 215.61L65.4551 201.969L73.1908 200.004L87.5778 211.691C88.9095 212.163 90.022 213.108 90.7043 214.347C91.3867 215.586 91.5917 217.033 91.2803 218.413C90.9689 219.793 90.1629 221.011 89.015 221.836C87.867 222.66 86.4569 223.035 85.0518 222.887Z" fill="#FFB8B8"/>
<path d="M105.255 323.708H112.253L115.582 296.675H105.254L105.255 323.708Z" fill="#FFB8B8"/>
<path d="M125.748 330.215L103.755 330.216L103.755 321.706L117.25 321.705C119.504 321.705 121.665 322.601 123.259 324.197C124.853 325.793 125.748 327.958 125.748 330.215Z" fill="#2F2E41"/>
<path d="M57.2754 318.647L64.038 320.45L74.1986 295.185L64.2184 292.524L57.2754 318.647Z" fill="#FFB8B8"/>
<path d="M75.4082 330.217L54.1555 324.551L56.3412 316.327L69.3826 319.804C71.5604 320.384 73.4186 321.808 74.5487 323.76C75.6787 325.713 75.9879 328.036 75.4082 330.217Z" fill="#2F2E41"/>
<path d="M114.134 318.589H103.456C102.781 318.592 102.131 318.341 101.631 317.887C101.132 317.433 100.821 316.808 100.758 316.135L94.2763 248.718C94.2288 248.223 94.0112 247.761 93.6607 247.409C93.3102 247.058 92.8486 246.839 92.3549 246.791C91.8612 246.742 91.3661 246.868 90.9543 247.145C90.5426 247.422 90.2397 247.833 90.0976 248.309L71.2769 311.306C71.0778 311.976 70.6283 312.543 70.0222 312.888C69.416 313.234 68.7 313.332 68.0234 313.162L58.09 310.674C57.7433 310.588 57.4172 310.433 57.1303 310.22C56.8435 310.006 56.6017 309.738 56.4189 309.43C56.236 309.123 56.1156 308.782 56.0647 308.428C56.0138 308.074 56.0334 307.713 56.1223 307.366C56.2845 306.731 72.3387 243.895 72.4789 243.249C76.1164 216.399 80.4682 209.204 82.8061 205.339C82.9996 205.019 83.1775 204.725 83.3376 204.447C83.538 204.099 84.7716 200.649 85.5542 198.408C85.6559 198.043 85.8319 197.704 86.0711 197.411C86.3103 197.118 86.6076 196.878 86.9441 196.706C96.7677 191.674 108.261 195.157 111.55 196.345C112.095 196.537 112.564 196.901 112.885 197.382C122.751 212.286 117.909 298.848 116.838 316.049C116.794 316.737 116.489 317.383 115.987 317.855C115.485 318.326 114.822 318.589 114.134 318.589Z" fill="#2F2E41"/>
<path d="M86.5796 147.825C94.3221 147.825 100.599 141.538 100.599 133.784C100.599 126.029 94.3221 119.743 86.5796 119.743C78.8371 119.743 72.5605 126.029 72.5605 133.784C72.5605 141.538 78.8371 147.825 86.5796 147.825Z" fill="#FFB8B8"/>
<path d="M85.0931 201.133L84.9924 201.036C84.8034 200.853 66.1247 182.525 68.542 165.578C69.5759 158.33 75.4316 153.699 85.4759 152.184C89.166 151.635 92.9299 152.439 96.0757 154.447C99.2216 156.455 101.538 159.533 102.599 163.115L112.531 197.12L85.0931 201.133Z" fill="#CCCCCC"/>
<path d="M75.533 214.169L62.2233 200.923C61.3132 200.012 60.6525 198.882 60.3046 197.641C59.9568 196.401 59.9335 195.091 60.2371 193.839L66.6804 167.589C66.8734 166.802 67.2256 166.063 67.7151 165.419C68.2046 164.774 68.821 164.237 69.5262 163.84C70.2314 163.443 71.0103 163.196 71.8148 163.113C72.6193 163.03 73.4323 163.114 74.2033 163.358C75.673 163.832 76.9005 164.861 77.6259 166.226C78.3514 167.592 78.5178 169.186 78.0898 170.672L71.3064 193.765L82.2758 205.563L75.533 214.169Z" fill="#CCCCCC"/>
<path d="M146.922 168.963C146.57 169.726 146.055 170.402 145.414 170.945C144.773 171.487 144.021 171.882 143.211 172.101C142.401 172.321 141.553 172.36 140.726 172.215C139.9 172.071 139.115 171.747 138.426 171.266L120.658 180.49L121.444 172.655L137.195 162.891C138.079 161.787 139.336 161.046 140.729 160.808C142.121 160.57 143.553 160.852 144.751 161.6C145.95 162.349 146.833 163.512 147.233 164.869C147.634 166.226 147.523 167.683 146.922 168.963Z" fill="#FFB8B8"/>
<path d="M136.487 174.795L119.166 182.292C118.013 182.787 116.753 182.977 115.505 182.843C114.258 182.709 113.066 182.256 112.045 181.527L90.0186 165.721C89.3613 165.249 88.8076 164.647 88.3918 163.952C87.976 163.258 87.707 162.485 87.6014 161.682C87.4958 160.879 87.5559 160.063 87.7779 159.284C87.9999 158.505 88.3792 157.78 88.8922 157.154C89.878 155.964 91.2878 155.204 92.823 155.037C94.3581 154.87 95.898 155.307 97.1164 156.258L116.003 171.145L131.015 165.328L136.487 174.795Z" fill="#CCCCCC"/>
<path d="M88.9036 138.282C90.6331 136.112 93.8642 135.995 96.2398 134.564C99.3516 132.689 100.638 128.498 99.6353 125.002C98.6326 121.506 95.6752 118.782 92.2845 117.479C88.8939 116.176 85.1215 116.16 81.5447 116.79C76.2192 117.727 70.976 120.217 67.728 124.547C64.48 128.876 63.6534 135.217 66.597 139.76C67.9499 141.848 70.0384 143.571 70.5785 146.001C71.2876 149.19 69.0537 152.267 66.6605 154.488C63.934 157.018 60.806 159.137 58.4173 161.99C56.0286 164.842 54.4357 168.739 55.5257 172.298C56.439 175.28 59.0965 177.477 62.0106 178.577C64.9248 179.678 68.0987 179.837 71.2124 179.898C74.2359 179.957 77.4474 179.883 79.9945 178.25C82.7212 176.502 84.1771 173.186 84.2846 169.946C84.3922 166.705 83.311 163.53 81.8619 160.631C80.9981 158.902 79.9939 157.228 79.4199 155.383C78.846 153.537 78.7466 151.444 79.6657 149.744C80.6319 147.958 82.5865 146.881 84.5768 146.489C84.6802 146.469 84.7896 146.451 84.9041 146.435C85.4704 146.361 86.0159 146.173 86.5076 145.882C86.9994 145.592 87.4271 145.204 87.765 144.743C88.1029 144.282 88.344 143.757 88.4736 143.2C88.6032 142.643 88.6186 142.066 88.519 141.502C88.2922 140.237 88.3118 139.025 88.9036 138.282Z" fill="#2F2E41"/>
<path d="M275.819 324.306H268.821L265.492 297.273L275.82 297.274L275.819 324.306Z" fill="#A0616A"/>
<path d="M263.823 322.304H277.319V330.814H255.326C255.326 329.696 255.546 328.59 255.973 327.557C256.4 326.525 257.026 325.587 257.815 324.796C258.604 324.006 259.541 323.379 260.572 322.952C261.603 322.524 262.708 322.304 263.823 322.304Z" fill="#2F2E41"/>
<path d="M326.595 316.367L320.23 319.278L305.986 296.075L315.381 291.777L326.595 316.367Z" fill="#A0616A"/>
<path d="M314.852 319.538L327.128 313.922L330.658 321.663L310.653 330.814C310.19 329.798 309.931 328.7 309.891 327.583C309.851 326.466 310.031 325.352 310.421 324.305C310.811 323.258 311.403 322.298 312.163 321.48C312.923 320.662 313.837 320.002 314.852 319.538Z" fill="#2F2E41"/>
<path d="M306.216 233.158C306.886 232.653 307.438 232.007 307.832 231.265C308.226 230.523 308.453 229.703 308.496 228.864C308.54 228.025 308.399 227.186 308.084 226.407C307.769 225.628 307.288 224.928 306.673 224.356L314.899 205.662L304.449 207.436L298.24 224.916C297.348 226.013 296.889 227.4 296.951 228.814C297.012 230.227 297.589 231.569 298.572 232.585C299.555 233.601 300.877 234.221 302.285 234.326C303.694 234.432 305.093 234.016 306.216 233.158Z" fill="#A0616A"/>
<path d="M275.374 317.178H268.689C268.04 317.175 267.417 316.929 266.942 316.486C266.467 316.044 266.176 315.439 266.127 314.792L262.481 217.289C262.454 216.915 262.509 216.54 262.642 216.19C262.774 215.84 262.982 215.523 263.25 215.261C263.517 215 263.839 214.8 264.192 214.676C264.545 214.552 264.92 214.506 265.293 214.542L303.955 218.655C304.581 218.716 305.164 219.006 305.591 219.469C306.018 219.932 306.261 220.536 306.273 221.166L307.084 264.176C307.088 264.409 307.133 264.64 307.217 264.858L323.076 306.048C323.199 306.366 323.257 306.706 323.247 307.047C323.238 307.388 323.16 307.723 323.02 308.034C322.88 308.345 322.679 308.624 322.43 308.857C322.18 309.089 321.887 309.269 321.568 309.387L314.793 311.887C314.205 312.104 313.558 312.098 312.973 311.87C312.389 311.642 311.908 311.208 311.621 310.65L292.139 272.709C292.033 272.503 291.955 272.283 291.908 272.056L288.58 255.995C288.484 255.53 288.225 255.114 287.85 254.822C287.475 254.53 287.008 254.382 286.534 254.403C286.059 254.425 285.608 254.615 285.261 254.939C284.914 255.264 284.694 255.702 284.639 256.174L277.926 314.898C277.854 315.525 277.554 316.105 277.084 316.525C276.613 316.945 276.004 317.178 275.374 317.178Z" fill="#2F2E41"/>
<path d="M278.703 141.052C286.445 141.052 292.722 134.766 292.722 127.011C292.722 119.257 286.445 112.971 278.703 112.971C270.96 112.971 264.684 119.257 264.684 127.011C264.684 134.766 270.96 141.052 278.703 141.052Z" fill="#A0616A"/>
<path d="M288.316 226.205C278.81 226.1 269.529 223.285 261.562 218.089L261.426 217.994L261.44 217.829L266.802 155.279C266.987 153.157 267.933 151.174 269.465 149.696C270.997 148.219 273.011 147.346 275.135 147.241C282.085 146.921 291.42 147.324 296.417 151.052C303.969 156.685 307.609 165.169 306.404 174.326C303.904 193.316 306.736 218.933 307.067 221.791L307.091 221.997L306.903 222.083C301.081 224.796 294.738 226.203 288.316 226.205Z" fill="#2A7BE4"/>
<path d="M307.001 221.896C306.606 221.896 306.216 221.813 305.854 221.653C305.492 221.494 305.168 221.261 304.901 220.969L301.834 217.618C301.503 217.254 301.27 216.811 301.16 216.331C301.049 215.851 301.063 215.35 301.201 214.877L308.193 191.174L297.554 168.797C297.057 167.749 296.936 166.562 297.21 165.436C297.451 164.447 297.986 163.554 298.744 162.876C299.502 162.197 300.448 161.765 301.457 161.636C302.465 161.507 303.489 161.687 304.393 162.153C305.297 162.619 306.039 163.348 306.521 164.244L320.959 187.707C321.545 188.658 321.889 189.74 321.961 190.856C322.033 191.972 321.83 193.089 321.37 194.108L309.606 220.213C309.412 220.645 309.114 221.021 308.739 221.309C308.363 221.596 307.923 221.785 307.456 221.86C307.306 221.884 307.154 221.896 307.001 221.896Z" fill="#2A7BE4"/>
<path d="M208.187 176.617C208.86 177.119 209.635 177.466 210.457 177.635C211.279 177.805 212.128 177.791 212.944 177.596C213.76 177.401 214.524 177.029 215.181 176.507C215.838 175.984 216.373 175.324 216.748 174.572L236.975 177.199L232.327 167.659L213.831 166.627C212.528 166.08 211.07 166.031 209.733 166.489C208.397 166.947 207.274 167.88 206.578 169.111C205.883 170.343 205.662 171.787 205.959 173.17C206.255 174.554 207.048 175.78 208.187 176.617Z" fill="#A0616A"/>
<path d="M252.772 181.828C252.42 181.828 252.068 181.803 251.719 181.755L219.897 177.335C219.377 177.263 218.883 177.063 218.46 176.752C218.036 176.442 217.696 176.031 217.471 175.556C217.398 175.403 217.338 175.244 217.29 175.082C217.167 174.66 217.132 174.217 217.189 173.781C217.245 173.345 217.391 172.925 217.618 172.549L220.251 168.176C220.534 167.709 220.933 167.322 221.408 167.053C221.883 166.784 222.42 166.642 222.966 166.64H222.97L250.708 166.672L271.424 148.083C272.388 147.221 273.618 146.716 274.91 146.654C276.043 146.602 277.166 146.895 278.131 147.494C279.095 148.094 279.855 148.972 280.311 150.013C280.766 151.054 280.896 152.209 280.683 153.326C280.47 154.442 279.925 155.468 279.118 156.267L258.447 179.293C257.731 180.091 256.856 180.729 255.879 181.165C254.901 181.602 253.843 181.828 252.772 181.828Z" fill="#2A7BE4"/>
<path d="M280.295 139.502C281.577 136.533 282.661 132.578 280.203 130.479C278.778 129.261 276.725 129.258 274.858 129.107C269.597 128.68 264.181 126.255 261.609 121.639C259.038 117.022 260.474 110.157 265.325 108.074C268.595 106.67 272.345 107.627 275.768 108.599L286.045 111.518C289.099 112.385 292.305 113.341 294.503 115.635C298.01 119.292 297.747 125.474 294.963 129.708C292.178 133.942 287.984 138.358 283.183 139.965L280.295 139.502Z" fill="#2F2E41"/>
<path d="M422.086 331H0.679642C0.590227 331 0.501642 330.983 0.418959 330.949C0.336275 330.915 0.261125 330.865 0.197807 330.801C0.13449 330.738 0.0842505 330.663 0.0499728 330.58C0.0156951 330.498 -0.00195312 330.409 -0.00195312 330.319C-0.00195312 330.23 0.0156951 330.141 0.0499728 330.058C0.0842505 329.976 0.13449 329.901 0.197807 329.837C0.261125 329.774 0.336275 329.724 0.418959 329.69C0.501642 329.656 0.590227 329.638 0.679642 329.639H422.086C422.176 329.638 422.264 329.656 422.347 329.69C422.43 329.724 422.505 329.774 422.568 329.837C422.631 329.901 422.682 329.976 422.716 330.058C422.75 330.141 422.768 330.23 422.768 330.319C422.768 330.409 422.75 330.498 422.716 330.58C422.682 330.663 422.631 330.738 422.568 330.801C422.505 330.865 422.43 330.915 422.347 330.949C422.264 330.983 422.176 331 422.086 331Z" fill="#3F3D56"/>
</g>
<defs>
<clipPath id="clip0_839_1199">
<rect width="469" height="331" fill="white"/>
</clipPath>
</defs>
</svg>
