<svg width="159" height="38" viewBox="0 0 159 38" fill="none" xmlns="http://www.w3.org/2000/svg">
<mask id="path-1-outside-1_839_679" maskUnits="userSpaceOnUse" x="55" y="8" width="104" height="28" fill="black">
<rect fill="white" x="55" y="8" width="104" height="28"/>
<path d="M60.3 20.7V25.7C60.3 27.475 60.35 28.35 60.5 29.3H56.775C56.925 28.45 56.975 27.4 56.975 25.75V12.575C56.975 11.2 56.925 10.475 56.775 9.325C57.8 9.375 58.425 9.4 59.95 9.4H66.95C68.525 9.4 69.325 9.35 70.375 9.225V12.6C69.475 12.475 68.55 12.425 66.95 12.425H60.3V17.725H65.65C67.2 17.725 68.075 17.675 69.05 17.55V20.875C68.125 20.75 67.175 20.7 65.65 20.7H60.3ZM76.3889 9.4H80.0139C79.8889 10.375 79.8389 11.175 79.8389 12.675V26.05C79.8389 27.375 79.8889 28.2 80.0139 29.3H76.3889C76.5139 28.225 76.5639 27.5 76.5639 26.05V12.65C76.5639 11.15 76.5139 10.35 76.3889 9.4ZM93.801 29.775C89.226 29.775 86.326 26.825 86.326 22.15C86.326 17.5 89.226 14.525 93.776 14.525C98.301 14.525 101.176 17.475 101.176 22.1C101.176 26.725 98.251 29.775 93.801 29.775ZM93.776 17.125C91.151 17.125 89.551 19.025 89.551 22.15C89.551 25.225 91.151 27.125 93.751 27.125C96.351 27.125 97.951 25.25 97.951 22.2C97.951 18.975 96.426 17.125 93.776 17.125ZM122.449 29.3H119.549C119.449 28.7 119.224 27.9 118.924 26.925L116.999 21.025C116.949 20.925 116.799 20.375 116.524 19.35C116.399 19.8 116.099 20.825 116.024 21.075L114.099 26.925C113.824 27.775 113.549 28.775 113.449 29.3H110.549C110.399 28.575 110.299 28.2 109.899 26.925L107.149 18.05C106.799 16.9 106.449 15.875 106.099 14.95H109.799C109.849 15.675 110.074 16.95 110.349 17.925L111.724 22.8C111.824 23.125 111.974 23.825 112.174 24.8C112.224 24.55 112.649 23.075 112.749 22.775L114.549 17.325C114.799 16.6 115.099 15.45 115.174 14.95H117.849C117.924 15.425 118.249 16.6 118.474 17.325L120.324 23C120.399 23.225 120.524 23.7 120.674 24.225C120.749 24.55 120.774 24.575 120.824 24.8C120.874 24.6 120.874 24.6 120.949 24.25C121.024 23.9 121.199 23.1 121.249 22.925L122.649 17.925C122.949 16.85 123.149 15.75 123.199 14.95H126.874C126.549 15.775 126.499 15.975 125.849 18.05L123.074 26.925C122.699 28.125 122.574 28.6 122.449 29.3ZM132.414 9.4H136.039C135.914 10.375 135.864 11.175 135.864 12.675V26.05C135.864 27.375 135.914 28.2 136.039 29.3H132.414C132.539 28.225 132.589 27.5 132.589 26.05V12.65C132.589 11.15 132.539 10.35 132.414 9.4ZM147.726 28.3L143.051 18.05C141.951 15.575 141.926 15.5 141.626 14.95H145.426C145.551 15.675 145.926 16.85 146.376 17.875L149.426 24.975L152.201 17.9C152.801 16.375 153.001 15.75 153.151 14.95H156.876C156.726 15.275 156.276 16.3 155.526 18.05L149.826 31.425C149.026 33.325 147.551 34.2 145.226 34.2C144.476 34.2 143.751 34.125 142.601 33.9L143.176 31.05C143.876 31.35 144.351 31.475 144.926 31.475C145.801 31.475 146.526 31 146.876 30.225L147.726 28.3Z"/>
</mask>
<path d="M60.3 20.7V25.7C60.3 27.475 60.35 28.35 60.5 29.3H56.775C56.925 28.45 56.975 27.4 56.975 25.75V12.575C56.975 11.2 56.925 10.475 56.775 9.325C57.8 9.375 58.425 9.4 59.95 9.4H66.95C68.525 9.4 69.325 9.35 70.375 9.225V12.6C69.475 12.475 68.55 12.425 66.95 12.425H60.3V17.725H65.65C67.2 17.725 68.075 17.675 69.05 17.55V20.875C68.125 20.75 67.175 20.7 65.65 20.7H60.3ZM76.3889 9.4H80.0139C79.8889 10.375 79.8389 11.175 79.8389 12.675V26.05C79.8389 27.375 79.8889 28.2 80.0139 29.3H76.3889C76.5139 28.225 76.5639 27.5 76.5639 26.05V12.65C76.5639 11.15 76.5139 10.35 76.3889 9.4ZM93.801 29.775C89.226 29.775 86.326 26.825 86.326 22.15C86.326 17.5 89.226 14.525 93.776 14.525C98.301 14.525 101.176 17.475 101.176 22.1C101.176 26.725 98.251 29.775 93.801 29.775ZM93.776 17.125C91.151 17.125 89.551 19.025 89.551 22.15C89.551 25.225 91.151 27.125 93.751 27.125C96.351 27.125 97.951 25.25 97.951 22.2C97.951 18.975 96.426 17.125 93.776 17.125ZM122.449 29.3H119.549C119.449 28.7 119.224 27.9 118.924 26.925L116.999 21.025C116.949 20.925 116.799 20.375 116.524 19.35C116.399 19.8 116.099 20.825 116.024 21.075L114.099 26.925C113.824 27.775 113.549 28.775 113.449 29.3H110.549C110.399 28.575 110.299 28.2 109.899 26.925L107.149 18.05C106.799 16.9 106.449 15.875 106.099 14.95H109.799C109.849 15.675 110.074 16.95 110.349 17.925L111.724 22.8C111.824 23.125 111.974 23.825 112.174 24.8C112.224 24.55 112.649 23.075 112.749 22.775L114.549 17.325C114.799 16.6 115.099 15.45 115.174 14.95H117.849C117.924 15.425 118.249 16.6 118.474 17.325L120.324 23C120.399 23.225 120.524 23.7 120.674 24.225C120.749 24.55 120.774 24.575 120.824 24.8C120.874 24.6 120.874 24.6 120.949 24.25C121.024 23.9 121.199 23.1 121.249 22.925L122.649 17.925C122.949 16.85 123.149 15.75 123.199 14.95H126.874C126.549 15.775 126.499 15.975 125.849 18.05L123.074 26.925C122.699 28.125 122.574 28.6 122.449 29.3ZM132.414 9.4H136.039C135.914 10.375 135.864 11.175 135.864 12.675V26.05C135.864 27.375 135.914 28.2 136.039 29.3H132.414C132.539 28.225 132.589 27.5 132.589 26.05V12.65C132.589 11.15 132.539 10.35 132.414 9.4ZM147.726 28.3L143.051 18.05C141.951 15.575 141.926 15.5 141.626 14.95H145.426C145.551 15.675 145.926 16.85 146.376 17.875L149.426 24.975L152.201 17.9C152.801 16.375 153.001 15.75 153.151 14.95H156.876C156.726 15.275 156.276 16.3 155.526 18.05L149.826 31.425C149.026 33.325 147.551 34.2 145.226 34.2C144.476 34.2 143.751 34.125 142.601 33.9L143.176 31.05C143.876 31.35 144.351 31.475 144.926 31.475C145.801 31.475 146.526 31 146.876 30.225L147.726 28.3Z" fill="#2A7BE4"/>
<path d="M60.3 20.7V19.7H59.3V20.7H60.3ZM60.5 29.3V30.3H61.6703L61.4878 29.144L60.5 29.3ZM56.775 29.3L55.7902 29.1262L55.5831 30.3H56.775V29.3ZM56.775 9.325L56.8237 8.32619L55.6286 8.26789L55.7834 9.45434L56.775 9.325ZM70.375 9.225H71.375V8.09889L70.2568 8.23201L70.375 9.225ZM70.375 12.6L70.2374 13.5905L71.375 13.7485V12.6H70.375ZM60.3 12.425V11.425H59.3V12.425H60.3ZM60.3 17.725H59.3V18.725H60.3V17.725ZM69.05 17.55H70.05V16.4136L68.9228 16.5581L69.05 17.55ZM69.05 20.875L68.9161 21.866L70.05 22.0192V20.875H69.05ZM60.3 20.7H59.3V25.7H60.3H61.3V20.7H60.3ZM60.3 25.7H59.3C59.3 27.4928 59.3501 28.4289 59.5122 29.456L60.5 29.3L61.4878 29.144C61.3499 28.2711 61.3 27.4572 61.3 25.7H60.3ZM60.5 29.3V28.3H56.775V29.3V30.3H60.5V29.3ZM56.775 29.3L57.7598 29.4738C57.9261 28.5311 57.975 27.4057 57.975 25.75H56.975H55.975C55.975 27.3943 55.9239 28.3689 55.7902 29.1262L56.775 29.3ZM56.975 25.75H57.975V12.575H56.975H55.975V25.75H56.975ZM56.975 12.575H57.975C57.975 11.1595 57.9225 10.3912 57.7666 9.19566L56.775 9.325L55.7834 9.45434C55.9275 10.5588 55.975 11.2405 55.975 12.575H56.975ZM56.775 9.325L56.7263 10.3238C57.7648 10.3745 58.4063 10.4 59.95 10.4V9.4V8.4C58.4437 8.4 57.8352 8.37553 56.8237 8.32619L56.775 9.325ZM59.95 9.4V10.4H66.95V9.4V8.4H59.95V9.4ZM66.95 9.4V10.4C68.556 10.4 69.3964 10.3486 70.4932 10.218L70.375 9.225L70.2568 8.23201C69.2536 8.35144 68.494 8.4 66.95 8.4V9.4ZM70.375 9.225H69.375V12.6H70.375H71.375V9.225H70.375ZM70.375 12.6L70.5126 11.6095C69.5469 11.4754 68.57 11.425 66.95 11.425V12.425V13.425C68.53 13.425 69.4031 13.4746 70.2374 13.5905L70.375 12.6ZM66.95 12.425V11.425H60.3V12.425V13.425H66.95V12.425ZM60.3 12.425H59.3V17.725H60.3H61.3V12.425H60.3ZM60.3 17.725V18.725H65.65V17.725V16.725H60.3V17.725ZM65.65 17.725V18.725C67.2263 18.725 68.1465 18.674 69.1772 18.5419L69.05 17.55L68.9228 16.5581C68.0035 16.676 67.1737 16.725 65.65 16.725V17.725ZM69.05 17.55H68.05V20.875H69.05H70.05V17.55H69.05ZM69.05 20.875L69.1839 19.884C68.1964 19.7506 67.1967 19.7 65.65 19.7V20.7V21.7C67.1533 21.7 68.0536 21.7494 68.9161 21.866L69.05 20.875ZM65.65 20.7V19.7H60.3V20.7V21.7H65.65V20.7ZM76.3889 9.4V8.4H75.2487L75.3974 9.53045L76.3889 9.4ZM80.0139 9.4L81.0057 9.52716L81.1503 8.4H80.0139V9.4ZM80.0139 29.3V30.3H81.1339L81.0075 29.1871L80.0139 29.3ZM76.3889 29.3L75.3956 29.1845L75.2659 30.3H76.3889V29.3ZM76.3889 9.4V10.4H80.0139V9.4V8.4H76.3889V9.4ZM80.0139 9.4L79.022 9.27283C78.8902 10.3006 78.8389 11.1447 78.8389 12.675H79.8389H80.8389C80.8389 11.2053 80.8875 10.4494 81.0057 9.52716L80.0139 9.4ZM79.8389 12.675H78.8389V26.05H79.8389H80.8389V12.675H79.8389ZM79.8389 26.05H78.8389C78.8389 27.4108 78.8908 28.2736 79.0203 29.4129L80.0139 29.3L81.0075 29.1871C80.8869 28.1264 80.8389 27.3392 80.8389 26.05H79.8389ZM80.0139 29.3V28.3H76.3889V29.3V30.3H80.0139V29.3ZM76.3889 29.3L77.3822 29.4155C77.5118 28.3004 77.5639 27.5368 77.5639 26.05H76.5639H75.5639C75.5639 27.4632 75.5159 28.1496 75.3956 29.1845L76.3889 29.3ZM76.5639 26.05H77.5639V12.65H76.5639H75.5639V26.05H76.5639ZM76.5639 12.65H77.5639C77.5639 11.1206 77.5126 10.2749 77.3803 9.26954L76.3889 9.4L75.3974 9.53045C75.5151 10.4251 75.5639 11.1794 75.5639 12.65H76.5639ZM93.801 29.775V28.775C91.7331 28.775 90.1388 28.1132 89.0617 27.0153C87.9826 25.9154 87.326 24.2791 87.326 22.15H86.326H85.326C85.326 24.6959 86.1194 26.8721 87.634 28.4159C89.1507 29.9618 91.2939 30.775 93.801 30.775V29.775ZM86.326 22.15H87.326C87.326 20.0345 87.982 18.3966 89.0602 17.2924C90.136 16.1906 91.7244 15.525 93.776 15.525V14.525V13.525C91.2775 13.525 89.141 14.3469 87.6292 15.8951C86.12 17.4409 85.326 19.6155 85.326 22.15H86.326ZM93.776 14.525V15.525C95.8158 15.525 97.3914 16.1848 98.4573 17.2767C99.5257 18.3711 100.176 19.9962 100.176 22.1H101.176H102.176C102.176 19.5788 101.389 17.4164 99.8884 15.8796C98.3856 14.3402 96.2612 13.525 93.776 13.525V14.525ZM101.176 22.1H100.176C100.176 24.2001 99.5152 25.8555 98.436 26.9792C97.3605 28.0991 95.7895 28.775 93.801 28.775V29.775V30.775C96.2624 30.775 98.379 29.9259 99.8785 28.3645C101.374 26.807 102.176 24.6249 102.176 22.1H101.176ZM93.776 17.125V16.125C92.2039 16.125 90.8537 16.7045 89.9138 17.8219C88.9918 18.9181 88.551 20.4273 88.551 22.15H89.551H90.551C90.551 20.7477 90.9101 19.7444 91.4444 19.1093C91.9607 18.4955 92.7231 18.125 93.776 18.125V17.125ZM89.551 22.15H88.551C88.551 23.8513 88.9936 25.3473 89.9116 26.4354C90.8467 27.5438 92.1889 28.125 93.751 28.125V27.125V26.125C92.7131 26.125 91.9553 25.7562 91.4403 25.1458C90.9083 24.5152 90.551 23.5237 90.551 22.15H89.551ZM93.751 27.125V28.125C95.3085 28.125 96.6501 27.5534 97.5868 26.4552C98.5073 25.376 98.951 23.8907 98.951 22.2H97.951H96.951C96.951 23.5593 96.5946 24.5365 96.0651 25.1573C95.5519 25.7591 94.7934 26.125 93.751 26.125V27.125ZM97.951 22.2H98.951C98.951 20.4449 98.5374 18.9208 97.6293 17.8176C96.6983 16.6865 95.3519 16.125 93.776 16.125V17.125V18.125C94.8501 18.125 95.5911 18.4885 96.0851 19.0886C96.6021 19.7167 96.951 20.7301 96.951 22.2H97.951ZM122.449 29.3V30.3H123.286L123.433 29.4758L122.449 29.3ZM119.549 29.3L118.563 29.4644L118.702 30.3H119.549V29.3ZM118.924 26.925L119.88 26.6309L119.877 26.6228L119.875 26.6148L118.924 26.925ZM116.999 21.025L117.95 20.7148L117.927 20.6442L117.893 20.5778L116.999 21.025ZM116.524 19.35L117.49 19.0909L116.541 15.5534L115.561 19.0824L116.524 19.35ZM116.024 21.075L116.974 21.3876L116.978 21.375L116.982 21.3623L116.024 21.075ZM114.099 26.925L113.149 26.6124L113.148 26.6172L114.099 26.925ZM113.449 29.3V30.3H114.277L114.431 29.4871L113.449 29.3ZM110.549 29.3L109.57 29.5026L109.735 30.3H110.549V29.3ZM109.899 26.925L108.944 27.221L108.945 27.2243L109.899 26.925ZM107.149 18.05L106.192 18.3412L106.194 18.346L107.149 18.05ZM106.099 14.95V13.95H104.651L105.164 15.3039L106.099 14.95ZM109.799 14.95L110.797 14.8812L110.732 13.95H109.799V14.95ZM110.349 17.925L109.387 18.1965V18.1965L110.349 17.925ZM111.724 22.8L110.762 23.0715L110.765 23.0828L110.768 23.0941L111.724 22.8ZM112.174 24.8L111.194 25.0009L113.155 24.9961L112.174 24.8ZM112.749 22.775L113.698 23.0912L113.699 23.0886L112.749 22.775ZM114.549 17.325L113.604 16.999L113.599 17.0114L114.549 17.325ZM115.174 14.95V13.95H114.313L114.185 14.8017L115.174 14.95ZM117.849 14.95L118.837 14.794L118.704 13.95H117.849V14.95ZM118.474 17.325L117.519 17.6214L117.521 17.6282L117.523 17.6349L118.474 17.325ZM120.324 23L119.373 23.3099L119.375 23.3162L120.324 23ZM120.674 24.225L121.648 24.0001L121.643 23.975L121.636 23.9503L120.674 24.225ZM120.824 24.8L119.848 25.0169L121.794 25.0425L120.824 24.8ZM120.949 24.25L121.927 24.4595V24.4595L120.949 24.25ZM121.249 22.925L122.211 23.1997L122.212 23.1946L121.249 22.925ZM122.649 17.925L123.612 18.1946L123.612 18.1938L122.649 17.925ZM123.199 14.95V13.95H122.26L122.201 14.8876L123.199 14.95ZM126.874 14.95L127.804 15.3165L128.343 13.95H126.874V14.95ZM125.849 18.05L124.895 17.7511L124.895 17.7516L125.849 18.05ZM123.074 26.925L122.12 26.6266L122.12 26.6267L123.074 26.925ZM122.449 29.3V28.3H119.549V29.3V30.3H122.449V29.3ZM119.549 29.3L120.535 29.1356C120.423 28.4613 120.179 27.6019 119.88 26.6309L118.924 26.925L117.968 27.2191C118.269 28.1981 118.475 28.9387 118.563 29.4644L119.549 29.3ZM118.924 26.925L119.875 26.6148L117.95 20.7148L116.999 21.025L116.048 21.3352L117.973 27.2352L118.924 26.925ZM116.999 21.025L117.893 20.5778C117.924 20.6385 117.928 20.6662 117.897 20.5683C117.876 20.4999 117.847 20.4002 117.809 20.2639C117.732 19.9925 117.628 19.6046 117.49 19.0909L116.524 19.35L115.558 19.6091C115.695 20.1204 115.803 20.52 115.883 20.8048C115.923 20.9467 115.958 21.0673 115.987 21.1622C116.008 21.2275 116.049 21.3615 116.105 21.4722L116.999 21.025ZM116.524 19.35L115.561 19.0824C115.438 19.5236 115.14 20.5416 115.066 20.7877L116.024 21.075L116.982 21.3623C117.058 21.1084 117.36 20.0764 117.488 19.6176L116.524 19.35ZM116.024 21.075L115.074 20.7624L113.149 26.6124L114.099 26.925L115.049 27.2376L116.974 21.3876L116.024 21.075ZM114.099 26.925L113.148 26.6172C112.868 27.4823 112.578 28.5278 112.467 29.1129L113.449 29.3L114.431 29.4871C114.52 29.0222 114.78 28.0677 115.05 27.2328L114.099 26.925ZM113.449 29.3V28.3H110.549V29.3V30.3H113.449V29.3ZM110.549 29.3L111.528 29.0974C111.369 28.3257 111.258 27.915 110.853 26.6257L109.899 26.925L108.945 27.2243C109.34 28.485 109.429 28.8243 109.57 29.5026L110.549 29.3ZM109.899 26.925L110.854 26.629L108.104 17.754L107.149 18.05L106.194 18.346L108.944 27.221L109.899 26.925ZM107.149 18.05L108.106 17.7588C107.75 16.5895 107.393 15.5435 107.034 14.5961L106.099 14.95L105.164 15.3039C105.505 16.2065 105.848 17.2105 106.192 18.3412L107.149 18.05ZM106.099 14.95V15.95H109.799V14.95V13.95H106.099V14.95ZM109.799 14.95L108.801 15.0188C108.857 15.8233 109.096 17.1667 109.387 18.1965L110.349 17.925L111.311 17.6535C111.052 16.7333 110.841 15.5267 110.797 14.8812L109.799 14.95ZM110.349 17.925L109.387 18.1965L110.762 23.0715L111.724 22.8L112.686 22.5285L111.311 17.6535L110.349 17.925ZM111.724 22.8L110.768 23.0941C110.85 23.3613 110.99 24.0022 111.194 25.0009L112.174 24.8L113.154 24.5991C112.959 23.6478 112.798 22.8887 112.68 22.5059L111.724 22.8ZM112.174 24.8L113.155 24.9961C113.154 24.9981 113.156 24.9913 113.16 24.9719C113.164 24.954 113.17 24.9306 113.178 24.9015C113.193 24.8433 113.212 24.7692 113.236 24.6827C113.283 24.5101 113.342 24.2973 113.404 24.081C113.531 23.6384 113.656 23.2167 113.698 23.0912L112.749 22.775L111.8 22.4588C111.696 22.7708 111.256 24.2924 111.193 24.6039L112.174 24.8ZM112.749 22.775L113.699 23.0886L115.499 17.6386L114.549 17.325L113.599 17.0114L111.799 22.4614L112.749 22.775ZM114.549 17.325L115.494 17.651C115.757 16.8905 116.076 15.6783 116.163 15.0983L115.174 14.95L114.185 14.8017C114.122 15.2217 113.841 16.3095 113.604 16.999L114.549 17.325ZM115.174 14.95V15.95H117.849V14.95V13.95H115.174V14.95ZM117.849 14.95L116.861 15.106C116.949 15.6619 117.296 16.9017 117.519 17.6214L118.474 17.325L119.429 17.0286C119.202 16.2983 118.899 15.1881 118.837 14.794L117.849 14.95ZM118.474 17.325L117.523 17.6349L119.373 23.3099L120.324 23L121.275 22.6901L119.425 17.0151L118.474 17.325ZM120.324 23L119.375 23.3162C119.442 23.5147 119.55 23.9309 119.713 24.4997L120.674 24.225L121.636 23.9503C121.498 23.4691 121.357 22.9353 121.273 22.6838L120.324 23ZM120.674 24.225L119.7 24.4499C119.742 24.6356 119.773 24.7421 119.798 24.83C119.82 24.9032 119.83 24.9388 119.848 25.0169L120.824 24.8L121.8 24.5831C121.768 24.4362 121.741 24.3468 121.718 24.27C121.7 24.2079 121.681 24.1394 121.648 24.0001L120.674 24.225ZM120.824 24.8L121.794 25.0425C121.848 24.8265 121.851 24.8138 121.927 24.4595L120.949 24.25L119.971 24.0405C119.897 24.3862 119.9 24.3735 119.854 24.5575L120.824 24.8ZM120.949 24.25L121.927 24.4595C121.964 24.2868 122.026 24.0023 122.084 23.74C122.114 23.6088 122.142 23.4851 122.165 23.3847C122.177 23.3344 122.187 23.2917 122.196 23.2578C122.2 23.2409 122.203 23.2272 122.206 23.2166C122.207 23.2113 122.208 23.2072 122.209 23.2042C122.21 23.2011 122.211 23.1997 122.211 23.1997L121.249 22.925L120.287 22.6503C120.226 22.8669 120.041 23.7128 119.971 24.0405L120.949 24.25ZM121.249 22.925L122.212 23.1946L123.612 18.1946L122.649 17.925L121.686 17.6554L120.286 22.6554L121.249 22.925ZM122.649 17.925L123.612 18.1938C123.925 17.0718 124.142 15.9005 124.197 15.0124L123.199 14.95L122.201 14.8876C122.156 15.5995 121.973 16.6282 121.686 17.6562L122.649 17.925ZM123.199 14.95V15.95H126.874V14.95V13.95H123.199V14.95ZM126.874 14.95L125.944 14.5835C125.602 15.4507 125.539 15.6951 124.895 17.7511L125.849 18.05L126.803 18.3489C127.459 16.2549 127.496 16.0993 127.804 15.3165L126.874 14.95ZM125.849 18.05L124.895 17.7516L122.12 26.6266L123.074 26.925L124.028 27.2234L126.803 18.3484L125.849 18.05ZM123.074 26.925L122.12 26.6267C121.74 27.8414 121.601 28.3629 121.465 29.1242L122.449 29.3L123.433 29.4758C123.548 28.8371 123.658 28.4086 124.029 27.2233L123.074 26.925ZM132.414 9.4V8.4H131.274L131.423 9.53045L132.414 9.4ZM136.039 9.4L137.031 9.52716L137.176 8.4H136.039V9.4ZM136.039 29.3V30.3H137.159L137.033 29.1871L136.039 29.3ZM132.414 29.3L131.421 29.1845L131.291 30.3H132.414V29.3ZM132.414 9.4V10.4H136.039V9.4V8.4H132.414V9.4ZM136.039 9.4L135.047 9.27283C134.916 10.3006 134.864 11.1447 134.864 12.675H135.864H136.864C136.864 11.2053 136.913 10.4494 137.031 9.52716L136.039 9.4ZM135.864 12.675H134.864V26.05H135.864H136.864V12.675H135.864ZM135.864 26.05H134.864C134.864 27.4108 134.916 28.2736 135.046 29.4129L136.039 29.3L137.033 29.1871C136.912 28.1264 136.864 27.3392 136.864 26.05H135.864ZM136.039 29.3V28.3H132.414V29.3V30.3H136.039V29.3ZM132.414 29.3L133.408 29.4155C133.537 28.3004 133.589 27.5368 133.589 26.05H132.589H131.589C131.589 27.4632 131.541 28.1496 131.421 29.1845L132.414 29.3ZM132.589 26.05H133.589V12.65H132.589H131.589V26.05H132.589ZM132.589 12.65H133.589C133.589 11.1206 133.538 10.2749 133.406 9.26954L132.414 9.4L131.423 9.53045C131.541 10.4251 131.589 11.1794 131.589 12.65H132.589ZM147.726 28.3L148.641 28.7039L148.822 28.2934L148.636 27.885L147.726 28.3ZM143.051 18.05L142.138 18.4562L142.142 18.465L143.051 18.05ZM141.626 14.95V13.95H139.942L140.748 15.4289L141.626 14.95ZM145.426 14.95L146.412 14.7801L146.269 13.95H145.426V14.95ZM146.376 17.875L147.295 17.4803L147.292 17.473L146.376 17.875ZM149.426 24.975L148.508 25.3697L149.468 27.6064L150.357 25.3401L149.426 24.975ZM152.201 17.9L151.271 17.5339L151.27 17.5349L152.201 17.9ZM153.151 14.95V13.95H152.321L152.168 14.7657L153.151 14.95ZM156.876 14.95L157.784 15.3691L158.439 13.95H156.876V14.95ZM155.526 18.05L154.607 17.6561L154.606 17.6579L155.526 18.05ZM149.826 31.425L148.906 31.0329L148.905 31.0369L149.826 31.425ZM142.601 33.9L141.621 33.7022L141.422 34.6883L142.409 34.8814L142.601 33.9ZM143.176 31.05L143.57 30.1309L142.439 29.6462L142.196 30.8522L143.176 31.05ZM146.876 30.225L147.788 30.6366L147.791 30.6289L146.876 30.225ZM147.726 28.3L148.636 27.885L143.961 17.635L143.051 18.05L142.142 18.465L146.817 28.715L147.726 28.3ZM143.051 18.05L143.965 17.6439C142.877 15.1951 142.829 15.0672 142.504 14.4711L141.626 14.95L140.748 15.4289C141.023 15.9328 141.026 15.9549 142.138 18.4561L143.051 18.05ZM141.626 14.95V15.95H145.426V14.95V13.95H141.626V14.95ZM145.426 14.95L144.441 15.1199C144.584 15.9495 144.99 17.2049 145.461 18.277L146.376 17.875L147.292 17.473C146.863 16.4951 146.519 15.4005 146.412 14.7801L145.426 14.95ZM146.376 17.875L145.458 18.2697L148.508 25.3697L149.426 24.975L150.345 24.5803L147.295 17.4803L146.376 17.875ZM149.426 24.975L150.357 25.3401L153.132 18.2651L152.201 17.9L151.27 17.5349L148.495 24.6099L149.426 24.975ZM152.201 17.9L153.132 18.2661C153.737 16.7274 153.966 16.0307 154.134 15.1343L153.151 14.95L152.168 14.7657C152.037 15.4693 151.865 16.0226 151.271 17.5339L152.201 17.9ZM153.151 14.95V15.95H156.876V14.95V13.95H153.151V14.95ZM156.876 14.95L155.968 14.5309C155.812 14.8707 155.356 15.9088 154.607 17.6561L155.526 18.05L156.446 18.4439C157.197 16.6912 157.641 15.6793 157.784 15.3691L156.876 14.95ZM155.526 18.05L154.606 17.6579L148.906 31.0329L149.826 31.425L150.746 31.8171L156.446 18.4421L155.526 18.05ZM149.826 31.425L148.905 31.0369C148.572 31.8264 148.131 32.3389 147.583 32.6678C147.024 33.0037 146.268 33.2 145.226 33.2V34.2V35.2C146.51 35.2 147.654 34.9588 148.613 34.3822C149.585 33.7986 150.28 32.9236 150.748 31.8131L149.826 31.425ZM145.226 34.2V33.2C144.559 33.2 143.901 33.1353 142.793 32.9186L142.601 33.9L142.409 34.8814C143.602 35.1147 144.394 35.2 145.226 35.2V34.2ZM142.601 33.9L143.582 34.0978L144.157 31.2478L143.176 31.05L142.196 30.8522L141.621 33.7022L142.601 33.9ZM143.176 31.05L142.782 31.9691C143.552 32.299 144.167 32.475 144.926 32.475V31.475V30.475C144.536 30.475 144.201 30.401 143.57 30.1309L143.176 31.05ZM144.926 31.475V32.475C146.194 32.475 147.276 31.7706 147.788 30.6366L146.876 30.225L145.965 29.8134C145.777 30.2294 145.409 30.475 144.926 30.475V31.475ZM146.876 30.225L147.791 30.6289L148.641 28.7039L147.726 28.3L146.812 27.8961L145.962 29.8211L146.876 30.225Z" fill="#2A7BE4" mask="url(#path-1-outside-1_839_679)"/>
<rect width="29.2308" height="29.2308" rx="3" fill="#2A7BE4"/>
<rect x="14.6152" y="8.76904" width="29.2308" height="29.2308" rx="3" fill="#C4D6ED"/>
</svg>
