<svg width="160" height="133" viewBox="0 0 160 133" fill="none" xmlns="http://www.w3.org/2000/svg">
<path d="M79.4291 53.0863C73.8623 53.0863 68.4206 51.5295 63.7921 48.6129C59.1635 45.6964 55.556 41.5509 53.4257 36.7008C51.2954 31.8506 50.738 26.5137 51.824 21.3648C52.91 16.216 55.5907 11.4864 59.5269 7.77431C63.4632 4.06219 68.4783 1.5342 73.9381 0.510031C79.3979 -0.514142 85.057 0.0115007 90.2 2.02049C95.343 4.02947 99.7388 7.43157 102.832 11.7966C105.924 16.1616 107.575 21.2934 107.575 26.5431C107.575 30.0288 106.847 33.4804 105.432 36.7008C104.018 39.9211 101.945 42.8472 99.3312 45.312C96.7176 47.7767 93.6148 49.7319 90.2 51.0658C86.7852 52.3997 83.1252 53.0863 79.4291 53.0863ZM79.4291 0.417973C73.95 0.417973 68.5939 1.95021 64.0382 4.82091C59.4825 7.69161 55.9318 11.7719 53.8351 16.5456C51.7383 21.3194 51.1898 26.5724 52.2588 31.6402C53.3277 36.708 55.9663 41.3631 59.8406 45.0167C63.715 48.6703 68.6512 51.1585 74.025 52.1664C79.3989 53.1744 84.969 52.6569 90.031 50.6794C95.093 48.702 99.4195 45.3533 102.463 41.057C105.507 36.7606 107.132 31.7095 107.132 26.5424C107.132 19.6136 104.213 12.9685 99.0178 8.0691C93.8226 3.16968 86.7763 0.417218 79.4291 0.417218V0.417973Z" fill="#3F3D56"/>
<path d="M84.5017 36.6736H74.3587C74.1104 36.676 73.8641 36.632 73.634 36.5441C73.4038 36.4561 73.1945 36.326 73.018 36.1613C72.8415 35.9966 72.7014 35.8005 72.6058 35.5844C72.5102 35.3683 72.4609 35.1365 72.4609 34.9023C72.4609 34.6681 72.5102 34.4363 72.6058 34.2202C72.7014 34.0041 72.8415 33.808 73.018 33.6433C73.1945 33.4785 73.4038 33.3484 73.634 33.2605C73.8641 33.1726 74.1104 33.1285 74.3587 33.131H84.5015C84.9963 33.1358 85.4691 33.3245 85.8171 33.6562C86.1652 33.9878 86.3605 34.4356 86.3605 34.9023C86.3605 35.3689 86.1652 35.8167 85.8171 36.1484C85.4691 36.4801 84.9963 36.6688 84.5015 36.6736H84.5017Z" fill="#D6D6E3"/>
<path d="M84.6382 61.1784H74.4955C73.9973 61.1784 73.5196 60.9918 73.1673 60.6596C72.8151 60.3274 72.6172 59.8769 72.6172 59.4071C72.6172 58.9373 72.8151 58.4867 73.1673 58.1546C73.5196 57.8224 73.9973 57.6357 74.4955 57.6357H84.6382C85.1364 57.6357 85.6141 57.8224 85.9664 58.1546C86.3186 58.4867 86.5165 58.9373 86.5165 59.4071C86.5165 59.8769 86.3186 60.3274 85.9664 60.6596C85.6141 60.9918 85.1364 61.1784 84.6382 61.1784Z" fill="#2E7EE5"/>
<path d="M108.717 55.3008H50.337C49.254 55.3008 48.377 54.6694 48.375 53.8914V41.388C48.3762 40.61 49.254 39.9795 50.337 39.9785H108.717C109.8 39.9785 110.677 40.61 110.679 41.388V53.8915C110.678 54.6696 109.8 55.2999 108.717 55.3008Z" fill="#D6D6E3"/>
<path d="M103.043 54.351H51.6593C50.5763 54.351 49.6993 53.7196 49.6973 52.9416V42.3401C49.6985 41.5621 50.5763 40.9316 51.6593 40.9307H107.393C108.476 40.9307 109.353 41.5621 109.355 42.3401V49.8172C109.351 52.3201 106.527 54.3482 103.043 54.351Z" fill="white"/>
<path d="M85.3181 46.178H61.8537C61.7195 46.178 61.5907 46.1277 61.4959 46.0382C61.401 45.9487 61.3477 45.8274 61.3477 45.7008C61.3477 45.5743 61.401 45.4529 61.4959 45.3634C61.5907 45.2739 61.7195 45.2236 61.8537 45.2236H85.3181C85.4523 45.2236 85.581 45.2739 85.6759 45.3634C85.7708 45.4529 85.8241 45.5743 85.8241 45.7008C85.8241 45.8274 85.7708 45.9487 85.6759 46.0382C85.581 46.1277 85.4523 46.178 85.3181 46.178Z" fill="#2E7EE5"/>
<path d="M97.1963 48.1292H61.8537C61.7195 48.1292 61.5907 48.0789 61.4959 47.9894C61.401 47.8999 61.3477 47.7785 61.3477 47.652C61.3477 47.5254 61.401 47.4041 61.4959 47.3146C61.5907 47.2251 61.7195 47.1748 61.8537 47.1748H97.1963C97.3305 47.1748 97.4592 47.2251 97.5541 47.3146C97.649 47.4041 97.7023 47.5254 97.7023 47.652C97.7023 47.7785 97.649 47.8999 97.5541 47.9894C97.4592 48.0789 97.3305 48.1292 97.1963 48.1292Z" fill="#E6E6E6"/>
<path d="M97.1963 50.3694H61.8537C61.7195 50.3694 61.5907 50.3191 61.4959 50.2296C61.401 50.1402 61.3477 50.0188 61.3477 49.8922C61.3477 49.7657 61.401 49.6443 61.4959 49.5548C61.5907 49.4653 61.7195 49.415 61.8537 49.415H97.1963C97.3305 49.415 97.4592 49.4653 97.5541 49.5548C97.649 49.6443 97.7023 49.7657 97.7023 49.8922C97.7023 50.0188 97.649 50.1402 97.5541 50.2296C97.4592 50.3191 97.3305 50.3694 97.1963 50.3694Z" fill="#E6E6E6"/>
<path d="M88.0157 22.0535C88.014 23.9247 87.3246 25.7375 86.0647 27.1832C84.8049 28.6288 83.0526 29.6178 81.1063 29.9819C79.16 30.3459 77.1401 30.0623 75.3906 29.1796C73.641 28.2968 72.2702 26.8693 71.5114 25.1403C70.7526 23.4113 70.6529 21.4877 71.2292 19.6972C71.8054 17.9066 73.0221 16.3599 74.6719 15.3203C76.3218 14.2807 78.3027 13.8127 80.2774 13.9959C82.2521 14.1791 84.0983 15.0022 85.5017 16.325C86.2991 17.0774 86.9316 17.9705 87.363 18.9534C87.7943 19.9363 88.0161 20.9897 88.0157 22.0535Z" fill="#2E7EE5"/>
<path d="M79.6181 23.2269C81.2776 23.2269 82.6229 21.9583 82.6229 20.3933C82.6229 18.8283 81.2776 17.5596 79.6181 17.5596C77.9586 17.5596 76.6133 18.8283 76.6133 20.3933C76.6133 21.9583 77.9586 23.2269 79.6181 23.2269Z" fill="white"/>
<path d="M82.8389 24.2394H76.3989C76.0006 24.2399 75.6187 24.3893 75.3371 24.6549C75.0554 24.9205 74.897 25.2807 74.8965 25.6563C74.9882 26.8698 75.1893 28.0738 75.4975 29.2552C76.7888 29.8826 78.228 30.1906 79.6801 30.1502C81.1321 30.1098 82.5495 29.7224 83.7994 29.0243C84.0748 27.917 84.2554 26.7907 84.3394 25.6561C84.339 25.2805 84.1806 24.9203 83.8989 24.6547C83.6173 24.3891 83.2354 24.2397 82.837 24.2393L82.8389 24.2394Z" fill="white"/>
<path d="M0.000202635 124.89C9.70073e-05 124.923 0.00684672 124.955 0.0200664 124.986C0.0332861 125.016 0.0527147 125.043 0.0772317 125.066C0.101749 125.09 0.130871 125.108 0.162925 125.12C0.194978 125.133 0.229329 125.139 0.264001 125.139H158.787C158.822 125.14 158.858 125.134 158.89 125.122C158.923 125.11 158.953 125.092 158.978 125.069C159.004 125.046 159.024 125.018 159.038 124.987C159.051 124.957 159.058 124.924 159.058 124.89C159.058 124.857 159.051 124.824 159.038 124.794C159.024 124.763 159.004 124.735 158.978 124.712C158.953 124.689 158.923 124.671 158.89 124.659C158.858 124.647 158.822 124.641 158.787 124.642H0.2638C0.229128 124.642 0.194776 124.648 0.162723 124.66C0.13067 124.673 0.101547 124.691 0.0770303 124.714C0.0525132 124.737 0.0330878 124.765 0.0198681 124.795C0.00664835 124.825 -0.000104408 124.858 1.22028e-06 124.89L0.000202635 124.89Z" fill="#F2F2F2"/>
<path d="M124.912 46.0572C124.912 46.0572 121.6 45.5187 116.689 41.3188C112.804 37.9968 107.564 38.6499 105.543 39.0688C105.474 39.0829 105.412 39.1165 105.364 39.1651C105.316 39.2136 105.285 39.2749 105.275 39.3405C105.265 39.4062 105.277 39.4732 105.308 39.5325C105.34 39.5918 105.39 39.6406 105.451 39.6724C106.268 40.0937 107.534 40.7097 108.128 40.7797C108.128 40.7797 106.904 41.9738 108.204 42.6128C108.36 42.685 108.534 42.7149 108.707 42.6992C108.88 42.6835 109.044 42.6228 109.182 42.524C109.808 42.0934 111.546 43.0709 114.065 43.5802C114.065 43.5802 123.885 53.1648 126.17 51.5395L124.912 46.0572Z" fill="#ED9DA0"/>
<path d="M141.82 33.0266C141.82 33.0266 142.734 36.6881 141.82 39.2729L145.931 39.8113L149.586 38.0882V35.8268C149.586 35.8268 147.873 32.3807 148.33 28.3955L141.82 33.0266Z" fill="#ED9DA0"/>
<path d="M152.109 114.662C152.109 114.662 155.089 120.154 154.622 123.815C154.154 127.476 158.505 124.246 158.048 122.092C157.951 124.699 159.326 112.961 159.969 110.213C160.039 109.916 159.989 109.605 159.829 109.341C159.67 109.076 159.412 108.877 159.105 108.782C157.732 108.356 155.434 107.834 154.279 108.633C152.574 109.816 152.109 114.662 152.109 114.662Z" fill="#3F3D56"/>
<path d="M142.163 118.422C142.163 118.422 138.28 123.16 137.252 123.268C136.225 123.376 135.539 124.883 137.252 125.206C140.673 125.768 144.19 125.444 147.431 124.27C147.755 124.151 148.028 123.932 148.204 123.649C148.381 123.367 148.453 123.036 148.407 122.711L147.752 118.099L142.163 118.422Z" fill="#3F3D56"/>
<path d="M135.766 70.044L132.043 68.6006C132.554 72.7022 132.539 76.847 131.998 80.9453V95.6946C131.998 95.6946 131.926 96.994 134.786 98.8833C137.785 100.849 140.676 102.959 143.446 105.204L153.808 115.582C153.808 115.582 157.097 111.267 156.526 108.467C156.526 108.467 150.497 104.086 149.583 100.747C149.059 98.8369 146.403 97.2356 144.228 96.229C142.861 95.6029 141.762 94.5546 141.114 93.2581C140.466 91.9617 140.307 90.4951 140.665 89.1022C140.792 88.6181 140.989 88.1526 141.249 87.7185C143.076 84.703 145.702 77.9185 145.702 77.9185L140.678 68.8867L135.766 70.044Z" fill="#3F3D56"/>
<path d="M141.248 118.752C141.248 118.752 147.985 119.829 148.214 120.475C148.442 121.121 148.214 119.614 148.214 119.614C148.214 119.614 152.096 108.521 151.194 98.7237C150.291 88.9262 152.336 82.4621 152.336 82.4621C152.336 82.4621 154.734 75.1391 153.363 70.9392C151.993 66.7392 137.604 68.57 137.604 68.57C137.604 68.57 142.628 79.6624 142.514 84.9393C142.514 84.9393 143.085 100.877 144.113 102.709C144.103 102.699 142.504 118.314 141.248 118.752Z" fill="#3F3D56"/>
<path d="M142.041 35.8271C142.041 35.8271 142.726 39.8068 149.578 38.0886L145.02 70.8245C145.02 70.8245 131.773 71.2551 131.887 69.7476L134.618 49.9346L142.041 35.8271Z" fill="#2E7EE5"/>
<path d="M142.221 35.7188C141.344 36.4148 140.273 36.8584 139.136 36.9966C138.136 37.0752 137.167 37.3648 136.302 37.8442C135.275 38.423 134.131 39.2641 133.784 40.2884C133.085 42.298 126.725 46.6548 124.729 45.9514L126.033 51.6505C126.033 51.6505 133.085 50.6378 134.083 48.4271L132.388 69.9408H133.886C133.886 69.9408 134.685 64.1127 135.284 62.9073C135.883 61.7019 137.081 55.0698 137.181 53.4621C137.28 51.8544 138.778 42.61 140.076 41.0113L142.222 36.3389L142.221 35.7188Z" fill="#2E7EE5"/>
<path d="M143.077 34.6445C146.482 34.6445 149.243 32.0409 149.243 28.8291C149.243 25.6173 146.482 23.0137 143.077 23.0137C139.671 23.0137 136.91 25.6173 136.91 28.8291C136.91 32.0409 139.671 34.6445 143.077 34.6445Z" fill="#ED9DA0"/>
<path d="M136.88 23.8766C136.843 22.9713 137.194 21.866 137.457 22.0848C137.641 21.1606 138.754 21.2975 139.077 21.5403C139.043 20.9714 140.953 20.0808 140.99 20.5003C140.992 20.5696 141.022 20.6355 141.075 20.684C141.132 20.7186 141.199 20.7352 141.267 20.7315C141.861 20.7531 142.455 20.7409 143.047 20.6949C143.775 20.6177 144.508 20.5809 145.24 20.5848C147.531 20.6755 149.834 22.1514 150.348 24.2582C150.454 24.7694 150.51 25.2887 150.515 25.8097L150.627 28.4691C150.692 29.2451 150.659 30.0257 150.527 30.7941C150.368 31.5034 150.046 32.171 149.582 32.7493C149.119 33.3275 148.526 33.8022 147.845 34.1395C147.019 33.0095 146.945 31.5572 146.658 30.2111C146.613 29.9006 146.491 29.6046 146.301 29.3472C146.203 29.2199 146.065 29.1245 145.907 29.0742C145.749 29.0239 145.579 29.0212 145.419 29.0664C145.109 29.1832 144.977 29.6281 145.233 29.8271C145.004 30.0821 144.576 29.892 144.317 29.6651C143.594 29.0182 143.096 28.1795 142.89 27.2601C142.787 26.7976 142.684 26.2276 142.202 26.0694C142.037 26.0265 141.864 26.0154 141.693 26.037C140.69 26.1018 139.12 26.493 138.149 26.1924C137.255 25.9166 136.88 24.6741 136.88 23.8766Z" fill="#3F3D56"/>
<path d="M149.186 34.7051L156.551 40.6819C156.551 40.6819 160.891 44.8821 159.064 51.6668C159.064 51.6668 158.264 61.5745 157.351 62.0053C157.351 62.0053 154.153 68.0361 153.925 73.7436L147.347 71.4073L143.158 70.4022L143.758 46.9329C143.758 46.9329 150.1 36.5265 149.186 34.7051Z" fill="#2E7EE5"/>
<path d="M152.554 59.9503C152.554 59.9503 154.381 58.7657 157.35 61.9966L150.041 74.4888L147.586 70.9937C147.586 70.9937 152.782 61.3502 152.554 59.9503Z" fill="#ED9DA0"/>
<path d="M23.9199 77.6376C23.9199 77.6376 24.1943 80.8727 26.2523 81.391C27.0243 81.5851 27.6033 81.215 28.0253 80.6765C28.4192 80.1607 28.6401 79.5452 28.6593 78.9097C28.6784 78.2743 28.4951 77.648 28.1329 77.1118L27.6245 76.3447L23.9199 77.6376Z" fill="#ED9DA0"/>
<path d="M14.2051 37.6219L14.3063 44.1599L20.9618 44.181C20.9618 44.181 19.2729 39.0629 20.0293 37.9927C20.7856 36.9226 14.2051 37.6219 14.2051 37.6219Z" fill="#ED9DA0"/>
<path d="M28.1969 89.2363L27.7899 102.675L23.4465 118.418C23.4465 118.418 24.3965 121.105 23.718 121.746C23.0394 122.386 19.918 123.538 19.918 123.538L22.4964 90.0047L28.1969 89.2363Z" fill="#3F3D56"/>
<path d="M18.7681 121.679C18.7681 121.679 17.2197 124.892 19.3881 125.184C21.5565 125.477 31.5712 126.255 30.9518 124.6C30.3324 122.944 22.7957 121.387 22.7957 121.387L18.7681 121.679Z" fill="#3F3D56"/>
<path d="M12.9961 77.3328C12.9961 77.3328 14.6249 85.652 15.7107 87.0604C16.7965 88.4687 15.1669 98.7069 15.1669 98.7069C15.1669 98.7069 12.7239 113.425 13.8097 115.729C14.8955 118.033 14.6241 117.265 14.4881 118.545C14.3521 119.825 14.0811 120.849 14.4881 122.002C14.8951 123.155 14.8951 123.026 15.0311 123.666C15.1671 124.305 15.0311 127.761 15.0311 127.761C15.0311 127.761 20.8669 129.681 21.8171 126.865C21.8171 126.865 20.4599 125.074 20.8671 123.666C21.2915 122.249 21.5195 120.787 21.5455 119.315V116.627L27.789 94.612L29.2818 86.6764C29.2818 86.6764 28.8748 78.6133 27.3818 77.8453C25.8888 77.0772 12.9961 77.3328 12.9961 77.3328Z" fill="#3F3D56"/>
<path d="M15.4407 127.12C15.4407 127.12 13.4049 131.344 16.2551 131.728C19.1053 132.112 32.2703 133.136 31.4551 130.96C30.6399 128.784 20.7333 126.736 20.7333 126.736L15.4407 127.12Z" fill="#3F3D56"/>
<path d="M17.4304 40.4794C20.724 40.4794 23.3939 37.9615 23.3939 34.8554C23.3939 31.7494 20.724 29.2314 17.4304 29.2314C14.1368 29.2314 11.4668 31.7494 11.4668 34.8554C11.4668 37.9615 14.1368 40.4794 17.4304 40.4794Z" fill="#ED9DA0"/>
<path d="M24.1256 47.7685C24.1256 47.7685 19.3756 42.0091 15.7108 44.4405C12.046 46.8719 10.6895 52.632 10.6895 52.632L11.5038 68.7592C11.5038 68.7592 13.5396 71.0631 12.3182 72.5989C11.0968 74.1348 10.4183 73.7507 11.3682 74.903C12.3182 76.0552 13.404 76.9509 12.997 77.3347C12.59 77.7185 13.404 77.9745 13.404 77.9745L27.7904 78.3583C27.7904 78.3583 27.3834 77.8462 28.6048 76.3104C29.8262 74.7745 28.3334 72.7268 28.6048 71.9593C28.8762 71.1919 29.1478 72.0872 29.2832 70.2954C29.4186 68.5036 24.1256 47.7685 24.1256 47.7685Z" fill="#E6E6E6"/>
<path d="M10.2135 41.3045C10.2135 41.3045 10.0779 43.8645 10.2135 44.2479C10.3491 44.6314 10.4849 45.0159 10.2135 45.3998C9.94211 45.7836 10.0779 47.0637 10.3491 47.1916C10.6203 47.3194 9.8063 48.4715 10.0777 49.2395C10.2443 49.6919 10.4724 50.1221 10.7561 50.5194C10.8917 50.7753 11.1103 51.2346 11.1103 51.2346C11.1103 51.2346 15.0991 43.2245 18.3565 45.1444C20.1687 46.2448 22.1322 47.1062 24.1922 47.7044C24.1922 47.7044 22.4298 38.7454 10.2135 41.3045Z" fill="#D6D6E3"/>
<path d="M16.1173 47.2553C16.1173 47.2553 11.7743 47.6391 12.0457 53.0147C12.3171 58.3903 11.6387 66.838 11.6387 66.838C11.6387 66.838 19.1032 77.5888 20.3248 78.3572C21.5464 79.1256 21.682 78.9969 21.5462 79.6371C21.4104 80.2772 21.2748 80.7889 21.8176 81.301C22.1381 81.6053 22.5039 81.864 22.9034 82.069C22.9034 82.069 27.2464 80.6612 26.839 79.3815C26.4316 78.1018 24.532 76.0535 24.532 76.0535C24.532 76.0535 21.2746 71.0619 21.1392 70.2941C21.0038 69.5262 21.0036 69.6543 20.5962 69.2701C20.1888 68.8859 19.1034 67.3502 19.1034 66.5826V64.1495L20.241 51.1543C20.2926 50.625 20.2248 50.0913 20.0421 49.5885C19.8594 49.0856 19.566 48.6249 19.181 48.2367C18.794 47.8498 18.3125 47.5581 17.7784 47.387C17.2444 47.216 16.6741 47.1708 16.1173 47.2553Z" fill="#E6E6E6"/>
<path opacity="0.1" d="M19.6111 58.3438L19.5391 67.1492L23.9632 73.4094L20.3433 66.3914L19.6111 58.3438Z" fill="#3F3D56"/>
<path d="M14.1696 39.1279C15.7862 39.0779 15.933 38.6752 17.5496 38.6252C18.0644 38.6094 18.6718 38.5428 18.9205 38.1175C18.993 37.9582 19.0254 37.7852 19.0149 37.6122C19.0045 37.4391 18.9517 37.2707 18.8605 37.1201C18.6761 36.8212 18.5098 36.5127 18.3626 36.196C18.2738 35.9476 18.2505 35.6827 18.2947 35.424C18.3389 35.1653 18.4493 34.9207 18.6162 34.7112C18.7831 34.5018 19.0016 34.3338 19.2528 34.2218C19.504 34.1099 19.7804 34.0573 20.0579 34.0686C20.5499 34.0886 21.0119 34.3068 21.5025 34.3466C22.1753 34.4013 23.6625 32.3062 23.3533 31.7404C23.0517 31.1895 22.4449 30.774 22.3495 30.1606C22.2871 29.7594 22.0563 29.5814 22.0803 29.1764C22.1159 28.5761 20.9089 29.7091 21.2043 29.1764C21.9291 27.8697 15.0988 26.2496 13.9742 27.8865C13.5542 28.4982 12.805 28.4565 12.1374 28.8239C11.6998 29.0648 10.595 29.8954 10.3438 30.4132C10.113 30.9415 10.0039 31.5101 10.0238 32.0812C10.0136 34.7372 10.4428 37.1805 12.7146 38.7505" fill="#3F3D56"/>
</svg>
