<svg width="24" height="24" viewBox="0 0 24 24" fill="none" xmlns="http://www.w3.org/2000/svg">
<g clip-path="url(#clip0_840_1365)">
<path d="M20.435 13.4773C21.9589 13.4773 23.1945 12.2425 23.1945 10.7186C23.1945 9.19466 21.9588 7.95898 20.435 7.95898C18.9115 7.95898 17.6758 9.19466 17.6758 10.7186C17.6758 12.2425 18.9115 13.4773 20.435 13.4773Z" fill="white"/>
<path d="M23.969 16.1362C23.846 15.3974 23.2353 14.3633 22.773 13.9014C22.7121 13.8401 22.44 13.826 22.3665 13.8715C21.8045 14.2172 21.1443 14.4206 20.4357 14.4206C19.7279 14.4206 19.0677 14.2172 18.5056 13.8715C18.4318 13.826 18.16 13.8401 18.0991 13.9014C17.9699 14.0306 17.8289 14.2026 17.6914 14.4021C18.0634 15.1024 18.3583 15.8463 18.4648 16.4869C18.5712 17.1291 18.5367 17.7371 18.3646 18.2913C18.9757 18.5125 19.7086 18.6095 20.4357 18.6095C22.332 18.6095 24.2726 17.952 23.969 16.1362Z" fill="white"/>
<path d="M11.9298 12.3133C14.3995 12.3133 16.4018 10.311 16.4018 7.84134C16.4018 5.37243 14.3995 3.37012 11.9298 3.37012C9.46055 3.37012 7.45898 5.37243 7.45898 7.84134C7.45898 10.311 9.4605 12.3133 11.9298 12.3133Z" fill="white"/>
<path d="M15.7156 12.9986C15.6186 12.902 15.1779 12.8773 15.0581 12.9515C14.1465 13.5124 13.0766 13.8408 11.9289 13.8408C10.7821 13.8408 9.71176 13.5124 8.8006 12.9515C8.68084 12.8773 8.24017 12.902 8.14314 12.9986C7.39215 13.7488 6.40239 15.4259 6.20326 16.6215C5.71229 19.5665 8.85798 20.6297 11.9289 20.6297C15.0008 20.6297 18.1464 19.5665 17.6554 16.6215C17.4563 15.4259 16.4665 13.7488 15.7156 12.9986Z" fill="white"/>
<path d="M3.56427 13.4773C5.0878 13.4773 6.32342 12.2425 6.32342 10.7186C6.32342 9.19466 5.0878 7.95898 3.56427 7.95898C2.04031 7.95898 0.804688 9.19466 0.804688 10.7186C0.804687 12.2425 2.04031 13.4773 3.56427 13.4773Z" fill="white"/>
<path d="M5.39505 16.4869C5.50821 15.8141 5.82748 15.022 6.22774 14.2894C6.11618 14.137 6.00466 14.0043 5.90173 13.9014C5.84083 13.8401 5.56905 13.826 5.49523 13.8715C4.93315 14.2172 4.27291 14.4206 3.56482 14.4206C2.85663 14.4206 2.19598 14.2172 1.63437 13.8715C1.56087 13.826 1.28833 13.8401 1.22744 13.9014C0.763991 14.3633 0.15485 15.3974 0.0314755 16.1362C-0.271712 17.952 1.66854 18.6094 3.56482 18.6094C4.24155 18.6094 4.92494 18.5261 5.50821 18.3357C5.32441 17.7701 5.28551 17.148 5.39505 16.4869Z" fill="white"/>
</g>
<defs>
<clipPath id="clip0_840_1365">
<rect width="24" height="24" fill="white"/>
</clipPath>
</defs>
</svg>
