<svg width="26" height="26" viewBox="0 0 26 26" fill="none" xmlns="http://www.w3.org/2000/svg">
<path d="M14.0678 13.3429L12.7164 13.1965C12.5315 13.1765 12.3752 13.055 12.3042 12.8831C12.3033 12.8811 12.3025 12.879 12.3017 12.877C12.2304 12.7052 12.2549 12.5087 12.3715 12.3638L13.2236 11.3048C13.3843 11.1051 13.3687 10.8165 13.1875 10.6352L11.5924 9.04015C11.4112 8.85891 11.1226 8.84332 10.9228 9.00399L9.86334 9.85646C9.71882 9.97275 9.52291 9.99743 9.35137 9.92684C9.34949 9.92608 9.34761 9.92532 9.34573 9.92455C9.17328 9.85377 9.05125 9.69716 9.03119 9.5118L8.88479 8.15981C8.85721 7.90498 8.64211 7.71191 8.38581 7.71191H6.13001C5.87371 7.71191 5.65861 7.90498 5.63103 8.15981L5.48463 9.5118C5.46457 9.69711 5.34249 9.85377 5.17004 9.92455C5.16816 9.92532 5.16628 9.92608 5.16445 9.92684C4.99291 9.99748 4.797 9.97275 4.65248 9.85646L3.59288 9.00399C3.3932 8.84332 3.10456 8.85891 2.92338 9.04015L1.32829 10.6352C1.14705 10.8165 1.13146 11.1051 1.29213 11.3048L2.14424 12.3638C2.26083 12.5088 2.28536 12.7052 2.21411 12.877C2.21325 12.879 2.21244 12.8811 2.21157 12.8831C2.14053 13.055 1.98423 13.1765 1.79933 13.1965L0.447891 13.3429C0.19307 13.3705 0 13.5856 0 13.8419V16.0977C0 16.354 0.19307 16.5691 0.447891 16.5967L1.79928 16.743C1.98418 16.763 2.14053 16.8845 2.21152 17.0564C2.21239 17.0584 2.2132 17.0605 2.21406 17.0625C2.28531 17.2343 2.26078 17.4308 2.14419 17.5757L1.29208 18.6348C1.13141 18.8344 1.147 19.1231 1.32823 19.3043L2.92332 20.8994C3.10456 21.0806 3.3932 21.0962 3.59288 20.9356L4.65237 20.0831C4.7969 19.9667 4.99281 19.9421 5.16435 20.0127C5.16623 20.0135 5.16811 20.0142 5.16999 20.015C5.34244 20.0858 5.46447 20.2424 5.48453 20.4277L5.63093 21.7797C5.6585 22.0346 5.87361 22.2276 6.12991 22.2276H8.38571C8.642 22.2276 8.85711 22.0346 8.88469 21.7797L9.03109 20.4277C9.05115 20.2424 9.17318 20.0858 9.34563 20.015C9.34751 20.0142 9.34939 20.0135 9.35122 20.0127C9.52275 19.9421 9.71867 19.9667 9.86324 20.0831L10.9227 20.9356C11.1224 21.0962 11.4111 21.0806 11.5923 20.8994L13.1874 19.3043C13.3686 19.1231 13.3842 18.8344 13.2235 18.6348L12.3714 17.5757C12.2548 17.4308 12.2303 17.2344 12.3016 17.0625C12.3024 17.0605 12.3032 17.0585 12.3041 17.0564C12.3751 16.8845 12.5314 16.763 12.7163 16.743L14.0677 16.5967C14.3225 16.569 14.5156 16.3539 14.5156 16.0977V13.8419C14.5157 13.5856 14.3226 13.3705 14.0678 13.3429ZM7.25786 17.2325C6.00818 17.2325 4.9951 16.2194 4.9951 14.9698C4.9951 13.7201 6.00818 12.707 7.25786 12.707C8.50753 12.707 9.52062 13.7201 9.52062 14.9698C9.52062 16.2194 8.50753 17.2325 7.25786 17.2325Z" fill="white"/>
<path d="M25.7693 11.0811L24.8416 10.3485C24.6938 10.2318 24.6117 10.0529 24.6116 9.86457C24.6116 9.86259 24.6116 9.86061 24.6116 9.85857C24.6113 9.66982 24.6934 9.49046 24.8416 9.37351L25.7693 8.64084C25.9817 8.47306 26.0569 8.18457 25.9533 7.93447L25.5458 6.95064C25.4422 6.70049 25.185 6.54967 24.9162 6.58125L23.7421 6.71918C23.5547 6.74122 23.3698 6.67246 23.2366 6.53875C23.2352 6.53733 23.2338 6.53591 23.2323 6.53454C23.0992 6.40129 23.0307 6.21675 23.0527 6.02972L23.1907 4.85571C23.2222 4.58687 23.0714 4.32972 22.8213 4.22612L21.8374 3.81865C21.5873 3.71506 21.2989 3.79022 21.1311 4.00263L20.3984 4.93031C20.2817 5.07813 20.1028 5.16014 19.9145 5.16024C19.9124 5.16024 19.9104 5.16024 19.9085 5.16024C19.7198 5.16055 19.5404 5.07843 19.4234 4.93031L18.6907 4.00258C18.5229 3.79011 18.2344 3.71496 17.9843 3.81855L17.0005 4.22607C16.7504 4.32966 16.5995 4.58682 16.6311 4.85571L16.769 6.02977C16.7911 6.2172 16.7223 6.4021 16.5886 6.53535C16.5872 6.53677 16.5857 6.53819 16.5843 6.53961C16.4511 6.67276 16.2666 6.74122 16.0795 6.71923L14.9055 6.58131C14.6366 6.54972 14.3795 6.70059 14.2759 6.95069L13.8684 7.93452C13.7648 8.18462 13.84 8.47316 14.0524 8.64094L14.9801 9.37356C15.1279 9.49031 15.2099 9.66916 15.21 9.85751C15.21 9.85954 15.21 9.86152 15.21 9.8635C15.2104 10.0523 15.1282 10.2316 14.9801 10.3486L14.0524 11.0812C13.8399 11.249 13.7647 11.5375 13.8684 11.7876L14.2759 12.7714C14.3795 13.0215 14.6366 13.1724 14.9054 13.1408L16.0796 13.0029C16.267 12.9809 16.4519 13.0496 16.5851 13.1833C16.5866 13.1847 16.5879 13.1862 16.5894 13.1875C16.7225 13.3208 16.791 13.5053 16.769 13.6924L16.631 14.8664C16.5995 15.1353 16.7503 15.3924 17.0004 15.496L17.9843 15.9035C18.2344 16.0071 18.5228 15.932 18.6907 15.7195L19.4233 14.7918C19.54 14.644 19.7189 14.562 19.9072 14.5619C19.9092 14.5619 19.9112 14.5619 19.9132 14.5619C20.1019 14.5615 20.2814 14.6437 20.3983 14.7918L21.131 15.7195C21.2988 15.932 21.5872 16.0072 21.8374 15.9036L22.8212 15.4961C23.0713 15.3925 23.2222 15.1353 23.1906 14.8665L23.0527 13.6924C23.0306 13.505 23.0994 13.32 23.2331 13.1868C23.2345 13.1854 23.236 13.184 23.2374 13.1826C23.3706 13.0495 23.5551 12.981 23.7422 13.003L24.9163 13.1409C25.1851 13.1725 25.4422 13.0216 25.5458 12.7715L25.9534 11.7877C26.0569 11.5375 25.9817 11.2489 25.7693 11.0811ZM20.5124 11.6138C19.5686 12.0047 18.4867 11.5565 18.0958 10.6128C17.7049 9.66901 18.1531 8.58711 19.0968 8.1962C20.0405 7.80529 21.1224 8.25343 21.5134 9.1972C21.9042 10.1409 21.4561 11.2229 20.5124 11.6138Z" fill="white"/>
</svg>
