<svg width="20" height="20" viewBox="0 0 20 20" fill="none" xmlns="http://www.w3.org/2000/svg">
<path d="M19.9 4.41898C19.8005 3.90261 19.6247 3.39784 19.3745 2.92058C19.1249 2.4439 18.7983 1.9971 18.4004 1.59917C17.8706 1.06878 17.2517 0.666554 16.5931 0.39921C15.605 3.04356e-05 14.5295 -0.100048 13.4968 0.100148C12.9804 0.200265 12.4751 0.373585 11.9984 0.624445C11.5229 0.875304 11.0749 1.20062 10.677 1.59917L8.08911 4.18706C7.56665 4.70831 7.56665 5.55609 8.08911 6.07734C8.61157 6.59859 9.45751 6.59859 9.97938 6.07734L12.5673 3.48823C12.8419 3.2148 13.1538 3.01276 13.4889 2.87605C13.9906 2.6728 14.5448 2.62093 15.0728 2.72347C15.3365 2.77476 15.5934 2.86386 15.8357 2.99081C16.0774 3.11777 16.3045 3.28257 16.5108 3.48823C16.7854 3.76472 16.9868 4.07601 17.1235 4.41046C17.3268 4.91218 17.3786 5.46698 17.2761 5.99433C17.2248 6.25862 17.1357 6.51558 17.0094 6.75667C16.8812 6.9996 16.717 7.22663 16.5108 7.43296L13.9229 10.0202C13.401 10.5421 13.401 11.3892 13.9229 11.9105C14.4447 12.4317 15.2907 12.4317 15.8125 11.9105L18.4004 9.32202C18.9314 8.79222 19.333 8.17335 19.5997 7.51476C20.0001 6.52655 20.0996 5.45109 19.9 4.41898Z" fill="white"/>
<path d="M10.0211 13.9227L7.43261 16.5112C7.15734 16.7853 6.84546 16.9873 6.51097 17.1234C6.00925 17.3273 5.45445 17.3792 4.9271 17.2772C4.66281 17.2254 4.40648 17.1356 4.16417 17.0093C3.92246 16.8817 3.69542 16.7163 3.48914 16.5113C3.21449 16.2354 3.01246 15.9241 2.87632 15.589C2.67308 15.0879 2.62121 14.5331 2.72312 14.0045C2.77441 13.7409 2.8641 13.4839 2.99046 13.2422C3.11863 13.0005 3.28281 12.7734 3.48914 12.5665L6.07765 9.97864C6.5989 9.45739 6.5989 8.61083 6.07765 8.08962C5.55519 7.56778 4.70925 7.56778 4.18738 8.08962L1.59949 10.6769C1.06847 11.2079 0.666869 11.8256 0.399526 12.4854C-0.000240132 13.4723 -0.0997324 14.5496 0.099838 15.5799C0.19933 16.0962 0.374486 16.6016 0.625346 17.0783C0.87558 17.5549 1.20152 18.0029 1.59949 18.4003C2.1305 18.9307 2.74816 19.3335 3.40675 19.599C4.39429 20 5.47097 20.0995 6.50246 19.8999C7.01941 19.7998 7.52417 19.6247 8.00027 19.3744C8.47695 19.1248 8.92496 18.7983 9.32289 18.4003L11.9108 15.8118C12.432 15.2905 12.432 14.444 11.9108 13.9227C11.3883 13.4008 10.5423 13.4008 10.0211 13.9227Z" fill="white"/>
<path d="M13.3769 6.62336C12.8557 6.10211 12.0091 6.10211 11.4873 6.62336L6.62336 11.4866C6.10211 12.0085 6.10211 12.8545 6.62336 13.3757C7.14582 13.8981 7.99238 13.8981 8.51363 13.3757L13.3769 8.51238C13.8994 7.99055 13.8994 7.1452 13.3769 6.62336Z" fill="white"/>
</svg>
