<svg width="21" height="20" viewBox="0 0 21 20" fill="none" xmlns="http://www.w3.org/2000/svg">
<path d="M12.9567 9.0293L16.3508 4.53203C16.6442 4.14367 16.8036 3.68109 16.8036 3.20664V1.80195H17.7843V0H3.2168V1.80195H4.19756V3.20664C4.19756 3.68105 4.35695 4.14367 4.65033 4.53203L8.04446 9.0293C8.16599 9.19086 8.22788 9.37527 8.22833 9.56309V10.4365C8.22788 10.6243 8.16599 10.8088 8.04446 10.9703L4.65033 15.468C4.35691 15.8564 4.19756 16.3189 4.19756 16.7929V18.198H3.2168V20H17.7843V18.1981H16.8036V16.793C16.8036 16.3189 16.6441 15.8564 16.3508 15.468L12.9567 10.9703C12.8352 10.8088 12.7729 10.6243 12.7729 10.4365V9.56309C12.7729 9.37527 12.8352 9.19086 12.9567 9.0293ZM15.8576 18.0179H5.14363V16.793C5.14363 16.5106 5.2376 16.2337 5.41827 15.9937L8.81244 11.4961C9.04655 11.1861 9.17436 10.816 9.17436 10.4365V9.56309C9.17436 9.18363 9.04659 8.81301 8.81244 8.50355L5.41872 4.00629C5.23756 3.76586 5.14359 3.48941 5.14359 3.20664V1.98215H15.8575V3.20664C15.8571 3.48941 15.7636 3.76586 15.5824 4.00629L12.1882 8.50355C11.9545 8.81301 11.8268 9.18363 11.8268 9.56309V10.4365C11.8268 10.816 11.9545 11.1861 12.1882 11.4961L15.5828 15.9937C15.7636 16.2337 15.857 16.5106 15.8575 16.793V18.0179H15.8576Z" fill="white"/>
<path d="M9.69167 9.09914H11.3104C11.379 8.77437 11.5192 8.46488 11.728 8.18844L14.168 4.95508H6.83398L9.27409 8.18844C9.48286 8.46488 9.62264 8.77441 9.69167 9.09914Z" fill="white"/>
<path d="M10.1215 14.9053L7.42188 17.4768H13.5797L10.8801 14.9053C10.6705 14.706 10.3312 14.706 10.1215 14.9053Z" fill="white"/>
<path d="M10.485 9.6875C10.2517 9.6875 10.0625 9.86773 10.0625 10.0903C10.0625 10.3125 10.2517 10.4927 10.485 10.4927C10.7183 10.4927 10.9079 10.3125 10.9079 10.0903C10.9079 9.86773 10.7183 9.6875 10.485 9.6875Z" fill="white"/>
<path d="M10.485 11.3096C10.2517 11.3096 10.0625 11.4898 10.0625 11.7119C10.0625 11.9345 10.2517 12.1147 10.485 12.1147C10.7183 12.1147 10.9079 11.9345 10.9079 11.7119C10.9079 11.4898 10.7183 11.3096 10.485 11.3096Z" fill="white"/>
<path d="M10.485 12.9785C10.2517 12.9785 10.0625 13.1587 10.0625 13.3813C10.0625 13.6034 10.2517 13.7841 10.485 13.7841C10.7183 13.7841 10.9079 13.6034 10.9079 13.3813C10.9079 13.1587 10.7183 12.9785 10.485 12.9785Z" fill="white"/>
</svg>
