<svg width="25" height="25" viewBox="0 0 25 25" fill="none" xmlns="http://www.w3.org/2000/svg">
<g clip-path="url(#clip0_840_1335)">
<path d="M24.9436 11.2952C24.675 8.49287 23.463 5.76147 21.314 3.62793L20.3613 4.58652C22.553 6.76416 23.6481 9.62812 23.649 12.4993C23.649 12.6771 23.6446 12.8549 23.6362 13.0327C23.5094 15.698 22.4372 18.3221 20.4138 20.3599L21.3732 21.3122C23.4896 19.1822 24.6807 16.4712 24.9446 13.6926C24.9823 13.2957 25.0011 12.8973 25.0009 12.4992C25.0011 12.0977 24.9818 11.6956 24.9436 11.2952Z" fill="white"/>
<path d="M17.7546 14.8115C18.0776 14.0755 18.2448 13.2874 18.2446 12.4993C18.245 11.0241 17.6784 9.54287 16.5503 8.42285L15.5977 9.38232C16.461 10.2404 16.8915 11.3661 16.8927 12.4993C16.8915 13.6222 16.469 14.739 15.6181 15.5964L16.5771 16.549H16.5773H16.5775C17.0897 16.0333 17.4786 15.4414 17.7546 14.8115Z" fill="white"/>
<path d="M18.9312 6.02539L17.9785 6.98486C19.5058 8.50254 20.269 10.4975 20.2698 12.4997C20.269 14.4843 19.5194 16.4629 18.0146 17.9786L18.9744 18.9312C20.7392 17.1545 21.6222 14.8235 21.6218 12.4997C21.6222 10.1555 20.7232 7.80493 18.9312 6.02539Z" fill="white"/>
<path d="M1.3647 11.9661C1.49146 9.30034 2.56362 6.67666 4.58706 4.63921L3.62803 3.68652C1.20933 6.12046 -0.000829651 9.31357 4.26737e-07 12.4995C-0.000829651 15.7126 1.23096 18.9322 3.68687 21.3721L4.63955 20.413C2.4479 18.2354 1.35269 15.3707 1.3519 12.4995C1.3519 12.3217 1.3563 12.1435 1.3647 11.9661Z" fill="white"/>
<path d="M6.98525 7.02061L6.02617 6.06836C4.26143 7.84395 3.37808 10.1753 3.37891 12.4995C3.37891 12.7926 3.39273 13.0857 3.4207 13.3776C3.6167 15.4223 4.50112 17.4165 6.06904 18.9738L7.02207 18.0144C5.49399 16.4967 4.73154 14.5017 4.73076 12.4995C4.73159 10.5148 5.48076 8.53589 6.98525 7.02061Z" fill="white"/>
<path d="M8.10776 12.4994C8.10898 11.3766 8.53184 10.2602 9.38237 9.40322L8.42329 8.4502C7.31206 9.56743 6.75547 11.0371 6.75586 12.4995C6.75547 13.9743 7.32207 15.4555 8.4501 16.576L9.40313 15.6173C8.64731 14.8653 8.22324 13.9094 8.12832 12.9235C8.11475 12.7826 8.10796 12.6408 8.10776 12.4994Z" fill="white"/>
<path d="M12.4948 10.8096C11.5614 10.8124 10.8074 11.5716 10.8106 12.5051C10.8138 13.4385 11.5726 14.1925 12.506 14.1898C13.4395 14.1866 14.1935 13.4273 14.1903 12.4939C14.1871 11.5604 13.4283 10.8068 12.4948 10.8096Z" fill="white"/>
</g>
<defs>
<clipPath id="clip0_840_1335">
<rect width="25" height="25" fill="white"/>
</clipPath>
</defs>
</svg>
