<svg width="24" height="24" viewBox="0 0 24 24" fill="none" xmlns="http://www.w3.org/2000/svg">
<g clip-path="url(#clip0_840_1459)">
<path d="M6.76758 0C3.32737 0 0.539062 1.35792 0.539062 3.0337V4.65384C0.539062 6.32958 3.32737 7.6875 6.76758 7.6875C10.2063 7.6875 12.9953 6.32958 12.9953 4.6538V3.0337C12.9953 1.35792 10.2063 0 6.76758 0ZM6.76758 1.25977C9.79983 1.25977 11.7349 2.42433 11.7349 3.0337C11.7349 3.64308 9.79983 4.80764 6.76758 4.80764C3.73387 4.80764 1.79958 3.64308 1.79958 3.0337C1.79958 2.42433 3.73387 1.25977 6.76758 1.25977Z" fill="white"/>
<path d="M6.76683 10.1248C7.91892 10.1248 8.9978 9.97103 9.92358 9.70586C9.0322 10.4896 8.30273 11.4578 7.78856 12.5448C7.45748 12.5718 7.11619 12.5872 6.76683 12.5872C3.32812 12.5872 0.539062 11.2271 0.539062 9.55206V7.64777C0.539062 7.61702 0.5625 7.58917 0.59325 7.58622C0.607922 7.58181 0.624 7.58917 0.635016 7.60525C0.627703 7.60525 0.635016 7.62723 0.677484 7.73125C1.28025 9.09944 3.77709 10.1248 6.76683 10.1248Z" fill="white"/>
<path d="M6.93895 16.3172C6.93895 16.6907 6.96239 17.0555 7.01147 17.4158C6.93164 17.4203 6.85031 17.4203 6.76683 17.4203C3.32812 17.4203 0.539062 16.0638 0.539062 14.3895V12.4801C0.539062 12.453 0.5625 12.4266 0.59325 12.4223C0.618141 12.4193 0.634266 12.434 0.645984 12.4516C0.631313 12.4325 0.615938 12.4223 0.677484 12.5687C1.28025 13.9354 3.77709 14.9623 6.76683 14.9623C6.85912 14.9623 6.95508 14.9623 7.04662 14.9535C6.97336 15.3995 6.93895 15.8528 6.93895 16.3172Z" fill="white"/>
<path d="M9.05564 22.0443C8.34886 22.1835 7.57687 22.256 6.76683 22.256C3.32812 22.256 0.539062 20.9003 0.539062 19.2216V17.3159C0.539062 17.2851 0.5625 17.2617 0.59325 17.2587C0.616688 17.2543 0.638672 17.266 0.646734 17.2895C0.631359 17.2704 0.612328 17.2514 0.677484 17.4008C1.28025 18.7719 3.77709 19.7973 6.76683 19.7973C7.062 19.7973 7.35787 19.7856 7.64208 19.7665C7.99509 20.6 8.47556 21.3691 9.05564 22.0443Z" fill="white"/>
<path d="M18.1824 15.821H16.5242L16.3469 16.0971V16.7607H18.1824V16.7636V17.5678V17.7026H16.3469V19.125H15.2065V17.7026H13.3711V17.5678V16.7636V16.7607H15.2065V16.0986L15.0285 15.821H13.3711V15.0161H14.5108L13.5418 13.5088H14.5078L15.7764 15.4819L17.0449 13.5088H18.0117L17.0427 15.0161H18.1824V15.821Z" fill="white"/>
<path d="M15.7761 10.5542C18.9534 10.5542 21.5389 13.1396 21.5389 16.3169C21.5389 19.4942 18.9534 22.0796 15.7761 22.0796C12.5996 22.0796 10.0142 19.4942 10.0142 16.3169C10.0142 13.1396 12.5996 10.5542 15.7761 10.5542ZM15.7761 8.63379C11.5325 8.63379 8.09375 12.074 8.09375 16.3169C8.09375 20.5605 11.5325 24 15.7761 24C20.0198 24 23.46 20.5605 23.46 16.3169C23.4599 12.0739 20.0198 8.63379 15.7761 8.63379Z" fill="white"/>
</g>
<defs>
<clipPath id="clip0_840_1459">
<rect width="24" height="24" fill="white"/>
</clipPath>
</defs>
</svg>
