<svg width="450" height="341" viewBox="0 0 450 341" fill="none" xmlns="http://www.w3.org/2000/svg">
<rect width="90" height="90" rx="4" fill="#2A7BE4" fill-opacity="0.6"/>
<rect x="402" y="42" width="6" height="6" rx="3" fill="#2A7BE4" fill-opacity="0.6"/>
<rect x="402" y="28" width="6" height="6" rx="3" fill="#2A7BE4" fill-opacity="0.6"/>
<rect x="402" y="14" width="6" height="6" rx="3" fill="#2A7BE4" fill-opacity="0.6"/>
<rect x="402" width="6" height="6" rx="3" fill="#2A7BE4" fill-opacity="0.6"/>
<rect x="416" y="42" width="6" height="6" rx="3" fill="#2A7BE4" fill-opacity="0.6"/>
<rect x="416" y="28" width="6" height="6" rx="3" fill="#2A7BE4" fill-opacity="0.6"/>
<rect x="416" y="14" width="6" height="6" rx="3" fill="#2A7BE4" fill-opacity="0.6"/>
<rect x="416" width="6" height="6" rx="3" fill="#2A7BE4" fill-opacity="0.6"/>
<rect x="430" y="42" width="6" height="6" rx="3" fill="#2A7BE4" fill-opacity="0.6"/>
<rect x="430" y="28" width="6" height="6" rx="3" fill="#2A7BE4" fill-opacity="0.6"/>
<rect x="430" y="14" width="6" height="6" rx="3" fill="#2A7BE4" fill-opacity="0.6"/>
<rect x="430" width="6" height="6" rx="3" fill="#2A7BE4" fill-opacity="0.6"/>
<rect x="444" y="42" width="6" height="6" rx="3" fill="#2A7BE4" fill-opacity="0.6"/>
<rect x="444" y="28" width="6" height="6" rx="3" fill="#2A7BE4" fill-opacity="0.6"/>
<rect x="444" y="14" width="6" height="6" rx="3" fill="#2A7BE4" fill-opacity="0.6"/>
<rect x="444" width="6" height="6" rx="3" fill="#2A7BE4" fill-opacity="0.6"/>
<rect x="21" y="335" width="6" height="6" rx="3" fill="#2A7BE4" fill-opacity="0.6"/>
<rect x="21" y="321" width="6" height="6" rx="3" fill="#2A7BE4" fill-opacity="0.6"/>
<rect x="21" y="307" width="6" height="6" rx="3" fill="#2A7BE4" fill-opacity="0.6"/>
<rect x="21" y="293" width="6" height="6" rx="3" fill="#2A7BE4" fill-opacity="0.6"/>
<rect x="35" y="335" width="6" height="6" rx="3" fill="#2A7BE4" fill-opacity="0.6"/>
<rect x="35" y="321" width="6" height="6" rx="3" fill="#2A7BE4" fill-opacity="0.6"/>
<rect x="35" y="307" width="6" height="6" rx="3" fill="#2A7BE4" fill-opacity="0.6"/>
<rect x="35" y="293" width="6" height="6" rx="3" fill="#2A7BE4" fill-opacity="0.6"/>
<rect x="49" y="335" width="6" height="6" rx="3" fill="#2A7BE4" fill-opacity="0.6"/>
<rect x="49" y="321" width="6" height="6" rx="3" fill="#2A7BE4" fill-opacity="0.6"/>
<rect x="49" y="307" width="6" height="6" rx="3" fill="#2A7BE4" fill-opacity="0.6"/>
<rect x="49" y="293" width="6" height="6" rx="3" fill="#2A7BE4" fill-opacity="0.6"/>
<rect x="63" y="335" width="6" height="6" rx="3" fill="#2A7BE4" fill-opacity="0.6"/>
<rect x="63" y="321" width="6" height="6" rx="3" fill="#2A7BE4" fill-opacity="0.6"/>
<rect x="63" y="307" width="6" height="6" rx="3" fill="#2A7BE4" fill-opacity="0.6"/>
<rect x="63" y="293" width="6" height="6" rx="3" fill="#2A7BE4" fill-opacity="0.6"/>
<path d="M401.276 26H37.0232C27.6338 26 20 33.2041 20 42.0539V296.77C20 305.62 27.6338 312.824 37.0232 312.824H401.276C410.661 312.824 418.3 305.62 418.3 296.77V42.0539C418.3 33.2047 410.661 26 401.276 26ZM418.144 296.771C418.144 297.169 418.128 297.566 418.097 297.959C418.086 298.072 418.076 298.18 418.066 298.293C417.998 298.961 417.889 299.619 417.732 300.263C417.707 300.385 417.675 300.508 417.639 300.631C417.618 300.719 417.592 300.813 417.566 300.905C417.243 302.045 416.785 303.13 416.212 304.152C416.155 304.265 416.092 304.373 416.024 304.481C415.894 304.707 415.759 304.923 415.613 305.139C415.55 305.237 415.483 305.34 415.41 305.439C415.342 305.542 415.269 305.645 415.191 305.748C414.989 306.033 414.769 306.313 414.541 306.583C414.442 306.706 414.343 306.818 414.239 306.932C414.088 307.113 413.921 307.285 413.755 307.462C413.656 307.566 413.557 307.664 413.453 307.762C413.281 307.939 413.094 308.111 412.906 308.278C412.901 308.283 412.896 308.292 412.885 308.297C412.51 308.636 412.12 308.955 411.708 309.259C411.698 309.264 411.692 309.269 411.682 309.279C411.073 309.735 410.427 310.147 409.75 310.516C409.527 310.644 409.292 310.767 409.058 310.879C409.021 310.894 408.985 310.914 408.948 310.934C408.75 311.032 408.547 311.125 408.344 311.208C408.104 311.317 407.859 311.419 407.614 311.508C407.365 311.606 407.114 311.695 406.865 311.778C406.62 311.862 406.37 311.94 406.12 312.009C406.109 312.009 406.094 312.014 406.078 312.019C405.829 312.092 405.573 312.156 405.318 312.215C405.058 312.279 404.792 312.333 404.527 312.377C404.256 312.431 403.985 312.475 403.714 312.509C403.475 312.544 403.241 312.574 403.001 312.593C402.965 312.593 402.923 312.598 402.886 312.603C402.496 312.637 402.105 312.662 401.709 312.671C401.563 312.676 401.422 312.676 401.277 312.676H37.0232C36.8772 312.676 36.7366 312.676 36.5913 312.671C36.1956 312.661 35.8046 312.637 35.4143 312.603C35.378 312.598 35.3363 312.593 35.3 312.593C35.0603 312.574 34.8258 312.544 34.5867 312.509C34.3159 312.475 34.0451 312.431 33.7743 312.377C33.5088 312.333 33.2433 312.278 32.9831 312.215C32.7281 312.156 32.4725 312.092 32.2228 312.019C32.207 312.014 32.1918 312.009 32.1812 312.009C31.9316 311.94 31.6812 311.861 31.4369 311.778C31.1872 311.695 30.9369 311.606 30.6872 311.508C30.4422 311.419 30.1978 311.317 29.9581 311.208C29.7546 311.125 29.5519 311.031 29.3537 310.934C29.3174 310.914 29.2811 310.894 29.2441 310.879C29.0096 310.767 28.7751 310.644 28.5512 310.516C27.8742 310.148 27.2283 309.735 26.6193 309.279C26.6088 309.269 26.6035 309.264 26.5936 309.259C26.1821 308.955 25.7918 308.636 25.4166 308.297C25.406 308.292 25.4007 308.282 25.3955 308.278C25.2079 308.111 25.0203 307.939 24.8486 307.762C24.7442 307.664 24.6452 307.566 24.5467 307.462C24.3803 307.285 24.2132 307.113 24.0626 306.932C23.9583 306.819 23.8592 306.706 23.7608 306.583C23.5316 306.312 23.313 306.033 23.1095 305.748C23.0316 305.645 22.9583 305.542 22.8909 305.439C22.8176 305.34 22.7502 305.237 22.6875 305.139C22.5415 304.923 22.4061 304.707 22.276 304.481C22.208 304.373 22.1459 304.265 22.0884 304.152C21.5158 303.13 21.0574 302.045 20.7345 300.905C20.7087 300.812 20.6823 300.719 20.6618 300.631C20.6255 300.508 20.5938 300.385 20.568 300.263C20.4115 299.619 20.3025 298.961 20.2345 298.293C20.2239 298.18 20.2133 298.072 20.2034 297.959C20.1724 297.566 20.1565 297.169 20.1565 296.771V42.0545C20.1565 41.6565 20.1724 41.2591 20.2034 40.866C20.214 40.7433 20.2246 40.6156 20.2398 40.4929C20.3078 39.8352 20.4168 39.1961 20.568 38.5676C20.5938 38.44 20.6255 38.3172 20.6618 38.1945C20.6876 38.0868 20.7193 37.9734 20.7503 37.8707C21.0733 36.7507 21.5264 35.6807 22.0884 34.6735C22.1512 34.5607 22.2133 34.4523 22.276 34.3446C22.5362 33.9023 22.8176 33.4751 23.1194 33.0578C23.1921 32.9643 23.2654 32.8665 23.3381 32.7681C23.4735 32.5912 23.6141 32.4143 23.7601 32.2424C24.1353 31.7908 24.5362 31.3635 24.9628 30.9506C25.0566 30.8571 25.1504 30.7687 25.2495 30.6802C25.2964 30.631 25.3486 30.5868 25.3955 30.5476C25.4424 30.5033 25.4893 30.4591 25.5361 30.4249C25.6821 30.2872 25.8327 30.1595 25.9892 30.0368C26.1299 29.9191 26.2812 29.8008 26.4318 29.688C26.4945 29.6388 26.5566 29.5896 26.6193 29.5454C26.6557 29.5161 26.692 29.4862 26.7343 29.4619C26.8954 29.3442 27.0572 29.2259 27.2237 29.1131C27.2395 29.1081 27.2494 29.0982 27.2653 29.0838C27.4634 28.9512 27.6715 28.8235 27.8749 28.6958C27.896 28.6858 27.9165 28.6715 27.9377 28.6565C28.1404 28.5338 28.3438 28.4161 28.5519 28.3077C28.7758 28.1801 29.0103 28.0623 29.2447 27.9446C29.2811 27.9247 29.3174 27.9103 29.3544 27.8904C29.5525 27.792 29.7553 27.6992 29.9587 27.6157C30.1985 27.508 30.4429 27.4096 30.6879 27.3161C30.9329 27.2177 31.1826 27.1293 31.4375 27.0458C32.1925 26.7904 32.9738 26.5892 33.7756 26.4466C34.0464 26.3924 34.3172 26.3482 34.588 26.3139C34.8278 26.2797 35.0616 26.2498 35.3013 26.2305C35.3377 26.2305 35.3793 26.2255 35.4156 26.2205C35.5351 26.2055 35.66 26.1956 35.7855 26.1956C35.9367 26.1806 36.0873 26.1713 36.2386 26.1663C36.4988 26.1514 36.759 26.1464 37.0245 26.1464H401.278C401.543 26.1464 401.804 26.1514 402.064 26.1663C402.216 26.1713 402.366 26.1813 402.518 26.1956C402.642 26.1956 402.768 26.2055 402.887 26.2205C402.924 26.2255 402.965 26.2305 403.002 26.2305C403.242 26.2498 403.476 26.2797 403.716 26.3139C403.986 26.3482 404.257 26.3924 404.528 26.4466C405.33 26.5892 406.111 26.7904 406.866 27.0458C407.121 27.1293 407.371 27.2177 407.616 27.3161C407.861 27.4096 408.105 27.5074 408.345 27.6157C408.548 27.6992 408.751 27.7926 408.949 27.8904C408.986 27.9103 409.022 27.9247 409.059 27.9446C409.293 28.0623 409.528 28.1801 409.752 28.3077C409.96 28.4155 410.163 28.5338 410.366 28.6565C410.387 28.6715 410.408 28.6858 410.429 28.6958C410.632 28.8235 410.84 28.9512 411.038 29.0838C411.054 29.0988 411.064 29.1081 411.079 29.1131C411.246 29.2259 411.408 29.3436 411.569 29.4619C411.61 29.4862 411.647 29.5161 411.683 29.5454C411.746 29.5896 411.808 29.6388 411.871 29.688C412.022 29.8008 412.172 29.9191 412.313 30.0368C412.47 30.1595 412.62 30.2872 412.766 30.4249C412.813 30.4591 412.86 30.5033 412.907 30.5476C412.954 30.5868 413.006 30.631 413.053 30.6802C413.152 30.7687 413.246 30.8571 413.34 30.9506C413.766 31.3629 414.168 31.7902 414.542 32.2424C414.688 32.4143 414.829 32.5912 414.964 32.7681C415.037 32.8665 415.11 32.9643 415.183 33.0578C415.485 33.4751 415.766 33.9023 416.026 34.3446C416.089 34.4523 416.151 34.5607 416.214 34.6735C416.777 35.68 417.229 36.7507 417.552 37.8707C417.583 37.9741 417.615 38.0868 417.641 38.1945C417.677 38.3172 417.709 38.44 417.734 38.5676C417.886 39.1961 417.995 39.8346 418.063 40.4929C418.078 40.6156 418.088 40.7433 418.099 40.866C418.13 41.2591 418.146 41.6565 418.146 42.0545V296.771H418.144Z" fill="#DFDFDF"/>
<path d="M401.276 38.1797H37.0229C34.7575 38.1797 32.9141 39.9181 32.9141 42.0546V296.771C32.9141 298.907 34.7575 300.646 37.0229 300.646H401.276C403.542 300.646 405.385 298.907 405.385 296.771V42.0546C405.385 39.9175 403.542 38.1797 401.276 38.1797Z" fill="white"/>
<path d="M401.277 37.9336H37.0234C34.6146 37.9336 32.6543 39.7817 32.6543 42.0539V296.77C32.6543 299.042 34.6139 300.89 37.0234 300.89H401.277C403.686 300.89 405.646 299.042 405.646 296.77V42.0539C405.646 39.7823 403.686 37.9336 401.277 37.9336ZM405.386 296.771C405.386 298.907 403.542 300.646 401.277 300.646H37.0234C34.7579 300.646 32.9145 298.907 32.9145 296.771V42.0545C32.9145 39.9181 34.7579 38.1796 37.0234 38.1796H401.277C403.542 38.1796 405.386 39.9181 405.386 42.0545V296.771Z" fill="white"/>
<path d="M401.277 27.6211H37.0234C28.5818 27.6211 21.7188 34.094 21.7188 42.0542V296.771C21.7188 304.731 28.5825 311.204 37.0234 311.204H401.277C409.718 311.204 416.581 304.731 416.581 296.771V42.0542C416.582 34.094 409.718 27.6211 401.277 27.6211ZM405.646 296.771C405.646 299.043 403.686 300.891 401.277 300.891H37.0234C34.6146 300.891 32.6543 299.043 32.6543 296.771V42.0549C32.6543 39.7826 34.614 37.9346 37.0234 37.9346H401.277C403.686 37.9346 405.646 39.7826 405.646 42.0549V296.771H405.646Z" fill="#030303"/>
<path d="M36.237 312.658C36.0547 312.648 35.8724 312.638 35.6901 312.624C35.5963 312.618 35.5078 312.614 35.414 312.604C35.3777 312.599 35.3361 312.594 35.2997 312.594C35.06 312.569 34.8209 312.539 34.5864 312.51C34.3103 312.471 34.0448 312.427 33.774 312.377C33.5085 312.328 33.243 312.274 32.9828 312.216C32.7278 312.152 32.4722 312.088 32.2226 312.019C32.2067 312.014 32.1915 312.009 32.1809 312.009C31.9313 311.936 31.681 311.857 31.4366 311.779C31.1816 311.695 30.9313 311.607 30.6869 311.509C30.4419 311.415 30.1975 311.317 29.9578 311.209C29.7543 311.121 29.5516 311.027 29.3534 310.934C29.3171 310.914 29.2808 310.895 29.2438 310.88C29.0093 310.762 28.7749 310.645 28.551 310.517C27.874 310.144 27.228 309.732 26.619 309.279C26.6085 309.269 26.6032 309.264 26.5933 309.26C26.1871 308.955 25.7915 308.632 25.4163 308.298C25.4057 308.293 25.4005 308.283 25.3952 308.278C25.2076 308.111 25.0253 307.94 24.8483 307.763C24.7439 307.665 24.6449 307.566 24.5465 307.463C24.3853 307.291 24.2182 307.114 24.0623 306.932C23.958 306.82 23.8589 306.706 23.7605 306.584C23.5366 306.313 23.318 306.034 23.1093 305.749C23.0366 305.646 22.9633 305.543 22.8906 305.439C22.8226 305.341 22.7552 305.238 22.6872 305.14C22.5412 304.924 22.4058 304.707 22.2757 304.481C22.213 304.374 22.1509 304.26 22.0882 304.152C21.5155 303.131 21.0571 302.046 20.7342 300.906C20.7084 300.818 20.682 300.724 20.6615 300.631C20.6252 300.509 20.5935 300.386 20.5677 300.263C20.4112 299.62 20.3022 298.961 20.2342 298.294C20.2236 298.181 20.2131 298.073 20.2031 297.96C20.1721 297.567 20.1562 297.169 20.1562 296.771V42.0552C20.1562 41.6572 20.1721 41.2598 20.2031 40.8667C20.2137 40.744 20.2243 40.6163 20.2395 40.4936C20.3075 39.8359 20.4165 39.1968 20.5677 38.5684C20.5935 38.4407 20.6252 38.318 20.6615 38.1953C20.6873 38.0875 20.719 37.9741 20.75 37.8714C21.073 36.7514 21.5261 35.6813 22.0882 34.6742C22.1509 34.5614 22.213 34.4531 22.2757 34.3453C22.536 33.9031 22.8173 33.4758 23.1192 33.0584C23.1918 32.965 23.2651 32.8672 23.3378 32.7688C23.4732 32.5919 23.6139 32.415 23.7598 32.2431C24.135 31.7915 24.5359 31.3642 24.9626 30.9513C25.0564 30.8578 25.1501 30.7694 25.2492 30.681C25.2961 30.6318 25.3483 30.5875 25.3952 30.5483C25.4421 30.5041 25.489 30.4598 25.5359 30.4256C25.6818 30.2879 25.8324 30.1602 25.9889 30.0375C26.1296 29.9198 26.2809 29.8015 26.4315 29.6887C26.4942 29.6395 26.5563 29.5903 26.619 29.5461C26.6554 29.5168 26.6917 29.4869 26.734 29.4626C26.8951 29.3449 27.0569 29.2266 27.2234 29.1138C27.2392 29.1088 27.2491 29.0989 27.265 29.0845C27.4631 28.9519 27.6712 28.8242 27.8746 28.6965C27.8958 28.6865 27.9162 28.6722 27.9374 28.6573C28.1401 28.5395 28.3436 28.4218 28.5516 28.3085C28.7755 28.1808 29.01 28.063 29.2445 27.9453C29.2808 27.9254 29.3171 27.9111 29.3541 27.8911C29.5522 27.7977 29.755 27.7049 29.9584 27.6164C30.1982 27.5087 30.4426 27.4103 30.6876 27.3168C30.9326 27.2184 31.1823 27.13 31.4372 27.0465C32.1922 26.7961 32.9735 26.5949 33.7753 26.4473C34.0461 26.3981 34.3117 26.3539 34.5877 26.3146C34.8222 26.2854 35.0613 26.2555 35.3011 26.2312C35.3374 26.2312 35.379 26.2262 35.4153 26.2212C35.5349 26.2063 35.6597 26.1963 35.7852 26.1963C35.6861 26.2013 35.587 26.2112 35.4886 26.2212C35.2383 26.2455 34.9887 26.2754 34.7443 26.3097C34.6241 26.3246 34.5045 26.3439 34.3903 26.3688C34.239 26.3888 34.0937 26.4131 33.9477 26.4423C33.7238 26.4816 33.5052 26.5308 33.2919 26.585C33.0574 26.6391 32.8229 26.6977 32.5937 26.7668C32.4009 26.821 32.2133 26.8796 32.0264 26.9437C31.6255 27.0714 31.2299 27.2141 30.8494 27.381C30.7299 27.4252 30.6097 27.4794 30.4954 27.533C30.3131 27.6114 30.1308 27.6949 29.9538 27.7834C29.938 27.7933 29.9228 27.7983 29.9069 27.8077C29.7035 27.9111 29.506 28.0138 29.3079 28.1222C29.2973 28.1272 29.2867 28.1322 29.2814 28.1371C29.1408 28.2156 29.0001 28.2941 28.8647 28.3776C28.7451 28.4461 28.6249 28.5202 28.5107 28.5937C28.4849 28.6087 28.4585 28.628 28.4327 28.6479C28.2452 28.7656 28.0576 28.8933 27.8753 29.021C27.6983 29.1437 27.5213 29.2714 27.3495 29.4091C27.3079 29.4334 27.2716 29.4633 27.2399 29.4975C27.0682 29.6202 26.9017 29.7579 26.7399 29.9055C26.5576 30.0575 26.3806 30.2194 26.2089 30.382C26.0576 30.5196 25.907 30.6666 25.7611 30.8192C25.7248 30.8585 25.6831 30.8977 25.6415 30.9419C25.5009 31.0939 25.3602 31.2515 25.2195 31.4085C25.0583 31.5854 24.9071 31.7672 24.7664 31.9535C24.6469 32.1011 24.5319 32.2481 24.4282 32.4001C24.3655 32.4736 24.314 32.552 24.2565 32.6312C24.1891 32.7246 24.1211 32.8224 24.059 32.9258C23.991 33.0192 23.9289 33.1126 23.8714 33.2104C23.7519 33.4017 23.6317 33.5935 23.5227 33.7897C23.4547 33.9074 23.3873 34.0301 23.3246 34.1528C23.1733 34.4375 23.028 34.7321 22.8979 35.0317C22.8563 35.1251 22.8147 35.2235 22.7731 35.3213C22.7103 35.4689 22.6535 35.6159 22.5961 35.7679C22.5234 35.9592 22.4554 36.156 22.3926 36.3522C22.3246 36.5484 22.2678 36.7502 22.2103 36.9514C22.2051 36.9613 22.2051 36.9707 22.2051 36.9807C22.1423 37.2018 22.0855 37.4229 22.0386 37.6434C22.0386 37.6583 22.0333 37.6677 22.0333 37.6777C21.997 37.8446 21.9607 38.0115 21.9395 38.1784C21.7936 38.9595 21.7209 39.7599 21.7209 40.5802V298.243C21.7209 298.528 21.7315 298.818 21.752 299.098C21.7573 299.25 21.7678 299.402 21.783 299.55C21.7936 299.678 21.8088 299.805 21.8299 299.933C21.8352 299.997 21.8458 300.056 21.851 300.115C21.8722 300.287 21.8979 300.454 21.9343 300.621C21.9395 300.645 21.9395 300.665 21.9448 300.689C21.9607 300.792 21.9812 300.896 22.0023 300.999C22.0129 301.048 22.0234 301.097 22.0333 301.147C22.0386 301.166 22.0439 301.181 22.0439 301.201C22.0749 301.353 22.1119 301.5 22.1535 301.652C22.1694 301.716 22.1846 301.78 22.2057 301.844C22.2632 302.055 22.3253 302.266 22.3933 302.473C22.4613 302.679 22.5287 302.885 22.6066 303.082C22.6119 303.092 22.6119 303.096 22.6172 303.106C22.6535 303.209 22.6899 303.307 22.7367 303.406C22.742 303.421 22.7473 303.43 22.7526 303.445C22.7942 303.558 22.8411 303.666 22.888 303.774C22.8933 303.784 22.8933 303.789 22.8986 303.798C23.034 304.098 23.1746 304.387 23.3252 304.673C23.388 304.795 23.4554 304.913 23.5234 305.036C23.633 305.232 23.7526 305.424 23.8721 305.615C23.9296 305.713 23.9917 305.806 24.0597 305.9C24.1218 305.998 24.1898 306.096 24.2572 306.194C24.3094 306.273 24.3668 306.351 24.4289 306.425C24.5333 306.577 24.6475 306.725 24.7671 306.872C24.9077 307.058 25.059 307.24 25.2201 307.417C25.3344 307.555 25.4599 307.692 25.59 307.824C25.6059 307.844 25.6263 307.864 25.6422 307.883C25.6838 307.927 25.7254 307.966 25.7617 308.006C25.7776 308.02 25.7928 308.035 25.8034 308.05C25.9388 308.182 26.0742 308.315 26.2095 308.443C26.3449 308.575 26.4803 308.698 26.6157 308.816C26.6263 308.821 26.6369 308.831 26.6468 308.84C26.7042 308.894 26.7663 308.949 26.8344 308.997C26.9592 309.11 27.0893 309.213 27.2194 309.312C27.261 309.346 27.3026 309.38 27.3495 309.415C27.5213 309.548 27.693 309.68 27.8753 309.803C28.0054 309.902 28.1355 309.989 28.2709 310.073C28.2815 310.083 28.2967 310.093 28.3125 310.103C28.4169 310.172 28.5206 310.24 28.6249 310.304C28.8019 310.412 28.9842 310.525 29.1718 310.628C29.1824 310.633 29.1929 310.638 29.2028 310.647C29.3277 310.716 29.4525 310.785 29.5826 310.848C29.6507 310.888 29.7233 310.927 29.796 310.961C29.9314 311.03 30.0668 311.099 30.2022 311.157C30.3792 311.246 30.5667 311.329 30.7543 311.403C30.8897 311.461 31.0251 311.52 31.1605 311.575C31.2127 311.595 31.2596 311.614 31.3118 311.634C31.4577 311.688 31.603 311.742 31.7543 311.791C31.8428 311.825 31.9366 311.854 32.0304 311.884C32.0515 311.889 32.0667 311.899 32.0878 311.904C32.2543 311.958 32.4214 312.007 32.5931 312.056C32.7701 312.11 32.9524 312.159 33.1347 312.199C33.1604 312.209 33.1816 312.214 33.2073 312.219C33.2701 312.234 33.3322 312.248 33.3949 312.263C33.5666 312.307 33.7436 312.341 33.9207 312.376C33.9312 312.376 33.9365 312.381 33.9464 312.381C34.0924 312.41 34.2383 312.435 34.3889 312.454C34.5032 312.478 34.6234 312.498 34.743 312.513C34.9873 312.547 35.2377 312.577 35.4873 312.602C35.7317 312.628 35.9866 312.648 36.237 312.658Z" fill="url(#paint0_linear_862_8)"/>
<path d="M37.023 312.677C36.7594 312.677 36.4972 312.671 36.2363 312.658C36.4972 312.669 36.7594 312.677 37.023 312.677Z" fill="#DFDFDF"/>
<path d="M418.144 42.0543V296.771C418.144 297.169 418.128 297.566 418.097 297.959C418.086 298.072 418.076 298.18 418.066 298.293C417.998 298.961 417.889 299.619 417.732 300.262C417.707 300.385 417.675 300.508 417.639 300.63C417.618 300.724 417.592 300.817 417.566 300.905C417.243 302.044 416.785 303.13 416.212 304.152C416.149 304.259 416.087 304.373 416.024 304.48C415.894 304.707 415.759 304.923 415.613 305.139C415.545 305.237 415.477 305.34 415.41 305.438C415.337 305.542 415.264 305.645 415.192 305.748C414.983 306.033 414.765 306.313 414.541 306.583C414.442 306.705 414.343 306.818 414.239 306.931C414.083 307.113 413.916 307.29 413.755 307.462C413.656 307.566 413.557 307.663 413.453 307.762C413.276 307.939 413.094 308.111 412.906 308.277C412.901 308.282 412.896 308.292 412.885 308.297C412.51 308.631 412.114 308.955 411.708 309.259C411.698 309.264 411.692 309.269 411.682 309.278C411.073 309.73 410.427 310.143 409.75 310.516C409.527 310.644 409.292 310.761 409.058 310.879C409.021 310.894 408.985 310.913 408.948 310.933C408.75 311.027 408.547 311.12 408.344 311.208C408.104 311.316 407.86 311.414 407.614 311.508C407.37 311.606 407.12 311.695 406.865 311.778C406.62 311.856 406.37 311.935 406.12 312.008C406.109 312.008 406.094 312.013 406.078 312.018C405.829 312.087 405.573 312.151 405.318 312.215C405.058 312.274 404.792 312.328 404.527 312.377C404.256 312.426 403.99 312.47 403.714 312.509C403.48 312.539 403.241 312.568 403.001 312.593C402.965 312.593 402.923 312.598 402.886 312.603C402.792 312.613 402.704 312.618 402.61 312.623C402.678 312.618 402.745 312.608 402.813 312.603C403.063 312.583 403.313 312.553 403.558 312.514C403.677 312.499 403.798 312.48 403.912 312.455C404.063 312.435 404.208 312.411 404.354 312.382C404.605 312.332 404.849 312.278 405.094 312.22C405.302 312.17 405.511 312.117 405.708 312.058C405.88 312.008 406.047 311.96 406.214 311.906C406.531 311.802 406.838 311.695 407.141 311.577C407.276 311.523 407.412 311.464 407.547 311.405C407.735 311.331 407.922 311.248 408.099 311.16C408.235 311.095 408.37 311.032 408.505 310.963C408.578 310.929 408.651 310.89 408.719 310.851C408.859 310.782 408.995 310.708 409.13 310.629C409.318 310.526 409.5 310.413 409.677 310.306C409.782 310.242 409.885 310.173 409.99 310.104C410.141 310.011 410.286 309.908 410.427 309.805C410.604 309.682 410.781 309.554 410.953 309.417C410.999 309.382 411.041 309.348 411.083 309.313C411.213 309.215 411.343 309.112 411.468 308.999C411.535 308.95 411.598 308.895 411.655 308.842C411.807 308.714 411.953 308.586 412.093 308.444C412.244 308.306 412.394 308.159 412.54 308.007C412.577 307.967 412.618 307.928 412.66 307.884C412.801 307.732 412.941 307.574 413.082 307.417C413.243 307.24 413.394 307.059 413.535 306.872C413.655 306.725 413.769 306.578 413.874 306.426C413.937 306.352 413.993 306.274 414.046 306.195C414.113 306.096 414.181 305.998 414.244 305.9C414.311 305.807 414.374 305.713 414.431 305.615C414.551 305.424 414.671 305.232 414.78 305.036C414.848 304.913 414.915 304.796 414.978 304.673C415.129 304.388 415.269 304.098 415.405 303.798C415.457 303.681 415.504 303.563 415.551 303.445C415.603 303.327 415.65 303.204 415.697 303.082C415.775 302.885 415.843 302.678 415.91 302.472C415.977 302.266 416.04 302.055 416.098 301.844C416.165 301.618 416.217 301.382 416.269 301.146C416.311 300.974 416.342 300.797 416.369 300.621C416.509 299.849 416.582 299.054 416.582 298.244V40.5812C416.582 39.7609 416.509 38.9605 416.363 38.1794C416.343 38.0125 416.306 37.8456 416.269 37.6786C416.269 37.6687 416.264 37.6587 416.264 37.6444C416.217 37.4232 416.16 37.2021 416.098 36.9816C416.098 36.9717 416.098 36.9617 416.092 36.9524C416.035 36.7512 415.977 36.5494 415.91 36.3532C415.847 36.1569 415.78 35.9601 415.707 35.7689C415.65 35.6163 415.592 35.4693 415.53 35.3223C415.489 35.2239 415.447 35.1261 415.406 35.0327C415.275 34.7331 415.129 34.4384 414.979 34.1538C414.916 34.0311 414.849 33.9084 414.781 33.7907C414.671 33.5945 414.552 33.4026 414.432 33.2114C414.375 33.113 414.312 33.0202 414.244 32.9267C414.182 32.824 414.114 32.7256 414.046 32.6321C413.989 32.5536 413.937 32.4752 413.875 32.401C413.77 32.2491 413.656 32.1015 413.536 31.9545C413.395 31.7676 413.244 31.5863 413.083 31.4094C412.942 31.2525 412.801 31.0949 412.661 30.9429C412.619 30.8987 412.577 30.8594 412.541 30.8202C412.395 30.6682 412.244 30.5206 412.093 30.383C411.921 30.221 411.744 30.059 411.562 29.9064C411.401 29.7588 411.234 29.6218 411.062 29.4985C411.031 29.4642 410.995 29.4343 410.953 29.41C410.781 29.2724 410.605 29.1447 410.427 29.022C410.245 28.8943 410.058 28.7666 409.87 28.6489C409.844 28.6296 409.818 28.6096 409.792 28.5947C409.678 28.5212 409.558 28.4471 409.438 28.3786C409.303 28.2951 409.162 28.2166 409.021 28.1381C409.016 28.1331 409.005 28.1282 408.996 28.1232C408.797 28.0154 408.6 27.912 408.397 27.8086C408.381 27.7987 408.365 27.7937 408.35 27.7843C408.173 27.6959 407.99 27.6124 407.808 27.5339C407.693 27.4798 407.574 27.4262 407.454 27.382C407.074 27.215 406.678 27.0724 406.277 26.9447C406.089 26.8806 405.902 26.822 405.71 26.7678C405.48 26.6993 405.246 26.6401 405.012 26.5859C404.798 26.5317 404.58 26.4825 404.356 26.4433C404.21 26.414 404.064 26.3891 403.913 26.3698C403.799 26.3455 403.679 26.3256 403.559 26.3106C403.314 26.2764 403.064 26.2465 402.814 26.2222C402.715 26.2122 402.616 26.2022 402.518 26.1973C402.642 26.1973 402.768 26.2072 402.887 26.2222C402.924 26.2272 402.965 26.2321 403.002 26.2321C403.242 26.2564 403.481 26.2863 403.716 26.3156C403.992 26.3549 404.257 26.3991 404.528 26.4483C405.33 26.5959 406.111 26.7971 406.866 27.0475C407.121 27.1309 407.371 27.2194 407.616 27.3178C407.861 27.4112 408.105 27.509 408.345 27.6174C408.548 27.7059 408.751 27.7993 408.949 27.8921C408.986 27.912 409.022 27.9264 409.059 27.9463C409.293 28.064 409.528 28.1817 409.752 28.3094C409.96 28.4222 410.163 28.5405 410.366 28.6582C410.387 28.6732 410.408 28.6875 410.429 28.6975C410.632 28.8252 410.84 28.9528 411.038 29.0855C411.054 29.1005 411.064 29.1098 411.079 29.1148C411.246 29.2275 411.408 29.3452 411.569 29.4636C411.61 29.4879 411.647 29.5178 411.683 29.5471C411.746 29.5913 411.808 29.6405 411.871 29.6897C412.022 29.8024 412.172 29.9208 412.313 30.0385C412.47 30.1612 412.62 30.2889 412.766 30.4266C412.813 30.4608 412.86 30.505 412.907 30.5493C412.954 30.5885 413.006 30.6327 413.053 30.6819C413.152 30.7704 413.246 30.8588 413.34 30.9523C413.766 31.3646 414.168 31.7919 414.542 32.2441C414.688 32.416 414.829 32.5929 414.964 32.7698C415.037 32.8682 415.11 32.966 415.183 33.0594C415.485 33.4767 415.766 33.904 416.026 34.3463C416.089 34.454 416.151 34.5624 416.214 34.6751C416.777 35.6817 417.229 36.7524 417.552 37.8723C417.583 37.9757 417.615 38.0885 417.641 38.1962C417.677 38.3189 417.709 38.4416 417.734 38.5693C417.886 39.1978 417.995 39.8362 418.063 40.4946C418.078 40.6173 418.088 40.745 418.099 40.8677C418.128 41.2589 418.144 41.6569 418.144 42.0543Z" fill="url(#paint1_linear_862_8)"/>
<path d="M401.275 312.677C401.539 312.677 401.801 312.669 402.062 312.658C401.802 312.671 401.54 312.677 401.275 312.677Z" fill="#DFDFDF"/>
<path d="M416.582 40.5806V42.0537C416.582 34.0928 409.718 27.6206 401.277 27.6206H37.0234C28.5825 27.6206 21.7188 34.0934 21.7188 42.0537V40.5806C21.7188 39.7603 21.7914 38.9599 21.9374 38.1788C21.9585 38.0119 21.9948 37.845 22.0312 37.678C22.0312 37.6681 22.0364 37.6581 22.0364 37.6438C22.0833 37.4226 22.1408 37.2015 22.2029 36.981C22.2029 36.9711 22.2029 36.9611 22.2082 36.9518C22.2656 36.7506 22.3224 36.5488 22.3905 36.3526C22.4532 36.1564 22.5206 35.9595 22.5939 35.7683C22.6513 35.6157 22.7081 35.4687 22.7709 35.3217C22.8125 35.2233 22.8541 35.1255 22.8957 35.0321C23.0258 34.7325 23.1718 34.4379 23.3224 34.1532C23.3851 34.0305 23.4525 33.9078 23.5205 33.7901C23.6302 33.5939 23.7497 33.402 23.8693 33.2108C23.9267 33.1124 23.9888 33.0196 24.0568 32.9261C24.1189 32.8234 24.187 32.725 24.2543 32.6315C24.3065 32.5531 24.364 32.4746 24.4261 32.4004C24.5304 32.2485 24.6447 32.1009 24.7642 31.9539C24.9102 31.767 25.0614 31.5857 25.2173 31.4089C25.358 31.2519 25.4987 31.0943 25.6394 30.9423C25.681 30.8981 25.7226 30.8589 25.7589 30.8196C25.9049 30.672 26.0555 30.525 26.2067 30.3824C26.3784 30.2204 26.5554 30.0585 26.7377 29.9059C26.8989 29.7632 27.066 29.6305 27.2377 29.4979C27.2688 29.4636 27.3057 29.4337 27.3474 29.4094C27.5191 29.2768 27.6908 29.1491 27.8731 29.0214C28.0554 28.8937 28.243 28.766 28.4305 28.6483C28.4563 28.629 28.4827 28.609 28.5085 28.5941C28.6234 28.5206 28.7429 28.4465 28.8625 28.378C28.9979 28.2945 29.1386 28.216 29.2793 28.1375C29.2845 28.1326 29.2951 28.1276 29.3057 28.1226C29.5038 28.0148 29.7013 27.9114 29.9047 27.808C29.9206 27.7981 29.9358 27.7931 29.9516 27.7837C30.1286 27.6953 30.3109 27.6118 30.4932 27.5333C30.6081 27.4792 30.7277 27.4256 30.8472 27.3814C31.2277 27.2144 31.6233 27.0718 32.0242 26.9441C32.2118 26.88 32.3994 26.8214 32.5916 26.7672C32.8208 26.7037 33.0552 26.6395 33.2897 26.5853C33.503 26.5312 33.7217 26.4819 33.9456 26.4427C34.0915 26.4134 34.2375 26.3885 34.3881 26.3692C34.5023 26.3449 34.6225 26.325 34.7421 26.31C34.9865 26.2758 35.2368 26.2459 35.4865 26.2216C35.5855 26.2116 35.6846 26.2017 35.783 26.1967C35.9343 26.1817 36.0848 26.1724 36.2361 26.1674C36.4963 26.1525 36.7566 26.1475 37.0221 26.1475H401.275C401.541 26.1475 401.801 26.1525 402.062 26.1674C402.213 26.1724 402.364 26.1823 402.515 26.1967C402.614 26.2017 402.713 26.2116 402.812 26.2216C403.062 26.2459 403.312 26.2758 403.557 26.31C403.676 26.325 403.796 26.3443 403.911 26.3692C404.062 26.3891 404.207 26.4134 404.353 26.4427C404.577 26.4819 404.796 26.5312 405.009 26.5853C405.244 26.6395 405.478 26.7031 405.707 26.7672C405.9 26.8214 406.088 26.88 406.275 26.9441C406.676 27.0718 407.071 27.2144 407.452 27.3814C407.571 27.4256 407.691 27.4798 407.806 27.5333C407.988 27.6118 408.17 27.6953 408.347 27.7837C408.363 27.7937 408.378 27.7987 408.394 27.808C408.597 27.9114 408.795 28.0142 408.993 28.1226C409.004 28.1276 409.014 28.1326 409.019 28.1375C409.16 28.216 409.3 28.2945 409.436 28.378C409.555 28.4465 409.675 28.5206 409.79 28.5941C409.815 28.609 409.842 28.6284 409.868 28.6483C410.055 28.766 410.243 28.8937 410.425 29.0214C410.607 29.1491 410.779 29.2768 410.951 29.4094C410.992 29.4337 411.029 29.4636 411.06 29.4979C411.231 29.6305 411.399 29.7632 411.56 29.9059C411.742 30.0578 411.919 30.2198 412.091 30.3824C412.242 30.525 412.393 30.672 412.539 30.8196C412.575 30.8589 412.616 30.8981 412.658 30.9423C412.799 31.0943 412.94 31.2519 413.08 31.4089C413.237 31.5857 413.387 31.7676 413.533 31.9539C413.653 32.1015 413.768 32.2485 413.872 32.4004C413.935 32.4739 413.992 32.5524 414.044 32.6315C414.111 32.725 414.179 32.8228 414.242 32.9261C414.309 33.0196 414.372 33.113 414.43 33.2108C414.549 33.402 414.669 33.5939 414.778 33.7901C414.846 33.9078 414.914 34.0305 414.976 34.1532C415.128 34.4379 415.273 34.7325 415.403 35.0321C415.445 35.1255 415.486 35.2239 415.528 35.3217C415.591 35.4693 415.647 35.6163 415.705 35.7683C415.778 35.9595 415.846 36.1564 415.908 36.3526C415.975 36.5488 416.033 36.7506 416.09 36.9518C416.095 36.9617 416.095 36.9711 416.095 36.981C416.158 37.2022 416.215 37.4233 416.262 37.6438C416.262 37.6587 416.267 37.6681 416.267 37.678C416.303 37.845 416.34 38.0119 416.361 38.1788C416.509 38.9599 416.582 39.7603 416.582 40.5806Z" fill="url(#paint2_linear_862_8)"/>
<path d="M416.582 296.771V298.244C416.582 299.054 416.509 299.849 416.369 300.62C416.343 300.797 416.311 300.974 416.27 301.146C416.217 301.382 416.165 301.618 416.098 301.844C416.04 302.055 415.978 302.266 415.91 302.472C415.842 302.678 415.775 302.885 415.697 303.081C415.65 303.204 415.603 303.327 415.551 303.445C415.504 303.562 415.457 303.68 415.405 303.798C415.27 304.098 415.129 304.388 414.978 304.673C414.916 304.796 414.848 304.913 414.78 305.036C414.671 305.232 414.551 305.424 414.431 305.615C414.374 305.714 414.312 305.807 414.244 305.9C414.181 305.998 414.114 306.096 414.046 306.195C413.994 306.273 413.936 306.352 413.874 306.426C413.77 306.578 413.655 306.725 413.535 306.872C413.389 307.058 413.239 307.24 413.082 307.417C412.941 307.574 412.801 307.732 412.66 307.884C412.618 307.928 412.577 307.967 412.541 308.006C412.395 308.154 412.244 308.301 412.093 308.444C411.952 308.576 411.806 308.709 411.655 308.842C411.598 308.896 411.536 308.95 411.468 308.999C411.343 309.107 411.213 309.21 411.083 309.313C411.041 309.348 411 309.382 410.953 309.417C410.781 309.549 410.609 309.682 410.427 309.805C410.286 309.907 410.14 310.006 409.99 310.104C409.885 310.173 409.782 310.242 409.677 310.305C409.5 310.413 409.318 310.527 409.13 310.629C408.995 310.708 408.86 310.781 408.719 310.851C408.652 310.89 408.578 310.929 408.506 310.963C408.37 311.032 408.235 311.096 408.099 311.159C407.922 311.248 407.735 311.331 407.547 311.405C407.412 311.463 407.277 311.523 407.141 311.577C406.839 311.694 406.532 311.803 406.214 311.906C406.047 311.96 405.88 312.008 405.709 312.058C405.51 312.117 405.302 312.171 405.094 312.22C404.849 312.279 404.605 312.332 404.355 312.381C404.209 312.411 404.063 312.436 403.912 312.455C403.798 312.479 403.678 312.499 403.558 312.514C403.313 312.548 403.063 312.578 402.813 312.603C402.746 312.608 402.678 312.618 402.61 312.623C402.428 312.637 402.246 312.647 402.063 312.657C401.944 312.662 401.829 312.667 401.709 312.671C401.563 312.676 401.423 312.676 401.277 312.676H37.0234C36.8774 312.676 36.7367 312.676 36.5914 312.671C36.4719 312.666 36.3569 312.661 36.2374 312.657C36.0551 312.647 35.8728 312.637 35.6905 312.623C35.6225 312.618 35.5551 312.608 35.4871 312.603C35.2368 312.578 34.9871 312.548 34.7427 312.514C34.6225 312.499 34.503 312.48 34.3887 312.455C34.2375 312.435 34.0922 312.411 33.9462 312.381C33.9356 312.381 33.9303 312.377 33.9204 312.377C33.7434 312.342 33.5664 312.308 33.3947 312.264C33.3319 312.249 33.2699 312.235 33.2071 312.22C33.1813 312.215 33.1602 312.21 33.1345 312.2C32.9522 312.16 32.7699 312.111 32.5929 312.057C32.4211 312.008 32.2547 311.959 32.0876 311.905C32.0665 311.9 32.0513 311.89 32.0301 311.885C31.9363 311.856 31.8426 311.827 31.7541 311.792C31.6028 311.742 31.4575 311.688 31.3115 311.635C31.2594 311.615 31.2125 311.595 31.1603 311.576C31.0249 311.521 30.8895 311.463 30.7541 311.404C30.5665 311.33 30.3789 311.247 30.2019 311.158C30.0665 311.099 29.9311 311.03 29.7957 310.962C29.7231 310.928 29.6498 310.888 29.5824 310.849C29.4523 310.786 29.3275 310.717 29.2026 310.648C29.1921 310.638 29.1815 310.633 29.1716 310.629C28.984 310.525 28.8017 310.413 28.6247 310.305C28.5203 310.241 28.4167 310.172 28.3123 310.104C28.2964 310.094 28.2812 310.084 28.2707 310.074C28.1353 309.986 27.9999 309.897 27.8751 309.804C27.6928 309.681 27.521 309.549 27.3493 309.416C27.3024 309.382 27.2608 309.347 27.2192 309.313C27.0891 309.209 26.959 309.106 26.8341 308.998C26.7661 308.949 26.704 308.895 26.6466 308.841C26.636 308.831 26.6254 308.822 26.6155 308.817C26.4748 308.689 26.3394 308.566 26.2093 308.444C26.0739 308.316 25.9385 308.183 25.8031 308.051C25.7926 308.036 25.7774 308.021 25.7615 308.006C25.7252 307.967 25.6836 307.928 25.642 307.884C25.6261 307.864 25.6056 307.844 25.5898 307.825C25.465 307.693 25.3454 307.555 25.2199 307.418C25.0634 307.241 24.9128 307.059 24.7668 306.873C24.6473 306.725 24.5324 306.578 24.4287 306.426C24.3659 306.353 24.3091 306.274 24.2569 306.195C24.1896 306.097 24.1215 305.999 24.0595 305.901C23.9914 305.807 23.9293 305.714 23.8719 305.616C23.7523 305.425 23.6321 305.233 23.5232 305.037C23.4551 304.914 23.3878 304.796 23.325 304.673C23.1738 304.389 23.0337 304.099 22.8983 303.799C22.8931 303.789 22.8931 303.784 22.8878 303.775C22.8409 303.667 22.794 303.554 22.7524 303.446C22.7471 303.431 22.7418 303.422 22.7365 303.407C22.6896 303.308 22.6533 303.21 22.617 303.107C22.6117 303.097 22.6117 303.093 22.6064 303.083C22.5285 302.886 22.4604 302.68 22.3931 302.474C22.325 302.267 22.263 302.056 22.2055 301.845C22.1844 301.781 22.1692 301.717 22.1533 301.653C22.1117 301.501 22.0754 301.354 22.0437 301.202C22.0437 301.182 22.0384 301.167 22.0331 301.147C22.0225 301.098 22.012 301.049 22.0021 301C21.9816 300.896 21.9605 300.794 21.9446 300.69C21.9393 300.666 21.9393 300.646 21.934 300.622C21.903 300.455 21.8766 300.288 21.8508 300.116C21.8455 300.057 21.835 299.998 21.8297 299.934C21.8085 299.806 21.7986 299.679 21.7828 299.551C21.7669 299.403 21.757 299.251 21.7517 299.099C21.7306 298.819 21.7207 298.53 21.7207 298.244V296.771C21.7207 304.732 28.5844 311.204 37.0253 311.204H401.279C409.718 311.204 416.582 304.731 416.582 296.771Z" fill="url(#paint3_linear_862_8)"/>
<path d="M389.236 47.8613H39.9672C38.3329 47.8644 36.7667 48.5165 35.6121 49.6745C34.4574 50.8325 33.8088 52.4018 33.8086 54.038V288.066C33.8109 289.701 34.4606 291.268 35.615 292.423C36.7695 293.579 38.3346 294.23 39.9672 294.232H389.236C390.868 294.23 392.433 293.579 393.588 292.423C394.742 291.268 395.392 289.701 395.394 288.066V54.0385C395.394 52.4027 394.746 50.8338 393.592 49.6758C392.438 48.5179 390.872 47.8655 389.238 47.8618L389.236 47.8613Z" fill="white"/>
<path d="M126.728 67.4043C132.449 67.4043 138.042 69.1028 142.799 72.2851C147.556 75.4674 151.263 79.9905 153.453 85.2825C155.642 90.5745 156.215 96.3976 155.099 102.015C153.982 107.633 151.227 112.794 147.182 116.844C143.137 120.894 137.982 123.653 132.371 124.77C126.76 125.888 120.943 125.314 115.658 123.122C110.372 120.93 105.854 117.218 102.676 112.455C99.4973 107.693 97.8008 102.093 97.8008 96.3655C97.8008 88.6845 100.848 81.3181 106.273 75.8868C111.698 70.4556 119.056 67.4043 126.728 67.4043Z" fill="#3083E9"/>
<path d="M126.727 69.6318C132.008 69.6318 137.171 71.1997 141.562 74.1372C145.953 77.0748 149.375 81.25 151.396 86.1349C153.417 91.0198 153.946 96.395 152.916 101.581C151.886 106.767 149.343 111.53 145.608 115.269C141.874 119.007 137.116 121.554 131.936 122.585C126.757 123.617 121.388 123.087 116.509 121.064C111.63 119.04 107.459 115.614 104.525 111.218C101.591 106.821 100.025 101.653 100.025 96.3653C100.025 89.2752 102.839 82.4754 107.846 77.4619C112.854 72.4484 119.645 69.6318 126.727 69.6318Z" fill="#F2F2F2"/>
<path d="M127.163 109.622H127.152C126.413 109.621 125.683 109.463 125.009 109.159C124.336 108.854 123.734 108.411 123.245 107.857C123.124 107.754 123.035 107.619 122.99 107.466C122.946 107.314 122.946 107.152 122.993 107C123.149 106.684 123.363 106.4 123.623 106.162C123.763 106.013 123.92 105.843 124.077 105.657L124.222 105.649H130.091C130.185 105.73 130.276 105.807 130.363 105.882L130.369 105.887C130.624 106.096 130.867 106.319 131.095 106.557C131.192 106.636 131.27 106.737 131.322 106.851C131.375 106.964 131.401 107.089 131.399 107.214C131.396 107.34 131.366 107.463 131.309 107.575C131.252 107.687 131.17 107.784 131.07 107.86C130.58 108.413 129.979 108.857 129.305 109.16C128.632 109.464 127.902 109.622 127.163 109.622ZM137.661 104.32H116.654C116.35 104.325 116.054 104.221 115.818 104.027C115.605 103.846 115.453 103.603 115.384 103.332C115.313 103.061 115.326 102.775 115.423 102.511C115.532 102.226 115.74 101.988 116.007 101.841C116.242 101.713 116.489 101.608 116.744 101.528C117.078 101.45 117.381 101.276 117.617 101.027C117.8 100.67 117.915 100.282 117.957 99.8821L117.967 99.8242V94.9792C118.044 93.252 118.541 91.5697 119.416 90.0789C120.29 88.5881 121.516 87.334 122.985 86.4259L123.312 86.2325L123.325 86.1755C123.42 85.7972 123.593 85.4434 123.835 85.1378C124.077 84.8322 124.381 84.5819 124.728 84.4038C125.082 84.206 125.459 84.0512 125.85 83.9427C126.251 83.8296 126.661 83.7482 127.075 83.6993L127.314 83.6769C127.871 83.7998 128.416 83.9735 128.942 84.1959C129.379 84.3753 129.789 84.6122 130.163 84.9003C130.522 85.1621 130.791 85.5279 130.934 85.948L130.993 86.1741L131.005 86.2311C132.454 87.0582 133.688 88.2171 134.604 89.613C135.522 91.0139 136.099 92.6115 136.287 94.2767L136.324 94.6574L136.349 95.0404V98.9259L136.287 99.8246C136.289 99.8411 136.289 99.8577 136.287 99.8741V99.8788C136.264 100.084 136.283 100.292 136.344 100.49C136.404 100.688 136.504 100.871 136.639 101.028C136.858 101.202 137.111 101.326 137.382 101.392C137.635 101.463 137.875 101.571 138.097 101.711L138.31 101.843C138.566 101.984 138.766 102.208 138.88 102.477C138.981 102.725 139.005 102.999 138.949 103.261C138.895 103.525 138.764 103.768 138.573 103.959C138.367 104.159 138.1 104.284 137.814 104.312L137.661 104.32ZM113.703 92.894C113.453 92.8943 113.205 92.841 112.976 92.7376C112.762 92.6419 112.57 92.5038 112.411 92.3316C112.258 92.1668 112.14 91.9735 112.063 91.7627C111.986 91.5546 111.951 91.3331 111.961 91.1114C111.97 90.8897 112.024 90.6722 112.119 90.4716C112.743 89.1441 113.506 87.8874 114.398 86.723C115.293 85.5543 116.31 84.484 117.431 83.5298C117.783 83.2328 118.236 83.0842 118.695 83.1155C119.154 83.1468 119.583 83.3555 119.891 83.6975C120.041 83.8654 120.156 84.0619 120.229 84.2752C120.302 84.4885 120.331 84.7143 120.315 84.9392C120.299 85.164 120.238 85.3833 120.135 85.5841C120.033 85.7849 119.891 85.9629 119.719 86.1078C118.783 86.9031 117.935 87.7957 117.188 88.7703C116.445 89.7417 115.808 90.79 115.288 91.8972C115.146 92.2004 114.918 92.4551 114.632 92.6297C114.353 92.8021 114.032 92.8937 113.703 92.894ZM140.067 92.894C139.762 92.8933 139.465 92.8019 139.212 92.6315C138.945 92.4505 138.736 92.1962 138.61 91.8991C138.138 90.7998 137.554 89.7521 136.867 88.7722C136.189 87.8056 135.41 86.9131 134.545 86.1097C134.22 85.805 134.023 85.387 133.997 84.9419C133.965 84.4944 134.103 84.0513 134.385 83.7021C134.529 83.5194 134.713 83.3712 134.922 83.2687C135.131 83.1661 135.36 83.1117 135.593 83.1094C135.982 83.112 136.357 83.2622 136.641 83.5298C137.679 84.4933 138.613 85.5638 139.427 86.7234C140.252 87.8978 140.953 89.1539 141.52 90.472C141.699 90.8868 141.716 91.3535 141.567 91.78C141.498 91.9869 141.389 92.1782 141.246 92.3429C141.103 92.5076 140.929 92.6425 140.734 92.7399C140.527 92.8418 140.298 92.8945 140.067 92.894Z" fill="#3083E9"/>
<path d="M179.888 100.103H335.878C338.955 100.103 341.45 103.448 341.45 107.576C341.45 111.704 338.955 115.05 335.878 115.05H179.888C176.811 115.05 174.316 111.704 174.316 107.576C174.316 103.448 176.811 100.103 179.888 100.103Z" fill="#F2F2F2"/>
<path d="M347.929 151.018H80.1222C77.0301 151.018 74.5234 153.527 74.5234 156.623V269.198C74.5234 272.294 77.0301 274.803 80.1222 274.803H347.929C351.021 274.803 353.527 272.294 353.527 269.198V156.623C353.527 153.527 351.021 151.018 347.929 151.018Z" fill="#F2F2F2"/>
<path d="M181.781 77.6807H273.694C275.674 77.6807 277.573 78.4681 278.973 79.8697C280.373 81.2713 281.159 83.1723 281.159 85.1545C281.159 87.1367 280.373 89.0377 278.973 90.4393C277.573 91.8409 275.674 92.6284 273.694 92.6284H181.781C179.802 92.6284 177.903 91.8409 176.503 90.4393C175.103 89.0377 174.316 87.1367 174.316 85.1545C174.316 83.1723 175.103 81.2713 176.503 79.8697C177.903 78.4681 179.802 77.6807 181.781 77.6807Z" fill="#3083E9"/>
<path d="M142.641 177.644H92.2525C90.7064 177.644 89.4531 178.898 89.4531 180.446V197.262C89.4531 198.81 90.7064 200.065 92.2525 200.065H142.641C144.187 200.065 145.441 198.81 145.441 197.262V180.446C145.441 178.898 144.187 177.644 142.641 177.644Z" fill="white"/>
<path d="M142.641 209.874H92.2525C90.7064 209.874 89.4531 211.129 89.4531 212.677V229.493C89.4531 231.041 90.7064 232.296 92.2525 232.296H142.641C144.187 232.296 145.441 231.041 145.441 229.493V212.677C145.441 211.129 144.187 209.874 142.641 209.874Z" fill="white"/>
<path d="M142.641 242.105H92.2525C90.7064 242.105 89.4531 243.36 89.4531 244.908V261.724C89.4531 263.272 90.7064 264.527 92.2525 264.527H142.641C144.187 264.527 145.441 263.272 145.441 261.724V244.908C145.441 243.36 144.187 242.105 142.641 242.105Z" fill="white"/>
<path d="M335.799 177.644H285.411C283.865 177.644 282.611 178.898 282.611 180.446V197.262C282.611 198.81 283.865 200.065 285.411 200.065H335.799C337.345 200.065 338.599 198.81 338.599 197.262V180.446C338.599 178.898 337.345 177.644 335.799 177.644Z" fill="white"/>
<path d="M335.799 209.874H285.411C283.865 209.874 282.611 211.129 282.611 212.677V229.493C282.611 231.041 283.865 232.296 285.411 232.296H335.799C337.345 232.296 338.599 231.041 338.599 229.493V212.677C338.599 211.129 337.345 209.874 335.799 209.874Z" fill="white"/>
<path d="M335.799 242.105H285.411C283.865 242.105 282.611 243.36 282.611 244.908V261.724C282.611 263.272 283.865 264.527 285.411 264.527H335.799C337.345 264.527 338.599 263.272 338.599 261.724V244.908C338.599 243.36 337.345 242.105 335.799 242.105Z" fill="white"/>
<path d="M271.413 177.644H221.024C219.478 177.644 218.225 178.898 218.225 180.446V197.262C218.225 198.81 219.478 200.065 221.024 200.065H271.413C272.959 200.065 274.212 198.81 274.212 197.262V180.446C274.212 178.898 272.959 177.644 271.413 177.644Z" fill="white"/>
<path d="M271.413 209.874H221.024C219.478 209.874 218.225 211.129 218.225 212.677V229.493C218.225 231.041 219.478 232.296 221.024 232.296H271.413C272.959 232.296 274.212 231.041 274.212 229.493V212.677C274.212 211.129 272.959 209.874 271.413 209.874Z" fill="white"/>
<path d="M271.413 242.105H221.024C219.478 242.105 218.225 243.36 218.225 244.908V261.724C218.225 263.272 219.478 264.527 221.024 264.527H271.413C272.959 264.527 274.212 263.272 274.212 261.724V244.908C274.212 243.36 272.959 242.105 271.413 242.105Z" fill="white"/>
<path d="M207.028 177.644H156.639C155.093 177.644 153.84 178.898 153.84 180.446V197.262C153.84 198.81 155.093 200.065 156.639 200.065H207.028C208.574 200.065 209.827 198.81 209.827 197.262V180.446C209.827 178.898 208.574 177.644 207.028 177.644Z" fill="#3083E9"/>
<path d="M207.028 209.874H156.639C155.093 209.874 153.84 211.129 153.84 212.677V229.493C153.84 231.041 155.093 232.296 156.639 232.296H207.028C208.574 232.296 209.827 231.041 209.827 229.493V212.677C209.827 211.129 208.574 209.874 207.028 209.874Z" fill="white"/>
<path d="M207.028 242.105H156.639C155.093 242.105 153.84 243.36 153.84 244.908V261.724C153.84 263.272 155.093 264.527 156.639 264.527H207.028C208.574 264.527 209.827 263.272 209.827 261.724V244.908C209.827 243.36 208.574 242.105 207.028 242.105Z" fill="white"/>
<path d="M181.833 167.834C184.925 167.834 187.432 165.324 187.432 162.228C187.432 159.133 184.925 156.623 181.833 156.623C178.741 156.623 176.234 159.133 176.234 162.228C176.234 165.324 178.741 167.834 181.833 167.834Z" fill="#3083E9"/>
<path d="M246.22 167.834C249.312 167.834 251.819 165.324 251.819 162.228C251.819 159.133 249.312 156.623 246.22 156.623C243.128 156.623 240.621 159.133 240.621 162.228C240.621 165.324 243.128 167.834 246.22 167.834Z" fill="#3083E9"/>
<defs>
<linearGradient id="paint0_linear_862_8" x1="20.1562" y1="169.427" x2="36.2368" y2="169.427" gradientUnits="userSpaceOnUse">
<stop stop-color="#F1F1F1"/>
<stop offset="0.0591" stop-color="#DDDDDD"/>
<stop offset="0.1453" stop-color="#C7C7C7"/>
<stop offset="0.2467" stop-color="#B6B6B6"/>
<stop offset="0.3711" stop-color="#AAAAAA"/>
<stop offset="0.5437" stop-color="#A3A3A3"/>
<stop offset="1" stop-color="#A1A1A1"/>
</linearGradient>
<linearGradient id="paint1_linear_862_8" x1="402.516" y1="169.41" x2="418.144" y2="169.41" gradientUnits="userSpaceOnUse">
<stop stop-color="#A1A1A1"/>
<stop offset="0.4563" stop-color="#A3A3A3"/>
<stop offset="0.6289" stop-color="#AAAAAA"/>
<stop offset="0.7533" stop-color="#B6B6B6"/>
<stop offset="0.8547" stop-color="#C7C7C7"/>
<stop offset="0.9409" stop-color="#DDDDDD"/>
<stop offset="1" stop-color="#F1F1F1"/>
</linearGradient>
<linearGradient id="paint2_linear_862_8" x1="21.7189" y1="34.1007" x2="416.582" y2="34.1007" gradientUnits="userSpaceOnUse">
<stop stop-color="#C9C9C9"/>
<stop offset="0.4778" stop-color="#F1F1F1"/>
<stop offset="0.636" stop-color="#ECECEC"/>
<stop offset="0.819" stop-color="#DEDEDE"/>
<stop offset="1" stop-color="#C9C9C9"/>
</linearGradient>
<linearGradient id="paint3_linear_862_8" x1="21.7189" y1="304.724" x2="416.582" y2="304.724" gradientUnits="userSpaceOnUse">
<stop stop-color="#C9C9C9"/>
<stop offset="0.4778" stop-color="#F1F1F1"/>
<stop offset="0.636" stop-color="#ECECEC"/>
<stop offset="0.819" stop-color="#DEDEDE"/>
<stop offset="1" stop-color="#C9C9C9"/>
</linearGradient>
</defs>
</svg>
